<svg xmlns="http://www.w3.org/2000/svg" width="805" height="600"><rect width="805" height="600" x="0" y="0" fill="#FFFFFF" id="backgorund"/><g transform="translate(402.5,300)" id="viz"><path fill="#d4d4d4" display="" d="M0.9999920729479248,-287.99826391118063A288,288,0,0,1,265.44795525955203,-111.72011031377852L133.45227597351067,-56.70529108901519A145,145,0,0,0,0.999992072947915,-144.99655173780528Z"><title>Light</title></path><path fill="#d4d4d4" display="" d="M266.2173779788091,-109.8740536345496A288,288,0,0,1,281.7470997808734,59.68728311011134L141.95391130488454,29.564963474440006A145,145,0,0,0,134.22169869276772,-54.859234409786275Z"><title>Circle</title></path><path fill="#d4d4d4" display="" d="M281.32581698087506,61.64239369170518A288,288,0,0,1,206.96698419840678,200.271484370133L104.54679692324835,100.47371423954162A145,145,0,0,0,141.53262850488625,31.52007405603384Z"><title>Triangle</title></path><path fill="#d4d4d4" display="" d="M205.57123896554586,201.70390603597752A288,288,0,0,1,104.46043061255915,268.3878135017287L53.05533394423149,134.944920393715A145,145,0,0,0,103.15105169038743,101.9061359053861Z"><title>Other</title></path><path fill="#d4d4d4" display="" d="M102.59413358336745,269.1067515954926A288,288,0,0,1,-16.0348789069261,287.55326925361186L-7.577309187622574,144.8018797718979A145,145,0,0,0,51.189036915039786,135.66385848747888Z"><title>Unknown</title></path><path fill="#d4d4d4" display="" d="M-18.031362105825743,287.4349839191614A288,288,0,0,1,-133.4525387318876,255.21445865392116L-66.7492468095373,128.72271769334066A145,145,0,0,0,-9.573792386522216,144.68359443744743Z"><title>Fireball</title></path><path fill="#d4d4d4" display="" d="M-135.221618784588,254.28156404520473A288,288,0,0,1,-216.87312104796962,189.49947062436013L-108.86224321610268,95.78106285669472A145,145,0,0,0,-68.51832686223763,127.78982308462425Z"><title>Disk</title></path><path fill="#d4d4d4" display="" d="M-218.18384192581954,187.98885903821264A288,288,0,0,1,-266.22142834100697,109.86423936875045L-133.84489553757308,55.77225061386849A145,145,0,0,0,-110.17296409395259,94.27045127054733Z"><title>Sphere</title></path><path fill="#d4d4d4" display="" d="M-266.9779445972499,108.01285617290074A288,288,0,0,1,-286.1303084644569,32.76349459436142L-144.0013313319965,16.988719039779358A145,145,0,0,0,-134.60141179381603,53.92086741801883Z"><title>Unspecified</title></path><path fill="#d4d4d4" display="" d="M-286.35093030551553,30.77571629005218A288,288,0,0,1,-284.44512619640506,-45.11064378958922L-143.28715366919022,-22.22142194779329A145,145,0,0,0,-144.22195317305514,15.000940735470188Z"><title>Oval</title></path><path fill="#d4d4d4" display="" d="M-284.1250035901807,-47.08484188016138A288,288,0,0,1,-266.04979782510327,-110.27921416668548L-134.13802575684062,-55.06350920579945A145,145,0,0,0,-142.96703106296587,-24.19562003836538Z"><title>Orb</title></path><path fill="#d4d4d4" display="" d="M-265.2775655710422,-112.12409734174628A288,288,0,0,1,-237.71879902762623,-162.58466283405414L-119.96441628859701,-81.44653967196028A145,145,0,0,0,-133.3657935027796,-56.90839238086019Z"><title>Formation</title></path><path fill="#d4d4d4" display="" d="M-236.58402268484238,-164.23154450426992A288,288,0,0,1,-207.71035957954328,-199.50039228867905L-104.91973417359503,-100.08421144687185A145,145,0,0,0,-118.82963994581321,-83.09342134217601Z"><title>Changing</title></path><path fill="#d4d4d4" display="" d="M-206.31995115360735,-200.93799480430044A288,288,0,0,1,-173.53748468737817,-229.84503781543336L-87.76705782973083,-115.4207241352812A145,145,0,0,0,-103.52932574765916,-101.5218139624932Z"><title>Cigar</title></path><path fill="#d4d4d4" display="" d="M-171.93717648276132,-231.04460033321658A288,288,0,0,1,-147.28797043006162,-247.48788610070048L-74.58165140030383,-124.34861187163916A145,145,0,0,0,-86.166749625114,-116.62028665306443Z"><title>Rectangle</title></path><path fill="#d4d4d4" display="" d="M-145.56577709088918,-248.5047374597224A288,288,0,0,1,-120.66296093071526,-261.5042061983567L-61.2009422967935,-131.45130148455948A145,145,0,0,0,-72.85945806113143,-125.36546323066106Z"><title>Cylinder</title></path><path fill="#d4d4d4" display="" d="M-118.84407538310766,-262.3358262729935A288,288,0,0,1,-92.83948680190481,-272.6258052539395L-47.21185240292448,-137.09865423367393A145,145,0,0,0,-59.38205674918596,-132.2829215591962Z"><title>Flash</title></path><path fill="#d4d4d4" display="" d="M-90.94403989249764,-273.26394128759796A288,288,0,0,1,-67.86445455460785,-279.8900066240407L-34.65021507285971,-140.79901489500756A145,145,0,0,0,-45.316405493517365,-137.73679026733237Z"><title>Diamond</title></path><path fill="#d4d4d4" display="" d="M-65.91916471110075,-280.35453219769926A288,288,0,0,1,-47.001419399140154,-284.13881567724275L-24.153643195608144,-142.97412884987008A145,145,0,0,0,-32.704925229352675,-141.26354046866604Z"><title>Chevron</title></path><path fill="#d4d4d4" display="" d="M-45.02712740414082,-284.4583586357259A288,288,0,0,1,-31.490590637507566,-286.2731959183411L-16.348097360224976,-144.07546533917775A145,145,0,0,0,-22.179351200608885,-143.29367180835322Z"><title>Egg</title></path><path fill="#d4d4d4" display="" d="M-29.50185076566678,-286.4849748266047A288,288,0,0,1,-16.27442666665494,-287.5398112204146L-8.6894101116982,-144.7394008275242A145,145,0,0,0,-14.35935748838426,-144.28724424744132Z"><title>Teardrop</title></path><path fill="#d4d4d4" display="" d="M-14.277257874249594,-287.64589325695613A288,288,0,0,1,-8.803028676734138,-287.8654315580747L-4.928352206986001,-144.916221812894A145,145,0,0,0,-6.692241319292921,-144.8454828640657Z"><title>Cone</title></path><path fill="#d4d4d4" display="" d="M-6.803778815920749,-287.9196217589625A288,288,0,0,1,-2.691118322117776,-287.9874266043161L-1.8514034874565977,-144.988179880729A145,145,0,0,0,-2.929102346172679,-144.97041201378178Z"><title>Cross</title></path><path fill="#d4d4d4" display="" d="M-0.9019523405898345,-287.9985876388551L-0.4541079492552986,-144.9992889153958Z"><title>Star</title></path><path fill="#d4d4d4" display="" d="M-0.0626356811030375,-287.99999318883926L-0.031535325555348735,-144.99999657076975Z"><title>Cube</title></path><path fill="#d4d4d4" display="" d="M-0.006263568159183941,-287.9999999318884L-0.0031535325801446924,-144.9999999657077Z"><title>Delta</title></path></g><g id="labels" transform="translate(402.5,300)" text-anchor="middle"><text transform="rotate(90) translate(72.5,0) rotate(180)"><tspan x="0" y="4" style="font-family: Arial, sans-serif; font-size: 10px; fill: black; font-weight: normal; font-style: italic;"/></text><text transform="rotate(-56.313005794352414) translate(217.5,0) rotate(0)"><tspan x="0" y="4" style="font-family: Arial, sans-serif; font-size: 10px; fill: black; font-weight: normal; font-style: italic;">Light</tspan></text><text transform="rotate(-5.232985579885224) translate(217.5,0) rotate(0)"><tspan x="0" y="4" style="font-family: Arial, sans-serif; font-size: 10px; fill: black; font-weight: normal; font-style: italic;">Circle</tspan></text><text transform="rotate(28.208527459138395) translate(217.5,0) rotate(0)"><tspan x="0" y="4" style="font-family: Arial, sans-serif; font-size: 10px; fill: black; font-weight: normal; font-style: italic;">Triangle</tspan></text><text transform="rotate(56.59462378245911) translate(217.5,0) rotate(0)"><tspan x="0" y="4" style="font-family: Arial, sans-serif; font-size: 10px; fill: black; font-weight: normal; font-style: italic;">Other</tspan></text><text transform="rotate(81.16143190424432) translate(217.5,0) rotate(0)"><tspan x="0" y="4" style="font-family: Arial, sans-serif; font-size: 10px; fill: black; font-weight: normal; font-style: italic;">Unknown</tspan></text><text transform="rotate(105.59739981031629) translate(217.5,0) rotate(180)"><tspan x="0" y="4" style="font-family: Arial, sans-serif; font-size: 10px; fill: black; font-weight: normal; font-style: italic;">Fireball</tspan></text><text transform="rotate(128.4283944036386) translate(217.5,0) rotate(180)"><tspan x="0" y="4" style="font-family: Arial, sans-serif; font-size: 10px; fill: black; font-weight: normal; font-style: italic;">Disk</tspan></text><text transform="rotate(148.41330278087378) translate(217.5,0) rotate(180)"><tspan x="0" y="4" style="font-family: Arial, sans-serif; font-size: 10px; fill: black; font-weight: normal; font-style: italic;">Sphere</tspan></text><text transform="rotate(165.7203480765104) translate(217.5,0) rotate(180)"><tspan x="0" y="4" style="font-family: Arial, sans-serif; font-size: 10px; fill: black; font-weight: normal; font-style: italic;">Unspecified</tspan></text><text transform="rotate(181.43861932419992) translate(217.5,0) rotate(180)"><tspan x="0" y="4" style="font-family: Arial, sans-serif; font-size: 10px; fill: black; font-weight: normal; font-style: italic;">Oval</tspan></text><text transform="rotate(195.96188326837478) translate(217.5,0) rotate(180)"><tspan x="0" y="4" style="font-family: Arial, sans-serif; font-size: 10px; fill: black; font-weight: normal; font-style: italic;">Orb</tspan></text><text transform="rotate(208.64092321963847) translate(217.5,0) rotate(180)"><tspan x="0" y="4" style="font-family: Arial, sans-serif; font-size: 10px; fill: black; font-weight: normal; font-style: italic;">Formation</tspan></text><text transform="rotate(219.30626994621014) translate(217.5,0) rotate(180)"><tspan x="0" y="4" style="font-family: Arial, sans-serif; font-size: 10px; fill: black; font-weight: normal; font-style: italic;">Changing</tspan></text><text transform="rotate(228.59467916456094) translate(217.5,0) rotate(180)"><tspan x="0" y="4" style="font-family: Arial, sans-serif; font-size: 10px; fill: black; font-weight: normal; font-style: italic;">Cigar</tspan></text><text transform="rotate(236.2930682376723) translate(217.5,0) rotate(180)"><tspan x="0" y="4" style="font-family: Arial, sans-serif; font-size: 10px; fill: black; font-weight: normal; font-style: italic;">Rectangle</tspan></text><text transform="rotate(242.43508179244174) translate(217.5,0) rotate(180)"><tspan x="0" y="4" style="font-family: Arial, sans-serif; font-size: 10px; fill: black; font-weight: normal; font-style: italic;">Cylinder</tspan></text><text transform="rotate(248.41136440730764) translate(217.5,0) rotate(180)"><tspan x="0" y="4" style="font-family: Arial, sans-serif; font-size: 10px; fill: black; font-weight: normal; font-style: italic;">Flash</tspan></text><text transform="rotate(253.9814193048162) translate(217.5,0) rotate(180)"><tspan x="0" y="4" style="font-family: Arial, sans-serif; font-size: 10px; fill: black; font-weight: normal; font-style: italic;">Diamond</tspan></text><text transform="rotate(258.687928778617) translate(217.5,0) rotate(180)"><tspan x="0" y="4" style="font-family: Arial, sans-serif; font-size: 10px; fill: black; font-weight: normal; font-style: italic;">Chevron</tspan></text><text transform="rotate(262.3639157915141) translate(217.5,0) rotate(180)"><tspan x="0" y="4" style="font-family: Arial, sans-serif; font-size: 10px; fill: black; font-weight: normal; font-style: italic;">Egg</tspan></text><text transform="rotate(265.4405300067151) translate(217.5,0) rotate(180)"><tspan x="0" y="4" style="font-family: Arial, sans-serif; font-size: 10px; fill: black; font-weight: normal; font-style: italic;">Teardrop</tspan></text><text transform="rotate(267.7034426899087) translate(217.5,0) rotate(180)"><tspan x="0" y="4" style="font-family: Arial, sans-serif; font-size: 10px; fill: black; font-weight: normal; font-style: italic;">Cone</tspan></text><text transform="rotate(269.0554582522793) translate(217.5,0) rotate(180)"><tspan x="0" y="4" style="font-family: Arial, sans-serif; font-size: 10px; fill: black; font-weight: normal; font-style: italic;">Cross</tspan></text><text transform="rotate(269.82056198987897) translate(217.5,0) rotate(180)"><tspan x="0" y="4" style="font-family: Arial, sans-serif; font-size: 10px; fill: black; font-weight: normal; font-style: italic;">Star</tspan></text><text transform="rotate(269.98753902707494) translate(217.5,0) rotate(180)"><tspan x="0" y="4" style="font-family: Arial, sans-serif; font-size: 10px; fill: black; font-weight: normal; font-style: italic;">Cube</tspan></text><text transform="rotate(269.9987539027075) translate(217.5,0) rotate(180)"><tspan x="0" y="4" style="font-family: Arial, sans-serif; font-size: 10px; fill: black; font-weight: normal; font-style: italic;">Delta</tspan></text></g></svg>