<svg xmlns="http://www.w3.org/2000/svg" width="805" height="600"><rect width="805" height="600" x="0" y="0" fill="#FFFFFF" id="backgorund"/><g id="viz"><g transform="translate(0,0)"><g transform="translate(10,20)"><g><path fill="#f1e7d0" d="M0,560C3.191056910569106,560,3.191056910569106,560,6.382113821138212,560C9.573170731707318,560,9.573170731707318,560,12.764227642276424,560C15.95528455284553,560,15.95528455284553,560,19.146341463414636,560C22.337398373983742,560,22.337398373983742,560,25.528455284552848,560C28.71951219512195,560,28.71951219512195,559.8755555555556,31.910569105691057,559.8755555555556C35.10162601626016,559.8755555555556,35.10162601626016,559.9377777777778,38.29268292682927,559.9377777777778C41.483739837398375,559.9377777777778,41.483739837398375,559.9377777777778,44.67479674796748,559.9377777777778C47.86585365853659,559.9377777777778,47.86585365853659,560,51.056910569105696,560C54.2479674796748,560,54.2479674796748,560,57.4390243902439,560C60.630081300813,560,60.630081300813,559.8133333333334,63.82113821138211,559.8133333333334C67.01219512195122,559.8133333333334,67.01219512195122,560,70.20325203252033,560C73.39430894308944,560,73.39430894308944,560,76.58536585365854,560C79.77642276422765,560,79.77642276422765,560,82.96747967479675,560C86.15853658536585,560,86.15853658536585,559.8755555555556,89.34959349593495,559.8755555555556C92.54065040650406,559.8755555555556,92.54065040650406,560,95.73170731707317,560C98.92276422764229,560,98.92276422764229,559.9377777777778,102.11382113821139,559.9377777777778C105.3048780487805,559.9377777777778,105.3048780487805,559.8755555555556,108.4959349593496,559.8755555555556C111.6869918699187,559.8755555555556,111.6869918699187,559.9377777777778,114.8780487804878,559.9377777777778C118.0691056910569,559.9377777777778,118.0691056910569,560,121.26016260162602,560C124.45121951219512,560,124.45121951219512,559.8133333333334,127.64227642276423,559.8133333333334C130.83333333333334,559.8133333333334,130.83333333333334,560,134.02439024390245,560C137.21544715447155,560,137.21544715447155,559.9377777777778,140.40650406504065,559.9377777777778C143.59756097560975,559.9377777777778,143.59756097560975,560,146.78861788617886,560C149.979674796748,560,149.979674796748,560,153.1707317073171,560C156.3617886178862,560,156.3617886178862,559.9377777777778,159.5528455284553,559.9377777777778C162.7439024390244,559.9377777777778,162.7439024390244,560,165.9349593495935,560C169.1260162601626,560,169.1260162601626,560,172.3170731707317,560C175.5081300813008,560,175.5081300813008,559.9377777777778,178.6991869918699,559.9377777777778C181.890243902439,559.9377777777778,181.890243902439,559.8755555555556,185.08130081300814,559.8755555555556C188.27235772357724,559.8755555555556,188.27235772357724,559.6888888888889,191.46341463414635,559.6888888888889C194.65447154471545,559.6888888888889,194.65447154471545,559.8755555555556,197.84552845528455,559.8755555555556C201.03658536585368,559.8755555555556,201.03658536585368,559.8755555555556,204.22764227642278,559.8755555555556C207.4186991869919,559.8755555555556,207.4186991869919,559.9377777777778,210.609756097561,559.9377777777778C213.8008130081301,559.9377777777778,213.8008130081301,559.9377777777778,216.9918699186992,559.9377777777778C220.1829268292683,559.9377777777778,220.1829268292683,559.9377777777778,223.3739837398374,559.9377777777778C226.5650406504065,559.9377777777778,226.5650406504065,559.8133333333334,229.7560975609756,559.8133333333334C232.9471544715447,559.8133333333334,232.9471544715447,559.8133333333334,236.13821138211384,559.8133333333334C239.32926829268294,559.8133333333334,239.32926829268294,559.9377777777778,242.52032520325204,559.9377777777778C245.71138211382114,559.9377777777778,245.71138211382114,559.8133333333334,248.90243902439025,559.8133333333334C252.09349593495935,559.8133333333334,252.09349593495935,559.8755555555556,255.28455284552845,559.8755555555556C258.4756097560975,559.8755555555556,258.4756097560975,559.7511111111111,261.66666666666663,559.7511111111111C264.8577235772358,559.7511111111111,264.8577235772358,559.5644444444445,268.0487804878049,559.5644444444445C271.239837398374,559.5644444444445,271.239837398374,559.3777777777779,274.4308943089431,559.3777777777779C277.6219512195122,559.3777777777779,277.6219512195122,559.1288888888889,280.8130081300813,559.1288888888889C284.0040650406504,559.1288888888889,284.0040650406504,559.0666666666666,287.1951219512195,559.0666666666666C290.3861788617886,559.0666666666666,290.3861788617886,559.1911111111111,293.5772357723577,559.1911111111111C296.7682926829268,559.1911111111111,296.7682926829268,556.8266666666666,299.959349593496,556.8266666666666C303.1504065040651,556.8266666666666,303.1504065040651,559.1288888888889,306.3414634146342,559.1288888888889C309.5325203252033,559.1288888888889,309.5325203252033,558.5688888888889,312.7235772357724,558.5688888888889C315.9146341463415,558.5688888888889,315.9146341463415,557.4488888888889,319.1056910569106,557.4488888888889C322.2967479674797,557.4488888888889,322.2967479674797,558.1333333333333,325.4878048780488,558.1333333333333C328.6788617886179,558.1333333333333,328.6788617886179,555.8311111111111,331.869918699187,555.8311111111111C335.0609756097561,555.8311111111111,335.0609756097561,557.1377777777778,338.2520325203252,557.1377777777778C341.4430894308943,557.1377777777778,341.4430894308943,555.7688888888889,344.6341463414634,555.7688888888889C347.8252032520325,555.7688888888889,347.8252032520325,556.8266666666666,351.0162601626016,556.8266666666666C354.2073170731707,556.8266666666666,354.2073170731707,556.08,357.3983739837398,556.08C360.589430894309,556.08,360.589430894309,554.2133333333334,363.7804878048781,554.2133333333334C366.9715447154472,554.2133333333334,366.9715447154472,555.7688888888889,370.1626016260163,555.7688888888889C373.3536585365854,555.7688888888889,373.3536585365854,555.5822222222223,376.5447154471545,555.5822222222223C379.7357723577236,555.5822222222223,379.7357723577236,554.2133333333334,382.9268292682927,554.2133333333334C386.1178861788618,554.2133333333334,386.1178861788618,555.9555555555555,389.3089430894309,555.9555555555555C392.5,555.9555555555555,392.5,554.2133333333334,395.6910569105691,554.2133333333334C398.8821138211382,554.2133333333334,398.8821138211382,553.28,402.0731707317073,553.28C405.2642276422764,553.28,405.2642276422764,552.4088888888889,408.45528455284557,552.4088888888889C411.6463414634146,552.4088888888889,411.6463414634146,545.3155555555555,414.8373983739837,545.3155555555555C418.0284552845528,545.3155555555555,418.0284552845528,543.6355555555556,421.219512195122,543.6355555555556C424.410569105691,543.6355555555556,424.410569105691,543.4488888888889,427.6016260162601,543.4488888888889C430.79268292682923,543.4488888888889,430.79268292682923,541.9555555555555,433.9837398373984,541.9555555555555C437.17479674796755,541.9555555555555,437.17479674796755,546.9955555555555,440.36585365853665,546.9955555555555C443.55691056910575,546.9955555555555,443.55691056910575,546.8711111111111,446.7479674796748,546.8711111111111C449.93902439024396,546.8711111111111,449.93902439024396,549.9822222222223,453.13008130081306,549.9822222222223C456.32113821138216,549.9822222222223,456.32113821138216,545.3777777777777,459.5121951219512,545.3777777777777C462.7032520325203,545.3777777777777,462.7032520325203,540.7733333333333,465.8943089430894,540.7733333333333C469.0853658536586,540.7733333333333,469.0853658536586,537.7244444444444,472.2764227642277,537.7244444444444C475.4674796747968,537.7244444444444,475.4674796747968,534.3644444444444,478.6585365853658,534.3644444444444C481.849593495935,534.3644444444444,481.849593495935,536.8533333333334,485.0406504065041,536.8533333333334C488.2317073170732,536.8533333333334,488.2317073170732,536.8533333333334,491.42276422764223,536.8533333333334C494.6138211382114,536.8533333333334,494.6138211382114,532.1866666666667,497.8048780487805,532.1866666666667C500.9959349593496,532.1866666666667,500.9959349593496,539.4044444444444,504.18699186991876,539.4044444444444C507.3780487804878,539.4044444444444,507.3780487804878,539.4666666666667,510.5691056910569,539.4666666666667C513.760162601626,539.4666666666667,513.760162601626,546.0622222222222,516.9512195121952,546.0622222222222C520.1422764227642,546.0622222222222,520.1422764227642,544.8177777777778,523.3333333333333,544.8177777777778C526.5243902439024,544.8177777777778,526.5243902439024,544.88,529.7154471544716,544.88C532.9065040650407,544.88,532.9065040650407,545.5022222222223,536.0975609756098,545.5022222222223C539.2886178861788,545.5022222222223,539.2886178861788,542.1422222222222,542.479674796748,542.1422222222222C545.6707317073171,542.1422222222222,545.6707317073171,544.0711111111111,548.8617886178862,544.0711111111111C552.0528455284552,544.0711111111111,552.0528455284552,541.2711111111112,555.2439024390244,541.2711111111112C558.4349593495936,541.2711111111112,558.4349593495936,540.4,561.6260162601626,540.4C564.8170731707316,540.4,564.8170731707316,539.1555555555556,568.0081300813008,539.1555555555556C571.19918699187,539.1555555555556,571.19918699187,538.4711111111111,574.390243902439,538.4711111111111C577.581300813008,538.4711111111111,577.581300813008,540.5244444444444,580.7723577235772,540.5244444444444C583.9634146341464,540.5244444444444,583.9634146341464,538.2844444444445,587.1544715447154,538.2844444444445C590.3455284552845,538.2844444444445,590.3455284552845,534.5511111111111,593.5365853658536,534.5511111111111C596.7276422764228,534.5511111111111,596.7276422764228,526.1511111111112,599.918699186992,526.1511111111112C603.109756097561,526.1511111111112,603.109756097561,465.73333333333335,606.30081300813,465.73333333333335C609.4918699186992,465.73333333333335,609.4918699186992,494.7288888888889,612.6829268292684,494.7288888888889C615.8739837398374,494.7288888888889,615.8739837398374,465.9822222222222,619.0650406504064,465.9822222222222C622.2560975609756,465.9822222222222,622.2560975609756,432.0711111111111,625.4471544715448,432.0711111111111C628.6382113821139,432.0711111111111,628.6382113821139,361.8222222222222,631.829268292683,361.8222222222222C635.020325203252,361.8222222222222,635.020325203252,364.49777777777774,638.2113821138212,364.49777777777774C641.4024390243903,364.49777777777774,641.4024390243903,337.3066666666667,644.5934959349594,337.3066666666667C647.7845528455284,337.3066666666667,647.7845528455284,328.0355555555555,650.9756097560976,328.0355555555555C654.1666666666667,328.0355555555555,654.1666666666667,283.36,657.3577235772358,283.36C660.5487804878048,283.36,660.5487804878048,263.1377777777778,663.739837398374,263.1377777777778C666.9308943089432,263.1377777777778,666.9308943089432,277.2622222222222,670.1219512195122,277.2622222222222C673.3130081300812,277.2622222222222,673.3130081300812,299.1022222222222,676.5040650406504,299.1022222222222C679.6951219512196,299.1022222222222,679.6951219512196,263.51111111111106,682.8861788617886,263.51111111111106C686.0772357723577,263.51111111111106,686.0772357723577,227.54666666666665,689.2682926829268,227.54666666666665C692.459349593496,227.54666666666665,692.459349593496,247.27111111111114,695.6504065040651,247.27111111111114C698.8414634146342,247.27111111111114,698.8414634146342,258.78222222222223,702.0325203252032,258.78222222222223C705.2235772357724,258.78222222222223,705.2235772357724,206.7022222222222,708.4146341463414,206.7022222222222C711.6056910569105,206.7022222222222,711.6056910569105,49.71555555555553,714.7967479674796,49.71555555555553C717.9878048780488,49.71555555555553,717.9878048780488,69.93777777777781,721.1788617886178,69.93777777777781C724.369918699187,69.93777777777781,724.369918699187,13.75111111111111,727.5609756097562,13.75111111111111C730.7520325203252,13.75111111111111,730.7520325203252,123.69777777777779,733.9430894308942,123.69777777777779C737.1341463414634,123.69777777777779,737.1341463414634,200.7911111111111,740.3252032520326,200.7911111111111C743.5162601626016,200.7911111111111,743.5162601626016,238.9333333333333,746.7073170731707,238.9333333333333C749.8983739837398,238.9333333333333,749.8983739837398,339.36,753.089430894309,339.36C756.280487804878,339.36,756.280487804878,160.96888888888887,759.4715447154472,160.96888888888887C762.6626016260163,160.96888888888887,762.6626016260163,98.93333333333332,765.8536585365854,98.93333333333332C769.0447154471544,98.93333333333332,769.0447154471544,334.38222222222225,772.2357723577236,334.38222222222225C775.4268292682927,334.38222222222225,775.4268292682927,246.71111111111114,778.6178861788618,246.71111111111114C781.8089430894308,246.71111111111114,781.8089430894308,474.50666666666666,785,474.50666666666666L785,560C781.8089430894308,560,781.8089430894308,560,778.6178861788618,560C775.4268292682927,560,775.4268292682927,560,772.2357723577236,560C769.0447154471544,560,769.0447154471544,560,765.8536585365854,560C762.6626016260163,560,762.6626016260163,560,759.4715447154472,560C756.280487804878,560,756.280487804878,560,753.089430894309,560C749.8983739837398,560,749.8983739837398,560,746.7073170731707,560C743.5162601626016,560,743.5162601626016,560,740.3252032520326,560C737.1341463414634,560,737.1341463414634,560,733.9430894308942,560C730.7520325203252,560,730.7520325203252,560,727.5609756097562,560C724.369918699187,560,724.369918699187,560,721.1788617886178,560C717.9878048780488,560,717.9878048780488,560,714.7967479674796,560C711.6056910569105,560,711.6056910569105,560,708.4146341463414,560C705.2235772357724,560,705.2235772357724,560,702.0325203252032,560C698.8414634146342,560,698.8414634146342,560,695.6504065040651,560C692.459349593496,560,692.459349593496,560,689.2682926829268,560C686.0772357723577,560,686.0772357723577,560,682.8861788617886,560C679.6951219512196,560,679.6951219512196,560,676.5040650406504,560C673.3130081300812,560,673.3130081300812,560,670.1219512195122,560C666.9308943089432,560,666.9308943089432,560,663.739837398374,560C660.5487804878048,560,660.5487804878048,560,657.3577235772358,560C654.1666666666667,560,654.1666666666667,560,650.9756097560976,560C647.7845528455284,560,647.7845528455284,560,644.5934959349594,560C641.4024390243903,560,641.4024390243903,560,638.2113821138212,560C635.020325203252,560,635.020325203252,560,631.829268292683,560C628.6382113821139,560,628.6382113821139,560,625.4471544715448,560C622.2560975609756,560,622.2560975609756,560,619.0650406504064,560C615.8739837398374,560,615.8739837398374,560,612.6829268292684,560C609.4918699186992,560,609.4918699186992,560,606.30081300813,560C603.109756097561,560,603.109756097561,560,599.918699186992,560C596.7276422764228,560,596.7276422764228,560,593.5365853658536,560C590.3455284552845,560,590.3455284552845,560,587.1544715447154,560C583.9634146341464,560,583.9634146341464,560,580.7723577235772,560C577.581300813008,560,577.581300813008,560,574.390243902439,560C571.19918699187,560,571.19918699187,560,568.0081300813008,560C564.8170731707316,560,564.8170731707316,560,561.6260162601626,560C558.4349593495936,560,558.4349593495936,560,555.2439024390244,560C552.0528455284552,560,552.0528455284552,560,548.8617886178862,560C545.6707317073171,560,545.6707317073171,560,542.479674796748,560C539.2886178861788,560,539.2886178861788,560,536.0975609756098,560C532.9065040650407,560,532.9065040650407,560,529.7154471544716,560C526.5243902439024,560,526.5243902439024,560,523.3333333333333,560C520.1422764227642,560,520.1422764227642,560,516.9512195121952,560C513.760162601626,560,513.760162601626,560,510.5691056910569,560C507.3780487804878,560,507.3780487804878,560,504.18699186991876,560C500.9959349593496,560,500.9959349593496,560,497.8048780487805,560C494.6138211382114,560,494.6138211382114,560,491.42276422764223,560C488.2317073170732,560,488.2317073170732,560,485.0406504065041,560C481.849593495935,560,481.849593495935,560,478.6585365853658,560C475.4674796747968,560,475.4674796747968,560,472.2764227642277,560C469.0853658536586,560,469.0853658536586,560,465.8943089430894,560C462.7032520325203,560,462.7032520325203,560,459.5121951219512,560C456.32113821138216,560,456.32113821138216,560,453.13008130081306,560C449.93902439024396,560,449.93902439024396,560,446.7479674796748,560C443.55691056910575,560,443.55691056910575,560,440.36585365853665,560C437.17479674796755,560,437.17479674796755,560,433.9837398373984,560C430.79268292682923,560,430.79268292682923,560,427.6016260162601,560C424.410569105691,560,424.410569105691,560,421.219512195122,560C418.0284552845528,560,418.0284552845528,560,414.8373983739837,560C411.6463414634146,560,411.6463414634146,560,408.45528455284557,560C405.2642276422764,560,405.2642276422764,560,402.0731707317073,560C398.8821138211382,560,398.8821138211382,560,395.6910569105691,560C392.5,560,392.5,560,389.3089430894309,560C386.1178861788618,560,386.1178861788618,560,382.9268292682927,560C379.7357723577236,560,379.7357723577236,560,376.5447154471545,560C373.3536585365854,560,373.3536585365854,560,370.1626016260163,560C366.9715447154472,560,366.9715447154472,560,363.7804878048781,560C360.589430894309,560,360.589430894309,560,357.3983739837398,560C354.2073170731707,560,354.2073170731707,560,351.0162601626016,560C347.8252032520325,560,347.8252032520325,560,344.6341463414634,560C341.4430894308943,560,341.4430894308943,560,338.2520325203252,560C335.0609756097561,560,335.0609756097561,560,331.869918699187,560C328.6788617886179,560,328.6788617886179,560,325.4878048780488,560C322.2967479674797,560,322.2967479674797,560,319.1056910569106,560C315.9146341463415,560,315.9146341463415,560,312.7235772357724,560C309.5325203252033,560,309.5325203252033,560,306.3414634146342,560C303.1504065040651,560,303.1504065040651,560,299.959349593496,560C296.7682926829268,560,296.7682926829268,560,293.5772357723577,560C290.3861788617886,560,290.3861788617886,560,287.1951219512195,560C284.0040650406504,560,284.0040650406504,560,280.8130081300813,560C277.6219512195122,560,277.6219512195122,560,274.4308943089431,560C271.239837398374,560,271.239837398374,560,268.0487804878049,560C264.8577235772358,560,264.8577235772358,560,261.66666666666663,560C258.4756097560975,560,258.4756097560975,560,255.28455284552845,560C252.09349593495935,560,252.09349593495935,560,248.90243902439025,560C245.71138211382114,560,245.71138211382114,560,242.52032520325204,560C239.32926829268294,560,239.32926829268294,560,236.13821138211384,560C232.9471544715447,560,232.9471544715447,560,229.7560975609756,560C226.5650406504065,560,226.5650406504065,560,223.3739837398374,560C220.1829268292683,560,220.1829268292683,560,216.9918699186992,560C213.8008130081301,560,213.8008130081301,560,210.609756097561,560C207.4186991869919,560,207.4186991869919,560,204.22764227642278,560C201.03658536585368,560,201.03658536585368,560,197.84552845528455,560C194.65447154471545,560,194.65447154471545,560,191.46341463414635,560C188.27235772357724,560,188.27235772357724,560,185.08130081300814,560C181.890243902439,560,181.890243902439,560,178.6991869918699,560C175.5081300813008,560,175.5081300813008,560,172.3170731707317,560C169.1260162601626,560,169.1260162601626,560,165.9349593495935,560C162.7439024390244,560,162.7439024390244,560,159.5528455284553,560C156.3617886178862,560,156.3617886178862,560,153.1707317073171,560C149.979674796748,560,149.979674796748,560,146.78861788617886,560C143.59756097560975,560,143.59756097560975,560,140.40650406504065,560C137.21544715447155,560,137.21544715447155,560,134.02439024390245,560C130.83333333333334,560,130.83333333333334,560,127.64227642276423,560C124.45121951219512,560,124.45121951219512,560,121.26016260162602,560C118.0691056910569,560,118.0691056910569,560,114.8780487804878,560C111.6869918699187,560,111.6869918699187,560,108.4959349593496,560C105.3048780487805,560,105.3048780487805,560,102.11382113821139,560C98.92276422764229,560,98.92276422764229,560,95.73170731707317,560C92.54065040650406,560,92.54065040650406,560,89.34959349593495,560C86.15853658536585,560,86.15853658536585,560,82.96747967479675,560C79.77642276422765,560,79.77642276422765,560,76.58536585365854,560C73.39430894308944,560,73.39430894308944,560,70.20325203252033,560C67.01219512195122,560,67.01219512195122,560,63.82113821138211,560C60.630081300813,560,60.630081300813,560,57.4390243902439,560C54.2479674796748,560,54.2479674796748,560,51.056910569105696,560C47.86585365853659,560,47.86585365853659,560,44.67479674796748,560C41.483739837398375,560,41.483739837398375,560,38.29268292682927,560C35.10162601626016,560,35.10162601626016,560,31.910569105691057,560C28.71951219512195,560,28.71951219512195,560,25.528455284552848,560C22.337398373983742,560,22.337398373983742,560,19.146341463414636,560C15.95528455284553,560,15.95528455284553,560,12.764227642276424,560C9.573170731707318,560,9.573170731707318,560,6.382113821138212,560C3.191056910569106,560,3.191056910569106,560,0,560Z"><title/></path></g><g id="xAxis" transform="translate(0,560)" fill="none" font-size="10" font-family="sans-serif" text-anchor="middle"><path class="domain" stroke="currentColor" d="M0.5,0.5H785.5"/><g class="tick" opacity="1" transform="translate(0.5,0)"><line stroke="currentColor" y2="6"/><text fill="currentColor" y="9" dy="0.71em">1,900</text></g><g class="tick" opacity="1" transform="translate(64.3211382113821,0)"><line stroke="currentColor" y2="6"/><text fill="currentColor" y="9" dy="0.71em">1,910</text></g><g class="tick" opacity="1" transform="translate(128.1422764227642,0)"><line stroke="currentColor" y2="6"/><text fill="currentColor" y="9" dy="0.71em">1,920</text></g><g class="tick" opacity="1" transform="translate(191.96341463414635,0)"><line stroke="currentColor" y2="6"/><text fill="currentColor" y="9" dy="0.71em">1,930</text></g><g class="tick" opacity="1" transform="translate(255.78455284552845,0)"><line stroke="currentColor" y2="6"/><text fill="currentColor" y="9" dy="0.71em">1,940</text></g><g class="tick" opacity="1" transform="translate(319.6056910569106,0)"><line stroke="currentColor" y2="6"/><text fill="currentColor" y="9" dy="0.71em">1,950</text></g><g class="tick" opacity="1" transform="translate(383.4268292682927,0)"><line stroke="currentColor" y2="6"/><text fill="currentColor" y="9" dy="0.71em">1,960</text></g><g class="tick" opacity="1" transform="translate(447.2479674796748,0)"><line stroke="currentColor" y2="6"/><text fill="currentColor" y="9" dy="0.71em">1,970</text></g><g class="tick" opacity="1" transform="translate(511.0691056910569,0)"><line stroke="currentColor" y2="6"/><text fill="currentColor" y="9" dy="0.71em">1,980</text></g><g class="tick" opacity="1" transform="translate(574.890243902439,0)"><line stroke="currentColor" y2="6"/><text fill="currentColor" y="9" dy="0.71em">1,990</text></g><g class="tick" opacity="1" transform="translate(638.7113821138212,0)"><line stroke="currentColor" y2="6"/><text fill="currentColor" y="9" dy="0.71em">2,000</text></g><g class="tick" opacity="1" transform="translate(702.5325203252032,0)"><line stroke="currentColor" y2="6"/><text fill="currentColor" y="9" dy="0.71em">2,010</text></g><g class="tick" opacity="1" transform="translate(766.3536585365854,0)"><line stroke="currentColor" y2="6"/><text fill="currentColor" y="9" dy="0.71em">2,020</text></g></g><text y="556" x="785" text-anchor="end" style="font-family: Arial, sans-serif; font-size: 12px; fill: rgb(123, 123, 123); font-weight: bold;">Year</text><text x="4" text-anchor="start" dominant-baseline="hanging" style="font-family: Arial, sans-serif; font-size: 12px; fill: rgb(123, 123, 123); font-weight: bold;">Sightings</text><g id="labels"><text x="727.5609756097562" y="286.8755555555556" text-anchor="middle" alignment-baseline="middle" style="font-family: Arial, sans-serif; font-size: 10px; fill: black; font-weight: bold;"/></g></g><text x="4" y="4" style="font-family: Arial, sans-serif; font-size: 12px; fill: black; font-weight: bold; dominant-baseline: hanging;"/></g></g></svg>