<svg xmlns="http://www.w3.org/2000/svg" width="600" height="2500"><rect width="600" height="2500" x="0" y="0" fill="#FFFFFF" id="backgorund"/><g id="viz"><g transform="translate(0,0)"><g transform="translate(50,20)"><g class="bars"><rect id="undefined - Unspecified" x="0" y="759.3958128424898" height="90.90628073626529" width="122.985" fill="#9b9b9b"/><rect id="undefined - Changing" x="0" y="1137.3078544330476" height="90.90628073626529" width="73.32428571428572" fill="#9b9b9b"/><rect id="undefined - Chevron" x="0" y="1704.1759168188844" height="90.90628073626529" width="32.785714285714285" fill="#9b9b9b"/><rect id="undefined - Cigar" x="0" y="1231.7858648306872" height="90.90628073626529" width="70.43142857142857" fill="#9b9b9b"/><rect id="undefined - Circle" x="0" y="98.04974005901356" height="90.90628073626529" width="269.19" fill="#9b9b9b"/><rect id="undefined - Cone" x="0" y="1987.6099480118028" height="90.90628073626529" width="11.513571428571428" fill="#9b9b9b"/><rect id="undefined - Cross" x="0" y="2082.0879584094428" height="90.90628073626529" width="9.411428571428571" fill="#9b9b9b"/><rect id="undefined - Cube" x="0" y="2271.043979204721" height="90.90628073626529" width="0.1542857142857143" fill="#9b9b9b"/><rect id="undefined - Cylinder" x="0" y="1420.741885625966" height="90.90628073626529" width="46.34357142857143" fill="#9b9b9b"/><rect id="undefined - Delta" x="0" y="2365.521989602361" height="90.90628073626529" width="0.019285714285714288" fill="#9b9b9b"/><rect id="undefined - Diamond" x="0" y="1609.697906421245" height="90.90628073626529" width="40.05642857142857" fill="#9b9b9b"/><rect id="undefined - Disk" x="0" y="570.4397920472109" height="90.90628073626529" width="164.43" fill="#9b9b9b"/><rect id="undefined - Egg" x="0" y="1798.653927216524" height="90.90628073626529" width="24.107142857142858" fill="#9b9b9b"/><rect id="undefined - Fireball" x="0" y="475.96178164957144" height="90.90628073626529" width="188.92285714285714" fill="#9b9b9b"/><rect id="undefined - Flash" x="0" y="1515.2198960236055" height="90.90628073626529" width="46.15071428571429" fill="#9b9b9b"/><rect id="undefined - Formation" x="0" y="1042.8298440354083" height="90.90628073626529" width="91.74214285714287" fill="#9b9b9b"/><rect id="undefined - Light" x="0" y="3.5717296613740928" height="90.90628073626529" width="521.37" fill="#9b9b9b"/><rect id="undefined - Orb" x="0" y="948.3518336377688" height="90.90628073626529" width="104.49000000000001" fill="#9b9b9b"/><rect id="undefined - Other" x="0" y="287.0057608542925" height="90.90628073626529" width="190.94785714285715" fill="#9b9b9b"/><rect id="undefined - Oval" x="0" y="853.8738232401292" height="90.90628073626529" width="120.285" fill="#9b9b9b"/><rect id="undefined - Rectangle" x="0" y="1326.2638752283267" height="90.90628073626529" width="48.71571428571429" fill="#9b9b9b"/><rect id="undefined - Sphere" x="0" y="664.9178024448504" height="90.90628073626529" width="144.87428571428572" fill="#9b9b9b"/><rect id="undefined - Star" x="0" y="2176.565968807082" height="90.90628073626529" width="2.4299999999999997" fill="#9b9b9b"/><rect id="undefined - Teardrop" x="0" y="1893.1319376141635" height="90.90628073626529" width="23.509285714285717" fill="#9b9b9b"/><rect id="undefined - Triangle" x="0" y="192.52775045665302" height="90.90628073626529" width="248.38071428571428" fill="#9b9b9b"/><rect id="undefined - Unknown" x="0" y="381.48377125193196" height="90.90628073626529" width="189.26999999999998" fill="#9b9b9b"/></g><g id="xAxis" transform="translate(0,2460)" fill="none" font-size="10" font-family="sans-serif" text-anchor="middle"><path class="domain" stroke="currentColor" d="M0.5,6V0.5H540.5V6"/><g class="tick" opacity="1" transform="translate(0.5,0)"><line stroke="currentColor" y2="6"/><text fill="currentColor" y="9" dy="0.71em">0</text></g><g class="tick" opacity="1" transform="translate(39.07142857142857,0)"><line stroke="currentColor" y2="6"/><text fill="currentColor" y="9" dy="0.71em">2,000</text></g><g class="tick" opacity="1" transform="translate(77.64285714285714,0)"><line stroke="currentColor" y2="6"/><text fill="currentColor" y="9" dy="0.71em">4,000</text></g><g class="tick" opacity="1" transform="translate(116.21428571428571,0)"><line stroke="currentColor" y2="6"/><text fill="currentColor" y="9" dy="0.71em">6,000</text></g><g class="tick" opacity="1" transform="translate(154.78571428571428,0)"><line stroke="currentColor" y2="6"/><text fill="currentColor" y="9" dy="0.71em">8,000</text></g><g class="tick" opacity="1" transform="translate(193.35714285714286,0)"><line stroke="currentColor" y2="6"/><text fill="currentColor" y="9" dy="0.71em">10,000</text></g><g class="tick" opacity="1" transform="translate(231.92857142857142,0)"><line stroke="currentColor" y2="6"/><text fill="currentColor" y="9" dy="0.71em">12,000</text></g><g class="tick" opacity="1" transform="translate(270.5,0)"><line stroke="currentColor" y2="6"/><text fill="currentColor" y="9" dy="0.71em">14,000</text></g><g class="tick" opacity="1" transform="translate(309.07142857142856,0)"><line stroke="currentColor" y2="6"/><text fill="currentColor" y="9" dy="0.71em">16,000</text></g><g class="tick" opacity="1" transform="translate(347.64285714285717,0)"><line stroke="currentColor" y2="6"/><text fill="currentColor" y="9" dy="0.71em">18,000</text></g><g class="tick" opacity="1" transform="translate(386.2142857142857,0)"><line stroke="currentColor" y2="6"/><text fill="currentColor" y="9" dy="0.71em">20,000</text></g><g class="tick" opacity="1" transform="translate(424.7857142857143,0)"><line stroke="currentColor" y2="6"/><text fill="currentColor" y="9" dy="0.71em">22,000</text></g><g class="tick" opacity="1" transform="translate(463.35714285714283,0)"><line stroke="currentColor" y2="6"/><text fill="currentColor" y="9" dy="0.71em">24,000</text></g><g class="tick" opacity="1" transform="translate(501.92857142857144,0)"><line stroke="currentColor" y2="6"/><text fill="currentColor" y="9" dy="0.71em">26,000</text></g><g class="tick" opacity="1" transform="translate(540.5,0)"><line stroke="currentColor" y2="6"/><text fill="currentColor" y="9" dy="0.71em">28,000</text></g><text font-family="Arial, sans-serif" font-size="10" x="540" dy="-5" fill="black" font-weight="bold" text-anchor="end">Count [sum]</text></g><g id="yAxis" transform="translate(0,0)" fill="none" font-size="10" font-family="sans-serif" text-anchor="end"><path class="domain" stroke="currentColor" d="M0.5,0.5V2460.5"/><g class="tick" opacity="1" transform="translate(0,49.02487002950674)"><line stroke="currentColor" x2="-6"/><text fill="currentColor" x="-9" dy="0.32em">Light</text></g><g class="tick" opacity="1" transform="translate(0,143.5028804271462)"><line stroke="currentColor" x2="-6"/><text fill="currentColor" x="-9" dy="0.32em">Circle</text></g><g class="tick" opacity="1" transform="translate(0,237.98089082478566)"><line stroke="currentColor" x2="-6"/><text fill="currentColor" x="-9" dy="0.32em">Triangle</text></g><g class="tick" opacity="1" transform="translate(0,332.45890122242514)"><line stroke="currentColor" x2="-6"/><text fill="currentColor" x="-9" dy="0.32em">Other</text></g><g class="tick" opacity="1" transform="translate(0,426.9369116200646)"><line stroke="currentColor" x2="-6"/><text fill="currentColor" x="-9" dy="0.32em">Unknown</text></g><g class="tick" opacity="1" transform="translate(0,521.414922017704)"><line stroke="currentColor" x2="-6"/><text fill="currentColor" x="-9" dy="0.32em">Fireball</text></g><g class="tick" opacity="1" transform="translate(0,615.8929324153435)"><line stroke="currentColor" x2="-6"/><text fill="currentColor" x="-9" dy="0.32em">Disk</text></g><g class="tick" opacity="1" transform="translate(0,710.370942812983)"><line stroke="currentColor" x2="-6"/><text fill="currentColor" x="-9" dy="0.32em">Sphere</text></g><g class="tick" opacity="1" transform="translate(0,804.8489532106224)"><line stroke="currentColor" x2="-6"/><text fill="currentColor" x="-9" dy="0.32em">Unspecified</text></g><g class="tick" opacity="1" transform="translate(0,899.3269636082618)"><line stroke="currentColor" x2="-6"/><text fill="currentColor" x="-9" dy="0.32em">Oval</text></g><g class="tick" opacity="1" transform="translate(0,993.8049740059014)"><line stroke="currentColor" x2="-6"/><text fill="currentColor" x="-9" dy="0.32em">Orb</text></g><g class="tick" opacity="1" transform="translate(0,1088.282984403541)"><line stroke="currentColor" x2="-6"/><text fill="currentColor" x="-9" dy="0.32em">Formation</text></g><g class="tick" opacity="1" transform="translate(0,1182.7609948011802)"><line stroke="currentColor" x2="-6"/><text fill="currentColor" x="-9" dy="0.32em">Changing</text></g><g class="tick" opacity="1" transform="translate(0,1277.2390051988198)"><line stroke="currentColor" x2="-6"/><text fill="currentColor" x="-9" dy="0.32em">Cigar</text></g><g class="tick" opacity="1" transform="translate(0,1371.7170155964593)"><line stroke="currentColor" x2="-6"/><text fill="currentColor" x="-9" dy="0.32em">Rectangle</text></g><g class="tick" opacity="1" transform="translate(0,1466.1950259940986)"><line stroke="currentColor" x2="-6"/><text fill="currentColor" x="-9" dy="0.32em">Cylinder</text></g><g class="tick" opacity="1" transform="translate(0,1560.6730363917382)"><line stroke="currentColor" x2="-6"/><text fill="currentColor" x="-9" dy="0.32em">Flash</text></g><g class="tick" opacity="1" transform="translate(0,1655.1510467893777)"><line stroke="currentColor" x2="-6"/><text fill="currentColor" x="-9" dy="0.32em">Diamond</text></g><g class="tick" opacity="1" transform="translate(0,1749.629057187017)"><line stroke="currentColor" x2="-6"/><text fill="currentColor" x="-9" dy="0.32em">Chevron</text></g><g class="tick" opacity="1" transform="translate(0,1844.1070675846565)"><line stroke="currentColor" x2="-6"/><text fill="currentColor" x="-9" dy="0.32em">Egg</text></g><g class="tick" opacity="1" transform="translate(0,1938.585077982296)"><line stroke="currentColor" x2="-6"/><text fill="currentColor" x="-9" dy="0.32em">Teardrop</text></g><g class="tick" opacity="1" transform="translate(0,2033.0630883799354)"><line stroke="currentColor" x2="-6"/><text fill="currentColor" x="-9" dy="0.32em">Cone</text></g><g class="tick" opacity="1" transform="translate(0,2127.5410987775754)"><line stroke="currentColor" x2="-6"/><text fill="currentColor" x="-9" dy="0.32em">Cross</text></g><g class="tick" opacity="1" transform="translate(0,2222.0191091752145)"><line stroke="currentColor" x2="-6"/><text fill="currentColor" x="-9" dy="0.32em">Star</text></g><g class="tick" opacity="1" transform="translate(0,2316.4971195728535)"><line stroke="currentColor" x2="-6"/><text fill="currentColor" x="-9" dy="0.32em">Cube</text></g><g class="tick" opacity="1" transform="translate(0,2410.9751299704935)"><line stroke="currentColor" x2="-6"/><text fill="currentColor" x="-9" dy="0.32em">Delta</text></g><text font-family="Arial, sans-serif" font-size="10" x="4" fill="black" font-weight="bold" text-anchor="start" dominant-baseline="hanging">Reports</text></g></g><text y="4" x="4" style="font-family: Arial, sans-serif; font-size: 12px; fill: black; font-weight: bold; dominant-baseline: hanging;"/></g></g></svg>