<?xml version="1.0" encoding="UTF-8"?><svg xmlns="http://www.w3.org/2000/svg" xmlns:xlink="http://www.w3.org/1999/xlink" viewBox="0 0 1380.42 1099.2"><defs><style>.cls-1{stroke:#000;stroke-width:3px;}.cls-1,.cls-2,.cls-3,.cls-4,.cls-5,.cls-6,.cls-7{fill:none;}.cls-8{font-size:14px;}.cls-8,.cls-9,.cls-10,.cls-11,.cls-12,.cls-13{font-family:SpaceMono-Regular, 'Space Mono';}.cls-8,.cls-14{fill:#999;}.cls-2{clip-path:url(#clippath-2);}.cls-15,.cls-16,.cls-17,.cls-18,.cls-19{fill:#fff;}.cls-20{font-size:44px;}.cls-20,.cls-16,.cls-21,.cls-17,.cls-22,.cls-18,.cls-23,.cls-19,.cls-24{font-family:SpaceMono-Bold, 'Space Mono';font-weight:700;}.cls-25,.cls-26{font-size:115px;}.cls-25,.cls-26,.cls-27,.cls-28{font-family:PilotCommand, 'Pilot Command';}.cls-25,.cls-27,.cls-24,.cls-29{fill:#fbb03b;}.cls-3,.cls-30,.cls-14{stroke:#fff;stroke-miterlimit:10;}.cls-31{letter-spacing:0em;}.cls-32{fill:rgba(255,255,255,0);}.cls-4{stroke:#fbb03b;}.cls-30{fill:#fcb72b;}.cls-33{fill:#eae2da;}.cls-16{font-size:110.73px;}.cls-9,.cls-34,.cls-13{fill:#c4c4c4;}.cls-9,.cls-10,.cls-22{font-size:10px;}.cls-34{filter:url(#drop-shadow-1);opacity:.15;}.cls-21,.cls-24{font-size:121px;}.cls-11{font-size:9px;}.cls-17{font-size:62.34px;}.cls-35{letter-spacing:2.56em;}.cls-12{font-size:7px;}.cls-36{letter-spacing:.47em;}.cls-27,.cls-28{font-size:69px;}.cls-37{letter-spacing:.25em;}.cls-38{letter-spacing:0em;}.cls-18{font-size:96.98px;}.cls-23{font-size:15px;}.cls-13{font-size:6px;}.cls-39{letter-spacing:2.99em;}.cls-40{fill:#ccc;}.cls-6{clip-path:url(#clippath);}.cls-19{font-size:95.46px;}.cls-7{clip-path:url(#clippath-1);}.cls-41{fill:#90d4dd;}.cls-42{letter-spacing:2.92em;}</style><clipPath id="clippath"><rect class="cls-5" x="162.41" y="496.34" width="602.86" height="602.86"/></clipPath><clipPath id="clippath-1"><rect class="cls-5" x="162.41" y="496.34" width="602.86" height="602.86"/></clipPath><clipPath id="clippath-2"><rect class="cls-5" x="162.41" y="496.34" width="602.86" height="602.86"/></clipPath><filter id="drop-shadow-1" filterUnits="userSpaceOnUse"><feOffset dx="7" dy="7"/><feGaussianBlur result="blur" stdDeviation="5"/><feFlood flood-color="#000" flood-opacity=".75"/><feComposite in2="blur" operator="in"/><feComposite in="SourceGraphic"/></filter></defs><g id="Layer_6"><polygon class="cls-33" points="289.27 674.89 0 472.73 4.93 181.7 327.14 603.7 289.27 674.89"/><polygon class="cls-33" points="70.42 9.15 360.32 564.08 456.34 542.79 366.2 0 70.42 9.15"/><polygon class="cls-33" points="512.19 0 497.89 537.84 560.42 559.15 808.49 0 512.19 0"/><ellipse class="cls-40" cx="1356.28" cy="228.44" rx="7.97" ry="7.73"/><ellipse class="cls-40" cx="1355.92" cy="203.13" rx="14.4" ry="13.96"/><ellipse class="cls-40" cx="1332.84" cy="223.12" rx="12.36" ry="11.98"/><ellipse class="cls-29" cx="1322.27" cy="192.43" rx="17.27" ry="16.74"/><ellipse class="cls-40" cx="1300.64" cy="221.7" rx="16.13" ry="15.64"/><ellipse class="cls-40" cx="1305.59" cy="164.54" rx="12.24" ry="11.86"/><ellipse class="cls-40" cx="1245.43" cy="192.35" rx="14.57" ry="14.12"/><ellipse class="cls-40" cx="1265.56" cy="218.5" rx="15.35" ry="14.88"/><ellipse class="cls-40" cx="1284.6" cy="188.97" rx="16.83" ry="16.31"/><ellipse class="cls-40" cx="1274.25" cy="254.17" rx="18.72" ry="18.14"/><ellipse class="cls-40" cx="1260.08" cy="160.39" rx="17.78" ry="17.23"/><ellipse class="cls-40" cx="1236.16" cy="240.61" rx="18.12" ry="17.57"/><ellipse class="cls-40" cx="1217.1" cy="209.76" rx="15.24" ry="14.77"/><ellipse class="cls-40" cx="1200.31" cy="237.43" rx="14.14" ry="13.71"/><ellipse class="cls-40" cx="1216.6" cy="177.42" rx="14.39" ry="13.95"/><ellipse class="cls-40" cx="1174.45" cy="218.06" rx="14.81" ry="14.35"/><ellipse class="cls-40" cx="1186.64" cy="188.77" rx="14.04" ry="13.61"/><ellipse class="cls-40" cx="1155.95" cy="193.01" rx="13.22" ry="12.82"/><ellipse class="cls-40" cx="1166.68" cy="165.14" rx="13.73" ry="13.31"/><ellipse class="cls-40" cx="1107.06" cy="212.36" rx="14.04" ry="13.61"/><ellipse class="cls-40" cx="1121.75" cy="239.23" rx="13.59" ry="13.17"/><ellipse class="cls-40" cx="1151.59" cy="238.46" rx="12.52" ry="12.14"/><ellipse class="cls-40" cx="1137.04" cy="214.64" rx="12.29" ry="11.91"/><ellipse class="cls-40" cx="1125.59" cy="190.29" rx="11.57" ry="11.22"/><ellipse class="cls-40" cx="1099.2" cy="184.87" rx="11.65" ry="11.29"/><ellipse class="cls-40" cx="1081.83" cy="202.19" rx="9.54" ry="9.25"/><ellipse class="cls-40" cx="1083.42" cy="223.07" rx="8.31" ry="8.06"/><ellipse class="cls-40" cx="1066.24" cy="214.9" rx="7.08" ry="6.87"/><ellipse class="cls-29" cx="1060.87" cy="197.08" rx="8.32" ry="8.07"/><ellipse class="cls-40" cx="1046.29" cy="206.33" rx="5.36" ry="5.2"/><ellipse class="cls-40" cx="1036.37" cy="215.74" rx="4.77" ry="4.63"/><ellipse class="cls-40" cx="1032.07" cy="203.85" rx="4.48" ry="4.34"/><ellipse class="cls-40" cx="1021.42" cy="210.23" rx="4.29" ry="4.16"/><ellipse class="cls-40" cx="1010.93" cy="203.64" rx="4.47" ry="4.33"/><ellipse class="cls-40" cx="1000.6" cy="210.66" rx="4.41" ry="4.27"/><ellipse class="cls-40" cx="990.43" cy="203.67" rx="4.3" ry="4.17"/><ellipse class="cls-40" cx="980.24" cy="210.3" rx="4.23" ry="4.1"/><ellipse class="cls-40" cx="970.26" cy="203.93" rx="3.97" ry="3.85"/><ellipse class="cls-40" cx="960.07" cy="209.81" rx="4.15" ry="4.02"/><ellipse class="cls-40" cx="949.81" cy="204.3" rx="3.83" ry="3.72"/><ellipse class="cls-40" cx="939.77" cy="209.67" rx="3.89" ry="3.77"/><ellipse class="cls-40" cx="929.54" cy="204.49" rx="3.9" ry="3.78"/><ellipse class="cls-40" cx="899.62" cy="210.99" rx="4.39" ry="4.25"/><ellipse class="cls-40" cx="889.1" cy="203.46" rx="4.95" ry="4.8"/><ellipse class="cls-40" cx="878.57" cy="211.31" rx="4.6" ry="4.46"/><ellipse class="cls-40" cx="868.98" cy="202.89" rx="4.6" ry="4.46"/><ellipse class="cls-40" cx="858.77" cy="210.89" rx="4.79" ry="4.64"/><ellipse class="cls-40" cx="848.21" cy="203.44" rx="4.53" ry="4.39"/><ellipse class="cls-40" cx="837.78" cy="210.19" rx="4.27" ry="4.14"/><ellipse class="cls-40" cx="827.46" cy="204.53" rx="3.84" ry="3.73"/><ellipse class="cls-40" cx="817.85" cy="209.58" rx="3.34" ry="3.24"/><ellipse class="cls-40" cx="808.22" cy="204.88" rx="3.69" ry="3.58"/><ellipse class="cls-40" cx="798.34" cy="209.82" rx="3.68" ry="3.57"/><ellipse class="cls-40" cx="788.2" cy="204.38" rx="4.17" ry="4.04"/><ellipse class="cls-40" cx="777.7" cy="209.91" rx="4.03" ry="3.91"/><ellipse class="cls-40" cx="767.01" cy="205.09" rx="4.01" ry="3.89"/><ellipse class="cls-40" cx="755.81" cy="208.04" rx="3.85" ry="3.73"/><ellipse class="cls-40" cx="745.26" cy="206.78" rx="3.03" ry="2.94"/><ellipse class="cls-40" cx="735.59" cy="207.14" rx="2.91" ry="2.82"/><ellipse class="cls-40" cx="726.17" cy="207.1" rx="2.77" ry="2.68"/><ellipse class="cls-40" cx="716.49" cy="207.1" rx="2.47" ry="2.39"/><ellipse class="cls-40" cx="706.36" cy="207.1" rx="2.77" ry="2.68"/><ellipse class="cls-40" cx="696.21" cy="207.1" rx="2.53" ry="2.46"/><ellipse class="cls-40" cx="686.06" cy="207.1" rx="2.5" ry="2.42"/><ellipse class="cls-40" cx="675.91" cy="207.1" rx="2.77" ry="2.68"/><ellipse class="cls-40" cx="665.76" cy="207.1" rx="2.44" ry="2.37"/><ellipse class="cls-40" cx="655.61" cy="207.1" rx="2.29" ry="2.22"/><ellipse class="cls-40" cx="645.46" cy="207.1" rx="2.5" ry="2.42"/><ellipse class="cls-40" cx="635.31" cy="207.1" rx="2.22" ry="2.15"/><ellipse class="cls-40" cx="625.16" cy="207.1" rx="2.49" ry="2.41"/><ellipse class="cls-40" cx="615.01" cy="207.1" rx="1.98" ry="1.91"/><ellipse class="cls-40" cx="604.86" cy="207.1" rx="2.15" ry="2.09"/><ellipse class="cls-40" cx="594.71" cy="207.1" rx="1.85" ry="1.79"/><ellipse class="cls-40" cx="584.56" cy="207.1" rx="1.65" ry="1.6"/><ellipse class="cls-29" cx="574.41" cy="207.1" rx="2.29" ry="2.22"/><ellipse class="cls-40" cx="564.26" cy="207.1" rx="1.62" ry="1.57"/><ellipse class="cls-40" cx="554.11" cy="207.1" rx="1.67" ry="1.62"/><ellipse class="cls-40" cx="543.96" cy="207.1" rx="1.65" ry="1.6"/><ellipse class="cls-40" cx="533.81" cy="207.1" rx="1.54" ry="1.49"/><ellipse class="cls-40" cx="523.66" cy="207.1" rx="1.44" ry="1.39"/><ellipse class="cls-40" cx="513.51" cy="207.1" rx="1.32" ry="1.28"/><ellipse class="cls-40" cx="503.36" cy="207.1" rx="1.2" ry="1.17"/><ellipse class="cls-40" cx="493.21" cy="207.1" rx="1.26" ry="1.23"/><ellipse class="cls-40" cx="483.06" cy="207.1" rx="1.13" ry="1.09"/><ellipse class="cls-40" cx="472.91" cy="207.1" rx="1.26" ry="1.23"/><ellipse class="cls-40" cx="462.76" cy="207.1" rx="1.26" ry="1.23"/><ellipse class="cls-40" cx="452.61" cy="207.1" rx="1.13" ry="1.09"/><ellipse class="cls-40" cx="442.46" cy="207.1" rx="1.13" ry="1.09"/><ellipse class="cls-40" cx="432.31" cy="207.1" rx="1.13" ry="1.09"/><ellipse class="cls-40" cx="422.16" cy="207.1" rx="1.2" ry="1.17"/><ellipse class="cls-40" cx="412.01" cy="207.1" rx="1.2" ry="1.17"/><ellipse class="cls-40" cx="401.86" cy="207.1" rx="1.36" ry="1.32"/><ellipse class="cls-40" cx="391.71" cy="207.1" rx="1.2" ry="1.17"/><ellipse class="cls-40" cx="381.56" cy="207.1" rx="1.13" ry="1.09"/><ellipse class="cls-40" cx="371.41" cy="207.1" rx=".94" ry=".91"/><ellipse class="cls-40" cx="361.26" cy="207.1" rx=".94" ry=".91"/><ellipse class="cls-40" cx="351.11" cy="207.1" rx="1.13" ry="1.09"/><ellipse class="cls-40" cx="340.96" cy="207.1" rx=".94" ry=".91"/><ellipse class="cls-40" cx="330.81" cy="207.1" rx=".94" ry=".91"/><ellipse class="cls-40" cx="320.66" cy="207.1" rx="1.13" ry="1.09"/><ellipse class="cls-40" cx="310.51" cy="207.1" rx=".94" ry=".91"/><ellipse class="cls-40" cx="300.36" cy="207.1" rx="1.26" ry="1.23"/><ellipse class="cls-40" cx="290.21" cy="207.1" rx=".94" ry=".91"/><ellipse class="cls-40" cx="280.06" cy="207.1" rx="1.13" ry="1.09"/><ellipse class="cls-40" cx="269.91" cy="207.1" rx="1.2" ry="1.17"/><ellipse class="cls-40" cx="259.76" cy="207.1" rx="1.13" ry="1.09"/><ellipse class="cls-40" cx="249.61" cy="207.1" rx=".94" ry=".91"/><ellipse class="cls-40" cx="239.46" cy="207.1" rx="1.2" ry="1.17"/><ellipse class="cls-40" cx="229.31" cy="207.1" rx=".94" ry=".91"/><ellipse class="cls-40" cx="219.16" cy="207.1" rx=".94" ry=".91"/><ellipse class="cls-40" cx="209.01" cy="207.1" rx=".94" ry=".91"/><ellipse class="cls-40" cx="198.86" cy="207.1" rx="1.26" ry="1.23"/><ellipse class="cls-40" cx="188.71" cy="207.1" rx=".94" ry=".91"/><ellipse class="cls-40" cx="178.56" cy="207.1" rx=".94" ry=".91"/><ellipse class="cls-40" cx="168.41" cy="207.1" rx="1.13" ry="1.09"/><ellipse class="cls-40" cx="158.26" cy="207.1" rx="1.13" ry="1.09"/><ellipse class="cls-40" cx="148.11" cy="207.1" rx="1.2" ry="1.17"/><ellipse class="cls-40" cx="137.96" cy="207.1" rx=".94" ry=".91"/><ellipse class="cls-40" cx="127.81" cy="207.1" rx=".94" ry=".91"/><ellipse class="cls-40" cx="117.66" cy="207.1" rx=".94" ry=".91"/><ellipse class="cls-40" cx="107.51" cy="207.1" rx=".94" ry=".91"/><ellipse class="cls-40" cx="97.36" cy="207.1" rx=".94" ry=".91"/><polygon class="cls-33" points="231.1 708.15 9.8 628.87 12.75 776.98 226.8 747.02 231.1 708.15"/></g><g id="Layer_5"><g class="cls-6"><g class="cls-7"><path class="cls-41" d="m463.84,1083.39c-157.49,0-285.62-128.13-285.62-285.62s128.13-285.62,285.62-285.62,285.62,128.13,285.62,285.62-128.13,285.62-285.62,285.62"/><path class="cls-15" d="m463.84,527.97c148.77,0,269.81,121.04,269.81,269.81s-121.04,269.81-269.81,269.81-269.81-121.04-269.81-269.81,121.04-269.81,269.81-269.81m0-31.62c-166.47,0-301.43,134.96-301.43,301.43s134.96,301.43,301.43,301.43,301.43-134.96,301.43-301.43-134.96-301.43-301.43-301.43"/></g><g class="cls-2"><path class="cls-15" d="m347.53,586.45c.04.43.85.29,1.68.08,1.58-.32,3.34-1.63,3.74-2.21-1.15.07-5.06,1.44-5.42,2.13m24.97-8.64c2.56-.56,6.33-1.38,6.46-2.27-.64.16-1.23.25-1.8.33,1.32-.24,2.65-.62,3.66-1.1-.41-.05-.62-.23-1.99-.07-2.42.42-9.24,1.76-9.69,2.66.08.55,1.59.71,3.35.45m1.78-2.53c1.68-.34,3.23-.52,4.96-.84,1.35-.35,2.24-.65,3.24-.9-.56-.74-2.1-.57-4.61-.21-1.5.26-8.37,2.15-8.71,2.88.87-.21,1.41-.57,2.36-.74,1.13-.11,1.39.01,2.76-.19m-11.17,5.72c-1,.15-1.64.23-3.7.75-.08.29.2.23.71.25.09,0-.19.09-.27.05-.87.26-1.9.57-2.36.92.35-.17.67,0,1.06-.04-.18-.07-.36.1-.55.09,0,0-1.01.07-1.89.4-.08.3-.02.37-.19.63.39-.05.7-.02,1.09-.07-.34.18-.78.02-1.13.2-1.31.13-1.78.67-2.89,1.02.49.38-.04.04-.2.64-.26.41.6.62,1.46.29.79-.06,2.36-.25,3.82-.5,1.44-.18,2.82-.74,4.84-1.23.1-.35.76-.6,1.4-.8.02.66.88.42,1.69.65-1.57.18-2.98.27-3.35,1.11-.09.36,1.64.38,3.05.08,2.92-.47,5.24-1.22,7.75-1.95.34-.01,8.01-1.98,8.13-1.96.19-.02,7.07-.71,7.84-.96,1.14-.24,4.24-1.74,4.42-2.58.15-.73-1.07-.9-2.59-.75-1.51.16-2.22.89-3.36.94-2.35.47-4.32-.04-4.21-.96-.05-.12-.06-.08.12-.56-.77.13-1.45.03-2.18.04-1.39.53-4.28,1.3-4.56,2.01-.01.55,1.94.17,2.8.18-.25.1-.04.31-.13.56-.31.12-1.06.3-1.22.35.45.12,1.01-.06,2.34-.22-.59.4-1.21.7-2.74.96-5.35.71-7.07-.28-10.64.22-.84.21-1.83.24-2.62.49-.12-.74-1.3-.34-1.74-.26m-3.3,2.71c.32.01.66.02.96-.12-.29.15-.63.18-.96.12m-21.54,4.49c.89-.14,1.21-.65,1.87-.8,1.11-.28,1.55-.2,2.93-.76.17.3.75.4,1.58.18,1.33-.2,2.08-.92,2.55-1.46,1.73-.41,3.5-1.45,4.08-2.14,1.06-.08.41.92,2.34.55,1.71-.72,3.35-1.57,5.15-2.35.13-.47-.67-.01-.62-.64.76-.2,1.58-.53,1.64-.96.27-1.08-6.53,1.37-6.53,1.37-.96.31-.96.12-1.9.37-3.01.69-3.87,1.95-6.05,2.84-1.98.95-3.51,1.42-5.3,2.11-.4.24-2.49,1.23-2.54,1.35-.15.09.55-.08.81.33m26.58-9.54c.76-.18,1.3-.38,1.72-.8-.69.11-3.41-.41-3.77.64-.08.3.98.28,2.05.16m-.26,1.78c.82-.07,1.57-.29,2.49-.47.26,0,.14-.27.15-.54-1.38.27-2.6.48-3.95.76-.16.53.75.38,1.31.25m125.85,2.35c2.36.16,3.39-.2,4.8-.21,1.51.25,2.16.49,3.94.59,1,.03,1.82-.14,2.27-.62-2.43-.65-5.38-1.85-8.96-2.06-2.8-.25-3.61-.61-6.54-.73-.89.05-2.24,0-2.18.62-.06.68,1.41.76,2.67,1.14-.91.58,1.39,1.13,4,1.26m-29.38-5.77c3.52.15,6.95.1,10.45.14,1.28-.11,1.42-.4,3.24-.52.36.33.92.76,2.63.78,4.63.18,10.34.51,10.68-1.16,0,0-.75.09-1.69-.13.18-.18.42-.2.61-.38.31.04.74.02,1.05-.03-2.01-1.24-5.2-1.55-10.39-1.71-6.89-.31-8.89.77-16.19.81-3.27.01-5.77-.32-8.94-.53-.48.02-2.15.66-2.06-.2-.01-.19.65-.22.91-.24-1.89-.56-4.99.14-5.77-.93,1.73.04,3.42,0,5.15-.09-1.18-.57-6.97-.04-5.99-1.21-.67.06-1.62.1-2.3.06-.54.21-1.21.4-2.58.43-4.37.09-5.21-1.43-10.95-1.03-1.46.06-3.74.15-3.85.86.14.53,7.62,1.11,9,1.05.9.03,1.75-.22,2.59-.55,2.13.77,2.6,1.3,4.99,2.1-.46.04-1.62.35-1.58.77,0,1.24,6.27,1.81,9.25,1.87,1.01-.07,3.16-.62,3.67-.84.44.11,1.11-.08,1.57-.01-.36,1.01,3.7,1.04,6.51.7m-201.95,73.96c.53-.53,1-1.02,1.3-1.36-.14-.02-.23-.03-.28-.03-.34.47-.68.92-1.01,1.39m166.42-67.75c-.69-.04-2.51-.07-2.97-.08.05-.62.39-.04.46-.75.04-.68-3.75.24-4.77.24.89-.35,4.07-1.06,4.3-2.03-.06-.3-.9-.45-1.25-.39-1.82.19-3.32.17-5.13.34-2.84.29-5.57.27-7.71,1.16-.2.05-.85.28-.94.45-.11.8,2.28.37,4,.29-.02.55,0,.76-.16,1.29-.55.14-1.35.11-1.92.15-2.12.2-4.01-.2-5.65-.09-.15.32-.11.47-.11.82,3.53,1.07,7.34.49,10.97,1.7.71.3.88.72,2.77.66,1.01-.09,1.49-.65,2.67-.91,4.38-.74,4.58-.03,5.44-2.86m19.37-21.88c.58-.04,1.31-.23,1.9-.27,1.21-.08,2.55-.13,3.77-.08-1.52.08-2.24.3-3.55.61.21.1,1.69.14,2.26.2,2.42-.14,2.5-.67,5.06-.65.76-.02,1.71-.04,2.52.04-3.31.25-6.38.24-7.86,1.1.92-.05,3.44,0,5.95-.09-1.66.06-2.53.24-3.43.4.88.28,4.37.55,6.95.63,1.03-.01,1.9-.09,2.8-.33.49,0,1.15.01,1.65.01-.78.55,2.5.65,5.09.72.91.02,1.42-.31,2.53-.28,1.2.05,2.04.23,4.46.38,4.21-.09,6.87.04,9.44-.38.57.06,1.32.04,1.89.1-1.39.35-3.57.49-6,.63-2.24-.01-4.14-.21-6.35-.22-.25.12-.85.1-.87.31.01.31,4.13,1.05,4.75,1.18-3.59-.09-4.63-1-7.94-1.36-2.52-.25-5.26-.15-6.75-.16-.57,0-1.34-.11-1.92,0,.42.23.51.4,1.92.41-1.33,0-3.17-.27-3.18.25.06.93,8.48.76,8.71,1.78-.07,1.45-3.81.64-7.06.86-1.91.17-2.81.56-3.88,1.15,0,.21,0,.22,0,.42.57-.01,1.37-.08,1.94,0,.37-.15.91-.13,1.29-.25.57,0,1.36.01,1.94.01.02,1.24,4.03,1.37,5.84,1.86-.68-.02-1.65-.02-2.33-.04-2.46-.39-3.91-1.11-8.04-1.06-1.45.02-3.13-.34-3.25.37.04.93,2.72.76,4.27,1.07-2.72.68-9.36.04-9.53,1.54.01.16.42.32,1.29.28.57-.03,1.21-.16,1.57-.39,4.63.48,7.98.68,12.4.75,2.01.03,2.75-.35,3.91-.32,3.3.11,6.51.12,9.79.26,2.62.04,1.29.65,4.32.72,2.97.3,10.21.13,10.28-.75.05-.46-1.62-.36-1.96-.41-.94-.13-2.16-.16-3.23-.18.02-1.21,5.24-.12,5.26-1.4.04-.31-.71-.23-.94-.59,2.18.31,4.22.29,6.39.43,2.12-.16,2.95-1.07,5.51-1.16-.85-.52-2.19-.85-3.76-1.13,2.52.28,3.91.58,3.58-.31-1.2-.06-2.33-.19-3.52-.29,1.84-.18,5.03-.07,7.8-.05,1.97.08,4.75.72,6.43.57,3.63-.34,6-1.17,10.88-1.06,4.18.35,10.75.85,13.24.57-2.93-.5-7.51-1.01-8.84-1.52,6.29.03,11.82,1.66,16.19,1.69.82-.09,2.91.75,2.69.12-.39-.85-6.11-1.55-7.62-2.18-.71-.26-.77-.5-2.11-.86-.66-.23-1.41-.47-2.14-.6-3.03-.33-6.06-.63-9.15-.84.92-.05,1.24.11,2.04,0-2.6-.93-12.64-2.27-15.57-2.62-1.05-.25-2.13-.23-3.37-.39-1.03-.07-1.78-.44-3.67-.59-1.71-.16-2.05.32-3.82.12-1.88-.01-2.4-.61-4.7-.77-.56.06-1.13.13-1.44.08-4.78-.24-9.38-.57-14.2-.92-1.24.06-2.15-.1-2.82.26-1.73.2-.3,0-2.49-.04-3.68-.08-5.14.55-6.18,1.18-1.18-.05-5.99-.78-8.41-.81-2.61,0-.88.7-5.02.66,0,.21-.55.24-1,.25-.84.02-1.75-.01-2.76.02-3.61-.04-11.64.74-12.61,1.44.83.08,1.76-.02,2.76-.09m-28.66,31.34c-.45.1-2.83-.04-2.92.45.17.07,9.6,1.05,11.37.95,1.47-.11,2.01-.64,3.38-1-.78-.69-5.95-2.35-8.01-2.28-2.63.06-2.25,1.48-3.83,1.89m129.6-22.44c-1.14-.08-2.11-.43-3.09-.8-2.21.24-7.24.04-11.26-.07-.55-.17-2.35-.31-2.31.16.19.98,6.99,1.58,9.16,1.99.33,1.26-.86,1.25-2.81,1.3-2.55,0-6.89-1.06-10.31-1.15-2.31-.15-3.54.24-5.79.11-2.74-.05-7.13-.87-6.99.23.33.77,12.36,2.96,12.82,3.04,1.51.1,2.82.4,4.35.53.54.18.89.03,1.15-.25,1.66.19,3.15.53,4.9.67-.42.6-.21.61-1.4.69-2.41-.3-4.64-.64-7.04-.91-.69.16-.89.22-2.19.06-.94-.12-2.14-.2-3.12-.36-.91-.1-3.41-.4-3.65.44,2.42.65,1.6.15,4.41.48,1.5.09,3.1.89,5.14,1.3-.52.47-1.23.27-2.39.39,1.76.7,5.64,1.7,8.31,2.04.91-.03.82.22,1.58.08-.39-.13-.91-.37-1.3-.51.58.03,1.02.01,2.44.16,1.5.19,2.66.69,3.75.86,1.7.1,2.26-.2,3.78.03,1.36.18,2.4.43,3.63.57,13.62,2.27,21.88,6.64,26.33,11.33.07.3.03.43.19.7.99.38,2.75.53,3.05,1.4.21,1.13-2.29.48-1.95,1.5.06.92,1.18,1.1,3.29,1.48,1.63.2,1.52-.33,2.61-.19,3.68.95,5.35,3.26,8.86,4.62.06.38.14.75-.88.46-2.67-.62-4.49-1.78-6.9-2.27-.99-.26-.95-.29-2.04-.45.87,1.48,8.98,3.65,12.61,4.88-.64,1.19-2.01,1.19-2.38,2.59-1.65-.76-1.62-.68-3.11-.61.04,0,.02.06.03.1-2.17.34-2.48,1.16-3.87,1.86.06.47.13.75.28,1.2.75-.04,1.45.16,2.31.47-.22.67-.97.47-.84,1.08.29,1.41,3.57,2.63,4.5,3.83.46.54,1.09,1.79,1.55,2.03,2.15.98,2.22-.36,4.23,1.06-.88.18-1.64-.06-1.45.67.34,1.71,4.95,6.03,7.51,7.4.27.25.38.87,1.04,1.31,2.06.91,2.86.9,4.02,2.4,1.29.27,2.88-.03,4.39.32,2.72.74,3.09,3.04,5.71,3.78.69.05.75-.16,1.99.13.18.4.66.62,1.39.89,2.74.62.78-2.41,2.96-2.46-.37-.62-.56-2.09-.81-2.99-.45-1.7,4.17-.62,3.84-2.32-.33-.57-1.31-1.14-1.5-1.51,0-.3.1-.23.49-.38,0-.21-.27-.35-.34-.56-.6-1.61,4.68.42,6.27.18,1.14-.19.16-.67,1.39-.54.11.38.22.57.33.95.51.26.84.19,1.32.5,1.6,0,4.59,1.34,5.91,1.14,1.9-.27-2.33-3.87-1.07-3.88,1.01.01.99.18,1.69.11-.31-.36.57-.1,1.26,0,.53.27,1.04.49,1.54.73-18.46-19.52-40.02-36.05-63.92-48.81-.47-.12-.79-.12-.72.18.37.2.64.62,1.11.89-.55-.15-1.03-.18-1.53-.46-2.14-.79-3.81-1.26-5.3-2.15-.42,0-.5,0-.92,0,.1.35.55.44.77.74-2.08-.53-2.78-1.55-4.81-2.07-2.87-.67-4.81-.77-7.85-1.29-4.25-1.01-5.66-1-10.24-1.76-3.7-.56.04,1.42-4.11.7m70.58,292.61c-.55.04-1.76,1.67-1.87-.13-.88.07-1.78-.64-2.43-1.09-.06.13-.33.01-.48.04-1.62.01-2.41,1.63-2.63,3.72-.03,1.29,2.79,3.49,4.65,3.43,1.52-.16,3.3-3.54,3.5-4.76-.02-.24-.3-1.22-.74-1.21m-28.22-258.6c-3.05-1.1-4.24-2.52-7.22-3.24-1.13-.12-2.38-.3-2.27.46.36.64,1.67,1.92,2.74,2.23.84-.02,1.59.32,2.51.53,1.93.28,4.17.8,4.24.01m-185.09-12.17c2.38-.19,2.77-.03,5.23-.82-2.52-.65-12.79-.61-12.75-2.33.15-1.3-2.95-2.02-2.74-3.78.07-.54,2.8-1.09,2.99-1.85.18-.91-1.91-.83-4.16-.54-2-.02-3.68.64-3.84,1.24.21,0-.03.25.04.45-2.11.6-1.24.09-3.43.43-.89.04-2.22.41-2.31.9-.18.53,1.41,2.41,2.2,2.93-.57.23-.69.43-1.67.58-2.39.22-1.16-1.01-1.76-1.51-.62-.62-2.08-.86-3.73-.78-.82.03-1.74.25-2.64.39.31.3.31.2.42.76-1.26.37-2.37.65-3.66.87-.68-.8-1.65-1.14-5-.55-1.81.33-2.79,1.06-3.82,1.46-.44-.38.09-1.57-1.56-1.26-4.26.71-14.59,4.41-15.39,6.78-.04.31,1.84.46,3.09.25,1.46-.47,2.22-.54,3.94-.74-1.28.72-4.45.8-4.78,1.9-.32,1.2,5.88-.32,8.58-.81,1.98-.33,4.08-.73,6.19-1.07,1.18-.23,2.11.02,2.86.01-1.44.35-2.12.42-3.94.74-4.92.89-8.46,1.73-11.52,3.14.97.48,2.46,1.15,5.01.75,1.62-.35,5.23-1.07,6.42-.84,1.41.22-.23,1.25,1.89.93,3.55-.55,7.11-1.15,10.94-1.57,2.68-1.23,5.64-1.1,9.13-2.15,1.88-.6,1.15-1.14,3.41-1.3,3.67-.51,5.17.99,10.22.49,3.23-.2,6.14-.61,7.48-1.57-.45-.19-1.07-.14-1.21-.63-.43.13-1.92.25-1.88-.25.04-.43.74-.47,1.73-.66m184.91,78.74c-.03.18.53.08.76.09,1.53.14,2.42-1.11,3.35-2.24,1.09.95.58,2.72,1.56,2.82.31.13.71.16,1.01.33.1.34.28,1.23,1.26,1.33,1.25.15,1.83-.94,1.7-2.13,0-.88-.94-.98-1.11-2.18-.71.3-.29.57-1.53.38-.04-.62-.94-1.25-1.06-1.68,0-.36,1.03-.5,1.06-1.31-.42-.17-1.06,0-1.33.11-.23-1.47-.16-2.27-.27-3.19-.6.2-2.16.03-3.6-.47-.44.16-.99.19-1.46.2-.1-.11-.08-.34-.06-.48-.68-.06-1.58-.17-2.26-.28-.05-.26-.09-.61-.11-.87.22-.11.36-.3.57-.41-.5-.29-1.39-.71-2.08-.73-.78-.11-.75.45-1.81.55-.06-.26-.08-.61-.1-.87.49-1.61,3.04-2.41,2.81-4.48-.08-.34-.56-.95-1-1.07-2.04-.26-2.56,1.23-3.44,2.39-1.63,2.1-2.62,6.24-6.07,7.25.11.27.75.57,1.09.61.13.12.08.42.06.6.09.01-2.14,1.3-2.16,1.66.05.26.85,1.08,1.41,1.14,1.47.22,1.98-.38,3.98-.18,1.5.06,2.26.86,3.94,1.12.79,0,1.63,0,2.51-.22.85,1.08,2.34.62,3.59.81-.28.56-1.26.38-1.21,1.43m-188.93-96.04c-.45-.03-1.03.03-1.46.16.27,0,.15.25.33.46.07,0-.1-.03-.17-.06-.04.37-.09.41-.13.78.95.22,1.7.24,2.99.11.23,0,.14.21.29.4.54-.16,1.29-.14,1.86-.19-.16.34.52.5,1.4.38,2.51-.17,6.86-1.05,9.18-1.26.45.07,1.04.01,1.49.01-.7.3-3.05.4-3.23.92-.09.18.04.27-.06.45-.45.11-.83.31-.95.52,0,.56,3.26-.03,4.01-.09.33-.07,3.12-.31,5.11-.59-.36-1.14,1.19-1.93,1.33-2.88.2-.91-.1-1.03-2.4-.92-.88.18-1.59.33-2.55.54-2.39,0-3.57-.1-5.56.03-.79.04-1.37.03-2.24.25.68.7,2.09.39,4.27.23-.08.45-.05.51-.13.96-3.21.4-3.94-.71-6.71-.34.07.24-.14.28-.07.52.45.31,1.44.4,2.37.51-3.92.63-5.35-1.33-8.96-.88m35.16-8.95c-.7.37-1.65.41-2.95.59.04.31.07.29.97.29.91-.12,1.4-.24,2.69-.4.35.31.45.51,1.74.36,1.5,0,1.84-.33,3.84-.42,1.94-.02,3.3-.08,5.21.12-1.72.12-9.57.22-9.75,1.03.12.76,3.45.73,5.69.64-.33.17-.7.2-1.68.31.46.61,2.95.53,5.1.47,1.91.02,3.16.05,3.12-.88,1.18.26,3.45.6,4.62.56,0-.22.02-.23.01-.46.69-.02,1.63,0,2.32-.02-.48-.25-.95-.37-1.65-.68.58-.2.96-.32,1.54-.53.35.57.35.72,2.04.69,1.76.11,3.38-1.09,6.05-1.1.92.01,2.46.12,2.95-.14.34-.19.11-.14.12-.51-1.75-.03-5-.49-6.27-.48-.23,0-2.15.47-2.18,0,0-.31.91-.14.91-.51-.02-.36-1.51-.13-1.53-.5-.02-.62.18-.6-1.64-.55-.38.01-.89,0-1.27,0,.2.11.4.23.63.22,0,.23-.02.21-.01.43-.46.02-1.08,0-1.53.02-1.21-.3-.32-.75-2.26-.9-1.95-.07-3.13.24-5.06.04-1.97-.04-1.48-1.01-3.96-1.27-2.28-.13-4.7-.06-7.87-.01.1.72,2.17.33,3.7.5-.64-.07-1.49.12-2.13.09-2.29-.06-3.29.22-4.79.54.05,0,1.12.48,1.57.43.69.06,2.2-.24,3.52-.18-.33.18-.74.32-1.41.4-.91-.04-1.54-.19-3.37-.06-1.03.14-2.85-.07-2.91.5.11.55,3.74.3,5.45.41,0,0-.7.36-1.16.32-1.2-.01-3.13-.1-3.74-.12-.56-.07-1.31.03-1.88.12.51,1.45,2.79.98,7.19.65m-15.75-.65c.62-.12,1.44-.14,2.08-.16.1-.4.06-.37.11-.78-.78.15-2.66.13-4.28.35-.06.74,1.34.4,2.09.59m1.66,2.94c-.26,1.2,2.45.87,3.92,1.28-.34.07-1.22.2-1.3.5-.05.74,4.2.02,8.8-.52-.4-.65.02-.62.09-1.04.02-1.3-4.3.35-4.29-.71-1.46.23-3.81.03-4.29-.33-1.32.24-2.9.2-2.94.81m-23.2,2.04c-.32.1-.6.41-.92.5.96.12,1.53-.21,4.2-.51-.28.08-.38.41-.09.48-1.59.46-2.48.44-3.71.93,1.01.22,1.45.09,3.2-.06,1.78-.35,3.25-.63,3.97-.28,2.26-.26,3.51-.22,5.73-.41,2.89-.17,2.38.74,5.41.56.88-.19,2.16-.13,2.31-.73.12-.67-2.36-.6-3.31-.84.35-.08.73-.33,1.05-.5-.64-.04-1.83-.76-3.54-.6-.67,0-1.21.44-1.89.49-1.36.15-1.01-.71-3.5-.56-.86.23-1.46.43-2.47.59-1.4.02-1.92-.32-4.44-.19-1.49.27-2.36.55-3.89.79-.09.74.24.49,1.91.34m-.67,3.7c.79-.06,1.6-.31,1.79-.7-2.54-.13-2.58-.82-5.67-.43-.17.78,2.49,1.31,3.88,1.13m.86,5.14c.67-.05,1.85-.04,1.96-.78.05-.43-.5-.28-.75-.57-1.92.23-3.06.81-3.65,1.59.89-.11,1.25-.1,2.45-.24m12.18-7.37c-1.09-.08-1.46-.17-2.78-.07-.45,0-3.44,1.08-1.21.74,1.96-.17,3.27-.27,3.99-.67m27.09,4.28c.05-.8-2.99-1.47-5.29-1.26-2.94-.07-2.56,1.1-3.93,1.23-.22.04-1.51.2-1.73.77,0,0,7.36.73,8.25.84,1.86-.09,2.58-.77,2.69-1.58m.76-5.6c.15-.22.07-.29.04-.56-1.32.16-.24.02-1.64.07-2.47.14-6.87.49-8.27.92,0,0,7.37.06,7.93.07,1.02.02,1.96-.2,1.93-.51m-107.26,29.08c.25.38.71.62,1.27.52.55-.14.65.2,1.43.07.82-.38,8.41-3.11,8.72-3.5.45-1.04,5.64-4.07,9.25-5.25,1.1-.43,6.99-1.86,7.37-2.42.12-1.04-4.96-.86-7.31-.32-1.43.24-2.95,1.13-3.76.96-2.41.43-3.28.2-5.52.5-1.8.33-3.07.97-4.3,1.37-2.55.63-3.48.55-6.16,1.68-.11.68,1.14.6.98,1.08-.52,1.53-5.96,4.22-6.59,5.74-.39.62,3.88-.57,4.61-.43m223.6,58.04c1.66,1.16,5.78,3.47,7.99,3.67.89.16,1.48.02,1.82-.42-3-1.52-5.62-3.46-9.81-3.24m9.35,13.24c-1.4-.11-2.68-.21-4.08-.33-1.36-.45-2.37-.72-3.15-1.88-.23.09-.51.41-.49.67.24.57,5.3,3.04,6.24,3.15.21-.07,1.56-.46,1.54-.99-.13-.11-.02-.45-.06-.62m-45.65,113.82c.12.64.91,2.13,1.82,2.33-.04-.28.11-.87.15-1.16.55.33.67.05,1.8,0,1.67.06,5.28-.37,6.73.46.49.41.32,1.86,1.79,1.88,1.67-.04,1.49-2.52,3.4-2.58.56,0,.81.73,1.49.72.78.02,1.61-.55,2.65-1.14,1.83.02,3.64-.01,5.43.03-1.1-1.35-2.28-1.96-3.69-2.98.16.14.33.3.45.38-2.55-1.36-3.46-3.7-8.29-3.79-1.69.01-2.5.57-4.45.55-1.01,0-2.11-1.03-3.6-1.02-.33-.03-1.19.68-1.19,1-.08.64,1.28,1.6,1.96,1.6-.06.85.11,2.15,1.05,3.04-1.87.84-3.23.14-6.75.13-.11.11-.53.57-.76.57m53-113.68c.05-.36-.77-.76-1.02-1.1-1.2.27-2.83,2.67-2.79,3.2,0,.53.87,1.26,2.25,1.31,1.49.23,2.87-.45,2.83-1.07-.04-.21-.03-.51-.07-.71-3.07-.33-1.06-.71-1.2-1.63m-22.5,114.37c0,1.47,1.96,1.58,3.62,1.6.67-.02,1.93.02,2.31-.85-.32-.65-4-1.57-4.34-1.59-.33,0-1.64.32-1.59.85m-76.03-185.05c-.17.41.89.95,2.75.96-.89-.37-1.02-1.21-2.75-.96m100.47,218.46c-.67.04-1.54,1.52-1.69,3.09.05.35.91.05,1.24-.02.66,0,1.41-1.57,1.67-2.02-.08-.26.04-.8.01-1.07-.32.08-.9,0-1.23.02m-78.5-226.53c-1.58-.08-4.65.92-3.01,1.06,1.72.08,2.54-.39,3.01-1.06m-2.39,18.95c-1.46-.73-4.52-.92-4.54.23,0,0,1.89.94,2.11.99,1.45.04,1.64-.77,2.44-1.21m30.85,161.94c.01-.32.02-.98,0-1.3-.48.61-1.8,1.58-2.99,1.28-.04.21.02.65.01.87.15.02.45-.01.6,0,.56,0,1.94-.42,2.39-.85m-18.43-23.06c-.12.32.43,1.23.77,1.16-.24-.24-.59-.87-.77-1.16m-4.71-1.77c-.56.02-1.87.72-2.12,1.13.67-.04,2.42.17,3.95.03-.3-.26-.81-1.04-1.83-1.16m.22,8.2c.02.85,0,2.71,1.54,2.75.22-.04.7-.51.76-.72-.11-.73-.43-1.86-1.68-2.02-.16.01-.46.02-.61,0m-21.36,15.7c.06.21,2.04.04,2.15,0,.21-.54.03-1.64,0-2.18-.12.02-.35-.14-.46-.13-.06-.05-.25.04-.31,0,.07.24.02.76,0,1.01-.33.03-1.32.22-1.38,1.3m22.87,13.31c-.04.84,1.2,2.16,2.44,2.18,1.84.01,3.26-.56,5.01-.85-.08-.44-.41-1.02-1.38-1.31.1.04.23.23.31.29-.66-.23-3.03-1.15-4.85-1.18-.46,0-1.54.44-1.53.88m16.18-7.95c-.77-.35-1.77-2.43-3.47-2.9-.57-.05-1.7-.15-2.28-.16-.09-.22,0-.8,0-1.02-3.43-.07-7.25-1.62-9.42-3.68-.25-.19-1.59-1.64-2.6-1.75-5.09-.05-8.15-3.56-15-3.69-6.99.03-10.03,2.29-12.59,6.36.32-.09,1.05.02,1.39,0,1.57-1.47,5.62-3.42,8.6-3.48.56-.03,1.67.05,2.16.44-.33.32-.58.96.31,1.61,1.52,0,2.85.09,4.45.01,2.13.1,3.16,2.16,5.36,2.2.9,0,1.91-.39,3.21.16.43.24.39,1.31,1.68,1.31.37,2.29,2.8,2.08,5.19,3.06-.05.55-.95,1.31-1.51,1.31.09.2,0,.66,0,.88,2.87.05,5.31,1.01,8.81,1.04,1.74.06,4.61.02,5.73-1.72m-42.97-167.62c-.02.27-.06.52.02.78,2.15-.03,5.62-1.2,6.89-1.84-1.68-.35-1-.34-3.89-.35-.13.37-1.86.81-3.02,1.41m81.12,413.91c-.45.04-.45.56-1.3.8-.13.33.1.42-.23.55.27-.11.54-.08.76-.17.77-.15,1.2-.37,1.72-.91.9,0,2.5-.58,2.89-1.18.09-.25.08-.18.18-.43-.62.28-.88.13-1.92.46-.77.16-1.36.67-2.1.86m-3.26-357.99c-.08,0-.24-.03-.37-.06.12.3.28.82.37.06m3.2,357.41c-1.39.41-2.38.63-3.8.84-.24.1.09.4.68.33-.41.62-1.2.64-1.83,1.12.24-.09.19.14.44.16,1.64-.66,2.66-1.3,4.35-2.03.09-.24.14-.16.16-.42m-3.69-357.51s0,.02,0,.03c.04,0,.08,0,.12.02-.06-.16-.11-.27-.12-.05m-259.26-5.99c.04-.33.56-.62.67-.94.11-.39-.28-.45-.31-.86.35-.75.46-1.26.37-1.79-.18.44-.82,1.18-1.53,1.37-.63.25.74-1.06.8-1.11-1,.18-1.24-.28-2.17,0,.04.22,0,.46-.14.64.42.52.46,1.33.89,1.17.68-.02.56.64,1.39.68-.11.13-.55.5-.58,1-.23.62.34,1.49,1.1,1.24,1.2-.18-.57-1.06-.5-1.38m-.25-10.63c-1.96.28-2.51.32-2.89,2.24,1.2-.96.58-.44,2.14-.57-.33.42-.18,1.02-.36,1.57.08,0,.74,1.41,1.59,1.25.55-.13.87-.43.97-1,.39-1.58-2.21-1.26-1.44-3.49m-5.59-1.15c-.3-1.24.23-1.21.82-3.16-1.46.98-.5.11-2.11.65-.39.23-1.11.45-1.29,1.09-.27,1.16.49,1.79,1.88,1.49-.38,1.27-.2,1.98.73,2.62,1.19-.99.48-1.87.91-2.96-.15.2-.97.52-.94.28m20.46,19.16c1.73.74,5.24,2.24,7.97,1.91.32-.1.73-.06,1.06-.16-.06-.24.12-.55.11-.8-2.76-1.88-5.1-3.39-9.75-3.88-.81-.02-1.46-.87-2.78-.66-.55.12-1.16.51-1.6.72.12.09.28-.08.44-.08.58,0,1,.04,1.58.04-.17.21-.67.77-1.23.98.35,1.03,3.16,1.25,5.46.88-.35.23-.95.53-1.26,1.07m180.24-23.21c.13.02.39.08.51.01-.11-1.22-1.74-1.78-3.49-1.82.03.21.04.5.01.72.55.47,2.03,1.15,2.97,1.09m.75-37.27c-1.26-.84-3.71-.53-5.96-1.33-.58-.2-.28-.64-1-1.07-2.48-1.41-6.85-.96-9.8-2.55-.36.11-.91.24-1.23.43-.6-.59-1.34-.81-2.08-1.63-3.92.08-4.51,2.37-4.52,3.37,0,.31,0,.56,0,.87,0,.37-.79.56-1.38.74-.23.31-1.91.25-2.07,1.16.9-.01,3.68-.2,5.95.06-.23.61-.66,1.15.98,1.19.56.02.74-.17,1.1-.46,2.03.38,6.43-.79,6.47-2.03.67.18,5.28,1.6,5.28,1.6,1.01.1,2.42.09,3.73.13,1.72.04,3.07-.22,4.52-.47m24.95-9.2c-.36-.23-1.5-.87-2.73-1.08-.22-.05-1.62.23-1.68.41.06.36.86.57,1.77.56,1.33.16.89.11,2.64.1m-14.6,10.87c-1.81-.36-1.77-.84-3.15-.17,1.39.6,1.73.57,3.15.17m157.18,267.85c-1.33-.25-2.18.52-3.56.34-1.61-.4-4.15-3.14-5.02-4.83-1.25-.51-2.64-1.08-4.71-1.29-1.21.34-2.69.8-4.13,1.1-2.12.33-2.26-1.55-4.77-1.38-1.01.14-1.48,1.01-2.59,1.61-.26.05-.53.03-.79.09.11-.92.29-1.94.03-3.04-.17-.85-1.1-.55-2.05-1.15-1.45-.76-5.49-2.79-7.59-2.64-2.07.24-3.55,2.91-4.91,5.04-.26.56-.99,1.61-1.45,1.62-.34.04-.56-1.02-.5-1.32-.91-.03-1.83.23-2.95.25-.11-1.3-.72-2.15-1.91-2.75-.58-.17-1.74,0-1.66-1.26.42-3.89,4.53-8.96,6.73-11.66-.04-1.03-1.47-1.2-2.09-2.44-.52-1.44-1.94-5.43-1.9-7-2.12-.42-4.59-4.49-6.68-4.52-.22.05-.54.04-.77.03.07,0-.01-.19.01-.26-1.24.11-3.33-.9-4.24-1.28-.98.05-2.33.03-3.42.14-3.63-.53-9,.11-10.08-3.66-.57.01-1.8-.32-2.02-.74-1.73-3.36-2.74-2.84-5.38-5.39-1.24.12-2.61.06-3.9.1-.65-1.84.04-3.72-1.88-4.34-2.06-.57-5.02-.97-6.03-2.91-.05-.27.03-.83.01-1.1.36.18,1.7.03,2.14-.32,0,0-2.61-.37-3.98-.34-.37.17-3.42.46-3.6.74-1.14,1.67-2.32,1.69-4.51,2.02-.91.03-2.9-.19-2.89-1.48-2.6.07-5.23.05-7.92.11-.69-.08-1.7-1.06-1.75-2.5-2.12-.36-5.57-1.15-6.13-3.39-.67-.02-1.96-.05-2.63-.02-.11,1.65,2.24,1,2.82,2.63-.9.08-2.32.07-3.58.03-1.34.91-3.68.61-3.79,2.7-.09,1.68,1.64,2.6,1.76,4.33-.06.42-1,2.21-1.44,2.29-1.81-.07-2.6-2.71-2.44-4.2-.09-.93.91-3.63,1.4-5.76.46,0,1.5-.56,1.52-1.7.02-.09-.77-1.62-1.34-1.68-1.76.13-2.42,2.07-4.4,2.71-3.91,1.13-6.16,1.72-9.91,2.89-1.95.65-3.33.97-4.15,3.28-.21.84-.58,2.86-1.41,3.53-.74.3-2.38,1.01-2.48,2.42-.22.04-.88.5-.93.7.06.2.04.65,0,.85-.76.31-.67.22-1.84.02-.32.19-.86.75-1.16.97.25-.28.8-.82,1.04-1.11-2.45-1.74-2.65-5.8-7.15-5.95-3.75.05-5.67,2.81-9.78,2.87-2.7-.07-2.6-2.53-4.34-3.39-2.5-1.1-5.63-2.25-5.75-5.51-.02-2.94.08-5.65,0-8.68.96-1.41,1.08-6.95,1.09-8.26.09-.51,0-1.62,0-2.14-2.78-.58-3.7-2.94-7.5-2.99-5.49.03-9.65.86-14.86.86-.69.02-1.82-.57-1.88-1.57-.03-.17-.06-.55,0-.71.72-.57,2.78-1.4,2.81-2.85-.08-2.34-.06-4.61,0-6.85.3-.05.95-.01,1.26,0-.06.23.03.76,0,1,.98-1.4,1.85-2.37,1.87-4.7.04-2.77,2.6-5.24,2.66-7.27,0-.31,0-.96,0-1.28-.68,0-3.13-.21-3.59-.29-.43-.25-1.73-.52-3.13-.42-4.27,0-9.73-.13-9.88,4.06-.06,2.14-2.54,4.02-3.28,5.7-.11.41-.95,2.22-2.19,2.28-.45.01-1.26-.85-2.95-.86-3.21.01-5.57,1.95-8.55,2.01-.91-.03-1.25-1.24-2.63-1.7-4.15-1.21-4.06-3.47-6.78-6.07-1.04-.99-3.08-2.97-3.68-4.1-.7-1.33.16-2.08-.43-3.39-.28-.38-1.44-1.64-1.21-2.81.07-2.62.08-5.16.06-7.88.47-2.16,1.59-3,1.59-5.63.02-.62-.38-1.6-.6-2.23-.05-.07-.14-.27-.09-.33.07-.07.33.12.4.04.06-.31-.72-1.08-.74-1.39.13-4.17,1.98-7.93,5.46-9.11,1.53-.6,2.9.43,4.14-.75,1.92-1.63,3.98-5.09,8.5-5.21,1.76.04,2.61,1.37,4.31,1.35.68-.05,1.63-1.11,2.32-1.13,3.13.03,6.66,4.58,11.13,2.72-1.89-1.15-.53-2.43-.29-4.45-.74.16-.6.45-2.17,0,2.67-.82,5.86-.54,8.37-1.13,0,.31.74,1.13,1.08,1.11.91.04,1.67-1.16,3.88-1.11,3.73-.05,5.35,3.26,8.21,3.2,1.02,0,2.01-1.79,3.41-1.79,6.91.12,5.07,8.37,7.5,12.99,1.25,2.3,2.69,3.08,4.68,5.21.87,1.46.77,3.41,3.11,3.54,2.65-.02,3.37-2.6,3.38-5.6,0-2.63-1.38-3.9-1.9-5.61.04-.17-.02-.52,0-.7-.15-4.5-4.27-5.8-4.4-10.46.06-10.16,7.51-10.66,14.75-14.11-.11-.05-.31-.2-.42-.26.7-.59.69-1.17,2.56-1.72.92-.12,1.99-1.26,3.77-1.56.64-.07,1.41-1.03,1.75-1.45-.44-.26-1.32-.8-1.8-.97.04-.27-.03-.8-.02-1.08,1.01,0,2.06.12,2.31-1.3-.55-.17-1.47-.25-2.1-1.23.57.02,1.97-.42,1.97-1.59,0-.34.02-.99-.03-1.33-.24-.13-.8.01-1.05-.03-.68-.63-.02-.69-.05-1.99-.06-1.35-.78-3.76-.86-4.65,0,0-.12-1.19.12-1.71.26,1.41,1.78,3.3,1.75,4.4.02.38.03,1.07.03,1.45.04.2.4.78.62.81.33-.09,3.27-4.71,3.32-5.34-.09-.83-1.09-1.35-1.41-2.53.19-.16.56-.44.73-.64.2.23.73,1.07,1.07,1.08.8-.03,3.74-4.51,4-5.48,0,0-1.4-1.08-1.38-1.6-.13-.28.55-.7.86-.88.34.05,1.01.09,1.34.18,2.17-.16,3.52.16,5.58-.45-.75-.58-2.33-.02-3.69-.13-.37-.04-1.1-.12-1.48-.05,2.96-1.62,7.87-.69,10.77-2.41.45.42,2.99.22,4.79-.17-.05-.24-.03-.65-.04-.89,0,0-1.33.79-1.56.82-.68,0-1.55-1.84-1.54-2.36-.35-.09-.57-.86-.64-1.16-.03-5.03,5.06-3.23,7.41-5.14,1.39-.49,1.51-.78,3.24-.69,2,.15,3.47-.58,4.42-1.83-.25-.17-.5-.68-.69-.91,0-.11-.02-.31-.1-.37.01-.11,0-.27-.02-.37.25.05,1.07.06,1.41.09.68.03,4.36.69,5.6.12,1.26-.73,1.08-2.21,3.16-2.19.17,1.62-.03,1.77,2.21,1.97-3.24-.03-8.01,1.67-7.9,4.35.1.92,2.2,3.18,3.01,3.28.9-.06,3.5-2.97,6.21-3.63.58-.01,9.57-2.53,9.72-3.5-.17-1.27-3.55-1.74-4.46-1.8-3.97-.37-10.33-4.14-10.78-7.14-.75-.15-1.98-.48-3-.54.75-.89,5.56-1.01,5.49-3.47-.29-2.06-4.32-2.12-7.31-2.32-6.17-.36-8.61,2.94-12.89,3.28,1.71-3.11,4.6-1.96,7.57-4.25,1.89-1.63.27-2.63,3.21-3.25,5.15-.97,8.07.06,13.35.53,6.85.6,12.09,3.43,15.69-.47,1.68-1.83,11.31-.47,11.1-3.2-.25-2.01-1.27-2.98-2.67-4.31-.89-.16.35-.69-1.17-1.38.01-.32-.14-.68-.13-1-2.78.71-8.61,1.3-11.81,1-.33.04-1.24-.32-1.33-.48,2.48-.62,9.32-.32,10.06-1.87,0-.41-1.03-.7-1.21-1.08-3.14-.15-9.59-1.79-10.04-4.66-.06-.04-.03-.17-.03-.25-2.87-.36-4.7-1.68-6.48-2.69.57-.23,1.83-.25,1.77-1.24-.06-.79-1.32-1.64-1.19-2.36-1.3-.44-5.66-2.42-4.72-3.85,1.08-1.74-4.3-2.65-5.11-4.84-.34-.03-1.91-.92-2.35-1.26-.83.32-3.2.87-2.77,1.87.81,1.75-1.48,1.88-3.81,2.62-1.58.53-2.79,1.73-4.21,1.59-2.39-.22-4.37-2.9-6.01-3.14-2.25-.25-1.46-3.87-1.97-5.65-.94-2.16-7.72-1.31-8.19-4.1-3.84-.61-3.41-2.01-7.33-2.24-.82-.1-1.99-.13-3-.18-3.99-.25-6.45-1.68-10.42-1.87-2.09-.11-4.1.33-4.06,1.73.11.79,5.06,2.04.6,3.52-1.8.54,2.63,2.6,2.98,3.69.61,2.58-3.26,2.88-5.15,3.18,1.98,1.75,5.67,2.34,7.4,3.9,1.38,1.4.61,3.59.69,6.18-.11,1.53-8.3,4.97-11.24,5.33,5.16,1.76,3.3,6.26,5.33,7.98-.45.48-2.01,2.36-2.15,3.24-1.8.1-3.31.53-4.75-.21-3.71-1.94-9.04-5.32-9.2-7.7-.09-2.56.03-4.68-4.11-6.14-3.06-.63-6.1-1.06-9.16-1.52-5.45-2.03-11.31-3.47-17.75-4.68-.91-.21-4.39-1.45-6.42-1.45-2.19.1-3.19,1.29-5.34,1.29-.07-1.85-2.06-5.91-5.21-5.99-1.47.09-2.13.71-3.56.88.52-.85,0-1.27.15-3.39.13-3.11,2.14-5.86,5.5-7.66,1.17-.87,3.66-3.45,4.74-3.72,2.39-.45,4.59,1.05,4.69-.69-.03-1.19-5.27-1-7.22-1.5,1.03.16-3.13-1.26,8.32.31,3,.22,1.18-1.5,2.86-1.55.83-.06,1.99-.1,3.06-.05,3.44-.05,5.19-1.79,7.41-2.63-.01-.37.01-.65,0-1.03-4.75-.57-9.31-.12-11.44-2.09.67-.06,1.79-.1,2.48-.04,1.79.39,3.5,1.43,6.19,1.47,2.23-.07,7.16-.47,7.3-1.25-.05-1.3-.34-1.83-.61-2.04,2.71.14,3.82,1.3,5.66,1.38,1.52-.12,2.99.09,4.6.07-.64-.33-.18-1.56,1.64-.3.99.69,7.71-2.06,7.86-2.92-.12-.65-3.12-1.27-3.2-1.71.03-.51-1.95-1.39,2.37-2.36.55-.58,0-.43-.06-1.58-2.12-.05-2.93-.42-3.89-.82,3.28.11,6.27.24,8.12.36-.05.44-.58,1.14,1.13,1.25,2.52.13,4.44-1.68,6.15-1.68,1.54.27,8.77,2.91,10.03,3.49-.68,0-3.09-.14-3.13.48.12.02.67.61,1.11.71,1.75,0,2.49-.49,4.2-.35,2.75.31,11.31,3.49,11.61,4.94.06.86-2.55,1.67-3.74,2.14-.89.11-3.27-.38-3.26.57,0,.5,1.96,1.13,2.5,1.36-1.64.24-4.78.41-5.97.35-2.06-.15-3.83-.3-5.81-.37-1.88-.21-5.29.61-5.35,1.24.13.85,4.4,1.82,5.96,1.94,1.63.17,2.38-.64,4.02-.61,1,.09.95.45,2.32.56,1.01.09,2-.35,2.63-.67,4,1.24,6.21,2.46,10.71,3.72-1.99,1.71,5.84,2.42,9.19,3.45,3.49,1.17,5.8,1.2,9.78,2.36.31.15.83.81,1.39.86.45.05,1.23-.12,1.22-.56-.43-1.65-7.64-3.61-10.06-5.13.52.21,1.41.17,1.98.21,1.52.95,9.93,3.34,12.37,3.7.48-.65,1.65-1.44,1.61-2.06-.16-.66-2.43-1.17-2.49-1.6-.09-.4-.13-.72-.15-1.14-.64.03-1.55-.19-2.18-.27-.39-1.01-1.15-.51-3.69-1.11-.84-.37-2.75-1.72-3.12-2.46-.49-.07-1.21-.11-1.69-.19,0-.31-.02-.54-.11-.84.45.18,1.16.27,1.93.22-.07-.23-.01-.42-.09-.66-1.01-.08-1.39-.06-2.6-.41.1-.06,1.69-.39,2.5-.31,6.34.8,6.9,4.45,13.31,5.38,1.43.13,1.48-.65,1.4-1.33,2.44.26,2.69-.09,2.65-.27-.05-.26-.13-.44-.11-.71,1.56.23,3.62.44,3.55-.37-.11-.98-1.13-1.41-3.55-1.75-.55-.09-1.69-.31-2.28-.6-1.22-1.33-1.58-.46-4.42-.89-1.82-.29-2.62-1.19-3.07-2.25-2.64-.43-6.08-1.39-6.61-2.67-1.77.02-2.38-.49-3.62-.84,1.05-.87,2.05-.51,4.02-.7-.4-.31-1.41-.61-1.96-.7-1.41-.18-2.51-.43-3.83-.56.93-.55,2.5-.3,4.34-.18-1.05-.76-1.92-1.48-3.73-1.67-.6-.22-1.52-.23-2.16-.26-.03-.35,0-.54-.12-.87-3.57-.73-5.6-1.56-9.14-2.4.28-1.06-2.99-1.27-4.36-1.43-.94.03-2.1-.24-3.23-.3-4.33-.45-5.33-2.26-8.29-3.15-1.81-.71-7.27-1.22-9.83-1.43-2.36-.2-2.94,1.11-5.16.93-1.01,0-1.57-.56-3.06-.64-1.24-.15-1.92.34-2.59.37-.56-.07,0-.75-.06-.99-.02-1.18-1.9-2.88-5.38-2.97-5.25-.26-13.93.26-14.02,2.08,0,.62,1.33.73,1.33,1.35-.02.5-1.83.96-2.64.96-1.64-.02-1.33-.36-1.33-.86,0,0-.26-.47,0-.89-.56,0-1.05-.13-1.05-.5.02-1.53,4.31-1.51,5.65-2.46-.11,0-4.34-.54-4.34-.54-4.46,0-7.79.76-10.53,1.78-.42.3.06,1.08-.95,1.37-2.05.45-2.7.77-2.7,2.26.04.56,1.95,1.34,1.95,1.34,0,0,6.01.2,7.32.48,0,.27-.02.4-.01.66-2.28-.12-4.21-.33-6-.13.32.84,2.17.88,2.92,1.52,2.14.1,4.28-.09,6.42.02.72.44,2.98,1.05,4.03,1.08h.55c0,.96,2.04,1.04,2.05,1.71-.05.74-3.08.6-3.8,1.25-1.05,1.01-.69,1.87-2.69,3.14-3.11,2.02-5.79.28-5.83-.5-.02-.96,2.25-.6,2.34-1.63-.17-.49-3.9-2.2-5.01-2.18-4,.05-1.24,2.7-5.5,2.84-.1-1.25-.15-1.86-3.05-2.42.38-.29.92-.64,1.37-.79-2.16-.48-5.08.08-6.71-.74.81-.23,3.39-.8,3.43-1.6,0-1.2-3.8-.99-3.93-1.89.04-1.47-1.73-2.38-5.01-2.66,1.06-.41,1.71-.64,2.07-1.3-.48.07-1.22,0-1.7.06.84-1.14.78-.37,3.69-.47,4.03-.15,5.78-1.19,7.57-2.13,0,0,2.29-.67,2.38-.76-.02-.27.04-.35.02-.62-4.76.16-8.18-.33-12.74-.21-2.71.02-3.55.79-3.55.85.02.18-.27.5-.03.47-.85.13-2.03.1-2.98.14-.08.34.02.47-.07.81.84.9-.18,1.61,1.9,2.22-.05.23-.08.49-.15.91-1.77.24-.99.63-.87,1.3-1.62.26-3.73.16-3.77,1.1-.07.74,1.03.71.94,1.45-.08.73-1.81.57-1.84,1.5-.12,2.12,8.79.27,8.91,2.47-.11.43-1.19,1.95-1.19,1.95.84-.13,1.76-.49,2.88-.76,1.52,2.58-7.03,1.65-7.44,4.85-4.52.8-.86-1.41-1.87-2.18-.39-.32-3.87-.54-6-.42-2.4.19-3.39.85-3.52,2.28-2.39.05-6.13-.96-13.73-.27-7.2.66-12.53.12-13.89-2.13-2.45.4-9.77,1.58-10.17,2.96-.05.51.46.66,1.49.47,2.03-.16,5.44-1.21,7.06-1.83.17,2.13-5.9,1.06-6.37,3.24-.13.5,1.05,1.79.48,1.82-2.71.25-2.72-1.15-4.87-1.43-.59-.07-1.21-.18-1.8-.19-2.73.36-5.28.8-7.94,1.15-2.57.19-4.06,1.12-6.82,1.63-4.83.94-4.58.06-4.54-.16.15-.65,3.7-1.03,4.52-1.45-2.93-1.86-2.31-1.67-9.1.01-7.31,1.61-11.74-.25-18.47,1.41-2.1.46-1.17,1.31-2.92,1.9-1.15.21-1.83-.3-2.07-.88-2.02.88-2.41,1.93-4.53,2.58-1.86.57-3.8-1.17-4.45-.99-2.11.62-1.72,1.98-3.93,2.64-.87.25-1.24.42-1.49-.21-3.28,1.2-4.15,1.8-7.06,3.33-1.03.49-3.38,2.56-4.49,2.23-1.95-.49-2.16.97-2.93,1.43-6.06,2.27-2.21,2.18-3.11,2.41-2.06.91-6.85,2.24-9.56,2.52-8.9,8.93-17.11,18.54-24.57,28.74.71-.54,1.52-1.08,2.11-1.54.37,1.5,2.67.82,5.02.43,1.39-.77,2.8-1.17,4.26-1.8,2.12.24,4.77-1.12,6.76-.59,1.5.11,1.52,1.65,3.42,1.08.88-.2,1.16-.98,1.68-1.62.96.5,1.09.57,2.47.13.55-.42.96-.35,1.55-.04-.32.38-1.18.84-1.3,1.69-.14.42.71.71,1.14.6,1.32-.29.92-.95,2.8-1.62-.06.31-.16.57-.22.88-.26.53-1.56,1.01-1.73,1.58-.02.44.26.96,1.47.55,1.97-.29,2.89-.88,2.7.26-.07.36-.12.7-.24,1.05-.06.81,1.99,1.44,3.76,1.07.24-.29.67-.24,1.04-.32-.06.37.47.42.4.86-.17.95-.38,5.62,1,5.73.91-.01,1.59-.19,2.22.09,1.03.64-.56,1.73.66,2.03,0,0,2.61.62,2.67.86.61,1.61.2,3.62,4.13,2.96.32,1.48,4.32-.26,5.09,1.65.28.77,3.02.37,4.18,1.05.41.15.79.26,1.24.29.35.79,1.39.8,1.3,1.62-.16.64-1.29,1.79-1.97,2.43-.42-.77-1.43-1.12-3.24-.87-.4.21-1.72.4-1.83.84-.1,1.75,2.5,2.01,2.36,3.85-.4,2.54-4.26,14.23-3.52,17.13.83,2.95.36,4.48,1.38,7.06-.63.49-1.98,1.41-1.43,2.44,1.75,3.47,3.87,8.49,6.54,8.76-1.06,5.25,1.7,3.19,3.34,7.56.19.87-.21,2.3.83,2.72,4.5,1.38,10.79,3.66,12.82,7.53-.07-.04-.2.01-.27.01,0,.24-.03.67-.05.91.87,3.06,1.92,3.71,3.06,6,.69,1.58.55,5.21,2.06,6.18,2.27,1.43,4.45,4.13,6.43,6.95,1.13,1.68-2.21,1.26-2.78,1.28,1.38,1.99,4.42,1.52,6.26,3.3,1.44,1.34,2.47,2.76,3.96,4.23-.03.89-.06,2.37-.08,3.55.27.57.48.7,1.39,1.2,1.58,1,2.76,4.07,5.42,4.11.02.43,2.07,2.87,2.3,2.89.34-.05.96-1.57,1.04-2.08-.02-.84-1.64-3.4-2.83-2.29-2.6-1.66-3.37-5.09-4.39-8.4-1.07-2.89-3.59-4.18-4.58-7.34-.67-2.29-.89-3.6-2.76-5.43-1.39-1.37-3.11-1.21-4.04-3.2-.99-2.2-2.22-3.85-2.18-6.67,0-.31.03-1.3.35-1.73,1.61,1.59,3.83,1.38,6.21,2.36.89.45.67,3.35,1.91,4.59,1.09,1.15.67,3.39,1.93,4.63,1.51,1.46,2.77,2.79,4.66,4.58.31-.35.3-.26,1.56-.05-.02,3.32,4.16,3.41,5.57,5.85.61,1.52-.44,2.79.78,3.96,1.29,1.26,3.65,1.83,5.16,3.2,3.09,3.03,6.36,7.46,8.11,12.55.2.73,1.41,1.34,1.45,3.2.12,1.58-1.43,2.35-1.51,3.92.07.93.96,2.79,2.2,2.78.74,1.86,5.03,2.82,6.85,4.46.4.26,1.24.71,1.64.98,1.92.83,2.91.55,4.96,1.39,1.91,1,2.6,2.65,4.68,3.24,1.81.45,2.77-.39,4.42.27,1.74.77,6.62,4.02,8.57,4.12.91-.01,2.39-.28,3.53.28.47.19,1.87,1.25,3.09,1.27,2.66-.04,3.09-2.77,5.87-2.83.91,0,2.05.42,3.41,1.14.23,0,.71,0,.94,0,4.2,1.94,5.32,7.73,10.25,9.97,3.15,1.44,5.2.76,8.27,2.01,2.02.91,3.59,2.3,6.57,2.42.79-.03,1.84-.65,2.97-.71.22.06.71.03.94,0,.99,3.45,3.53,4.62,6.09,6.97.56.52,1.58,1.11,2.03,2.41.78,2.24-.78,4.07,1.56,5.54.37-.09,1.18.02,1.56,0-.23-.2-.22-.95,0-1.27.11-.02,5.34,2.9,5.92,3.81.44.84.54,2.43,2.79,2.97-.03.2.55.86.78.84.8,0,3.49-.85,4.66.13,1.24,1.18,2.75,3.75,5.25,3.78.91.06,2.01-.71,2.34-2.13-.23-.11-1.19-.85-1.24-1.26.12-.6,4.28-3.65,5.45-3.68,1.63,0,.62,3.18,2.35,4-.24.41-.9.99-.94,1.41.01.32,1.49.89,1.74,1.08.09.03.27-.13.36-.14-.06.22-.24.66-.25.89.04,2.55,2.63,1.97,2.73,5.01-.04,1.4-.75,1.96-.81,3.63.07.83.87,1.91.89,3.05-.02.18,0,.53,0,.71-.15.28-.5.82-.62,1.11,0,.31.92,1.22,1.51,1.36-1.06,3.78-4.85,2.76-6.65,5.89-1.23,2.28-2.3,5.84-6.52,5.99.56,6.18-1.6,8.73-1.69,11.85-.02,1.96.2,4.47,2.39,4.56.79-.02.89-.7,2.28.1-.73,2.07-3.34,2.69-4.79,4.77-.46.4-1.68,2.37-1.73,4.02-.02,2.27,2.07,5.03,3.7,6.42.48.38,1.75.22,2.25,1.02.33.72.71,2.65,1.74,3.62.42.2,1.47.07,1.94.87,1.24,2.43,2.13,4.03,3.14,7.03.98,2.68,1.73,5.56,2.84,8.52.65,1.91,2.69,2.71,2.65,4.66,0,1.6-.65,2.87.47,3.8,2.63,2.29,4.47,3.76,8.56,4.67,1.98.47,2.79.74,4.52,2.21,1.52,1.17,3.13,1.01,5.21,1.64,2.66,1.16,4.58,2.5,5.78,5.31.28,1.31.59,8.01.5,9.12-.18,1.73-1.61,4.82-1.73,6.45-.19,1.55-.26,3.05-.37,4.81-.42,1.08-1.22,3.1-1.27,3.83.01.31-.06.64-.08.96-.38,3.59-2.62,5.84-2.99,9.82-.09,1.64-1.75,3.16-1.12,4.86-.2,2.55-.31,4.91-.57,7.25-1.03,2.29-1.25,3.85-2.34,6.09-.24.36-.84.39-1.26.73-.65.66-1.11,1.88-1.73,2.65-1.3,1.24-3.32,3.44-3.58,5.48-.18.7-.12,2.9.33,2.91,0,0,.64.23.68.85-.14.28-.51.5-1.35.6-.63,1.55-1.58,2.21-1.71,3.76-.05,1.03-.57,2.9.52,2.91.77-.19,1.03-.65,2.03-1.02.34-.08.82-.02,1.15-.1-.02.52-.07.66-.15,1.16-2.14,3.32-4.14,6.64-6.35,9.77-1.79.19-.89-1-3.11-.82-.57-.02-1.16.22-1.23.76.04,0-.08.02-.12.02-.3.05-.13.3-.08.6.19,1,1.49,1.23,1.49,1.94-.45,1.38-2.92,1.64-3.19,2.6-.12,1.04,1.46,2.71,1.27,3.89.07.41,0,.33-.11.74-.12,1.06,3.1.58,2.92,1.79-.14.52-.56.57-.99.92.32.11.57.11.91.16-.45.68-2.18.26-2.42,1.04.04.18.56.3.99.37,1.53.57,2.14,1,5.55.66.09.46.19.52,1.15.45.71-.15,1.5-.1,2.23-.26-.47,1.55,2.4.52,4.03.47,1.83.11.56,1.26,3.16.87,1.13-.11,2.08-.41,3.18-.46.33-.09.85-.25,1.18-.35.4-.11.83-.2,1.24-.2,1.12-.15,4.08-1.41,5.77-1.73.68-.02,1.19-.12,1.83-.44-2.85.02-5.67.12-7.95-.52-1.39-.33-.65-2.42-2.58-2.76-.68.03-1.56,0-1.48-.91.43-1.65.97-1.67,2.55-2.59,1.16-.48,2.95-.53,4-1.43.9-.8.75-1.35,1.74-2.02,1.97-.96,4.84-1.65,5.23-3.2.32-1.93-5.04-.09-4.65-2.52.34-.99,2.02-2.15,4.08-2.63.76-.24,4.3.76,4.82-.02,1.11-1.85,1.4-3.07,3.86-4.79-.61.01-1.21-.12-1.09-.9,1.17-.26,1.47.42,2.99.18.21-.09,1.38-.52,1.41-1.15.17-.48-.41-.22-.92-.57-.33.14-1.24.67-1.8.79-1,.2-2.09-1.5-1.92-2.65.03-.52.47-1.09,1.41-1.11,2.5-.45,2.68.59,5.23.25.77-.18,2.71-.92,2.97-1.37,0-.34.07-.45.17-.77,1.06-1.24-.35-2.13,1.47-3.38,1.32-.95,4.98-.66,7-1.4,3.04-1.14,5.22-1.22,7.68-2.94,1.26-1.08,2.27-1.62,3.62-3.05.77-.63.87-1.13,1.1-2.31.36-1.08-1.6-.5-1.81-1.43-.24-1.3-.07-1.82-.84-2.41-.4-.23-1.99-.23-1.84-1.11.06-.3.71-.55,1.05-.6,1.92-.34,3.17.46,4.77.15.79-.13,3.12.25,5.08-.06,5.35-1.09,7.2-5.47,10.08-8.73,2.53-2.68,5.46-5.06,8.1-7.93,1.27-1.47.26.67,1.27-.75.01.01.02.03.01.06,1.57-2.16,3.06-3.89,5.42-5.42.52-2.47.85-5.16,1.3-7.89.24-1.86-.38.28,1.44-1.29,1.02-.97,2.51-1.18,3.63-2.76,2.58-3.25,4.85-2.44,8.04-5.36.31-.35.48-.93,1.3-1.34,1.61-1.03,3.2-1.28,5.26-1.78,1.8-.33,4.17-2.27,5.05-3.68.29-.37.38-1.58.98-2.34,1.9-2.4,2.58-3.5,4.62-6.25.27-.38.91-2.66,1.2-3.63.09-.83,1.18-2.07,1.75-2.71.2-.28.72-.85.73-1.38.32-1.33,1.98-7.11,2.29-9.03.42-2.61-1.12-3.33.6-5.42,1.15-1.28,2.26-1.8,3.54-3.6.85-1.15,1.21-1.46,1.96-2.58,3.42-5.23,8.02-10.3,9.27-18.78.33-2.5.11-4.73-1.68-5.09m-111.99-201.29c-.16-.26-.32-.8-.52-1.04.26.18.42.75.52,1.04m-.59-1.23c-.14-.3-.24-.85-.36-1.16.14.3.24.85.36,1.16m-.63-2.57c-.05-.4-.14-1.03-.21-1.42.22.33.13,1.02.21,1.42m-50.17,8.89c.07.16.2.45.31.58-.17-.04-.26-.42-.31-.58m.43.84c.13.25.29.72.42.96-.17-.22-.3-.71-.42-.96m.48-3.05c3.24-.67,9.88-1.86,13.61-1.87-.02,4.38-9.17,3.09-13.44,2.93-.55-.03-.69.12-1.76.08.17.2.42.61.54.84-.17-.32-.81-.72-.84-1.07-.02-.48,1.54-.83,1.88-.9m-2.4,4.92c.36-.15.92-.35,1.44-.55-3.26,1.33-9.14,3.53-12.73,3.6-1.51-.08-2.06-1.76-2.1-3.01.36.46,1.56,1.43,2.23,1.45,1,.03,1.63-.75,2.05-1.17,1.37-.95,3.51-1,5.58-.87,1.98.12,2.96.81,3.53.55m-39.5-24.31c1.93-.5,2.18.07,3.78-.59,1.48-.61.87-2.28,2.33-2.36,1.73.13,3,2.09,3.47,2.45.25-.37.16-1.38.15-1.57.3,0,.86,0,1.16,0,.67.03,6.96,3.96,7.26,4.29.88,1.41,0,2.41,1.19,3.41,3.42,2.58,7.77,2.29,11.56,4.02.96.15,2.49.04,3.79.06,1.75,1.03,3.93,2.12,4.01,3.88-.02.67-.76,1.43-1.43,1.37-1.75.11-3.6-1.75-4.12-2.04-.55,1.75-1.78,7.35-3.85,7.43-1.55-.94-1.52-1.75-2.11-3.67-1.47.32-1.12.77-2.92.8.42-1.65,1.58-2.71,1.57-4.31-.04-1.35-5.44-3.53-6.61-3.52-2.42.04.17,2.68-5.29,3.04-1.61,0-1.62,3.52-1.59,5.08,0,1.02.02,2.53,0,3.78.05,1.67-.7,5.04-2.95,5.12-1.63.02-3.36-1.02-3.39-2.38.01-3.02,1.21-9.02,3.7-11.66-1.44.03-2.02.89-3.53,1.64.41-2.36,6.14-5.52,9.39-5.56.88.03,4.36.61,6.57.03.03-.38.02-.99-.01-1.37-3.11-.11-4.74-1.43-8.33-1.53-1.61-.02-2.16,1.1-4.08,1.14-.78,0-2.36-.69-2.49-1.36-.74.02-1.95-.04-2.92.01.47-.75,1.62-1.26,1.62-2.85-2.13.44-4.78,2.48-6.42,2.54-1-.03-1.48,1.43-3.95,1.53-.89-.02-1.55-.06-2.16-1.12-.78.11-1.6.43-2.64.84-.55-.03-1.62.02-2.18.03,3.5-3.36,7.42-4.56,11.42-6.6m59.7,356.38c.26-.84.09-1.04.25-1.91.05-.28.56-.23.59-.76.03-.7-.24-1.06-1.4-.91-.67.02-1.76,2.07-1.76,2.07-.07.38-.03.46-.1.83-.07.35.59.82,1.28.77.33-.08.79-.12,1.13-.09m-3.6-417.37c-.28-1.96-8.25-2.77-8.28-.55.06.74,1.4,1.32,3.43,1.41,1.68.18,4.84-.16,4.85-.86"/></g></g></g><g id="Layer_4"><path d="m867.37,164.89c51.4,37.47,95.2,73.31,121.16,98.26-20.74-29.77-62.23-69.6-114.35-107.61-52.13-38-102.74-65.31-137.43-75.96,31.7,17.08,79.21,47.83,130.61,85.3Z"/><path d="m1000.37,284.23c-20.8-23.8-72.89-67.78-136.68-114.29-63.8-46.51-121.6-82.66-150.62-95.18-9.23-.55-15.86,1.3-19.19,5.87-14.87,20.39,41.76,86.99,126.47,148.75,84.71,61.76,165.44,95.3,180.31,74.91,3.33-4.56,3.06-11.45-.28-20.06Z"/><ellipse class="cls-15" cx="832.43" cy="212.77" rx="9.25" ry="60.23" transform="translate(170.11 760.08) rotate(-53.91)"/><path d="m936.46,200.95c5.89-20.67-9.76-50.8-39.17-72.24-29.41-21.44-62.88-27.13-80.75-15.2,43.87,23.8,83.85,52.94,119.92,87.43Z"/><ellipse class="cls-15" cx="853.82" cy="181.7" rx="6.67" ry="11.88" transform="translate(204 764.59) rotate(-53.91)"/><ellipse class="cls-15" cx="956.81" cy="268.77" rx="3.82" ry="12.48" transform="translate(175.96 883.59) rotate(-53.91)"/><ellipse class="cls-15" cx="739.43" cy="110.28" rx="3.82" ry="12.48" transform="translate(214.71 642.81) rotate(-53.91)"/><ellipse class="cls-15" cx="757.14" cy="160.13" rx="2.01" ry="6.55" transform="translate(181.72 677.61) rotate(-53.91)"/><ellipse class="cls-15" cx="905.58" cy="268.35" rx="2.01" ry="6.55" transform="translate(155.26 842.02) rotate(-53.91)"/><line class="cls-5" x1="753.08" y1="199.76" x2="622.17" y2="289.29"/><path d="m753.08,199.76s-7.69,6.31-19.62,15.21c-5.95,4.47-12.95,9.6-20.52,15-3.8,2.68-7.68,5.51-11.7,8.27-4.01,2.78-8.08,5.6-12.16,8.43-4.11,2.77-8.22,5.55-12.26,8.28-4.03,2.75-8.08,5.34-11.95,7.91-7.77,5.1-15.09,9.76-21.42,13.68-12.62,7.89-21.3,12.76-21.3,12.76,0,0,7.69-6.32,19.61-15.22,5.95-4.47,12.95-9.6,20.52-15,3.8-2.68,7.67-5.52,11.7-8.27,4.01-2.78,8.09-5.6,12.16-8.42,4.11-2.77,8.22-5.55,12.26-8.28,4.03-2.75,8.08-5.34,11.95-7.9,7.77-5.09,15.09-9.76,21.42-13.68,12.62-7.89,21.29-12.77,21.29-12.77Z"/><line class="cls-5" x1="808.49" y1="256.62" x2="656.74" y2="470.75"/><line class="cls-5" x1="872.77" y1="291.74" x2="837.59" y2="381.88"/><path d="m872.77,291.74s-1.39,5.95-4.12,14.62c-1.34,4.35-3,9.38-4.89,14.73-.97,2.67-1.9,5.45-2.97,8.22-1.05,2.78-2.13,5.61-3.2,8.44-1.13,2.81-2.25,5.61-3.36,8.37-1.08,2.77-2.29,5.45-3.38,8.06-2.23,5.22-4.41,10.04-6.37,14.15-3.87,8.23-6.88,13.54-6.88,13.54,0,0,1.39-5.95,4.11-14.63,1.34-4.35,3-9.38,4.89-14.73.97-2.66,1.89-5.45,2.97-8.22,1.06-2.78,2.13-5.61,3.2-8.44,1.13-2.81,2.25-5.61,3.36-8.37,1.09-2.77,2.29-5.45,3.39-8.06,2.23-5.21,4.41-10.04,6.37-14.15,3.87-8.23,6.88-13.54,6.88-13.54Z"/><path class="cls-5" d="m704.71,302.46c-20.87,18.15-40.93,37.21-61.52,55.68"/><path class="cls-5" d="m737.09,273.3c-2.74,2.48-5.48,4.95-8.23,7.43"/><path d="m712.45,188.92s-6.55,4.51-16.71,10.68c-5.06,3.11-11.03,6.63-17.47,10.31-3.23,1.82-6.54,3.76-9.96,5.62-3.41,1.87-6.88,3.77-10.35,5.68-3.5,1.85-6.99,3.7-10.43,5.52-3.43,1.84-6.87,3.53-10.17,5.23-6.61,3.36-12.84,6.39-18.22,8.91-10.74,5.08-18.12,8.07-18.12,8.07,0,0,6.55-4.52,16.7-10.69,5.06-3.11,11.02-6.63,17.47-10.31,3.23-1.82,6.53-3.77,9.96-5.61,3.41-1.87,6.88-3.77,10.35-5.67,5.49-2.91,8.16-4.32,10.43-5.52,3.43-1.84,6.87-3.53,10.17-5.22,6.62-3.35,12.84-6.39,18.22-8.91,10.74-5.08,18.11-8.07,18.11-8.07Z"/><line class="cls-5" x1="825.82" y1="298.78" x2="747.7" y2="441.75"/><path d="m903.58,313.17s-1.87,10.08-5.35,25.01c-1.71,7.47-3.82,16.16-6.18,25.44-1.21,4.63-2.38,9.44-3.7,14.29-1.31,4.85-2.63,9.79-3.96,14.72-1.38,4.92-2.77,9.83-4.13,14.67-1.34,4.85-2.8,9.57-4.13,14.17-2.72,9.18-5.36,17.73-7.71,25.02-4.66,14.61-8.21,24.22-8.21,24.22,0,0,1.87-10.08,5.34-25.01,1.71-7.47,3.81-16.16,6.18-25.44,1.21-4.63,2.37-9.44,3.71-14.29,1.31-4.85,2.63-9.79,3.96-14.72,1.38-4.92,2.77-9.83,4.13-14.67,1.34-4.84,2.8-9.57,4.13-14.17,2.72-9.18,5.36-17.72,7.71-25.02,4.66-14.61,8.21-24.22,8.21-24.22Z"/></g><g id="Layer_3"><path class="cls-14" d="m725.32,542.28c-3.93-7.49-8.05-14-11.98-19.53,4.88-3.44,9.75-6.88,14.63-10.32-5.2-7.39-11.26-15.28-18.29-23.39-6.37-7.35-12.67-13.87-18.68-19.63,48.87-54.58,97.74-109.16,146.61-163.74-12.56-11.42-27.43-23.63-44.75-35.73-15.69-10.96-30.75-19.97-44.58-27.38-.14.92-.5,1.79-1.09,2.5-.15.26-.32.52-.53.77-2.91,3.53-4.1,8.37-5.98,12.46-2.14,4.65-5.06,8.88-7.6,13.32-5.56,9.71-10.65,19.72-16.03,29.54-.08.14-.17.27-.25.4.09,1.22-.32,2.51-1.43,3.65-2.36,2.41-3.66,6.34-5.19,9.27-1.45,2.77-2.95,5.56-4.47,8.28-2.22,3.95-3.98,8.03-6.74,11.38.1,1.83-.67,3.72-2.31,4.67-.03,1.49-.62,2.96-1.79,3.89-.11,1.28-.64,2.39-1.48,3.2-.23.6-.54,1.16-.99,1.63-.25.62-.6,1.2-1.09,1.67-.29,1.34-1.08,2.56-2.35,3.23-50.31,94.7-100.61,189.41-150.92,284.11-1.12,2.12-2.25,4.24-3.37,6.35l-3.13-5.82-3.56.04-6.91-6.92-4.07,4.11-2.57,2.97-6.48-2.5-2.84,7.36-4.68-.74-.63,8.98-5.28.8,2.79,7.47,2.75,8.51-.72,1.85,6.67,7.54c-4.1,4.8-8.2,9.61-12.31,14.41.92,1.35,2.81,3.73,6.03,5.52,2.49,1.39,4.81,1.88,6.3,2.08-.4,1.03-.79,2.06-1.19,3.09,1.91.95,4.03,1.91,6.36,2.82,2.45.95,4.78,1.71,6.92,2.31-1.11,5.01-2.22,10.03-3.32,15.04,2.33,1.24,6,2.83,10.74,3.44,3.24.42,6.05.25,8.18-.04.08,3.46.17,6.92.25,10.39,2.92.59,7.38,1.12,12.67.28,3.63-.58,6.61-1.64,8.82-2.63,1.18,4.6,2.36,9.19,3.55,13.79,3.65-.33,8.9-1.26,14.64-3.93,3.69-1.71,6.63-3.7,8.85-5.45.42.75.84,1.51,1.26,2.26,3.18-.95,7.5-2.61,12.1-5.62,4.35-2.84,7.5-5.93,9.61-8.35,4.01,4.62,8.02,9.25,12.03,13.87,3.67-2.6,8.09-6.23,12.47-11.15,3.59-4.04,6.28-7.97,8.29-11.35,4.75,3.02,9.5,6.03,14.25,9.05,2.98-3.95,6.26-8.9,9.29-14.87,2.77-5.45,4.73-10.55,6.13-14.96,6.48,2.5,12.97,5.01,19.45,7.51,2.49-5.62,5.06-12.6,6.96-20.79,1.56-6.7,2.36-12.82,2.73-18.11,1.03-5.52,1.86-12.38,1.79-20.25-.07-7.59-.95-14.21-2.02-19.59.96-.34,1.92-.68,2.88-1.02-.42-5.72-1.34-12.53-3.25-20.06-1.82-7.18-4.12-13.36-6.37-18.43,15.4-5.88,30.8-11.76,46.2-17.64-2.52-7.67-6.03-16.49-10.95-25.87Z"/><circle class="cls-15" cx="533.93" cy="644.79" r="6.81"/><line class="cls-3" x1="837.61" y1="305.68" x2="538.54" y2="639.78"/><line class="cls-3" x1="537.92" y1="641.66" x2="727.97" y2="512.43"/><line class="cls-3" x1="736.26" y1="568.15" x2="532.99" y2="647.21"/><line class="cls-3" x1="699.69" y1="624.29" x2="531.76" y2="645.67"/><line class="cls-3" x1="697.04" y1="665.13" x2="533.68" y2="645.42"/><line class="cls-3" x1="687.35" y1="704.03" x2="536.41" y2="645.75"/><line class="cls-3" x1="652.47" y1="726.34" x2="535.1" y2="645.24"/><line class="cls-3" x1="617.47" y1="739.8" x2="533.93" y2="644.79"/><line class="cls-3" x1="583.73" y1="739.9" x2="537.11" y2="648.41"/><line class="cls-3" x1="558.98" y1="747.02" x2="535.12" y2="649.1"/><line class="cls-3" x1="533.94" y1="735.58" x2="532.99" y2="647.21"/><line class="cls-3" x1="514.78" y1="721.79" x2="534.66" y2="642.89"/><line class="cls-3" x1="504.83" y1="701.62" x2="533.02" y2="649.42"/><line class="cls-3" x1="506" y1="676.53" x2="531.23" y2="647.95"/><line class="cls-3" x1="500.05" y1="667.13" x2="531.23" y2="647.95"/><line class="cls-3" x1="497.3" y1="658.62" x2="531.76" y2="645.67"/><line class="cls-3" x1="499.78" y1="650.36" x2="531.76" y2="645.67"/><line class="cls-3" x1="505.09" y1="642.12" x2="531.76" y2="645.67"/><line class="cls-3" x1="514.42" y1="637.26" x2="529.55" y2="643.1"/><line class="cls-3" x1="516.99" y1="634.29" x2="530.29" y2="641.2"/><line class="cls-3" x1="527.96" y1="637.11" x2="530.29" y2="641.2"/><path class="cls-30" d="m792.86,269.94c-15.7-11.33-30.71-20.19-44.08-27.12l-7.36,13.74c-.24.58-.48,1.16-.74,1.72-1.39,3.03-3.11,5.87-4.85,8.72l-19.11,35.7c-.16.82-.57,1.63-1.28,2.39l-20.95,39.14c-.13.32-.29.62-.48.9l-159.37,297.76c99.7-111.63,203.25-225.58,302.95-337.21-11.29-11.21-27.87-23.55-44.75-35.73Z"/><text class="cls-16" transform="translate(694.87 318.81) rotate(28.37) scale(1.68 1)"><tspan x="0" y="0">L</tspan></text><text class="cls-19" transform="translate(674.05 388.12) rotate(28.37) scale(1.7 1)"><tspan x="0" y="0">I</tspan></text><text class="cls-18" transform="translate(633.22 445.41) rotate(28.37) scale(1.1 1)"><tspan x="0" y="0">G</tspan></text><text class="cls-17" transform="translate(616.26 490.51) rotate(28.37) scale(1.16 1)"><tspan x="0" y="0">H</tspan></text><text class="cls-17" transform="translate(606.17 537.49) rotate(28.37) scale(.7 1)"><tspan x="0" y="0">T</tspan></text><text class="cls-23" transform="translate(739.65 219.86) rotate(34.64)"><tspan x="0" y="0">27,034 sightings</tspan></text><text class="cls-8" transform="translate(718.16 486.57) rotate(-37.93)"><tspan x="0" y="0">Circle: 13,958</tspan></text><text class="cls-8" transform="translate(736.24 542.79) rotate(-29.6)"><tspan x="0" y="0">Triangle: 12,879</tspan></text><text class="cls-8" transform="translate(706.87 607.73) rotate(-17.78)"><tspan x="0" y="0">Fireball: 9,796</tspan></text><text class="cls-8" transform="translate(706.86 651.62) rotate(-.62)"><tspan x="0" y="0">Disk: 8,526</tspan></text><text class="cls-9" transform="translate(581.19 551.65) rotate(-61.63)"><tspan x="0" y="0">UFO Sightings by Shape</tspan></text><rect class="cls-32" x="146.58" y="130.52" width="166.2" height="166.2"/><circle class="cls-29" cx="229.68" cy="213.62" r="56.88"/><path d="m268.25,211.74c13.63,8.29,25.32,16.32,32.33,22.01-5.81-7-17.01-16.09-30.83-24.49-13.82-8.4-27.04-14.17-35.93-16.1,8.28,3.6,20.79,10.29,34.42,18.58Z"/><path d="m303.98,238.77c-5.69-5.51-19.63-15.41-36.55-25.69s-32.12-18.11-39.63-20.63c-2.32.06-3.94.66-4.67,1.87-3.29,5.41,12.26,20.86,34.72,34.52,22.46,13.66,43.33,20.35,46.62,14.94.74-1.21.53-2.92-.49-5.01Z"/><ellipse class="cls-15" cx="260.53" cy="224.45" rx="2.32" ry="15.1" transform="translate(-66.61 330.42) rotate(-58.69)"/><path d="m286.27,219.3c.77-4.84-3.98-11.7-11.78-16.44-7.8-4.74-16.07-5.8-20.02-2.89,11.37,5.17,21.97,11.62,31.8,19.33Z"/><ellipse class="cls-15" cx="265.22" cy="216.24" rx="1.67" ry="2.98" transform="translate(-57.34 330.49) rotate(-58.69)"/><ellipse class="cls-15" cx="292.78" cy="235.84" rx=".96" ry="3.13" transform="translate(-60.85 363.45) rotate(-58.69)"/><ellipse class="cls-15" cx="235.14" cy="200.79" rx=".96" ry="3.13" transform="translate(-58.59 297.36) rotate(-58.69)"/><ellipse class="cls-15" cx="240.61" cy="212.87" rx=".5" ry="1.64" transform="translate(-66.29 307.84) rotate(-58.69)"/><ellipse class="cls-15" cx="279.97" cy="236.8" rx=".5" ry="1.64" transform="translate(-67.83 352.97) rotate(-58.69)"/><path d="m196.72,225.79c10.58,2.88,19.83,5.97,25.54,8.39-5.17-3.52-14.29-7.39-25.02-10.32-10.73-2.92-20.55-4.22-26.79-3.8,6.15.81,15.69,2.84,26.27,5.73Z"/><path d="m225.46,236.85c-4.81-2.56-15.9-6.44-29.02-10.02-13.13-3.58-24.65-5.85-30.09-6.09-1.52.48-2.47,1.18-2.73,2.12-1.14,4.2,12.06,11.45,29.49,16.2,17.43,4.75,32.49,5.2,33.63,1,.26-.94-.21-2.03-1.28-3.21Z"/><ellipse class="cls-15" cx="194.03" cy="235.64" rx="1.59" ry="10.38" transform="translate(-84.33 360.89) rotate(-74.76)"/><path d="m210.06,227.36c-.32-3.69-4.69-7.58-10.74-9.23-6.05-1.65-11.79-.51-13.94,2.51,8.53,1.14,16.75,3.38,24.68,6.72Z"/><ellipse class="cls-15" cx="195.57" cy="229.33" rx="1.15" ry="2.05" transform="translate(-77.11 357.72) rotate(-74.76)"/><ellipse class="cls-15" cx="217.49" cy="237.03" rx=".66" ry="2.15" transform="translate(-68.38 384.56) rotate(-74.76)"/><ellipse class="cls-15" cx="172.77" cy="224.84" rx=".66" ry="2.15" transform="translate(-89.59 332.42) rotate(-74.76)"/><ellipse class="cls-15" cx="178.68" cy="231.78" rx=".35" ry="1.13" transform="translate(-91.93 343.24) rotate(-74.76)"/><ellipse class="cls-15" cx="209.22" cy="240.11" rx=".35" ry="1.13" transform="translate(-77.44 378.84) rotate(-74.76)"/><line class="cls-5" x1="180.45" y1="238.41" x2="164.86" y2="260.86"/><path d="m180.45,238.41s-.85,1.49-2.23,3.65c-.68,1.09-1.5,2.34-2.38,3.67-.45.66-.9,1.36-1.38,2.05-.48.69-.96,1.4-1.44,2.1-.49.7-.98,1.4-1.47,2.09-.48.69-.97,1.36-1.44,2.01-.94,1.3-1.83,2.5-2.61,3.52-1.55,2.04-2.65,3.36-2.65,3.36,0,0,.85-1.49,2.23-3.65.68-1.09,1.5-2.34,2.38-3.67.45-.66.9-1.36,1.38-2.05.48-.69.96-1.4,1.44-2.1.49-.7.98-1.4,1.47-2.08.48-.69.97-1.35,1.44-2.01.94-1.3,1.83-2.5,2.61-3.52,1.55-2.04,2.65-3.36,2.65-3.36Z"/><line class="cls-5" x1="192.86" y1="244.17" x2="181.56" y2="287.96"/><path d="m192.86,244.17s-.14.69-.4,1.9c-.27,1.21-.64,2.94-1.12,5-.47,2.07-1.05,4.47-1.68,7.05-.32,1.29-.65,2.62-.98,3.97-.34,1.35-.69,2.72-1.04,4.09-.36,1.37-.72,2.73-1.07,4.08-.36,1.34-.71,2.67-1.06,3.95-.69,2.56-1.36,4.94-1.94,6.98-.58,2.04-1.1,3.73-1.44,4.92-.35,1.19-.57,1.86-.57,1.86,0,0,.14-.69.4-1.9.27-1.21.63-2.94,1.12-5,.47-2.07,1.05-4.47,1.68-7.05.32-1.29.65-2.61.98-3.97.34-1.35.69-2.72,1.04-4.09.36-1.37.72-2.73,1.07-4.08.36-1.34.72-2.67,1.06-3.95.69-2.56,1.36-4.94,1.94-6.98.58-2.04,1.1-3.73,1.44-4.92.35-1.19.57-1.86.57-1.86Z"/><line class="cls-5" x1="205.37" y1="245.88" x2="205.23" y2="262.56"/><path d="m205.37,245.88s.14,1.04.23,2.61c.05.78.09,1.69.12,2.67,0,.49.03.99.03,1.51,0,.51,0,1.03,0,1.56,0,.52-.02,1.04-.03,1.55,0,.51-.03,1.02-.05,1.51-.04.98-.09,1.89-.16,2.67-.12,1.56-.28,2.6-.28,2.6,0,0-.14-1.04-.24-2.61-.05-.78-.09-1.69-.12-2.67,0-.49-.03-.99-.03-1.51,0-.51,0-1.03,0-1.56,0-.52.02-1.04.03-1.55,0-.51.04-1.02.05-1.51.04-.98.09-1.89.16-2.67.12-1.56.28-2.6.28-2.6Z"/><line class="cls-5" x1="182.39" y1="251.24" x2="172.47" y2="270.66"/><path d="m182.39,251.24s-.49,1.28-1.32,3.15c-.41.94-.91,2.02-1.47,3.17-.28.57-.56,1.17-.86,1.77-.3.6-.61,1.21-.91,1.82-.31.6-.63,1.21-.94,1.8-.31.6-.63,1.17-.93,1.74-.61,1.12-1.19,2.16-1.71,3.05-1.02,1.77-1.78,2.92-1.78,2.92,0,0,.49-1.28,1.32-3.15.41-.94.91-2.02,1.47-3.17.28-.57.56-1.17.86-1.77.3-.6.61-1.21.91-1.82.31-.6.63-1.21.94-1.8.31-.6.63-1.17.93-1.74.61-1.12,1.19-2.16,1.71-3.05,1.02-1.77,1.78-2.92,1.78-2.92Z"/><line class="cls-5" x1="198.24" y1="249.9" x2="194.43" y2="277.71"/><path d="m198.5,249.91s-.09,1.76-.34,4.39c-.12,1.32-.28,2.85-.48,4.49-.1.82-.19,1.67-.31,2.53-.11.86-.23,1.73-.34,2.6-.12.87-.25,1.74-.37,2.6-.12.86-.26,1.7-.38,2.52-.25,1.63-.51,3.15-.75,4.45-.46,2.6-.85,4.32-.85,4.32,0,0,.09-1.76.34-4.39.12-1.32.28-2.85.48-4.49.1-.82.19-1.67.31-2.53.11-.86.23-1.73.34-2.6.12-.87.25-1.74.37-2.6.12-.86.26-1.7.38-2.51.26-1.63.51-3.15.75-4.45.46-2.6.85-4.32.85-4.32Z"/><path d="m209.67,154.73c12.95-2.83,24.6-4.7,32.08-5.3-7.51-.88-19.46.07-32.6,2.94s-24.4,6.98-30.86,10.92c7.05-2.58,18.42-5.74,31.37-8.57Z"/><path d="m246.68,150.5c-6.59-.05-20.65,1.99-36.73,5.5-16.08,3.51-29.71,7.53-35.68,10.32-1.36,1.36-1.99,2.65-1.74,3.8,1.12,5.14,19.34,5.52,40.69.86,21.35-4.66,37.75-12.61,36.62-17.75-.25-1.15-1.36-2.06-3.17-2.73Z"/><ellipse class="cls-15" cx="212.31" cy="166.8" rx="12.56" ry="1.93" transform="translate(-30.71 49.17) rotate(-12.33)"/><path d="m224.85,148.94c-2.17-2.71-8.86-3.64-16.27-2.02-7.41,1.62-13.1,5.25-13.95,8.62,9.86-3.2,19.93-5.4,30.22-6.6Z"/><ellipse class="cls-15" cx="210.43" cy="159.16" rx="2.48" ry="1.39" transform="translate(-29.13 48.59) rotate(-12.33)"/><ellipse class="cls-15" cx="238.25" cy="155.15" rx="2.6" ry=".8" transform="translate(-27.63 54.44) rotate(-12.33)"/><ellipse class="cls-15" cx="183.46" cy="167.12" rx="2.6" ry=".8" transform="translate(-31.45 43.02) rotate(-12.33)"/><ellipse class="cls-15" cx="193.69" cy="171.26" rx="1.37" ry=".42" transform="translate(-32.1 45.3) rotate(-12.33)"/><ellipse class="cls-15" cx="231.1" cy="163.08" rx="1.37" ry=".42" transform="translate(-29.49 53.1) rotate(-12.33)"/><line class="cls-5" x1="174.51" y1="163.13" x2="140.44" y2="170.91"/><path d="m174.51,163.13s-.53.14-1.45.39c-.93.24-2.24.6-3.83,1-1.59.4-3.44.86-5.43,1.34-1,.24-2.03.48-3.07.73-1.05.24-2.11.49-3.17.74-1.07.24-2.13.48-3.18.71-1.05.23-2.08.46-3.08.68-2,.43-3.87.83-5.48,1.15-1.6.33-2.95.58-3.89.76-.94.17-1.48.27-1.48.27,0,0,.53-.14,1.45-.39.93-.24,2.24-.6,3.83-1,1.59-.4,3.44-.86,5.43-1.34,1-.24,2.03-.48,3.07-.73,1.05-.24,2.11-.49,3.17-.74,1.07-.24,2.13-.48,3.18-.71,1.05-.23,2.08-.46,3.08-.68,2-.43,3.87-.83,5.48-1.15,1.6-.33,2.95-.58,3.89-.76.94-.17,1.48-.27,1.48-.27Z"/><line class="cls-5" x1="221.38" y1="173.2" x2="166.23" y2="190.54"/><path d="m221.38,173.2s-.86.29-2.35.8c-1.5.5-3.64,1.23-6.21,2.07-2.58.84-5.58,1.84-8.8,2.87-3.23,1.03-6.67,2.13-10.11,3.22-3.45,1.07-6.9,2.14-10.14,3.14-3.23,1.01-6.27,1.9-8.86,2.69-2.59.79-4.77,1.4-6.28,1.85-1.52.44-2.39.69-2.39.69,0,0,.86-.29,2.35-.8,1.5-.5,3.64-1.24,6.21-2.08,2.58-.84,5.58-1.84,8.8-2.87,3.23-1.03,6.67-2.13,10.11-3.22,3.45-1.07,6.9-2.14,10.14-3.14,3.24-1,6.27-1.9,8.86-2.69,2.59-.79,4.77-1.4,6.28-1.85,1.52-.44,2.39-.69,2.39-.69Z"/><line class="cls-5" x1="193.81" y1="149.4" x2="177.84" y2="152.58"/><path d="m193.81,149.4s-.98.3-2.46.67c-.74.19-1.61.4-2.54.6-.47.1-.95.21-1.44.31-.49.1-.99.2-1.49.31-.5.1-1,.19-1.49.29-.49.1-.98.18-1.45.26-.94.16-1.82.31-2.58.41-1.51.22-2.53.32-2.53.32,0,0,.98-.3,2.46-.67.74-.19,1.61-.4,2.54-.6.47-.1.95-.22,1.44-.31.49-.1.99-.2,1.49-.31.5-.1,1-.19,1.49-.29.49-.1.98-.18,1.45-.26.94-.16,1.82-.31,2.58-.41,1.51-.22,2.53-.32,2.53-.32Z"/><line class="cls-5" x1="188.68" y1="153.72" x2="172.71" y2="156.9"/><path d="m188.68,153.72s-.98.3-2.46.67c-.74.19-1.61.4-2.54.6-.47.1-.95.21-1.44.31-.49.1-.99.2-1.49.31-.5.1-1,.19-1.49.29-.49.1-.98.18-1.45.26-.94.16-1.82.31-2.58.41-1.51.22-2.53.32-2.53.32,0,0,.98-.3,2.46-.67.74-.19,1.61-.4,2.54-.6.47-.1.95-.22,1.44-.31.49-.1.99-.2,1.49-.31.5-.1,1-.19,1.49-.29.49-.1.98-.18,1.45-.26.94-.16,1.82-.31,2.58-.41,1.51-.22,2.53-.32,2.53-.32Z"/><line class="cls-5" x1="168.46" y1="168.56" x2="152.5" y2="171.74"/><path d="m168.46,168.56s-.98.3-2.46.67c-.74.19-1.61.4-2.54.6-.47.1-.95.21-1.44.31-.49.1-.99.2-1.49.31-.5.1-1,.19-1.49.29-.49.1-.98.18-1.45.26-.94.16-1.82.31-2.58.41-1.51.22-2.53.32-2.53.32,0,0,.98-.3,2.46-.67.74-.19,1.61-.4,2.54-.6.47-.1.95-.22,1.44-.31.49-.1.99-.2,1.49-.31.5-.1,1-.19,1.49-.29.49-.1.98-.18,1.45-.26.94-.16,1.82-.31,2.58-.41,1.51-.22,2.53-.32,2.53-.32Z"/><line class="cls-5" x1="219.99" y1="177.63" x2="204.59" y2="182.9"/><path d="m219.99,177.63s-.93.43-2.35,1c-.71.29-1.54.61-2.44.94-.45.16-.91.34-1.38.5-.47.17-.95.33-1.43.5-.48.16-.96.32-1.44.48-.47.16-.95.3-1.4.45-.91.29-1.76.54-2.5.75-1.47.42-2.47.65-2.47.65,0,0,.93-.43,2.35-1,.71-.29,1.54-.61,2.44-.94.45-.16.91-.34,1.38-.5.47-.17.95-.33,1.43-.5.48-.16.96-.32,1.44-.48.47-.16.95-.3,1.4-.45.91-.29,1.76-.54,2.5-.75,1.47-.42,2.46-.65,2.46-.65Z"/><line class="cls-5" x1="179.83" y1="181.89" x2="152.74" y2="188.47"/><path d="m179.83,181.89s-.42.13-1.15.34c-.73.21-1.78.52-3.04.86-1.26.35-2.73.74-4.32,1.15-.79.2-1.61.41-2.44.62-.83.21-1.68.42-2.52.62-.85.2-1.69.4-2.53.6-.83.2-1.66.38-2.45.57-1.59.36-3.08.69-4.36.96-1.28.27-2.35.48-3.1.63-.75.15-1.18.22-1.18.22,0,0,.42-.13,1.15-.34.73-.21,1.78-.52,3.04-.86,1.26-.35,2.73-.74,4.32-1.15.79-.2,1.61-.42,2.44-.62.83-.21,1.68-.41,2.52-.62.85-.2,1.69-.4,2.53-.6.84-.19,1.66-.38,2.45-.57,1.59-.36,3.08-.69,4.36-.96,1.28-.27,2.35-.48,3.1-.63.75-.15,1.18-.22,1.18-.22Z"/><path d="m304.82,690.84c-5.61-.92-14.61-.62-24.57,1.08s-18.55,4.39-23.54,7.12c5.38-1.69,14.02-3.66,23.84-5.34,9.82-1.67,18.63-2.68,24.26-2.86Z"/><path d="m252.15,703.97c.66,3.9,14.32,4.82,30.51,2.06,16.19-2.76,28.77-8.15,28.1-12.05-.15-.87-.95-1.59-2.28-2.16-4.94-.27-15.57.78-27.76,2.85-12.19,2.08-22.56,4.62-27.14,6.5-1.07.98-1.59,1.92-1.44,2.79Z"/><ellipse class="cls-15" cx="282.11" cy="702.86" rx="9.43" ry="1.45" transform="translate(-114.09 57.4) rotate(-9.67)"/><path d="m291.26,690.04c-1.54-2.11-6.53-3.04-12.14-2.08-5.62.96-10.02,3.48-10.77,5.99,7.51-2.06,15.15-3.36,22.91-3.91Z"/><ellipse class="cls-15" cx="281.27" cy="697.01" rx="1.86" ry="1.04" transform="translate(-113.12 57.17) rotate(-9.67)"/><ellipse class="cls-15" cx="260.76" cy="702.05" rx="1.96" ry=".6" transform="translate(-114.26 53.8) rotate(-9.67)"/><ellipse class="cls-15" cx="302.3" cy="694.97" rx="1.96" ry=".6" transform="translate(-112.48 60.68) rotate(-9.67)"/><ellipse class="cls-15" cx="296.34" cy="700.72" rx="1.03" ry=".31" transform="translate(-113.53 59.76) rotate(-9.67)"/><ellipse class="cls-15" cx="267.98" cy="705.56" rx="1.03" ry=".31" transform="translate(-114.74 55.06) rotate(-9.67)"/><line class="cls-5" x1="333.33" y1="685.49" x2="307.41" y2="689.67"/><path d="m308.52,689.44c.71-.13,1.71-.34,2.92-.56,1.21-.23,2.62-.48,4.14-.74.76-.13,1.54-.26,2.34-.4.8-.13,1.61-.26,2.42-.4.81-.13,1.62-.26,2.42-.38.8-.12,1.58-.24,2.34-.36,1.52-.23,2.94-.43,4.16-.6,1.22-.17,2.24-.29,2.95-.38.71-.09,1.12-.13,1.12-.13,0,0-.4.08-1.11.22-.71.13-1.71.34-2.92.56-1.21.23-2.62.48-4.14.74-.76.13-1.54.26-2.34.4-.8.13-1.61.26-2.42.4-.81.13-1.62.26-2.42.38-.8.12-1.58.24-2.34.36-1.52.23-2.94.43-4.16.6-1.22.17-2.24.29-2.95.38-.71.09-1.12.13-1.12.13,0,0,.4-.08,1.11-.22Z"/><line class="cls-5" x1="320.89" y1="706.43" x2="277.59" y2="709.87"/><path d="m279.45,709.68c1.18-.11,2.87-.29,4.9-.48,2.03-.18,4.39-.41,6.93-.62,2.54-.21,5.24-.44,7.95-.66,2.71-.2,5.41-.41,7.95-.6,2.54-.19,4.91-.34,6.94-.48,2.03-.14,3.73-.23,4.91-.3,1.19-.06,1.86-.1,1.86-.1,0,0-.68.07-1.86.19-1.18.11-2.87.29-4.9.48-2.03.18-4.39.41-6.93.62-2.54.21-5.24.44-7.95.66-2.71.2-5.41.41-7.95.6-2.54.19-4.91.34-6.94.48-2.03.14-3.73.23-4.91.3-1.19.06-1.86.1-1.86.1,0,0,.68-.07,1.86-.19Z"/><line class="cls-5" x1="302.12" y1="683.25" x2="290.1" y2="685.53"/><path d="m291.96,685.04c.56-.14,1.21-.29,1.91-.44.35-.07.71-.15,1.08-.23.37-.07.74-.15,1.12-.22.38-.07.75-.14,1.12-.2.37-.07.74-.13,1.09-.19.71-.12,1.37-.22,1.94-.29,1.14-.16,1.9-.22,1.9-.22,0,0-.74.22-1.85.49-.56.14-1.21.29-1.91.44-.35.07-.71.16-1.08.23-.37.07-.74.15-1.12.22-.38.07-.75.14-1.12.2-.37.07-.74.13-1.09.19-.71.12-1.37.22-1.94.29-1.14.16-1.9.22-1.9.22,0,0,.74-.22,1.85-.49Z"/><line class="cls-5" x1="306.91" y1="684.82" x2="294.89" y2="687.09"/><path d="m296.74,686.61c.56-.14,1.21-.29,1.91-.44.35-.07.71-.15,1.08-.23.37-.07.74-.15,1.12-.22.38-.07.75-.14,1.12-.2.37-.07.74-.13,1.09-.19.71-.12,1.37-.22,1.94-.29,1.14-.16,1.9-.22,1.9-.22,0,0-.74.22-1.85.49-.56.14-1.21.29-1.91.44-.35.07-.71.16-1.08.23-.37.07-.74.15-1.12.22-.38.07-.75.14-1.12.2-.37.07-.74.13-1.09.19-.71.12-1.37.22-1.94.29-1.14.16-1.9.22-1.9.22,0,0,.74-.22,1.85-.49Z"/><line class="cls-5" x1="325.17" y1="689.47" x2="313.15" y2="691.75"/><path d="m315.01,691.26c.56-.14,1.21-.29,1.91-.44.35-.07.71-.15,1.08-.23.37-.07.74-.15,1.12-.22.38-.07.75-.14,1.12-.2.37-.07.74-.13,1.09-.19.71-.12,1.37-.22,1.94-.29,1.14-.16,1.9-.22,1.9-.22,0,0-.74.22-1.85.49-.56.14-1.21.29-1.91.44-.35.07-.71.16-1.08.23-.37.07-.74.15-1.12.22-.38.07-.75.14-1.12.2-.37.07-.74.13-1.09.19-.71.12-1.37.22-1.94.29-1.14.16-1.9.22-1.9.22,0,0,.74-.22,1.85-.49Z"/><line class="cls-5" x1="292.02" y1="711.9" x2="279.81" y2="712.56"/><path d="m281.71,712.32c.57-.06,1.24-.12,1.95-.18.36-.03.73-.06,1.1-.08.38-.02.76-.05,1.14-.07.38-.02.76-.04,1.14-.05.38-.02.75-.03,1.1-.04.72-.02,1.39-.03,1.96-.03,1.15,0,1.92.03,1.92.03,0,0-.76.12-1.9.24-.57.06-1.24.12-1.95.18-.36.03-.73.06-1.1.08-.38.02-.76.05-1.14.07-.38.02-.76.04-1.14.05-.38.02-.75.03-1.1.04-.72.02-1.39.03-1.96.03-1.15,0-1.92-.03-1.92-.03,0,0,.76-.12,1.9-.24Z"/><line class="cls-5" x1="329.71" y1="701.19" x2="308.98" y2="704.23"/><path d="m309.87,704.05c.56-.1,1.37-.26,2.33-.43.97-.17,2.1-.36,3.31-.56.61-.1,1.23-.19,1.87-.3.64-.1,1.28-.19,1.93-.29.65-.09,1.3-.18,1.93-.28.64-.09,1.27-.17,1.87-.25,1.22-.16,2.35-.3,3.33-.42.98-.12,1.79-.19,2.36-.26.57-.06.9-.08.9-.08,0,0-.32.07-.88.18-.56.1-1.37.26-2.33.43-.97.17-2.1.36-3.31.56-.61.1-1.23.2-1.87.29-.64.1-1.28.19-1.93.29-.65.09-1.3.18-1.93.28-.64.09-1.27.17-1.87.25-1.22.16-2.35.3-3.33.42-.98.12-1.79.19-2.36.26-.57.06-.9.09-.9.09,0,0,.32-.07.88-.18Z"/><polyline class="cls-1" points="1052.55 282.04 1051.65 321.42 1370.32 321.42 1370.32 282.04"/><path d="m493.28,733.91c4.99-2.23,9.53-3.96,12.5-4.82-3.1.27-7.84,1.66-12.9,3.92-5.06,2.26-9.26,4.86-11.53,6.99,2.63-1.63,6.95-3.86,11.94-6.08Z"/><path d="m507.85,729.1c-2.66.53-8.16,2.53-14.36,5.3-6.19,2.76-11.35,5.52-13.53,7.15-.44.66-.58,1.24-.38,1.68.88,1.98,8.26.61,16.49-3.06,8.22-3.67,14.17-8.25,13.29-10.23-.2-.44-.72-.72-1.51-.84Z"/><ellipse class="cls-15" cx="495.36" cy="738.56" rx="5.17" ry=".79" transform="translate(-258 266.02) rotate(-24.05)"/><path d="m498.92,730.3c-1.21-1.16-4.07-1.16-6.93.12-2.85,1.27-4.76,3.4-4.71,5.08,3.67-2.2,7.55-3.93,11.64-5.2Z"/><ellipse class="cls-15" cx="493.96" cy="735.64" rx="1.02" ry=".57" transform="translate(-256.93 265.19) rotate(-24.05)"/><ellipse class="cls-15" cx="504.85" cy="731.69" rx="1.07" ry=".33" transform="translate(-254.38 269.29) rotate(-24.05)"/><ellipse class="cls-15" cx="483.75" cy="741.1" rx="1.07" ry=".33" transform="translate(-260.05 261.51) rotate(-24.05)"/><ellipse class="cls-15" cx="488.22" cy="741.92" rx=".56" ry=".17" transform="translate(-259.99 263.4) rotate(-24.05)"/><ellipse class="cls-15" cx="502.62" cy="735.49" rx=".56" ry=".17" transform="translate(-256.12 268.71) rotate(-24.05)"/><text class="cls-12" transform="translate(453.13 744.13)"><tspan x="0" y="0">8,023 </tspan><tspan x="-12.85" y="8.4">sightings</tspan><tspan x="-17.14" y="16.8">in Florida</tspan></text><text class="cls-12" transform="translate(565.75 182.16)"><tspan x="0" y="0">1947</tspan><tspan x="-53.55" y="8.4">Army declares Flying Saucer</tspan><tspan x="-34.27" y="16.8">found in Roswell, NM</tspan></text><text class="cls-12" transform="translate(1028.08 148.71)"><tspan x="0" y="0">1995 - 1996</tspan><tspan x="-25.7" y="8.4">Hollywood blockbusters </tspan><tspan x="-10.71" y="16.8">Apollo 13 and </tspan><tspan x="-17.14" y="25.2">Independence Day </tspan><tspan x="-2.14" y="33.6">are released</tspan></text><text class="cls-12" transform="translate(1332.95 151.83)"><tspan x="0" y="0">2020</tspan><tspan x="-8.57" y="8.4">COVID-19</tspan><tspan x="-8.57" y="16.8">Pandemic</tspan></text><text class="cls-23" transform="translate(1060.82 296.71) rotate(-.62)"><tspan x="0" y="0">86% of all sightings happened </tspan><tspan x="0" y="18">in 2000 or later</tspan></text><path class="cls-4" d="m388.21,721.42c4.71-18.72,19.04-33.53,37.5-38.69,19.26-5.39,40.08.55,53.79,15.33"/><ellipse class="cls-29" cx="479.5" cy="699.05" rx="2.29" ry="2.22"/><ellipse class="cls-29" cx="388.5" cy="722.42" rx="2.29" ry="2.22"/><text class="cls-13" transform="translate(451.51 709.89) rotate(-.62)"><tspan x="0" y="0">Wright Field</tspan><tspan x="0" y="7.2">Dayton, OH</tspan></text><text class="cls-13" transform="translate(368.03 732.64) rotate(-.62)"><tspan x="0" y="0">Roswell, NM</tspan></text><text class="cls-22" transform="translate(333.33 682.34) rotate(-.62)"><tspan x="0" y="0">Top Location:</tspan><tspan x="0" y="12">15,766 sightings</tspan><tspan x="0" y="24">in California</tspan></text><rect class="cls-34" x="935.87" y="384.52" width="422.34" height="387.08"/><text class="cls-22" transform="translate(1122.57 411.6)"><tspan x="0" y="0">TELETYPE</tspan></text><text class="cls-10" transform="translate(949.81 451.4)"><tspan x="0" y="0">FBI DALLAS</tspan><tspan class="cls-36" x="61.2" y="0">	</tspan><tspan class="cls-39" x="72" y="0">	</tspan><tspan x="108" y="0">7-8-47</tspan><tspan class="cls-42" x="144.72" y="0">	</tspan><tspan class="cls-39" x="180" y="0" xml:space="preserve">		</tspan><tspan x="252" y="0">6-17PM</tspan><tspan x="0" y="12">DIRECTOR AND SAC, CINCINNATI</tspan><tspan class="cls-37" x="171.36" y="12">	</tspan><tspan class="cls-39" x="180" y="12" xml:space="preserve">		</tspan><tspan class="cls-31" x="252" y="12">URGENT</tspan><tspan x="0" y="24">FLYING DISC, INFORMATION CONCERNING.</tspan><tspan class="cls-35" x="220.32" y="24">	</tspan><tspan class="cls-39" x="252" y="24" xml:space="preserve">		</tspan><tspan class="cls-38" x="324" y="24">HEADQUARTERS</tspan></text><text class="cls-11" transform="translate(950.69 496.34)"><tspan x="0" y="0">EIGHTH AIR FORCE, TELEPHONICALLY ADVISED THIS OFFICE THAT AN OBJECT</tspan><tspan x="0" y="16">PURPORTING TO BE A FLYING DISC WAS RECOVERED NEAR ROSWELL, NEW</tspan><tspan x="0" y="32">MEXICO, THIS DATE. THE DISC IS HEXAGONAL IN SHAPE AND WAS SUSPENDED</tspan><tspan x="0" y="48">FROM A BALLON BY CABLE, WHICH BALLON WAS APPROXIMATELY TWENTY</tspan><tspan x="0" y="64" xml:space="preserve">FEET IN DIAMETER.        FURTHER ADVISED THAT THE OBJECT</tspan><tspan x="0" y="80">FOUND RESEMBLES A HIGH ALTITUDE WEATHER BALLOON WITH A RADAR</tspan><tspan x="0" y="96">REFLECTOR, BUT THAT TELEPHONIC CONVERSATION BETWEEN THEIR OFFICE</tspan><tspan x="0" y="112" xml:space="preserve">AND WRIGHT FIELD HAD NOT     BORNE OUT THIS BELIEF. .DISC AND</tspan><tspan x="0" y="128">BALLOON BEING TRANSPORTED TO WRIGHT FIELD BY SPECIAL PLANE FOR EXAMINAT</tspan><tspan x="0" y="144">INFORMATION PROVIDED THIS OFFICE BECAUSE OF NATIONAL INTEREST IN CASE.</tspan><tspan x="0" y="160" xml:space="preserve">   AND FACT THAT NATIONAL BROADCASTING COMPANY, ASSOCIATED PRESS, AND</tspan><tspan x="0" y="176">OTHERS ATTEMPTING TO BREAK STORY OF LOCATION OF DISC TODAY.</tspan><tspan x="0" y="192" xml:space="preserve">          ADVISED WOULD REQUEST WRIGHT FIELD TO ADVISE CINCINNATI</tspan><tspan x="0" y="208">OFFICE RESULTS OF EXAMINATION. NO FURTHER INVESTIGATION BEING </tspan><tspan x="0" y="224">CONDUCTED.</tspan><tspan x="0" y="256">END</tspan></text><path d="m1206.66,478.46c12.76-.87,25.49-2.03,38.19-3.49l-4.21-10.16c-2.21,2.8-4.53,5.47-7,8.04-3.86,4.01-.05,12.11,5.79,9.95,7.23-2.67,14.36-5.55,21.45-8.58s.96-13.27-6.01-10.28c-6.13,2.63-12.34,5.07-18.6,7.38l5.79,9.95c2.47-2.57,4.8-5.24,7-8.04,2.74-3.48,1.54-10.82-4.21-10.16-12.7,1.46-25.43,2.62-38.19,3.49-7.6.52-7.66,12.43,0,11.91h0Z"/><path d="m1258.5,434.94c12.95-6.14,26.07-11.86,39.39-17.14l-6.72-8.75c-3.96,5.14-8.27,9.99-12.78,14.65-5.49,5.68,2.53,12.98,8.42,8.42,6.19-4.8,12.93-8.83,19.95-12.3l-8.15-8.15c-3.81,7.69-13.04,13.07-19.78,17.98-7.89,5.74-16.06,11.07-24.44,16.05-6.63,3.94-.79,13.76,6.01,10.28,14.85-7.6,29.89-14.82,45.11-21.66l-8.15-8.15c-2.21,3.36-4.89,6.15-8.21,8.44-6.26,4.32-.84,13.9,6.01,10.28s14.09-7.44,21.13-11.17l-7.21-9.35c-7.64,7.15-15.27,14.31-22.91,21.46-5.07,4.75,1.38,12.45,7.21,9.35,10.02-5.32,19.72-11.19,29.09-17.59l-7.21-9.35c-7.07,5.76-14.33,11.26-21.78,16.53-6.15,4.35-.68,14.29,6.01,10.28,7.44-4.46,14.88-8.92,22.31-13.38l-7.21-9.35c-2.84,3.44-5.69,6.88-8.53,10.31-4.1,4.96,1.03,13,7.21,9.35,4.88-2.88,9.76-5.76,14.63-8.64-2.92-2.24-5.83-4.48-8.75-6.72-.91,3.55-2.03,6.98-3.39,10.38-2.07,5.18,4.6,8.89,8.75,6.72s8.33-4.36,12.5-6.54c-2.92-2.24-5.83-4.48-8.75-6.72-.36,1.66-.76,3.11-1.84,4.47-3.88,4.88,1.04,13.31,7.21,9.35,1.64-1.05,3.28-2.11,4.92-3.16,6.43-4.13.46-14.44-6.01-10.28-1.64,1.05-3.28,2.11-4.92,3.16l7.21,9.35c2.41-3.03,4.07-5.91,4.9-9.73,1.12-5.15-4.05-9.18-8.75-6.72-4.17,2.18-8.33,4.36-12.5,6.54,2.92,2.24,5.83,4.48,8.75,6.72,1.36-3.4,2.48-6.83,3.39-10.38,1.28-4.98-4.21-9.4-8.75-6.72-4.88,2.88-9.76,5.76-14.63,8.64l7.21,9.35c2.84-3.44,5.69-6.88,8.53-10.31,4.08-4.94-1.04-13.05-7.21-9.35-7.44,4.46-14.88,8.92-22.31,13.38l6.01,10.28c8.27-5.85,16.33-11.99,24.19-18.4,5.21-4.24-1.64-13.16-7.21-9.35-9.37,6.4-19.07,12.27-29.09,17.59l7.21,9.35c7.64-7.15,15.27-14.31,22.91-21.46,5.07-4.75-1.38-12.43-7.21-9.35-7.04,3.72-14.09,7.44-21.13,11.17l6.01,10.28c5.05-3.48,9.1-7.58,12.48-12.71,3.6-5.47-3.22-10.36-8.15-8.15-15.22,6.84-30.26,14.06-45.11,21.66l6.01,10.28c9.43-5.6,18.59-11.66,27.39-18.22,7.53-5.62,16.81-11.41,21.11-20.08,2.69-5.43-2.71-10.83-8.15-8.15-7.99,3.95-15.32,8.71-22.35,14.16l8.42,8.42c5.23-5.4,10.05-11.11,14.64-17.06,3.08-4-2.08-10.59-6.72-8.75-14.27,5.66-28.36,11.76-42.23,18.34-6.92,3.28-.88,13.55,6.01,10.28h0Z"/><path d="m1051.31,561.78c10.16.59,20.26.24,30.35-1.05,3.21-.41,5.92-2.44,5.95-5.95.03-2.9-2.76-6.36-5.95-5.95-10.09,1.29-20.2,1.64-30.35,1.05-7.65-.45-7.63,11.46,0,11.91h0Z"/><path d="m1285.24,673.08c16.72.9,33.38-.3,49.84-3.38,7.52-1.4,4.34-12.88-3.17-11.48-15.41,2.88-31.02,3.79-46.68,2.95-7.66-.41-7.63,11.5,0,11.91h0Z"/><path d="m954.27,691.26c14.49-.34,28.97-.12,43.45.65,7.66.41,7.63-11.5,0-11.91-14.47-.77-28.96-.98-43.45-.65-7.65.18-7.68,12.08,0,11.91h0Z"/><path d="m1255.86,737.28c13.75-4.67,27.23-10.02,40.47-15.98l-6.01-10.28c-21.65,13.28-44.4,24.65-68.1,33.81,1.53,3.63,3.06,7.25,4.59,10.88,17.67-7.53,35.34-15.06,53-22.59l-7.21-9.35c-5.76,4.86-11.53,9.72-17.29,14.58-4.68,3.95.35,11.47,5.79,9.95,24-6.71,48.15-13.48,73.05-15.77l-3-11.09c-15.05,8.37-30.09,16.73-45.14,25.1l6.01,10.28c10.42-6.29,21.26-11.81,32.56-16.35l-5.79-9.95c-5.23,4.57-10.46,9.13-15.69,13.7-3.64,3.18-.92,10.81,4.21,10.16,5.97-.75,11.79-1.85,17.56-3.56,7.33-2.17,4.21-13.67-3.17-11.48-4.72,1.4-9.51,2.52-14.4,3.14l4.21,10.16c5.23-4.57,10.46-9.13,15.69-13.7,4.31-3.77-.26-12.17-5.79-9.95-12.26,4.93-24.08,10.71-35.4,17.55-6.56,3.96-.7,14.01,6.01,10.28,15.05-8.37,30.09-16.73,45.14-25.1,4.92-2.74,3.01-11.65-3-11.09-26,2.39-51.15,9.18-76.21,16.19l5.79,9.95c5.76-4.86,11.53-9.72,17.29-14.58,5.64-4.75-1.57-11.76-7.21-9.35-17.67,7.53-35.34,15.06-53,22.59-6.14,2.62-1.72,13.32,4.59,10.88,24.66-9.53,48.4-21.18,70.94-35.01,6.67-4.09.85-13.37-6.01-10.28-12.3,5.54-24.86,10.44-37.63,14.78-7.22,2.45-4.12,13.96,3.17,11.48h0Z"/><path d="m951.58,658.51c2.94,1.11,6.1,1.62,9.24,1.67s6.1-2.77,5.95-5.95-2.62-5.9-5.95-5.95c-.56,0-1.12-.05-1.68-.07-.72-.07-.74-.07-.09,0-.28-.04-.55-.1-.83-.15-1.19-.24-2.35-.6-3.49-1.03-2.92-1.1-6.65,1.22-7.32,4.16-.77,3.39,1.03,6.14,4.16,7.32h0Z"/><path d="m1091.78,610.11h11.9c7.66,0,7.67-11.91,0-11.91h-11.9c-7.66,0-7.67,11.91,0,11.91h0Z"/><text class="cls-20" transform="translate(193.37 665.02) rotate(-60.46)"><tspan x="0" y="0">B</tspan></text><text class="cls-20" transform="translate(209.02 637.84) rotate(-54.9)"><tspan x="0" y="0">R</tspan></text><text class="cls-20" transform="translate(227.23 612.29) rotate(-49.24)"><tspan x="0" y="0">E</tspan></text><text class="cls-20" transform="translate(247.85 588.71) rotate(-43.4)"><tspan x="0" y="0">A</tspan></text><text class="cls-20" transform="translate(270.77 567.34) rotate(-37.4)"><tspan x="0" y="0">K</tspan></text><text class="cls-20" transform="translate(295.77 548.52) rotate(-31.33)"><tspan x="0" y="0">I</tspan></text><text class="cls-20" transform="translate(322.64 532.43) rotate(-25.29)"><tspan x="0" y="0">N</tspan></text><text class="cls-20" transform="translate(351.04 519.27) rotate(-19.16)"><tspan x="0" y="0">G</tspan></text><text class="cls-20" transform="translate(380.7 509.21) rotate(-13.04)"><tspan x="0" y="0"> </tspan></text><text class="cls-20" transform="translate(411.24 502.38) rotate(-7.07)"><tspan x="0" y="0">N</tspan></text><text class="cls-20" transform="translate(442.41 498.75) rotate(-1.32)"><tspan x="0" y="0">E</tspan></text><text class="cls-20" transform="translate(473.76 498.25) rotate(4.16)"><tspan x="0" y="0">W</tspan></text><text class="cls-20" transform="translate(505.06 500.74) rotate(9.44)"><tspan x="0" y="0">S</tspan></text><text class="cls-28" transform="translate(164.6 570.86) rotate(-46.32)"><tspan x="0" y="0">S</tspan></text><text class="cls-28" transform="translate(206.97 526.48) rotate(-39.53)"><tspan x="0" y="0">P</tspan></text><text class="cls-28" transform="translate(254.94 486.68) rotate(-30.25)"><tspan x="0" y="0">O</tspan></text><text class="cls-28" transform="translate(309.24 454.8) rotate(-16.7)"><tspan x="0" y="0">T</tspan></text><text class="cls-28" transform="translate(368.9 437.94) rotate(-9.07)"><tspan x="0" y="0">T</tspan></text><text class="cls-28" transform="translate(430.32 428.19) rotate(-2.25)"><tspan x="0" y="0">E</tspan></text><text class="cls-28" transform="translate(491.22 425.6) rotate(7.01)"><tspan x="0" y="0">D</tspan></text><text class="cls-28" transform="translate(552.36 434.77) rotate(18.15)"><tspan x="0" y="0">!</tspan></text><text class="cls-28" transform="translate(572.4 441.55) rotate(35.11)"><tspan x="0" y="0"> </tspan></text><text class="cls-21" transform="translate(150.02 459.89) rotate(-36.22)"><tspan x="0" y="0"> </tspan></text><text class="cls-21" transform="translate(213.07 413.92) rotate(-27.01)"><tspan x="0" y="0"> </tspan></text><text class="cls-26" transform="translate(280.52 377.2) rotate(-12.69)"><tspan x="0" y="0">U</tspan></text><text class="cls-26" transform="translate(381.54 356.06) rotate(-2.48)"><tspan x="0" y="0">F</tspan></text><text class="cls-26" transform="translate(482.56 351.41) rotate(7.41)"><tspan x="0" y="0">O</tspan></text><text class="cls-24" transform="translate(158.46 454.05) rotate(-36.22)"><tspan x="0" y="0"> </tspan></text><text class="cls-24" transform="translate(221.51 408.07) rotate(-27.01)"><tspan x="0" y="0"> </tspan></text><text class="cls-25" transform="translate(288.96 371.35) rotate(-12.69)"><tspan x="0" y="0">U</tspan></text><text class="cls-25" transform="translate(389.98 350.21) rotate(-2.48)"><tspan x="0" y="0">F</tspan></text><text class="cls-25" transform="translate(491 345.56) rotate(7.41)"><tspan x="0" y="0">O</tspan></text><text class="cls-27" transform="translate(168.9 564.44) rotate(-46.32)"><tspan x="0" y="0">S</tspan></text><text class="cls-27" transform="translate(211.26 520.06) rotate(-39.53)"><tspan x="0" y="0">P</tspan></text><text class="cls-27" transform="translate(259.24 480.26) rotate(-30.25)"><tspan x="0" y="0">O</tspan></text><text class="cls-27" transform="translate(313.53 448.37) rotate(-16.7)"><tspan x="0" y="0">T</tspan></text><text class="cls-27" transform="translate(373.2 431.52) rotate(-9.07)"><tspan x="0" y="0">T</tspan></text><text class="cls-27" transform="translate(434.62 421.76) rotate(-2.25)"><tspan x="0" y="0">E</tspan></text><text class="cls-27" transform="translate(495.52 419.17) rotate(7.01)"><tspan x="0" y="0">D</tspan></text><text class="cls-27" transform="translate(556.66 428.35) rotate(18.15)"><tspan x="0" y="0">!</tspan></text><text class="cls-27" transform="translate(576.7 435.13) rotate(35.11)"><tspan x="0" y="0"> </tspan></text></g></svg>