<svg xmlns="http://www.w3.org/2000/svg" width="1500" height="600"><rect width="1500" height="600" x="0" y="0" fill="#FFFFFF" id="backgorund"/><g id="viz"><g transform="translate(0,0)"><g transform="translate(50,20)"><g class="bars"><rect id="undefined - Unspecified" x="1384.6538194629798" y="432.46" height="127.54000000000002" width="54.34687449954625" fill="#9b9b9b"/><rect id="undefined - Changing" x="0.9993060374739571" y="483.96" height="76.04000000000002" width="54.34687449954625" fill="#9b9b9b"/><rect id="undefined - Chevron" x="56.34548657449419" y="526" height="34" width="54.34687449954625" fill="#9b9b9b"/><rect id="undefined - Cigar" x="111.69166711151442" y="486.96" height="73.04000000000002" width="54.34687449954625" fill="#9b9b9b"/><rect id="undefined - Circle" x="167.03784764853464" y="280.84000000000003" height="279.15999999999997" width="54.34687449954625" fill="#9b9b9b"/><rect id="undefined - Cone" x="222.38402818555488" y="548.06" height="11.940000000000055" width="54.34687449954625" fill="#9b9b9b"/><rect id="undefined - Cross" x="277.7302087225751" y="550.24" height="9.759999999999991" width="54.34687449954625" fill="#9b9b9b"/><rect id="undefined - Cube" x="333.0763892595953" y="559.8399999999999" height="0.16000000000008185" width="54.34687449954625" fill="#9b9b9b"/><rect id="undefined - Cylinder" x="388.42256979661556" y="511.94" height="48.06" width="54.34687449954625" fill="#9b9b9b"/><rect id="undefined - Delta" x="443.7687503336358" y="559.98" height="0.01999999999998181" width="54.34687449954625" fill="#9b9b9b"/><rect id="undefined - Diamond" x="499.11493087065605" y="518.46" height="41.539999999999964" width="54.34687449954625" fill="#9b9b9b"/><rect id="undefined - Disk" x="554.4611114076763" y="389.48" height="170.51999999999998" width="54.34687449954625" fill="#9b9b9b"/><rect id="undefined - Egg" x="609.8072919446965" y="535" height="25" width="54.34687449954625" fill="#9b9b9b"/><rect id="undefined - Fireball" x="665.1534724817167" y="364.08" height="195.92000000000002" width="54.34687449954625" fill="#9b9b9b"/><rect id="undefined - Flash" x="720.4996530187369" y="512.14" height="47.860000000000014" width="54.34687449954625" fill="#9b9b9b"/><rect id="undefined - Formation" x="775.8458335557572" y="464.85999999999996" height="95.14000000000004" width="54.34687449954625" fill="#9b9b9b"/><rect id="undefined - Light" x="831.1920140927774" y="19.319999999999986" height="540.6800000000001" width="54.34687449954625" fill="#9b9b9b"/><rect id="undefined - Orb" x="886.5381946297977" y="451.64" height="108.36000000000001" width="54.34687449954625" fill="#9b9b9b"/><rect id="undefined - Other" x="941.8843751668179" y="361.98" height="198.01999999999998" width="54.34687449954625" fill="#9b9b9b"/><rect id="undefined - Oval" x="997.2305557038381" y="435.26" height="124.74000000000001" width="54.34687449954625" fill="#9b9b9b"/><rect id="undefined - Rectangle" x="1052.5767362408583" y="509.48" height="50.51999999999998" width="54.34687449954625" fill="#9b9b9b"/><rect id="undefined - Sphere" x="1107.9229167778785" y="409.76000000000005" height="150.23999999999995" width="54.34687449954625" fill="#9b9b9b"/><rect id="undefined - Star" x="1163.2690973148988" y="557.48" height="2.519999999999982" width="54.34687449954625" fill="#9b9b9b"/><rect id="undefined - Teardrop" x="1218.615277851919" y="535.62" height="24.379999999999995" width="54.34687449954625" fill="#9b9b9b"/><rect id="undefined - Triangle" x="1273.9614583889393" y="302.42" height="257.58" width="54.34687449954625" fill="#9b9b9b"/><rect id="undefined - Unknown" x="1329.3076389259595" y="363.71999999999997" height="196.28000000000003" width="54.34687449954625" fill="#9b9b9b"/></g><g id="xAxis" transform="translate(0,560)" fill="none" font-size="10" font-family="sans-serif" text-anchor="middle"><path class="domain" stroke="currentColor" d="M0.5,0.5H1440.5"/><g class="tick" opacity="1" transform="translate(28.172743287247084,0)"><line stroke="currentColor" y2="6"/><text fill="currentColor" y="9" dy="0.71em">Changing</text></g><g class="tick" opacity="1" transform="translate(83.51892382426732,0)"><line stroke="currentColor" y2="6"/><text fill="currentColor" y="9" dy="0.71em">Chevron</text></g><g class="tick" opacity="1" transform="translate(138.86510436128754,0)"><line stroke="currentColor" y2="6"/><text fill="currentColor" y="9" dy="0.71em">Cigar</text></g><g class="tick" opacity="1" transform="translate(194.21128489830775,0)"><line stroke="currentColor" y2="6"/><text fill="currentColor" y="9" dy="0.71em">Circle</text></g><g class="tick" opacity="1" transform="translate(249.557465435328,0)"><line stroke="currentColor" y2="6"/><text fill="currentColor" y="9" dy="0.71em">Cone</text></g><g class="tick" opacity="1" transform="translate(304.9036459723483,0)"><line stroke="currentColor" y2="6"/><text fill="currentColor" y="9" dy="0.71em">Cross</text></g><g class="tick" opacity="1" transform="translate(360.24982650936846,0)"><line stroke="currentColor" y2="6"/><text fill="currentColor" y="9" dy="0.71em">Cube</text></g><g class="tick" opacity="1" transform="translate(415.5960070463887,0)"><line stroke="currentColor" y2="6"/><text fill="currentColor" y="9" dy="0.71em">Cylinder</text></g><g class="tick" opacity="1" transform="translate(470.94218758340895,0)"><line stroke="currentColor" y2="6"/><text fill="currentColor" y="9" dy="0.71em">Delta</text></g><g class="tick" opacity="1" transform="translate(526.2883681204291,0)"><line stroke="currentColor" y2="6"/><text fill="currentColor" y="9" dy="0.71em">Diamond</text></g><g class="tick" opacity="1" transform="translate(581.6345486574494,0)"><line stroke="currentColor" y2="6"/><text fill="currentColor" y="9" dy="0.71em">Disk</text></g><g class="tick" opacity="1" transform="translate(636.9807291944696,0)"><line stroke="currentColor" y2="6"/><text fill="currentColor" y="9" dy="0.71em">Egg</text></g><g class="tick" opacity="1" transform="translate(692.3269097314898,0)"><line stroke="currentColor" y2="6"/><text fill="currentColor" y="9" dy="0.71em">Fireball</text></g><g class="tick" opacity="1" transform="translate(747.67309026851,0)"><line stroke="currentColor" y2="6"/><text fill="currentColor" y="9" dy="0.71em">Flash</text></g><g class="tick" opacity="1" transform="translate(803.0192708055303,0)"><line stroke="currentColor" y2="6"/><text fill="currentColor" y="9" dy="0.71em">Formation</text></g><g class="tick" opacity="1" transform="translate(858.3654513425505,0)"><line stroke="currentColor" y2="6"/><text fill="currentColor" y="9" dy="0.71em">Light</text></g><g class="tick" opacity="1" transform="translate(913.7116318795707,0)"><line stroke="currentColor" y2="6"/><text fill="currentColor" y="9" dy="0.71em">Orb</text></g><g class="tick" opacity="1" transform="translate(969.057812416591,0)"><line stroke="currentColor" y2="6"/><text fill="currentColor" y="9" dy="0.71em">Other</text></g><g class="tick" opacity="1" transform="translate(1024.4039929536111,0)"><line stroke="currentColor" y2="6"/><text fill="currentColor" y="9" dy="0.71em">Oval</text></g><g class="tick" opacity="1" transform="translate(1079.7501734906314,0)"><line stroke="currentColor" y2="6"/><text fill="currentColor" y="9" dy="0.71em">Rectangle</text></g><g class="tick" opacity="1" transform="translate(1135.0963540276516,0)"><line stroke="currentColor" y2="6"/><text fill="currentColor" y="9" dy="0.71em">Sphere</text></g><g class="tick" opacity="1" transform="translate(1190.4425345646719,0)"><line stroke="currentColor" y2="6"/><text fill="currentColor" y="9" dy="0.71em">Star</text></g><g class="tick" opacity="1" transform="translate(1245.788715101692,0)"><line stroke="currentColor" y2="6"/><text fill="currentColor" y="9" dy="0.71em">Teardrop</text></g><g class="tick" opacity="1" transform="translate(1301.1348956387124,0)"><line stroke="currentColor" y2="6"/><text fill="currentColor" y="9" dy="0.71em">Triangle</text></g><g class="tick" opacity="1" transform="translate(1356.4810761757326,0)"><line stroke="currentColor" y2="6"/><text fill="currentColor" y="9" dy="0.71em">Unknown</text></g><g class="tick" opacity="1" transform="translate(1411.8272567127528,0)"><line stroke="currentColor" y2="6"/><text fill="currentColor" y="9" dy="0.71em">Unspecified</text></g><text x="1440" y="-4" text-anchor="end" style="font-family: Arial, sans-serif; font-size: 12px; fill: rgb(123, 123, 123); font-weight: bold;">Reports</text></g><g id="yAxis" fill="none" font-size="10" font-family="sans-serif" text-anchor="end"><path class="domain" stroke="currentColor" d="M-6,560.5H0.5V0.5H-6"/><g class="tick" opacity="1" transform="translate(0,560.5)"><line stroke="currentColor" x2="-6"/><text fill="currentColor" x="-9" dy="0.32em">0</text></g><g class="tick" opacity="1" transform="translate(0,520.5)"><line stroke="currentColor" x2="-6"/><text fill="currentColor" x="-9" dy="0.32em">2,000</text></g><g class="tick" opacity="1" transform="translate(0,480.50000000000006)"><line stroke="currentColor" x2="-6"/><text fill="currentColor" x="-9" dy="0.32em">4,000</text></g><g class="tick" opacity="1" transform="translate(0,440.5)"><line stroke="currentColor" x2="-6"/><text fill="currentColor" x="-9" dy="0.32em">6,000</text></g><g class="tick" opacity="1" transform="translate(0,400.5)"><line stroke="currentColor" x2="-6"/><text fill="currentColor" x="-9" dy="0.32em">8,000</text></g><g class="tick" opacity="1" transform="translate(0,360.49999999999994)"><line stroke="currentColor" x2="-6"/><text fill="currentColor" x="-9" dy="0.32em">10,000</text></g><g class="tick" opacity="1" transform="translate(0,320.5)"><line stroke="currentColor" x2="-6"/><text fill="currentColor" x="-9" dy="0.32em">12,000</text></g><g class="tick" opacity="1" transform="translate(0,280.5)"><line stroke="currentColor" x2="-6"/><text fill="currentColor" x="-9" dy="0.32em">14,000</text></g><g class="tick" opacity="1" transform="translate(0,240.50000000000003)"><line stroke="currentColor" x2="-6"/><text fill="currentColor" x="-9" dy="0.32em">16,000</text></g><g class="tick" opacity="1" transform="translate(0,200.49999999999997)"><line stroke="currentColor" x2="-6"/><text fill="currentColor" x="-9" dy="0.32em">18,000</text></g><g class="tick" opacity="1" transform="translate(0,160.5)"><line stroke="currentColor" x2="-6"/><text fill="currentColor" x="-9" dy="0.32em">20,000</text></g><g class="tick" opacity="1" transform="translate(0,120.50000000000001)"><line stroke="currentColor" x2="-6"/><text fill="currentColor" x="-9" dy="0.32em">22,000</text></g><g class="tick" opacity="1" transform="translate(0,80.50000000000003)"><line stroke="currentColor" x2="-6"/><text fill="currentColor" x="-9" dy="0.32em">24,000</text></g><g class="tick" opacity="1" transform="translate(0,40.499999999999986)"><line stroke="currentColor" x2="-6"/><text fill="currentColor" x="-9" dy="0.32em">26,000</text></g><g class="tick" opacity="1" transform="translate(0,0.5)"><line stroke="currentColor" x2="-6"/><text fill="currentColor" x="-9" dy="0.32em">28,000</text></g><text x="4" text-anchor="start" dominant-baseline="hanging" style="font-family: Arial, sans-serif; font-size: 12px; fill: rgb(123, 123, 123); font-weight: bold;">Count [sum]</text></g></g><text y="4" x="4" style="font-family: Arial, sans-serif; font-size: 12px; fill: black; font-weight: bold; dominant-baseline: hanging;"/></g></g></svg>