<?xml version="1.0" encoding="utf-8"?>
<!-- Generator: Adobe Illustrator 27.7.0, SVG Export Plug-In . SVG Version: 6.00 Build 0)  -->
<svg version="1.1" id="Layer_1" xmlns="http://www.w3.org/2000/svg" xmlns:xlink="http://www.w3.org/1999/xlink" x="0px" y="0px"
	 viewBox="0 0 805 1600" style="enable-background:new 0 0 805 1600;" xml:space="preserve">
<style type="text/css">
	.st0{fill:#FFFFFF;}
	.st1{fill:none;stroke:#9B9B9B;stroke-width:10.2727;}
	.st2{fill:none;stroke:#9B9B9B;stroke-width:4.7762;}
	.st3{fill:none;stroke:#9B9B9B;stroke-width:36.5723;}
	.st4{fill:none;stroke:#9B9B9B;stroke-width:9.4387;}
	.st5{fill:none;stroke:#FBB03B;stroke-width:119.527;}
	.st6{fill:none;stroke:#9B9B9B;stroke-width:23.9191;}
	.st7{fill:none;stroke:#9B9B9B;stroke-width:14.9049;}
	.st8{fill:none;stroke:#9B9B9B;stroke-width:3.0704;}
	.st9{fill:none;stroke:#9B9B9B;stroke-width:1.1144;}
	.st10{fill:none;stroke:#FBB03B;stroke-width:60.8249;}
	.st11{fill:none;stroke:#9B9B9B;stroke-width:20.0753;}
	.st12{fill:none;stroke:#9B9B9B;stroke-width:5.0037;}
	.st13{fill:none;stroke:#9B9B9B;stroke-width:10.0149;}
	.st14{fill:none;stroke:#FBB03B;stroke-width:31.7506;}
	.st15{fill:none;stroke:#9B9B9B;stroke-width:20.0677;}
	.st16{fill:none;stroke:#9B9B9B;stroke-width:9.0369;}
	.st17{fill:none;stroke:#9B9B9B;stroke-width:8.7413;}
	.st18{fill:none;stroke:#9B9B9B;stroke-width:12.5092;}
	.st19{fill:none;stroke:#9B9B9B;stroke-width:8.3546;}
	.st20{fill:none;stroke:#9B9B9B;stroke-width:8.7867;}
	.st21{fill:none;stroke:#9B9B9B;stroke-width:13.4644;}
	.st22{fill:none;stroke:#9B9B9B;stroke-width:19.8251;}
	.st23{fill:none;stroke:#9B9B9B;stroke-width:27.0046;}
	.st24{fill:none;stroke:#9B9B9B;stroke-width:15.5948;}
	.st25{fill:none;stroke:#9B9B9B;stroke-width:5.7921;}
	.st26{fill:none;stroke:#9B9B9B;stroke-width:20.7804;}
	.st27{fill:none;stroke:#9B9B9B;stroke-width:7.4297;}
	.st28{fill:none;stroke:#9B9B9B;stroke-width:5.1856;}
	.st29{fill:none;stroke:#9B9B9B;stroke-width:12.4788;}
	.st30{fill:none;stroke:#9B9B9B;stroke-width:8.8246;}
	.st31{fill:none;stroke:#9B9B9B;stroke-width:21.3111;}
	.st32{fill:none;stroke:#000000;stroke-width:12.3045;}
	.st33{fill:none;stroke:#FBB03B;stroke-width:43.3879;}
	.st34{fill:none;stroke:#9B9B9B;stroke-width:27.0198;}
	.st35{fill:none;stroke:#9B9B9B;stroke-width:2.0545;}
	.st36{fill:none;stroke:#9B9B9B;stroke-width:32.9408;}
	.st37{fill:none;stroke:#9B9B9B;stroke-width:10.9247;}
	.st38{fill:none;stroke:#9B9B9B;stroke-width:26.3375;}
	.st39{fill:none;stroke:#9B9B9B;stroke-width:37.0499;}
	.st40{fill:none;stroke:#9B9B9B;stroke-width:4.4654;}
	.st41{fill:none;stroke:#9B9B9B;stroke-width:16.6334;}
	.st42{fill:none;stroke:#9B9B9B;stroke-width:2.8885;}
	.st43{fill:none;stroke:#9B9B9B;stroke-width:17.0352;}
	.st44{fill:none;stroke:#FBB03B;stroke-width:45.1467;}
	.st45{fill:none;stroke:#9B9B9B;stroke-width:11.1824;}
	.st46{fill:none;stroke:#9B9B9B;stroke-width:4.5261;}
	.st47{fill:none;stroke:#9B9B9B;stroke-width:19.9237;}
	.st48{fill:none;stroke:#9B9B9B;stroke-width:53.2057;}
	.st49{fill:none;stroke:#9B9B9B;stroke-width:6.7095;}
	.st50{fill:none;stroke:#9B9B9B;stroke-width:18.1269;}
	.st51{fill:none;stroke:#9B9B9B;stroke-width:3.0553;}
	.st52{font-family:'SpaceMono-Regular';}
	.st53{font-size:13.0302px;}
	.st54{font-size:9.3073px;}
	.st55{font-size:11.1688px;}
	.st56{fill:#FBB03B;}
	.st57{fill:#999999;}
	.st58{font-family:'SpaceMono-Bold';}
	.st59{font-size:14px;}
	.st60{font-size:36px;}
	.st61{font-size:12px;}
</style>
<rect id="backgorund" x="15.7" y="108.8" class="st0" width="749.2" height="1489.2"/>
<rect x="25" y="217" width="4.7" height="199.7"/>
<rect x="751" y="359.4" width="4.7" height="9.6"/>
<rect x="25" y="584.4" width="4.7" height="257.7"/>
<rect x="751" y="790.2" width="4.7" height="4.4"/>
<rect x="25" y="1488.7" width="4.7" height="97.7"/>
<rect x="751" y="1510.3" width="4.7" height="34"/>
<rect x="751" y="380.3" width="4.7" height="8.8"/>
<rect x="751" y="453.8" width="4.7" height="111.2"/>
<rect x="751" y="673" width="4.7" height="22.3"/>
<rect x="25" y="936.5" width="4.7" height="168.2"/>
<rect x="751" y="994.6" width="4.7" height="13.9"/>
<rect x="751" y="1098.2" width="4.7" height="2.9"/>
<rect x="751" y="1127.9" width="4.7" height="1"/>
<rect x="751" y="118.1" width="4.7" height="56.6"/>
<rect x="751" y="222.5" width="4.7" height="18.7"/>
<rect x="751" y="806" width="4.7" height="4.7"/>
<rect x="751" y="729.6" width="4.7" height="9.3"/>
<rect x="25" y="1235.3" width="4.7" height="180.7"/>
<rect x="751" y="1140.3" width="4.7" height="29.6"/>
<rect x="751" y="1259.6" width="4.7" height="18.7"/>
<rect x="751" y="1374.4" width="4.7" height="8.4"/>
<rect x="751" y="1394.1" width="4.7" height="8.1"/>
<rect x="751" y="336.4" width="4.7" height="11.6"/>
<rect x="751" y="400.4" width="4.7" height="7.8"/>
<rect x="751" y="1043.7" width="4.7" height="8.2"/>
<rect x="751" y="1019.8" width="4.7" height="12.5"/>
<rect x="751" y="933.7" width="4.7" height="18.5"/>
<rect x="751" y="1223.2" width="4.7" height="25.1"/>
<rect x="751" y="1348.5" width="4.7" height="14.5"/>
<rect x="751" y="419.5" width="4.7" height="5.4"/>
<rect x="751" y="1289.7" width="4.7" height="19.3"/>
<rect x="751" y="772" width="4.7" height="6.9"/>
<rect x="751" y="1413.6" width="4.7" height="4.8"/>
<rect x="751" y="706.6" width="4.7" height="11.6"/>
<rect x="751" y="1063.2" width="4.7" height="8.2"/>
<rect x="751" y="963.5" width="4.7" height="19.8"/>
<rect x="751" y="1555.7" width="4.7" height="11.5"/>
<rect x="751" y="836.1" width="4.7" height="40.4"/>
<rect x="751" y="186" width="4.7" height="25.1"/>
<rect x="751" y="1429.7" width="4.7" height="1.9"/>
<rect x="751" y="1181.2" width="4.7" height="30.7"/>
<rect x="751" y="1578.5" width="4.7" height="10.2"/>
<rect x="751" y="637.2" width="4.7" height="24.5"/>
<rect x="751" y="887.9" width="4.7" height="34.5"/>
<rect x="751" y="1082.7" width="4.7" height="4.2"/>
<rect x="751" y="282.4" width="4.7" height="15.5"/>
<rect x="751" y="1443" width="4.7" height="2.7"/>
<rect x="751" y="309.2" width="4.7" height="15.9"/>
<rect x="751" y="1457" width="4.7" height="42"/>
<rect x="751" y="750.2" width="4.7" height="10.4"/>
<rect x="751" y="1112.4" width="4.7" height="4.2"/>
<rect x="751" y="252.5" width="4.7" height="18.5"/>
<rect x="751" y="576.4" width="4.7" height="49.5"/>
<rect x="751" y="436.2" width="4.7" height="6.2"/>
<rect x="751" y="1320.3" width="4.7" height="16.9"/>
<rect x="751" y="822" width="4.7" height="2.8"/>
<path class="st1" d="M29.6,383.8c360.7,0,360.7-19.6,721.3-19.6"/>
<path class="st2" d="M29.6,832.4c360.7,0,360.7-39.9,721.3-39.9"/>
<path class="st3" d="M29.6,1547.8c360.7,0,360.7-20.4,721.3-20.4"/>
<path class="st4" d="M29.6,392.9c360.7,0,360.7-8.3,721.3-8.3"/>
<path class="st5" d="M29.6,640c360.7,0,360.7-130.6,721.3-130.6"/>
<path class="st6" d="M29.6,780.8c360.7,0,360.7-96.6,721.3-96.6"/>
<path class="st7" d="M29.6,1056.6c360.7,0,360.7-55.1,721.3-55.1"/>
<path class="st8" d="M29.6,1098.1c360.7,0,360.7,1.6,721.3,1.6"/>
<path class="st9" d="M29.6,1104.2c360.7,0,360.7,24.2,721.3,24.2"/>
<path class="st10" d="M29.6,245.3c360.7,0,360.7-98.9,721.3-98.9"/>
<path class="st11" d="M29.6,308.1c360.7,0,360.7-76.3,721.3-76.3"/>
<path class="st12" d="M29.6,836.9c360.7,0,360.7-28.6,721.3-28.6"/>
<path class="st13" d="M29.6,808.2c360.7,0,360.7-73.9,721.3-73.9"/>
<path class="st14" d="M29.6,1250.1c360.7,0,360.7-95,721.3-95"/>
<path class="st15" d="M29.6,1330c360.7,0,360.7-61,721.3-61"/>
<path class="st16" d="M29.6,1394.2c360.7,0,360.7-15.7,721.3-15.7"/>
<path class="st17" d="M29.6,1402.5c360.7,0,360.7-4.3,721.3-4.3"/>
<path class="st18" d="M29.6,373.2c360.7,0,360.7-30.9,721.3-30.9"/>
<path class="st19" d="M29.6,401.2c360.7,0,360.7,3,721.3,3"/>
<path class="st20" d="M29.6,1080.2c360.7,0,360.7-32.4,721.3-32.4"/>
<path class="st21" d="M29.6,1069.8c360.7,0,360.7-43.7,721.3-43.7"/>
<path class="st22" d="M29.6,1020.6c360.7,0,360.7-77.7,721.3-77.7"/>
<path class="st23" d="M29.6,1308.1c360.7,0,360.7-72.3,721.3-72.3"/>
<path class="st24" d="M29.6,1382.8c360.7,0,360.7-27,721.3-27"/>
<path class="st25" d="M29.6,407.8c360.7,0,360.7,14.4,721.3,14.4"/>
<path class="st26" d="M29.6,1349c360.7,0,360.7-49.7,721.3-49.7"/>
<path class="st27" d="M29.6,826.7c360.7,0,360.7-51.3,721.3-51.3"/>
<path class="st28" d="M29.6,1409c360.7,0,360.7,7,721.3,7"/>
<path class="st29" d="M29.6,797.7c360.7,0,360.7-85.3,721.3-85.3"/>
<path class="st30" d="M29.6,1088.4c360.7,0,360.7-21.1,721.3-21.1"/>
<path class="st31" d="M29.6,1039.8c360.7,0,360.7-66.4,721.3-66.4"/>
<path class="st32" d="M29.6,1570.5c360.7,0,360.7-9.1,721.3-9.1"/>
<path class="st33" d="M29.6,956.7c360.7,0,360.7-100.4,721.3-100.4"/>
<path class="st34" d="M29.6,286.2c360.7,0,360.7-87.6,721.3-87.6"/>
<path class="st35" d="M29.6,1412.4c360.7,0,360.7,18.3,721.3,18.3"/>
<path class="st36" d="M29.6,1280.2c360.7,0,360.7-83.6,721.3-83.6"/>
<path class="st37" d="M29.6,1581.3c360.7,0,360.7,2.2,721.3,2.2"/>
<path class="st38" d="M29.6,757.4c360.7,0,360.7-107.9,721.3-107.9"/>
<path class="st39" d="M29.6,994.2c360.7,0,360.7-89.1,721.3-89.1"/>
<path class="st40" d="M29.6,1094.6c360.7,0,360.7-9.7,721.3-9.7"/>
<path class="st41" d="M29.6,343.7c360.7,0,360.7-53.6,721.3-53.6"/>
<path class="st42" d="M29.6,1414.7c360.7,0,360.7,29.7,721.3,29.7"/>
<path class="st43" d="M29.6,359.4c360.7,0,360.7-42.3,721.3-42.3"/>
<path class="st44" d="M29.6,1509.7c360.7,0,360.7-31.7,721.3-31.7"/>
<path class="st45" d="M29.6,818c360.7,0,360.7-62.6,721.3-62.6"/>
<path class="st46" d="M29.6,1101.6c360.7,0,360.7,12.9,721.3,12.9"/>
<path class="st47" d="M29.6,326.7c360.7,0,360.7-64.9,721.3-64.9"/>
<path class="st48" d="M29.6,720.4c360.7,0,360.7-119.2,721.3-119.2"/>
<path class="st49" d="M29.6,413.6c360.7,0,360.7,25.7,721.3,25.7"/>
<path class="st50" d="M29.6,1367.1c360.7,0,360.7-38.3,721.3-38.3"/>
<path class="st51" d="M29.6,840.7c360.7,0,360.7-17.3,721.3-17.3"/>
<text transform="matrix(1 0 0 1 33.3672 316.3952)" class="st52 st53">Southeast</text>
<text transform="matrix(1 0 0 1 700.1924 367.3933)" class="st52 st54">ALABAMA</text>
<text transform="matrix(1 0 0 1 33.3672 712.7454)" class="st52 st53">West</text>
<text transform="matrix(1 0 0 1 707.5283 793.8152)" class="st52 st54">ALASKA</text>
<text transform="matrix(1 0 0 1 33.3672 1544.3752)" class="st52 st53">Southwest</text>
<text transform="matrix(1 0 0 1 701.1182 1531.5266)" class="st52 st54">ARIZONA</text>
<text transform="matrix(1 0 0 1 694.4932 387.8957)" class="st52 st54">ARKANSAS</text>
<text transform="matrix(1 0 0 1 671.2344 510.7795)" class="st52 st55">CALIFORNIA</text>
<text transform="matrix(1 0 0 1 692.9482 688.3479)" class="st52 st54">COLORADO</text>
<text transform="matrix(1 0 0 1 33.3672 1020.1536)" class="st52 st53">Northeast</text>
<text transform="matrix(1 0 0 1 679.5049 1005.7249)" class="st52 st54">CONNECTICUT</text>
<text transform="matrix(1 0 0 1 696.3545 1101.9553)" class="st52 st54">DELAWARE</text>
<text transform="matrix(1 0 0 1 627.7002 1131.7043)" class="st52 st54">DISTRICT OF COLUMBIA</text>
<text transform="matrix(1 0 0 1 693.7783 148.7151)" class="st52 st55">FLORIDA</text>
<text transform="matrix(1 0 0 1 703.2822 235.1008)" class="st52 st54">GEORGIA</text>
<text transform="matrix(1 0 0 1 708.5596 811.5569)" class="st52 st54">HAWAII</text>
<text transform="matrix(1 0 0 1 711.6641 737.4822)" class="st52 st54">IDAHO</text>
<text transform="matrix(1 0 0 1 33.3672 1325.1614)" class="st52 st53">Midwest</text>
<text transform="matrix(1 0 0 1 687.4648 1157.3977)" class="st52 st55">ILLINOIS</text>
<text transform="matrix(1 0 0 1 702.874 1273.1545)" class="st52 st54">INDIANA</text>
<text transform="matrix(1 0 0 1 719.6279 1381.8127)" class="st52 st54">IOWA</text>
<text transform="matrix(0.8538 0 0 1 713.5205 1401.4153)" class="st52 st54">KANSAS</text>
<text transform="matrix(1 0 0 1 695.5293 345.4621)" class="st52 st54">KENTUCKY</text>
<text transform="matrix(1 0 0 1 690.4629 406.5749)" class="st52 st54">LOUISIANA</text>
<text transform="matrix(1 0 0 1 712.5947 1051.01)" class="st52 st54">MAINE</text>
<text transform="matrix(1 0 0 1 694.3301 1028.3958)" class="st52 st54">MARYLAND</text>
<text transform="matrix(1 0 0 1 665.3291 946.1389)" class="st52 st54">MASSACHUSETTS</text>
<text transform="matrix(1 0 0 1 697.3955 1238.9885)" class="st52 st54">MICHIGAN</text>
<text transform="matrix(1 0 0 1 692.085 1359.0208)" class="st52 st54">MINNESOTA</text>
<text transform="matrix(1 0 0 1 679.7939 425.4182)" class="st52 st54">MISSISSIPPI</text>
<text transform="matrix(1 0 0 1 696.5605 1302.5627)" class="st52 st54">MISSOURI</text>
<text transform="matrix(1 0 0 1 702.2266 777.7361)" class="st52 st54">MONTANA</text>
<text transform="matrix(1 0 0 1 697.2852 1418.2952)" class="st52 st54">NEBRASKA</text>
<text transform="matrix(1 0 0 1 704.9043 715.6848)" class="st52 st54">NEVADA</text>
<text transform="matrix(1 0 0 1 667.0898 1070.5354)" class="st52 st54">NEW HAMPSHIRE</text>
<text transform="matrix(1 0 0 1 685.2773 976.6116)" class="st52 st54">NEW JERSEY</text>
<text transform="matrix(1 0 0 1 686.2227 1564.6711)" class="st0 st52 st54">NEW MEXICO</text>
<text transform="matrix(1 0 0 1 686.9082 858.6487)" class="st52 st55">NEW YORK</text>
<text transform="matrix(1 0 0 1 664.0459 202.3381)" class="st52 st54">NORTH CAROLINA</text>
<text transform="matrix(1 0 0 1 675.2354 1432.9934)" class="st52 st54">NORTH DAKOTA</text>
<text transform="matrix(1 0 0 1 718.7979 1197.9016)" class="st52 st54">OHIO</text>
<text transform="matrix(1 0 0 1 696.1572 1586.8108)" class="st52 st54">OKLAHOMA</text>
<text transform="matrix(1 0 0 1 704.0068 652.7004)" class="st52 st54">OREGON</text>
<text transform="matrix(1 0 0 1 673.8398 908.342)" class="st52 st54">PENNSYLVANIA</text>
<text transform="matrix(1 0 0 1 673.6045 1087.1184)" class="st52 st54">RHODE ISLAND</text>
<text transform="matrix(1 0 0 1 662.958 294.3166)" class="st52 st54">SOUTH CAROLINA</text>
<text transform="matrix(1 0 0 1 675.749 1447.554)" class="st52 st54">SOUTH DAKOTA</text>
<text transform="matrix(1 0 0 1 690.8623 320.3835)" class="st52 st54">TENNESSEE</text>
<text transform="matrix(1 0 0 1 705.9688 1480.3069)" class="st52 st55">TEXAS</text>
<text transform="matrix(1 0 0 1 718.3555 758.676)" class="st52 st54">UTAH</text>
<text transform="matrix(1 0 0 1 701.6318 1116.8196)" class="st52 st54">VERMONT</text>
<text transform="matrix(1 0 0 1 698.3262 264.5964)" class="st52 st54">VIRGINIA</text>
<text transform="matrix(1 0 0 1 683.291 604.3542)" class="st52 st54">WASHINGTON</text>
<text transform="matrix(1 0 0 1 668.9512 442.5656)" class="st52 st54">WEST VIRGINIA</text>
<text transform="matrix(1 0 0 1 692.5312 1331.9983)" class="st52 st54">WISCONSIN</text>
<text transform="matrix(1 0 0 1 702.5674 826.637)" class="st52 st54">WYOMING</text>
<circle class="st56" cx="108.3" cy="495.6" r="52.9"/>
<g>
	<g>
		<path d="M144.2,493.9c12.7,7.7,23.6,15.2,30.1,20.5c-5.4-6.5-15.8-15-28.7-22.8c-12.9-7.8-25.2-13.2-33.4-15
			C119.8,479.9,131.5,486.2,144.2,493.9z"/>
		<path d="M177.4,519c-5.3-5.1-18.3-14.3-34-23.9s-29.9-16.9-36.9-19.2c-2.2,0.1-3.7,0.6-4.3,1.7c-3.1,5,11.4,19.4,32.3,32.1
			c20.9,12.7,40.3,18.9,43.4,13.9C178.6,522.6,178.4,521,177.4,519z"/>
	</g>
	
		<ellipse transform="matrix(0.5196 -0.8544 0.8544 0.5196 -366.2874 359.9696)" class="st0" cx="137" cy="505.7" rx="2.2" ry="14.1"/>
	<path d="M160.9,500.9c0.7-4.5-3.7-10.9-11-15.3c-7.3-4.4-15-5.4-18.6-2.7C141.9,487.7,151.8,493.7,160.9,500.9z"/>
	
		<ellipse transform="matrix(0.5196 -0.8544 0.8544 0.5196 -357.6588 360.0312)" class="st0" cx="141.3" cy="498.1" rx="1.6" ry="2.8"/>
	
		<ellipse transform="matrix(0.5196 -0.8544 0.8544 0.5196 -360.9232 390.7095)" class="st0" cx="167" cy="516.3" rx="0.9" ry="2.9"/>
	
		<ellipse transform="matrix(0.5196 -0.8544 0.8544 0.5196 -358.8211 329.2015)" class="st0" cx="113.3" cy="483.7" rx="0.9" ry="2.9"/>
	
		<ellipse transform="matrix(0.5196 -0.8544 0.8544 0.5196 -365.9846 338.9555)" class="st0" cx="118.4" cy="494.9" rx="0.5" ry="1.5"/>
	
		<ellipse transform="matrix(0.5196 -0.8544 0.8544 0.5196 -367.42 380.9554)" class="st0" cx="155.1" cy="517.2" rx="0.5" ry="1.5"/>
</g>
<text transform="matrix(1 9.923975e-03 -9.923975e-03 1 764.9213 148.8719)" class="st57 st58 st59">8k</text>
<text transform="matrix(1 9.923975e-03 -9.923975e-03 1 764.9203 510.9364)" class="st57 st58 st59">16k</text>
<text transform="matrix(1 9.923975e-03 -9.923975e-03 1 764.9208 860.3403)" class="st57 st58 st59">6k</text>
<text transform="matrix(1 9.923975e-03 -9.923975e-03 1 764.9208 1157.5541)" class="st57 st58 st59">4k</text>
<text transform="matrix(1 9.923975e-03 -9.923975e-03 1 764.9193 1480.4633)" class="st57 st58 st59">6k</text>
<text transform="matrix(0.9999 9.923975e-03 -9.923788e-03 1 764.9216 1564.6714)" class="st57 st58 st59">2k</text>
<text transform="matrix(1 0 0 1 29.9517 59)" class="st58 st60">Mostly quiet after Roswell</text>
<text transform="matrix(1 0 0 1 30.7432 80.3999)" class="st52 st61">The southwest region sees the fewest UFOs in the United States.</text>
</svg>
