<?xml version="1.0" encoding="utf-8"?>
<!-- Generator: Adobe Illustrator 19.2.1, SVG Export Plug-In . SVG Version: 6.00 Build 0)  -->
<svg version="1.1" id="Layer_1" xmlns="http://www.w3.org/2000/svg" xmlns:xlink="http://www.w3.org/1999/xlink" x="0px" y="0px"
	 width="1920px" height="1920px" viewBox="0 0 1920 1920" enable-background="new 0 0 1920 1920" xml:space="preserve">
<rect opacity="0" fill="#FFFFFF" width="1920" height="1920"/>
<circle fill="#FBB03B" cx="960" cy="960" r="657.118"/>
<g>
	<g>
		<path d="M1405.59,938.264c157.439,95.733,292.548,188.56,373.526,254.32c-67.084-80.924-196.46-185.857-356.123-282.941
			s-312.357-163.669-415.073-185.994C1103.566,765.287,1248.151,842.531,1405.59,938.264z"/>
		<path d="M1818.384,1250.567c-65.788-63.661-226.801-178.005-422.206-296.824s-371.013-209.161-457.805-238.278
			c-26.774,0.646-45.472,7.604-53.971,21.581c-37.977,62.457,141.585,240.993,401.063,398.772s500.615,235.053,538.592,172.597
			C1832.556,1294.438,1830.131,1274.635,1818.384,1250.567z"/>
	</g>
	
		<ellipse transform="matrix(0.5196 -0.8544 0.8544 0.5196 -294.6125 1646.0397)" fill="#FFFFFF" cx="1316.37" cy="1084.992" rx="26.789" ry="174.466"/>
	<path d="M1613.752,1025.636c8.851-55.903-46.003-135.174-136.076-189.944c-90.073-54.77-185.693-66.997-231.254-33.416
		C1377.786,862.059,1500.23,936.512,1613.752,1025.636z"/>
	
		<ellipse transform="matrix(0.5196 -0.8544 0.8544 0.5196 -187.5109 1646.7971)" fill="#FFFFFF" cx="1370.594" cy="990.135" rx="19.326" ry="34.408"/>
	
		<ellipse transform="matrix(0.5196 -0.8544 0.8544 0.5196 -228.003 2027.5914)" fill="#FFFFFF" cx="1688.955" cy="1216.538" rx="11.07" ry="36.16"/>
	
		<ellipse transform="matrix(0.5196 -0.8544 0.8544 0.5196 -201.9649 1264.1289)" fill="#FFFFFF" cx="1023.095" cy="811.654" rx="11.07" ry="36.16"/>
	
		<ellipse transform="matrix(0.5196 -0.8544 0.8544 0.5196 -290.8725 1385.2035)" fill="#FFFFFF" cx="1086.302" cy="951.249" rx="5.813" ry="18.989"/>
	
		<ellipse transform="matrix(0.5196 -0.8544 0.8544 0.5196 -308.6523 1906.5245)" fill="#FFFFFF" cx="1540.976" cy="1227.719" rx="5.813" ry="18.989"/>
</g>
<g>
	<g>
		<path d="M579.258,1100.563c122.183,33.297,229.065,68.92,295.05,96.957c-59.691-40.693-165.089-85.402-288.997-119.169
			c-123.908-33.767-237.416-48.714-309.5-43.932C346.897,1043.737,457.075,1067.266,579.258,1100.563z"/>
		<path d="M911.265,1228.35c-55.553-29.538-183.635-74.448-335.281-115.774c-151.647-41.326-284.804-67.609-347.663-70.34
			c-17.561,5.517-28.587,13.667-31.543,24.514c-13.209,48.47,139.327,132.25,340.699,187.127
			c201.372,54.877,375.324,60.071,388.533,11.601C928.966,1254.632,923.599,1242.014,911.265,1228.35z"/>
	</g>
	
		<ellipse transform="matrix(0.2629 -0.9648 0.9648 0.2629 -767.6225 1424.061)" fill="#FFFFFF" cx="548.226" cy="1214.434" rx="18.412" ry="119.907"/>
	<path d="M733.352,1118.695c-3.683-42.637-54.159-87.585-124.061-106.635c-69.902-19.05-136.204-5.925-161.01,28.948
		C546.767,1054.196,641.791,1080.091,733.352,1118.695z"/>
	
		<ellipse transform="matrix(0.2629 -0.9648 0.9648 0.2629 -684.1262 1387.4396)" fill="#FFFFFF" cx="566.005" cy="1141.475" rx="13.282" ry="23.648"/>
	
		<ellipse transform="matrix(0.2629 -0.9648 0.9648 0.2629 -583.2957 1697.4386)" fill="#FFFFFF" cx="819.313" cy="1230.482" rx="7.608" ry="24.852"/>
	
		<ellipse transform="matrix(0.2629 -0.9648 0.9648 0.2629 -828.3088 1095.0741)" fill="#FFFFFF" cx="302.563" cy="1089.659" rx="7.608" ry="24.852"/>
	
		<ellipse transform="matrix(0.2629 -0.9648 0.9648 0.2629 -855.3379 1220.0552)" fill="#FFFFFF" cx="370.848" cy="1169.84" rx="3.995" ry="13.05"/>
	
		<ellipse transform="matrix(0.2629 -0.9648 0.9648 0.2629 -688.0336 1631.3724)" fill="#FFFFFF" cx="723.704" cy="1265.999" rx="3.995" ry="13.05"/>
	<g>
		<line x1="391.346" y1="1246.421" x2="211.234" y2="1505.769"/>
		<path d="M391.346,1246.421c0,0-9.839,17.194-25.718,42.207c-7.896,12.536-17.294,27.034-27.545,42.44
			c-5.166,7.675-10.381,15.692-15.904,23.682c-5.492,8.012-11.071,16.151-16.65,24.29c-5.677,8.071-11.353,16.142-16.941,24.088
			c-5.542,7.977-11.246,15.654-16.63,23.177c-10.85,14.991-21.155,28.858-30.146,40.634c-17.894,23.614-30.578,38.832-30.578,38.832
			s9.83-17.2,25.707-42.214c7.895-12.538,17.289-27.037,27.547-42.439c5.169-7.673,10.37-15.699,15.909-23.678
			c5.493-8.011,11.074-16.149,16.654-24.287c5.678-8.07,11.356-16.141,16.945-24.085c5.558-7.966,11.248-15.652,16.636-23.173
			c10.855-14.987,21.158-28.855,30.147-40.633C378.671,1261.645,391.346,1246.421,391.346,1246.421z"/>
	</g>
	<g>
		<line x1="534.729" y1="1312.946" x2="404.129" y2="1818.854"/>
		<path d="M534.729,1312.946c0,0-1.602,8.018-4.643,21.988c-3.143,13.944-7.346,33.938-12.905,57.798
			c-5.478,23.881-12.086,51.685-19.383,81.42c-3.686,14.858-7.495,30.21-11.366,45.811c-3.96,15.578-7.983,31.402-12.006,47.227
			c-4.138,15.795-8.276,31.59-12.349,47.138c-4.162,15.525-8.258,30.804-12.222,45.59c-8.001,29.553-15.68,57.081-22.448,80.629
			c-6.68,23.57-12.692,43.097-16.692,56.82c-4.101,13.697-6.585,21.487-6.585,21.487s1.598-8.019,4.639-21.989
			c3.142-13.944,7.333-33.941,12.897-57.8c5.476-23.881,12.081-51.687,19.384-81.42c3.688-14.857,7.5-30.209,11.372-45.809
			c3.962-15.577,7.987-31.401,12.011-47.226c4.139-15.795,8.279-31.589,12.354-47.137c4.164-15.525,8.263-30.803,12.229-45.589
			c8.008-29.551,15.684-57.08,22.45-80.629c6.685-23.569,12.685-43.099,16.684-56.822
			C532.25,1320.737,534.729,1312.946,534.729,1312.946z"/>
	</g>
	<g>
		<line x1="679.207" y1="1332.74" x2="677.636" y2="1525.367"/>
		<path d="M679.207,1332.74c0,0,1.629,12.053,2.706,30.122c0.591,9.035,1.056,19.574,1.332,30.863
			c0.089,5.645,0.331,11.478,0.304,17.404c0.011,5.926,0.022,11.946,0.033,17.966c-0.108,6.019-0.215,12.038-0.321,17.963
			c-0.051,5.926-0.404,11.755-0.581,17.397c-0.452,11.284-1.093,21.814-1.834,30.837c-1.375,18.049-3.21,30.074-3.21,30.074
			s-1.639-12.053-2.719-30.122c-0.594-9.035-1.062-19.574-1.331-30.864c-0.085-5.644-0.343-11.478-0.297-17.404
			c-0.009-5.926-0.018-11.946-0.028-17.966c0.109-6.019,0.218-12.038,0.326-17.963c0.07-5.925,0.407-11.755,0.588-17.397
			c0.46-11.284,1.096-21.813,1.835-30.838C677.382,1344.765,679.207,1332.74,679.207,1332.74z"/>
	</g>
	<g>
		<line x1="413.704" y1="1394.583" x2="299.125" y2="1618.963"/>
		<path d="M413.704,1394.583c0,0-5.623,14.809-15.274,36.402c-4.778,10.82-10.554,23.342-16.94,36.656
			c-3.237,6.635-6.448,13.559-9.953,20.471c-3.472,6.929-6.999,13.969-10.526,21.008c-3.633,6.985-7.265,13.971-10.841,20.847
			c-3.527,6.901-7.267,13.555-10.741,20.069c-7.034,12.984-13.794,25.002-19.76,35.216c-11.835,20.477-20.544,33.711-20.544,33.711
			s5.614-14.814,15.262-36.408c4.777-10.821,10.549-23.344,16.942-36.656c3.24-6.633,6.436-13.565,9.959-20.468
			c3.473-6.928,7.002-13.967,10.53-21.005c3.634-6.984,7.268-13.969,10.846-20.844c3.544-6.893,7.27-13.554,10.747-20.066
			c7.041-12.98,13.798-25,19.761-35.216C405.005,1407.821,413.704,1394.583,413.704,1394.583z"/>
	</g>
	<g>
		<line x1="596.844" y1="1379.102" x2="552.82" y2="1700.438"/>
		<path d="M599.874,1379.202c0,0-1.049,20.378-3.975,50.76c-1.411,15.198-3.28,32.899-5.503,51.834
			c-1.16,9.461-2.21,19.257-3.547,29.175c-1.3,9.923-2.62,20.003-3.94,30.083c-1.438,10.064-2.876,20.128-4.291,30.035
			c-1.361,9.914-3,19.63-4.424,29.055c-2.944,18.836-5.908,36.387-8.64,51.404c-5.356,30.049-9.837,49.958-9.837,49.958
			s1.039-20.38,3.962-50.762c1.409-15.199,3.274-32.9,5.505-51.834c1.163-9.46,2.198-19.259,3.554-29.174
			c1.301-9.922,2.623-20.002,3.945-30.082c1.44-10.064,2.879-20.128,4.296-30.034c1.379-9.912,3.003-19.63,4.43-29.054
			c2.951-18.835,5.912-36.386,8.641-51.404C595.404,1399.112,599.874,1379.202,599.874,1379.202z"/>
	</g>
</g>
<g>
	<g>
		<g>
			<path d="M914.976,232.066c149.655-32.699,284.206-54.338,370.656-61.215c-86.788-10.217-224.832,0.848-376.6,34.009
				s-281.848,80.679-356.465,126.163C634.007,301.216,765.321,264.765,914.976,232.066z"/>
			<path d="M1342.521,183.219c-76.105-0.573-238.587,22.976-424.33,63.561s-343.24,86.949-412.171,119.211
				c-15.742,15.746-23.002,30.659-20.099,43.945c12.972,59.369,223.436,63.808,470.086,9.917s436.082-145.707,423.111-205.076
				C1376.214,201.491,1363.396,190.965,1342.521,183.219z"/>
		</g>
		
			<ellipse transform="matrix(0.977 -0.2135 0.2135 0.977 -57.5178 210.3787)" fill="#FFFFFF" cx="945.45" cy="371.54" rx="145.043" ry="22.271"/>
		<path d="M1090.359,165.24c-25.123-31.316-102.39-42.009-188.01-23.301c-85.62,18.707-151.386,60.652-161.158,99.593
			C855.063,204.583,971.452,179.153,1090.359,165.24z"/>
		
			<ellipse transform="matrix(0.977 -0.2135 0.2135 0.977 -39.1958 203.697)" fill="#FFFFFF" cx="923.67" cy="283.354" rx="28.605" ry="16.066"/>
		
			<ellipse transform="matrix(0.977 -0.2135 0.2135 0.977 -21.8888 271.2439)" fill="#FFFFFF" cx="1245.116" cy="236.983" rx="30.062" ry="9.203"/>
		
			<ellipse transform="matrix(0.977 -0.2135 0.2135 0.977 -65.997 139.3246)" fill="#FFFFFF" cx="612.178" cy="375.277" rx="30.062" ry="9.203"/>
		
			<ellipse transform="matrix(0.977 -0.2135 0.2135 0.977 -73.4671 165.6365)" fill="#FFFFFF" cx="730.286" cy="423.025" rx="15.786" ry="4.833"/>
		
			<ellipse transform="matrix(0.977 -0.2135 0.2135 0.977 -43.3483 255.716)" fill="#FFFFFF" cx="1162.48" cy="328.593" rx="15.786" ry="4.833"/>
	</g>
	<g>
		<line x1="508.748" y1="329.178" x2="115.229" y2="418.961"/>
		<path d="M508.748,329.178c0,0-6.092,1.653-16.752,4.547c-10.691,2.759-25.917,6.906-44.272,11.515
			c-18.342,4.667-39.776,9.957-62.776,15.471c-11.506,2.73-23.396,5.551-35.477,8.417c-12.096,2.803-24.384,5.65-36.672,8.497
			c-12.307,2.765-24.613,5.531-36.728,8.253c-12.129,2.659-24.065,5.276-35.616,7.808c-23.114,5.012-44.722,9.54-63.273,13.289
			c-18.537,3.811-34.057,6.67-44.886,8.82c-10.861,2.014-17.067,3.165-17.067,3.165s6.091-1.655,16.751-4.55
			c10.691-2.76,25.915-6.915,44.27-11.521c18.341-4.668,39.775-9.96,62.776-15.469c11.507-2.728,23.397-5.548,35.478-8.413
			c12.096-2.802,24.385-5.648,36.673-8.494c12.307-2.764,24.614-5.528,36.729-8.249c12.129-2.657,24.066-5.272,35.617-7.803
			c23.116-5.007,44.723-9.538,63.274-13.288c18.538-3.808,34.055-6.675,44.885-8.826
			C502.542,330.33,508.748,329.178,508.748,329.178z"/>
	</g>
	<g>
		<line x1="1050.266" y1="445.448" x2="413.109" y2="645.767"/>
		<path d="M1050.266,445.448c0,0-9.879,3.375-27.166,9.282c-17.334,5.758-42.009,14.264-71.776,23.97
			c-29.776,9.677-64.419,21.275-101.71,33.145c-37.287,11.885-77.06,24.562-116.833,37.24
			c-39.871,12.364-79.742,24.728-117.122,36.32c-37.37,11.622-72.422,21.917-102.378,31.022c-29.964,9.08-55.07,16.214-72.581,21.41
			c-17.558,5.046-27.591,7.93-27.591,7.93s9.878-3.376,27.165-9.285c17.334-5.758,42.006-14.274,71.775-23.974
			c29.777-9.675,64.414-21.29,101.711-33.143c37.287-11.883,77.061-24.559,116.834-37.235
			c39.872-12.362,79.743-24.725,117.123-36.315c37.375-11.604,72.422-21.916,102.379-31.019
			c29.966-9.074,55.069-16.218,72.58-21.415C1040.233,448.333,1050.266,445.448,1050.266,445.448z"/>
	</g>
	<g>
		<line x1="731.732" y1="170.555" x2="547.28" y2="207.287"/>
		<path d="M731.732,170.555c0,0-11.29,3.493-28.413,7.785c-8.554,2.183-18.565,4.574-29.323,6.981
			c-5.385,1.17-10.929,2.482-16.6,3.627c-5.666,1.171-11.422,2.361-17.177,3.55c-5.772,1.107-11.544,2.215-17.226,3.305
			c-5.674,1.128-11.301,2.029-16.723,3.014c-10.857,1.903-21.021,3.527-29.76,4.786c-17.462,2.593-29.23,3.684-29.23,3.684
			s11.288-3.5,28.411-7.795c8.554-2.184,18.565-4.578,29.323-6.98c5.386-1.167,10.928-2.491,16.601-3.622
			c5.666-1.17,11.422-2.358,17.178-3.547c5.772-1.106,11.545-2.212,17.227-3.301c5.677-1.115,11.301-2.027,16.724-3.009
			c10.858-1.898,21.022-3.524,29.76-4.785C719.965,171.654,731.732,170.555,731.732,170.555z"/>
	</g>
	<g>
		<line x1="672.489" y1="220.391" x2="488.037" y2="257.123"/>
		<path d="M672.489,220.391c0,0-11.29,3.493-28.413,7.785c-8.554,2.183-18.565,4.574-29.323,6.981
			c-5.385,1.17-10.929,2.482-16.6,3.627c-5.666,1.171-11.422,2.361-17.177,3.55c-5.772,1.107-11.544,2.215-17.226,3.305
			c-5.674,1.128-11.3,2.029-16.723,3.014c-10.857,1.903-21.021,3.527-29.759,4.786c-17.462,2.593-29.23,3.684-29.23,3.684
			s11.288-3.5,28.411-7.795c8.554-2.184,18.565-4.578,29.323-6.98c5.386-1.167,10.928-2.491,16.601-3.622
			c5.666-1.17,11.422-2.358,17.178-3.547c5.772-1.106,11.545-2.212,17.227-3.301c5.677-1.115,11.301-2.027,16.723-3.009
			c10.859-1.898,21.022-3.524,29.76-4.785C660.723,221.49,672.489,220.391,672.489,220.391z"/>
	</g>
	<g>
		<line x1="438.924" y1="391.915" x2="254.472" y2="428.648"/>
		<path d="M438.924,391.915c0,0-11.29,3.493-28.413,7.785c-8.554,2.183-18.566,4.574-29.323,6.981
			c-5.385,1.17-10.929,2.482-16.6,3.627c-5.666,1.171-11.422,2.361-17.177,3.55c-5.772,1.107-11.544,2.215-17.226,3.305
			c-5.674,1.129-11.3,2.029-16.723,3.014c-10.857,1.902-21.021,3.527-29.759,4.786c-17.462,2.593-29.23,3.684-29.23,3.684
			s11.288-3.5,28.411-7.795c8.554-2.184,18.565-4.578,29.323-6.98c5.386-1.167,10.928-2.491,16.601-3.622
			c5.666-1.17,11.422-2.358,17.178-3.547c5.772-1.106,11.545-2.212,17.227-3.301c5.677-1.115,11.301-2.027,16.723-3.009
			c10.858-1.897,21.022-3.524,29.76-4.785C427.158,393.014,438.924,391.915,438.924,391.915z"/>
	</g>
	<g>
		<line x1="1034.172" y1="496.594" x2="856.245" y2="557.534"/>
		<path d="M1034.172,496.594c0,0-10.725,4.963-27.125,11.495c-8.188,3.301-17.792,7.002-28.134,10.819
			c-5.182,1.876-10.502,3.914-15.97,5.803c-5.46,1.914-11.006,3.859-16.553,5.804c-5.574,1.865-11.147,3.73-16.634,5.567
			c-5.474,1.873-10.93,3.514-16.173,5.211c-10.508,3.33-20.365,6.292-28.859,8.702c-16.962,4.892-28.48,7.539-28.48,7.539
			s10.723-4.97,27.122-11.504c8.188-3.303,17.791-7.006,28.134-10.818c5.183-1.873,10.499-3.922,15.972-5.798
			c5.46-1.913,11.007-3.857,16.554-5.8c5.574-1.864,11.148-3.728,16.635-5.563c5.478-1.86,10.931-3.512,16.175-5.207
			c10.51-3.325,20.366-6.289,28.859-8.701C1022.656,499.248,1034.172,496.594,1034.172,496.594z"/>
	</g>
	<g>
		<line x1="570.252" y1="545.865" x2="257.291" y2="621.868"/>
		<path d="M570.252,545.865c0,0-4.814,1.499-13.281,3.953c-8.484,2.382-20.554,5.988-35.127,9.95
			c-14.559,4.02-31.582,8.554-49.859,13.26c-9.145,2.326-18.594,4.729-28.196,7.172c-9.617,2.379-19.387,4.795-29.157,7.211
			c-9.79,2.335-19.58,4.67-29.216,6.968c-9.628,2.336-19.153,4.428-28.344,6.564c-18.398,4.206-35.605,7.981-50.387,11.086
			c-14.766,3.167-27.148,5.49-35.78,7.264c-8.649,1.702-13.615,2.576-13.615,2.576s4.814-1.502,13.28-3.956
			c8.484-2.382,20.552-5.997,35.126-9.956c14.559-4.021,31.581-8.558,49.859-13.259c9.147-2.317,18.57-4.827,28.197-7.167
			c9.618-2.378,19.388-4.793,29.158-7.208c9.79-2.334,19.58-4.667,29.217-6.965c9.653-2.234,19.152-4.432,28.345-6.559
			c18.399-4.201,35.606-7.979,50.387-11.085c14.767-3.163,27.147-5.495,35.778-7.269
			C565.287,546.741,570.252,545.865,570.252,545.865z"/>
	</g>
</g>
</svg>
