<?xml version="1.0" encoding="UTF-8"?><svg xmlns="http://www.w3.org/2000/svg" xmlns:xlink="http://www.w3.org/1999/xlink" viewBox="0 0 1318.34 1047.72"><defs><style>.cls-1,.cls-2{font-size:14px;}.cls-1,.cls-3{fill:#999;}.cls-4{stroke:#000;stroke-width:3px;}.cls-4,.cls-5,.cls-6,.cls-7,.cls-8,.cls-9,.cls-10{fill:none;}.cls-5{clip-path:url(#clippath-2);}.cls-11,.cls-12,.cls-13,.cls-14,.cls-15{fill:#fff;}.cls-16{letter-spacing:0em;}.cls-16,.cls-17,.cls-18,.cls-19,.cls-20,.cls-21,.cls-22{font-family:SpaceMono-Regular, 'Space Mono';}.cls-23{font-size:44px;}.cls-23,.cls-12,.cls-24,.cls-2,.cls-13,.cls-25,.cls-14,.cls-26,.cls-15,.cls-27,.cls-28{font-family:SpaceMono-Bold, 'Space Mono';font-weight:700;}.cls-29,.cls-30{font-size:115px;}.cls-29,.cls-30,.cls-31,.cls-32{font-family:PilotCommand, 'Pilot Command';}.cls-29,.cls-31,.cls-27,.cls-33{fill:#fbb03b;}.cls-6,.cls-34,.cls-3{stroke:#fff;stroke-miterlimit:10;}.cls-35{letter-spacing:0em;}.cls-36{fill:rgba(255,255,255,0);}.cls-7{stroke:#fbb03b;}.cls-34{fill:#fcb72b;}.cls-37{fill:#eae2da;}.cls-12{font-size:110.73px;}.cls-17,.cls-38,.cls-21{fill:#c4c4c4;}.cls-17,.cls-18,.cls-25{font-size:10px;}.cls-38{filter:url(#drop-shadow-1);opacity:.15;}.cls-24,.cls-27{font-size:121px;}.cls-19,.cls-39{font-size:9px;}.cls-13{font-size:62.34px;}.cls-40{letter-spacing:2.56em;}.cls-20{font-size:7px;}.cls-41{letter-spacing:.47em;}.cls-31,.cls-32{font-size:69px;}.cls-42{letter-spacing:.25em;}.cls-43{letter-spacing:0em;}.cls-14{font-size:96.98px;}.cls-26{font-size:15px;}.cls-21{font-size:6px;}.cls-44{letter-spacing:2.99em;}.cls-45{fill:#ccc;}.cls-9{clip-path:url(#clippath);}.cls-15{font-size:95.46px;}.cls-10{clip-path:url(#clippath-1);}.cls-46{fill:#90d4dd;}.cls-47{letter-spacing:2.92em;}</style><clipPath id="clippath"><polyline class="cls-8" points="100.33 720.11 100.33 444.86 703.19 444.86 702.05 720.19 100.33 720.11 100.33 720.11"/></clipPath><clipPath id="clippath-1"><rect class="cls-8" x="100.33" y="444.86" width="602.86" height="602.86"/></clipPath><clipPath id="clippath-2"><rect class="cls-8" x="100.33" y="444.86" width="602.86" height="602.86"/></clipPath><filter id="drop-shadow-1" filterUnits="userSpaceOnUse"><feOffset dx="7" dy="7"/><feGaussianBlur result="blur" stdDeviation="5"/><feFlood flood-color="#000" flood-opacity=".75"/><feComposite in2="blur" operator="in"/><feComposite in="SourceGraphic"/></filter></defs><g id="Layer_6"><polyline class="cls-37" points="34.79 250.63 265.06 552.22 227.2 623.41 34.34 488.63"/><polygon class="cls-37" points="312.76 .52 35.15 .52 35.15 8.98 298.25 512.6 394.26 491.3 312.76 .52"/><polygon class="cls-37" points="448.75 0 435.81 486.35 498.34 507.67 723.57 0 448.75 0"/><ellipse class="cls-45" cx="1294.2" cy="176.95" rx="7.97" ry="7.73"/><ellipse class="cls-45" cx="1293.84" cy="151.64" rx="14.4" ry="13.96"/><ellipse class="cls-45" cx="1270.76" cy="171.63" rx="12.36" ry="11.98"/><ellipse class="cls-33" cx="1260.19" cy="140.94" rx="17.27" ry="16.74"/><ellipse class="cls-45" cx="1238.56" cy="170.21" rx="16.13" ry="15.64"/><ellipse class="cls-45" cx="1243.51" cy="113.06" rx="12.24" ry="11.86"/><ellipse class="cls-45" cx="1183.35" cy="140.87" rx="14.57" ry="14.12"/><ellipse class="cls-45" cx="1203.49" cy="167.01" rx="15.35" ry="14.88"/><ellipse class="cls-45" cx="1222.52" cy="137.49" rx="16.83" ry="16.31"/><ellipse class="cls-45" cx="1212.18" cy="202.68" rx="18.72" ry="18.14"/><ellipse class="cls-45" cx="1198.01" cy="108.9" rx="17.78" ry="17.23"/><ellipse class="cls-45" cx="1174.09" cy="189.13" rx="18.12" ry="17.57"/><ellipse class="cls-45" cx="1155.02" cy="158.27" rx="15.24" ry="14.77"/><ellipse class="cls-45" cx="1138.24" cy="185.95" rx="14.14" ry="13.71"/><ellipse class="cls-45" cx="1154.52" cy="125.93" rx="14.39" ry="13.95"/><ellipse class="cls-45" cx="1112.37" cy="166.57" rx="14.81" ry="14.35"/><ellipse class="cls-45" cx="1124.56" cy="137.28" rx="14.04" ry="13.61"/><ellipse class="cls-45" cx="1093.87" cy="141.53" rx="13.22" ry="12.82"/><ellipse class="cls-45" cx="1104.6" cy="113.65" rx="13.73" ry="13.31"/><ellipse class="cls-45" cx="1044.98" cy="160.87" rx="14.04" ry="13.61"/><ellipse class="cls-45" cx="1059.67" cy="187.75" rx="13.59" ry="13.17"/><ellipse class="cls-45" cx="1089.52" cy="186.97" rx="12.52" ry="12.14"/><ellipse class="cls-45" cx="1074.96" cy="163.16" rx="12.29" ry="11.91"/><ellipse class="cls-45" cx="1063.52" cy="138.8" rx="11.57" ry="11.22"/><ellipse class="cls-45" cx="1037.12" cy="133.38" rx="11.65" ry="11.29"/><ellipse class="cls-45" cx="1019.75" cy="150.71" rx="9.54" ry="9.25"/><ellipse class="cls-45" cx="1021.34" cy="171.59" rx="8.31" ry="8.06"/><ellipse class="cls-45" cx="1004.16" cy="163.42" rx="7.08" ry="6.87"/><ellipse class="cls-33" cx="998.8" cy="145.6" rx="8.32" ry="8.07"/><ellipse class="cls-45" cx="984.21" cy="154.84" rx="5.36" ry="5.2"/><ellipse class="cls-45" cx="974.3" cy="164.26" rx="4.77" ry="4.63"/><ellipse class="cls-45" cx="970" cy="152.37" rx="4.48" ry="4.34"/><ellipse class="cls-45" cx="959.34" cy="158.74" rx="4.29" ry="4.16"/><ellipse class="cls-45" cx="948.85" cy="152.15" rx="4.47" ry="4.33"/><ellipse class="cls-45" cx="938.52" cy="159.17" rx="4.41" ry="4.27"/><ellipse class="cls-45" cx="928.36" cy="152.19" rx="4.3" ry="4.17"/><ellipse class="cls-45" cx="918.16" cy="158.81" rx="4.23" ry="4.1"/><ellipse class="cls-45" cx="908.19" cy="152.44" rx="3.97" ry="3.85"/><ellipse class="cls-45" cx="897.99" cy="158.33" rx="4.15" ry="4.02"/><ellipse class="cls-45" cx="887.73" cy="152.81" rx="3.83" ry="3.72"/><ellipse class="cls-45" cx="877.69" cy="158.18" rx="3.89" ry="3.77"/><ellipse class="cls-45" cx="867.46" cy="153.01" rx="3.9" ry="3.78"/><ellipse class="cls-45" cx="837.54" cy="159.51" rx="4.39" ry="4.25"/><ellipse class="cls-45" cx="827.02" cy="151.97" rx="4.95" ry="4.8"/><ellipse class="cls-45" cx="816.49" cy="159.83" rx="4.6" ry="4.46"/><ellipse class="cls-45" cx="806.9" cy="151.41" rx="4.6" ry="4.46"/><ellipse class="cls-45" cx="796.69" cy="159.4" rx="4.79" ry="4.64"/><ellipse class="cls-45" cx="786.13" cy="151.95" rx="4.53" ry="4.39"/><ellipse class="cls-45" cx="775.7" cy="158.7" rx="4.27" ry="4.14"/><ellipse class="cls-45" cx="765.38" cy="153.04" rx="3.84" ry="3.73"/><ellipse class="cls-45" cx="755.77" cy="158.09" rx="3.34" ry="3.24"/><ellipse class="cls-45" cx="746.14" cy="153.39" rx="3.69" ry="3.58"/><ellipse class="cls-45" cx="736.26" cy="158.33" rx="3.68" ry="3.57"/><ellipse class="cls-45" cx="726.12" cy="152.9" rx="4.17" ry="4.04"/><ellipse class="cls-45" cx="715.63" cy="158.42" rx="4.03" ry="3.91"/><ellipse class="cls-45" cx="704.94" cy="153.61" rx="4.01" ry="3.89"/><ellipse class="cls-45" cx="693.73" cy="156.55" rx="3.85" ry="3.73"/><ellipse class="cls-45" cx="683.19" cy="155.29" rx="3.03" ry="2.94"/><ellipse class="cls-45" cx="673.51" cy="155.66" rx="2.91" ry="2.82"/><ellipse class="cls-45" cx="664.09" cy="155.61" rx="2.77" ry="2.68"/><ellipse class="cls-45" cx="654.41" cy="155.61" rx="2.47" ry="2.39"/><ellipse class="cls-45" cx="644.28" cy="155.61" rx="2.77" ry="2.68"/><ellipse class="cls-45" cx="634.13" cy="155.61" rx="2.53" ry="2.46"/><ellipse class="cls-45" cx="623.98" cy="155.61" rx="2.5" ry="2.42"/><ellipse class="cls-45" cx="613.83" cy="155.61" rx="2.77" ry="2.68"/><ellipse class="cls-45" cx="603.68" cy="155.61" rx="2.44" ry="2.37"/><ellipse class="cls-45" cx="593.53" cy="155.61" rx="2.29" ry="2.22"/><ellipse class="cls-45" cx="583.38" cy="155.61" rx="2.5" ry="2.42"/><ellipse class="cls-45" cx="573.23" cy="155.61" rx="2.22" ry="2.15"/><ellipse class="cls-45" cx="563.08" cy="155.61" rx="2.49" ry="2.41"/><ellipse class="cls-45" cx="552.93" cy="155.61" rx="1.98" ry="1.91"/><ellipse class="cls-45" cx="542.78" cy="155.61" rx="2.15" ry="2.09"/><ellipse class="cls-45" cx="532.63" cy="155.61" rx="1.85" ry="1.79"/><ellipse class="cls-45" cx="522.48" cy="155.61" rx="1.65" ry="1.6"/><ellipse class="cls-33" cx="512.33" cy="155.61" rx="2.29" ry="2.22"/><ellipse class="cls-45" cx="502.18" cy="155.61" rx="1.62" ry="1.57"/><ellipse class="cls-45" cx="492.03" cy="155.61" rx="1.67" ry="1.62"/><ellipse class="cls-45" cx="481.88" cy="155.61" rx="1.65" ry="1.6"/><ellipse class="cls-45" cx="471.73" cy="155.61" rx="1.54" ry="1.49"/><ellipse class="cls-45" cx="461.58" cy="155.61" rx="1.44" ry="1.39"/><ellipse class="cls-45" cx="451.43" cy="155.61" rx="1.32" ry="1.28"/><ellipse class="cls-45" cx="441.28" cy="155.61" rx="1.2" ry="1.17"/><ellipse class="cls-45" cx="431.13" cy="155.61" rx="1.26" ry="1.23"/><ellipse class="cls-45" cx="420.98" cy="155.61" rx="1.13" ry="1.09"/><ellipse class="cls-45" cx="410.83" cy="155.61" rx="1.26" ry="1.23"/><ellipse class="cls-45" cx="400.68" cy="155.61" rx="1.26" ry="1.23"/><ellipse class="cls-45" cx="390.53" cy="155.61" rx="1.13" ry="1.09"/><ellipse class="cls-45" cx="380.38" cy="155.61" rx="1.13" ry="1.09"/><ellipse class="cls-45" cx="370.23" cy="155.61" rx="1.13" ry="1.09"/><ellipse class="cls-45" cx="360.08" cy="155.61" rx="1.2" ry="1.17"/><ellipse class="cls-45" cx="349.93" cy="155.61" rx="1.2" ry="1.17"/><ellipse class="cls-45" cx="339.78" cy="155.61" rx="1.36" ry="1.32"/><ellipse class="cls-45" cx="329.63" cy="155.61" rx="1.2" ry="1.17"/><ellipse class="cls-45" cx="319.48" cy="155.61" rx="1.13" ry="1.09"/><ellipse class="cls-45" cx="309.33" cy="155.61" rx=".94" ry=".91"/><ellipse class="cls-45" cx="299.18" cy="155.61" rx=".94" ry=".91"/><ellipse class="cls-45" cx="289.03" cy="155.61" rx="1.13" ry="1.09"/><ellipse class="cls-45" cx="278.88" cy="155.61" rx=".94" ry=".91"/><ellipse class="cls-45" cx="268.73" cy="155.61" rx=".94" ry=".91"/><ellipse class="cls-45" cx="258.58" cy="155.61" rx="1.13" ry="1.09"/><ellipse class="cls-45" cx="248.43" cy="155.61" rx=".94" ry=".91"/><ellipse class="cls-45" cx="238.28" cy="155.61" rx="1.26" ry="1.23"/><ellipse class="cls-45" cx="228.13" cy="155.61" rx=".94" ry=".91"/><ellipse class="cls-45" cx="217.98" cy="155.61" rx="1.13" ry="1.09"/><ellipse class="cls-45" cx="207.83" cy="155.61" rx="1.2" ry="1.17"/><ellipse class="cls-45" cx="197.68" cy="155.61" rx="1.13" ry="1.09"/><ellipse class="cls-45" cx="187.53" cy="155.61" rx=".94" ry=".91"/><ellipse class="cls-45" cx="177.38" cy="155.61" rx="1.2" ry="1.17"/><ellipse class="cls-45" cx="167.23" cy="155.61" rx=".94" ry=".91"/><ellipse class="cls-45" cx="157.08" cy="155.61" rx=".94" ry=".91"/><ellipse class="cls-45" cx="146.93" cy="155.61" rx=".94" ry=".91"/><ellipse class="cls-45" cx="136.78" cy="155.61" rx="1.26" ry="1.23"/><ellipse class="cls-45" cx="126.63" cy="155.61" rx=".94" ry=".91"/><ellipse class="cls-45" cx="116.48" cy="155.61" rx=".94" ry=".91"/><ellipse class="cls-45" cx="106.33" cy="155.61" rx="1.13" ry="1.09"/><ellipse class="cls-45" cx="96.18" cy="155.61" rx="1.13" ry="1.09"/><ellipse class="cls-45" cx="86.03" cy="155.61" rx="1.2" ry="1.17"/><ellipse class="cls-45" cx="75.88" cy="155.61" rx=".94" ry=".91"/><ellipse class="cls-45" cx="65.73" cy="155.61" rx=".94" ry=".91"/><ellipse class="cls-45" cx="55.58" cy="155.61" rx=".94" ry=".91"/><ellipse class="cls-45" cx="45.43" cy="155.61" rx=".94" ry=".91"/><ellipse class="cls-45" cx="35.28" cy="155.61" rx=".94" ry=".91"/><polyline class="cls-37" points="35.28 713.65 164.72 695.53 169.02 656.66 34.34 608.42"/></g><g id="Layer_5"><g class="cls-9"><g class="cls-10"><path class="cls-46" d="m686.18,720.19c-13.22-145.3-135.72-259.52-284.41-259.52s-271.19,114.22-284.41,259.52h568.83Z"/><path class="cls-11" d="m133.22,720.19c13.17-136.57,128.57-243.71,268.54-243.71s255.37,107.14,268.54,243.71h31.75c-13.23-154.25-142.61-275.33-300.29-275.33s-287.06,121.08-300.29,275.33h31.75Z"/></g><g class="cls-5"><path class="cls-11" d="m354.15,541.22c-.45.1-2.83-.04-2.92.45.17.07,9.6,1.05,11.37.95,1.47-.11,2.01-.64,3.38-1-.78-.69-5.95-2.35-8.01-2.28-2.63.06-2.24,1.48-3.83,1.89Z"/><path class="cls-11" d="m337,523.31c-.45-.03-1.03.03-1.46.16.27,0,.15.24.32.45-.04-.01-.12-.03-.16-.05-.04.37-.09.41-.13.78.95.22,1.7.24,2.99.11.23,0,.14.21.29.4.54-.16,1.29-.14,1.86-.19-.16.34.52.5,1.4.38,2.51-.17,6.86-1.05,9.18-1.26.45.07,1.04.01,1.49.01-.7.3-3.05.4-3.23.92-.09.18.04.27-.06.45-.45.11-.83.31-.95.52,0,.56,3.26-.03,4.01-.09.33-.07,3.12-.31,5.11-.59-.36-1.14,1.19-1.93,1.33-2.88.2-.91-.1-1.03-2.4-.92-.88.18-1.59.33-2.55.54-2.39,0-3.57-.1-5.56.03-.79.04-1.37.03-2.24.24.68.7,2.09.39,4.27.23-.08.45-.05.51-.13.96-3.21.4-3.94-.71-6.71-.34.07.24-.14.28-.07.52.45.31,1.44.4,2.37.51-3.92.63-5.35-1.33-8.96-.88Z"/><path class="cls-11" d="m341.01,540.61c2.38-.19,2.77-.03,5.23-.82-2.52-.65-12.79-.61-12.75-2.33.15-1.3-2.95-2.02-2.74-3.78.07-.54,2.8-1.09,2.99-1.85.18-.91-1.91-.83-4.16-.54-2-.02-3.68.64-3.84,1.24.21,0-.03.25.04.45-2.11.6-1.24.09-3.43.43-.89.04-2.22.41-2.31.9-.18.53,1.41,2.41,2.2,2.93-.57.23-.69.43-1.67.58-2.39.22-1.16-1.01-1.76-1.51-.62-.62-2.08-.86-3.73-.78-.82.03-1.74.25-2.64.39.31.3.31.2.42.76-1.26.37-2.37.65-3.66.87-.68-.8-1.65-1.14-5-.55-1.81.33-2.79,1.06-3.82,1.46-.44-.38.09-1.57-1.56-1.26-4.26.71-14.59,4.41-15.39,6.78-.04.31,1.84.46,3.09.24,1.46-.47,2.22-.54,3.94-.74-1.28.72-4.45.8-4.78,1.9-.32,1.2,5.88-.32,8.58-.81,1.98-.33,4.08-.73,6.19-1.07,1.18-.23,2.11.02,2.86.01-1.44.35-2.12.42-3.94.74-4.92.89-8.46,1.73-11.52,3.14.97.48,2.46,1.15,5.01.75,1.62-.35,5.23-1.07,6.42-.84,1.41.22-.23,1.25,1.89.93,3.55-.55,7.11-1.15,10.94-1.57,2.68-1.23,5.64-1.1,9.13-2.15,1.88-.6,1.15-1.14,3.41-1.3,3.67-.51,5.17.99,10.22.49,3.23-.2,6.14-.61,7.48-1.57-.45-.19-1.07-.14-1.21-.63-.43.13-1.92.25-1.88-.25.04-.43.74-.47,1.73-.66Z"/><path class="cls-11" d="m356.41,513.71c.62-.12,1.44-.14,2.08-.16.1-.4.06-.37.11-.78-.78.15-2.66.13-4.28.35-.06.74,1.34.4,2.09.59Z"/><path class="cls-11" d="m358.07,516.65c-.26,1.2,2.45.87,3.92,1.28-.34.07-1.22.2-1.3.5-.05.74,4.2.02,8.8-.52-.4-.65.02-.62.09-1.04.02-1.3-4.3.35-4.29-.71-1.46.23-3.81.03-4.29-.33-1.32.24-2.9.2-2.94.81Z"/><path class="cls-11" d="m347.24,520.16c-1.09-.08-1.46-.17-2.78-.07-.45,0-3.44,1.08-1.21.74,1.96-.17,3.27-.27,3.99-.67Z"/><path class="cls-11" d="m334.87,518.69c-.32.1-.6.41-.92.5.96.12,1.53-.21,4.2-.51-.28.08-.38.41-.09.48-1.59.46-2.48.44-3.71.93,1.01.22,1.45.09,3.2-.06,1.78-.35,3.25-.63,3.97-.28,2.26-.26,3.51-.22,5.73-.41,2.89-.17,2.38.74,5.41.56.88-.19,2.16-.13,2.31-.73.12-.67-2.36-.6-3.31-.84.35-.08.73-.33,1.05-.5-.64-.04-1.83-.76-3.54-.6-.67,0-1.21.44-1.89.49-1.36.15-1.01-.71-3.5-.56-.86.23-1.46.43-2.47.59-1.4.02-1.92-.32-4.44-.19-1.49.27-2.36.55-3.89.79-.09.74.24.49,1.91.34Z"/><path class="cls-11" d="m366.85,513.59c-.56-.07-1.31.03-1.88.12.51,1.45,2.79.98,7.19.65-.7.37-1.65.41-2.95.59.04.31.07.29.97.29.91-.12,1.4-.24,2.69-.4.35.31.45.51,1.74.36,1.5,0,1.84-.33,3.84-.42,1.94-.02,3.3-.08,5.21.12-1.72.12-9.57.22-9.75,1.03.12.76,3.45.73,5.69.64-.33.17-.7.2-1.68.31.46.61,2.95.53,5.1.47,1.91.02,3.16.05,3.12-.88,1.18.26,3.45.6,4.62.56,0-.22.02-.23.01-.46.69-.02,1.63,0,2.32-.02-.48-.25-.95-.37-1.65-.68.58-.2.96-.32,1.54-.53.35.57.35.72,2.04.69,1.76.11,3.38-1.09,6.05-1.1.92.01,2.46.12,2.95-.14.34-.19.11-.14.12-.51-1.75-.03-5-.49-6.27-.48-.23,0-2.15.47-2.18,0,0-.31.91-.14.91-.51-.02-.36-1.51-.13-1.53-.5-.02-.62.18-.6-1.64-.55-.38.01-.89,0-1.27,0,.2.11.4.23.63.22,0,.23-.02.21-.01.43-.46.02-1.08,0-1.53.02-1.21-.3-.32-.75-2.26-.9-1.95-.07-3.13.24-5.06.04-1.97-.04-1.48-1.01-3.96-1.27-2.28-.13-4.7-.06-7.87-.01.1.72,2.17.33,3.7.5-.64-.07-1.49.12-2.13.09-2.29-.06-3.29.22-4.79.54.05,0,1.12.48,1.57.43.69.06,2.2-.24,3.52-.18-.33.18-.74.32-1.41.4-.91-.04-1.54-.19-3.37-.06-1.03.14-2.85-.07-2.91.5.11.55,3.74.3,5.45.41,0,0-.7.36-1.16.32-1.2-.01-3.13-.1-3.74-.12Z"/><path class="cls-11" d="m332.61,527.77c.89-.11,1.25-.1,2.45-.24.67-.05,1.85-.04,1.96-.78.05-.43-.5-.28-.75-.57-1.92.23-3.06.81-3.65,1.59Z"/><path class="cls-11" d="m375.09,518.83c.15-.22.07-.29.04-.56-1.32.16-.24.02-1.64.07-2.47.14-6.87.49-8.27.92,0,0,7.37.06,7.93.07,1.02.02,1.96-.2,1.93-.51Z"/><path class="cls-11" d="m374.33,524.44c.05-.8-2.99-1.47-5.29-1.26-2.94-.07-2.56,1.1-3.93,1.23-.22.04-1.51.2-1.73.77,0,0,7.36.73,8.25.84,1.85-.09,2.58-.77,2.69-1.58Z"/><path class="cls-11" d="m526.1,552.78c-3.05-1.1-4.24-2.52-7.22-3.24-1.13-.12-2.38-.3-2.27.46.36.64,1.67,1.92,2.74,2.23.84-.02,1.59.32,2.51.53,1.93.28,4.17.8,4.24.01Z"/><path class="cls-11" d="m409.45,719.07c.32-.09,1.05.02,1.39,0,1.57-1.47,5.62-3.42,8.6-3.48.56-.03,1.67.05,2.16.44-.33.32-.58.96.31,1.61,1.52,0,2.85.09,4.45.01,2.13.1,3.16,2.16,5.36,2.2.9,0,1.91-.39,3.21.16.07.04.13.1.18.18h7.56c-1.17-.58-2.21-1.27-3.02-2.04-.25-.19-1.59-1.64-2.6-1.75-5.09-.05-8.15-3.56-15-3.69-6.99.03-10.03,2.29-12.59,6.36Z"/><path class="cls-11" d="m363.44,531.76c-.69-.04-2.51-.07-2.97-.08.05-.62.39-.04.46-.75.04-.68-3.75.24-4.77.24.89-.35,4.07-1.06,4.3-2.03-.06-.3-.9-.45-1.25-.39-1.82.2-3.32.17-5.13.34-2.84.29-5.57.27-7.71,1.16-.2.05-.85.28-.94.45-.11.8,2.28.37,4,.29-.02.55,0,.76-.16,1.29-.55.14-1.35.11-1.92.15-2.12.2-4.01-.2-5.65-.09-.15.32-.11.47-.11.82,3.53,1.07,7.34.49,10.97,1.7.71.3.88.72,2.77.66,1.01-.09,1.49-.65,2.67-.91,4.38-.74,4.58-.03,5.44-2.86Z"/><path class="cls-11" d="m436.89,696.64c-.56.02-1.87.72-2.12,1.13.67-.04,2.42.17,3.95.03-.3-.26-.81-1.04-1.83-1.16Z"/><path class="cls-11" d="m428.35,531.32c2.36.16,3.39-.2,4.8-.21,1.51.25,2.16.49,3.94.59,1,.03,1.82-.14,2.27-.62-2.43-.65-5.38-1.85-8.96-2.06-2.8-.25-3.61-.61-6.54-.73-.89.05-2.24,0-2.18.62-.06.68,1.41.76,2.67,1.14-.91.59,1.39,1.13,4,1.26Z"/><path class="cls-11" d="m382.81,509.88c.58-.04,1.31-.23,1.9-.27,1.21-.08,2.55-.13,3.77-.08-1.52.08-2.24.3-3.55.61.21.1,1.69.14,2.26.2,2.42-.14,2.5-.67,5.06-.65.76-.02,1.71-.04,2.52.04-3.31.25-6.38.24-7.86,1.1.92-.05,3.44,0,5.95-.09-1.66.06-2.53.24-3.43.4.88.28,4.37.55,6.95.63,1.03-.01,1.9-.09,2.8-.33.49,0,1.15.01,1.65.01-.78.55,2.5.65,5.09.72.91.02,1.42-.31,2.53-.28,1.2.05,2.04.23,4.46.38,4.21-.09,6.87.04,9.44-.38.57.06,1.32.04,1.89.1-1.39.35-3.57.49-6,.63-2.24-.01-4.14-.21-6.35-.22-.25.12-.85.1-.87.31.01.31,4.13,1.05,4.75,1.18-3.59-.09-4.63-1-7.94-1.36-2.52-.25-5.26-.15-6.75-.16-.57,0-1.34-.11-1.92,0,.42.23.51.4,1.92.41-1.33,0-3.17-.27-3.18.25.06.93,8.48.76,8.71,1.78-.07,1.45-3.81.64-7.06.86-1.91.17-2.81.56-3.88,1.15,0,.21,0,.22,0,.42.57-.01,1.37-.08,1.94,0,.37-.15.91-.13,1.29-.25.57,0,1.36.01,1.94.01.02,1.24,4.03,1.37,5.84,1.86-.68-.02-1.65-.02-2.33-.04-2.46-.39-3.91-1.11-8.04-1.06-1.45.02-3.13-.34-3.25.37.04.93,2.72.76,4.27,1.07-2.72.68-9.36.04-9.53,1.54.01.16.42.32,1.29.28.57-.03,1.21-.16,1.57-.39,4.63.48,7.98.68,12.4.75,2.01.03,2.75-.35,3.91-.32,3.3.11,6.51.12,9.79.26,2.62.04,1.29.65,4.32.72,2.97.3,10.21.13,10.28-.75.05-.46-1.62-.36-1.96-.41-.94-.13-2.16-.16-3.23-.18.02-1.21,5.24-.12,5.26-1.4.04-.31-.71-.23-.94-.59,2.18.31,4.22.29,6.39.43,2.12-.16,2.95-1.07,5.51-1.16-.85-.52-2.19-.85-3.76-1.13,2.52.28,3.91.58,3.58-.31-1.2-.06-2.33-.19-3.52-.29,1.84-.18,5.03-.07,7.8-.05,1.97.08,4.75.72,6.43.57,3.63-.34,6-1.17,10.88-1.06,4.18.35,10.75.85,13.24.57-2.93-.5-7.51-1.01-8.84-1.52,6.29.03,11.82,1.66,16.19,1.69.82-.09,2.91.75,2.69.12-.39-.85-6.11-1.55-7.62-2.18-.71-.26-.77-.5-2.11-.86-.66-.23-1.41-.47-2.14-.6-3.03-.33-6.06-.63-9.15-.84.92-.05,1.24.11,2.04,0-2.6-.93-12.64-2.27-15.57-2.62-1.05-.25-2.13-.23-3.37-.39-1.03-.07-1.78-.44-3.67-.59-1.71-.16-2.05.32-3.82.12-1.88-.01-2.4-.61-4.7-.77-.56.06-1.13.13-1.44.08-4.78-.24-9.38-.57-14.2-.92-1.24.06-2.15-.1-2.82.26-1.73.2-.3,0-2.49-.04-3.68-.08-5.14.55-6.18,1.18-1.18-.05-5.99-.78-8.41-.81-2.61,0-.88.7-5.02.66,0,.21-.55.24-1,.25-.84.02-1.75-.01-2.76.02-3.61-.04-11.64.74-12.61,1.44.83.08,1.76-.02,2.76-.09Z"/><path class="cls-11" d="m398.97,525.54c3.52.15,6.95.1,10.45.14,1.28-.11,1.42-.4,3.24-.52.36.33.92.76,2.63.78,4.63.18,10.34.51,10.68-1.16,0,0-.75.09-1.69-.13.18-.18.42-.2.61-.38.31.04.74.02,1.05-.03-2.01-1.24-5.2-1.55-10.4-1.71-6.89-.31-8.89.77-16.19.81-3.27.01-5.77-.32-8.94-.53-.48.02-2.15.66-2.06-.2-.01-.19.65-.22.91-.24-1.89-.56-4.99.14-5.77-.93,1.73.04,3.42,0,5.15-.09-1.18-.57-6.97-.04-5.99-1.21-.67.06-1.62.1-2.3.06-.54.21-1.21.4-2.58.43-4.37.09-5.21-1.43-10.95-1.03-1.46.06-3.74.15-3.85.86.14.53,7.62,1.11,9,1.05.9.03,1.75-.22,2.59-.55,2.13.77,2.6,1.3,4.99,2.1-.46.04-1.62.35-1.58.77,0,1.24,6.27,1.81,9.25,1.87,1.01-.07,3.16-.62,3.67-.84.44.11,1.11-.08,1.57-.01-.36,1.01,3.7,1.04,6.51.7Z"/><path class="cls-11" d="m334.2,522.39c.79-.06,1.6-.31,1.79-.7-2.54-.13-2.58-.82-5.67-.43-.17.78,2.49,1.31,3.88,1.13Z"/><path class="cls-11" d="m511.69,615.26c.05.26.85,1.08,1.41,1.14,1.47.22,1.98-.38,3.98-.18,1.5.06,2.26.86,3.94,1.12.79,0,1.63,0,2.51-.22.85,1.08,2.34.62,3.59.81-.28.56-1.26.38-1.21,1.43-.03.18.53.08.76.09,1.53.14,2.42-1.11,3.35-2.24,1.09.95.58,2.72,1.56,2.82.31.13.71.16,1.01.33.1.34.28,1.23,1.26,1.33,1.25.15,1.83-.94,1.7-2.13,0-.88-.94-.98-1.11-2.18-.71.3-.29.57-1.53.38-.04-.62-.94-1.25-1.06-1.68,0-.36,1.03-.5,1.06-1.31-.42-.17-1.06,0-1.33.11-.23-1.47-.16-2.27-.27-3.19-.6.2-2.16.03-3.6-.47-.44.16-.99.19-1.46.2-.1-.11-.08-.34-.06-.48-.68-.06-1.58-.17-2.26-.28-.05-.26-.09-.61-.11-.87.22-.11.36-.3.57-.41-.5-.29-1.39-.71-2.08-.73-.78-.11-.75.45-1.81.55-.06-.26-.08-.61-.1-.87.49-1.61,3.04-2.41,2.81-4.48-.08-.34-.56-.95-1-1.07-2.04-.26-2.56,1.23-3.44,2.39-1.63,2.1-2.62,6.24-6.07,7.25.11.27.75.57,1.09.61.13.12.08.42.06.6.09.01-2.14,1.3-2.16,1.66Z"/><path class="cls-11" d="m483.74,518.78c-1.14-.08-2.11-.43-3.09-.8-2.21.24-7.24.04-11.26-.07-.55-.17-2.35-.31-2.31.16.19.98,6.99,1.58,9.16,1.99.33,1.26-.86,1.25-2.81,1.3-2.55,0-6.89-1.06-10.31-1.15-2.31-.15-3.54.24-5.79.11-2.74-.05-7.13-.87-6.99.23.33.77,12.36,2.96,12.82,3.04,1.51.1,2.82.4,4.35.53.54.18.89.03,1.15-.25,1.66.19,3.15.53,4.9.67-.42.6-.21.61-1.4.69-2.41-.3-4.64-.64-7.04-.91-.69.16-.89.22-2.19.06-.94-.12-2.14-.2-3.12-.36-.91-.1-3.41-.4-3.65.44,2.42.65,1.6.15,4.41.48,1.5.09,3.1.89,5.14,1.3-.52.47-1.23.27-2.39.39,1.76.7,5.64,1.7,8.31,2.04.91-.03.82.22,1.58.08-.39-.13-.91-.37-1.3-.51.58.03,1.02.01,2.44.16,1.5.19,2.66.69,3.75.86,1.7.1,2.26-.2,3.78.03,1.36.18,2.4.43,3.63.57,13.62,2.27,21.88,6.64,26.33,11.33.07.3.03.43.19.7.99.38,2.75.53,3.05,1.4.21,1.13-2.29.48-1.95,1.5.06.92,1.18,1.1,3.29,1.48,1.63.2,1.52-.33,2.61-.19,3.68.95,5.35,3.26,8.86,4.62.06.38.14.75-.88.46-2.67-.62-4.49-1.78-6.9-2.27-.99-.26-.95-.29-2.04-.45.87,1.48,8.98,3.65,12.61,4.88-.64,1.19-2.01,1.19-2.38,2.59-1.65-.76-1.62-.68-3.11-.61.04,0,.02.06.03.1-2.17.34-2.48,1.16-3.87,1.86.06.47.13.75.28,1.2.75-.04,1.45.16,2.31.47-.22.67-.97.47-.84,1.08.29,1.41,3.57,2.63,4.5,3.83.46.54,1.09,1.79,1.55,2.03,2.15.98,2.22-.36,4.23,1.06-.88.18-1.64-.06-1.45.67.34,1.71,4.95,6.03,7.51,7.4.27.25.38.87,1.04,1.31,2.06.91,2.86.9,4.02,2.4,1.29.27,2.88-.03,4.39.32,2.72.74,3.09,3.04,5.71,3.78.69.05.75-.16,1.99.13.18.4.66.62,1.39.89,2.74.62.78-2.41,2.96-2.46-.37-.62-.56-2.09-.81-2.99-.45-1.7,4.17-.62,3.84-2.32-.33-.57-1.31-1.14-1.5-1.51,0-.3.1-.23.49-.38,0-.21-.27-.35-.34-.56-.6-1.61,4.68.42,6.27.18,1.14-.19.16-.67,1.39-.54.11.38.22.57.33.95.51.26.84.19,1.32.5,1.6,0,4.59,1.34,5.91,1.14,1.9-.27-2.33-3.87-1.07-3.88,1.01.01.99.18,1.69.11-.31-.36.57-.1,1.26,0,.53.27,1.04.49,1.54.73-18.46-19.52-40.02-36.05-63.92-48.81-.47-.12-.79-.12-.72.18.37.2.64.62,1.11.89-.55-.15-1.03-.18-1.53-.46-2.14-.79-3.81-1.26-5.3-2.15-.42,0-.5,0-.92,0,.1.35.55.44.77.74-2.08-.53-2.78-1.55-4.81-2.07-2.87-.67-4.81-.77-7.85-1.29-4.25-1.01-5.66-1-10.24-1.76-3.7-.56.04,1.42-4.11.7Z"/><path class="cls-11" d="m508.14,619.33c.05-.36-.77-.76-1.02-1.1-1.2.27-2.83,2.67-2.79,3.2,0,.53.87,1.26,2.25,1.31,1.49.23,2.87-.45,2.83-1.07-.04-.21-.03-.51-.07-.71-3.07-.33-1.06-.71-1.2-1.63Z"/><path class="cls-11" d="m491.43,605.96c1.66,1.16,5.78,3.47,7.99,3.67.89.16,1.48.02,1.82-.42-3-1.52-5.62-3.46-9.81-3.24Z"/><path class="cls-11" d="m222.82,593.81c-.39.23-1.11.45-1.29,1.09-.27,1.16.49,1.79,1.88,1.49-.38,1.27-.2,1.98.73,2.62,1.19-.99.48-1.87.91-2.96-.15.19-.97.52-.94.28-.3-1.24.23-1.21.82-3.16-1.46.98-.5.11-2.11.65Z"/><path class="cls-11" d="m500.79,619.19c-1.4-.11-2.68-.21-4.08-.33-1.36-.45-2.37-.72-3.15-1.88-.23.09-.51.41-.49.67.24.57,5.3,3.04,6.24,3.15.21-.07,1.56-.46,1.54-.99-.13-.11-.02-.45-.06-.62Z"/><path class="cls-11" d="m429.19,559.53c-1.46-.73-4.52-.92-4.54.23,0,0,1.89.94,2.11.99,1.45.04,1.64-.77,2.44-1.21Z"/><path class="cls-11" d="m431.58,540.57c-1.58-.08-4.65.92-3.01,1.06,1.72.08,2.54-.39,3.01-1.06Z"/><path class="cls-11" d="m226.81,599.71c1.2-.96.58-.44,2.14-.57-.33.42-.18,1.02-.36,1.57.08,0,.74,1.41,1.59,1.25.55-.13.87-.43.97-1,.39-1.58-2.21-1.26-1.44-3.49-1.96.28-2.51.32-2.89,2.24Z"/><path class="cls-11" d="m230.44,609.48c1.2-.18-.57-1.06-.5-1.38.04-.33.56-.62.67-.94.11-.39-.28-.45-.31-.86.35-.75.46-1.26.37-1.79-.18.44-.82,1.18-1.53,1.37-.63.25.74-1.06.8-1.11-1,.18-1.24-.28-2.17,0,.04.22,0,.46-.14.64.42.52.46,1.33.89,1.17.68-.02.56.64,1.39.68-.11.13-.55.5-.58,1-.23.62.34,1.49,1.1,1.24Z"/><path class="cls-11" d="m312.19,523.8c1.68-.34,3.23-.52,4.96-.84,1.35-.35,2.24-.65,3.24-.9-.56-.74-2.1-.57-4.61-.21-1.5.26-8.37,2.15-8.71,2.88.87-.21,1.41-.57,2.36-.74,1.13-.11,1.39.01,2.76-.19Z"/><path class="cls-11" d="m243.96,612.55c-.81-.02-1.46-.87-2.78-.66-.55.12-1.16.51-1.6.72.12.09.28-.08.44-.08.58,0,1,.04,1.58.04-.17.21-.67.77-1.23.98.35,1.03,3.16,1.25,5.46.88-.35.23-.95.53-1.26,1.07,1.73.74,5.24,2.24,7.97,1.91.32-.1.73-.06,1.06-.16-.06-.24.12-.55.11-.8-2.76-1.88-5.1-3.39-9.75-3.88Z"/><path class="cls-11" d="m302.76,527.18c.76-.18,1.3-.38,1.72-.8-.69.11-3.41-.41-3.77.64-.08.3.98.28,2.05.16Z"/><path class="cls-11" d="m411.84,558.28c-.02.27-.06.52.02.78,2.15-.03,5.62-1.2,6.89-1.84-1.68-.35-1-.34-3.89-.35-.13.37-1.86.81-3.02,1.41Z"/><path class="cls-11" d="m276.19,536.72c.89-.14,1.21-.65,1.87-.8,1.11-.28,1.55-.2,2.93-.76.17.3.75.4,1.58.18,1.33-.2,2.08-.92,2.55-1.46,1.73-.41,3.5-1.45,4.08-2.14,1.06-.08.41.92,2.34.55,1.71-.72,3.35-1.57,5.15-2.35.13-.47-.67-.01-.62-.64.76-.2,1.58-.53,1.64-.96.27-1.08-6.53,1.37-6.53,1.37-.96.31-.96.12-1.9.37-3.01.69-3.87,1.95-6.05,2.84-1.98.95-3.51,1.42-5.3,2.11-.4.24-2.49,1.23-2.54,1.35-.15.09.55-.08.81.33Z"/><path class="cls-11" d="m310.42,526.32c2.56-.56,6.33-1.38,6.46-2.27-.64.16-1.23.25-1.8.33,1.32-.24,2.65-.62,3.66-1.1-.41-.05-.62-.23-1.99-.07-2.42.42-9.24,1.76-9.69,2.66.08.55,1.59.71,3.35.45Z"/><path class="cls-11" d="m267.83,547.92c.25.38.71.62,1.27.52.55-.14.65.2,1.43.07.82-.38,8.41-3.11,8.72-3.5.45-1.04,5.64-4.07,9.25-5.25,1.1-.43,6.99-1.86,7.37-2.42.12-1.04-4.96-.86-7.31-.32-1.43.24-2.95,1.13-3.76.96-2.41.43-3.28.2-5.52.5-1.8.33-3.07.97-4.3,1.37-2.55.63-3.48.55-6.16,1.68-.11.68,1.14.6.98,1.08-.52,1.53-5.96,4.22-6.59,5.74-.39.62,3.88-.57,4.61-.43Z"/><path class="cls-11" d="m301.02,529.52c-1,.15-1.64.23-3.7.75-.08.29.2.23.71.25.09,0-.19.09-.27.05-.87.26-1.9.57-2.36.92.29-.14.56-.05.87-.04-.12.03-.24.09-.37.09,0,0-1.01.07-1.89.4-.08.3-.02.37-.19.63.39-.05.7-.02,1.09-.07-.34.18-.78.02-1.13.2-1.31.13-1.78.67-2.89,1.02.49.38-.04.04-.2.64-.26.41.6.62,1.46.29.79-.06,2.36-.25,3.82-.5,1.44-.18,2.82-.74,4.84-1.23.1-.35.76-.6,1.4-.8.02.66.88.42,1.69.65-1.57.18-2.98.27-3.35,1.11-.09.36,1.64.38,3.05.08,2.92-.47,5.24-1.22,7.75-1.95.34-.01,8.01-1.98,8.13-1.96.19-.02,7.07-.71,7.84-.96,1.14-.24,4.24-1.74,4.42-2.58.15-.73-1.07-.9-2.59-.75-1.51.16-2.22.89-3.36.94-2.35.47-4.32-.04-4.21-.96-.05-.12-.06-.08.12-.56-.77.13-1.45.03-2.18.04-1.39.53-4.28,1.3-4.56,2.01-.01.55,1.94.17,2.8.18-.25.1-.04.31-.13.56-.31.12-1.06.3-1.22.35.45.12,1.01-.06,2.34-.22-.59.4-1.21.7-2.74.96-5.35.71-7.07-.28-10.64.22-.84.21-1.83.24-2.62.49-.12-.74-1.3-.34-1.74-.26Zm-3.3,2.71c.21,0,.42,0,.62-.02-.2.04-.41.06-.62.02Z"/><path class="cls-11" d="m285.45,534.96c.04.43.85.29,1.68.08,1.58-.32,3.34-1.63,3.74-2.21-1.15.07-5.06,1.44-5.42,2.13Z"/><path class="cls-11" d="m302.5,528.97c.82-.07,1.57-.29,2.49-.47.26,0,.14-.27.15-.54-1.38.27-2.6.48-3.95.76-.16.53.75.38,1.31.25Z"/><path class="cls-11" d="m450.51,545.8c-.36-.23-1.5-.87-2.73-1.08-.22-.05-1.62.23-1.68.41.06.36.86.57,1.77.56,1.33.16.89.11,2.64.1Z"/><path class="cls-11" d="m206.07,595.77c1.39-.77,2.8-1.17,4.26-1.8,2.12.24,4.77-1.12,6.76-.59,1.5.11,1.52,1.65,3.42,1.08.88-.2,1.16-.98,1.68-1.62.96.5,1.09.57,2.47.13.55-.42.96-.35,1.55-.04-.32.38-1.18.84-1.3,1.69-.14.42.71.71,1.14.6,1.32-.29.92-.95,2.8-1.62-.06.31-.16.57-.22.88-.26.53-1.56,1.01-1.73,1.58-.02.44.26.96,1.47.55,1.97-.29,2.89-.88,2.7.26-.07.36-.12.7-.24,1.05-.06.81,1.99,1.44,3.76,1.07.24-.29.67-.24,1.04-.32-.06.37.47.42.4.86-.17.95-.38,5.62,1,5.73.91-.01,1.59-.19,2.22.09,1.03.64-.56,1.73.66,2.03,0,0,2.61.62,2.67.86.61,1.61.2,3.62,4.13,2.96.32,1.48,4.32-.26,5.09,1.65.28.77,3.02.37,4.18,1.05.41.15.79.26,1.24.29.35.79,1.39.8,1.3,1.62-.16.64-1.29,1.79-1.97,2.43-.42-.77-1.43-1.12-3.24-.87-.4.21-1.72.4-1.83.84-.1,1.75,2.5,2.01,2.36,3.85-.4,2.54-4.26,14.23-3.52,17.13.83,2.95.36,4.48,1.38,7.06-.63.49-1.98,1.41-1.43,2.44,1.75,3.47,3.87,8.49,6.54,8.76-1.06,5.25,1.7,3.19,3.34,7.56.19.87-.21,2.3.83,2.72,4.5,1.38,10.79,3.66,12.82,7.53-.07-.04-.2.01-.27.01,0,.24-.03.67-.05.91.87,3.06,1.92,3.71,3.06,6,.69,1.58.55,5.21,2.06,6.18,2.27,1.43,4.45,4.13,6.43,6.95,1.13,1.68-2.21,1.26-2.78,1.28,1.38,1.99,4.42,1.52,6.26,3.3,1.44,1.34,2.47,2.76,3.96,4.23-.03.89-.06,2.37-.08,3.55.27.57.48.7,1.39,1.2,1.58,1,2.76,4.07,5.42,4.11.02.43,2.07,2.87,2.3,2.89.34-.05.96-1.57,1.04-2.08-.02-.84-1.64-3.4-2.83-2.29-2.6-1.66-3.37-5.09-4.39-8.4-1.07-2.89-3.59-4.18-4.58-7.34-.67-2.29-.89-3.6-2.76-5.43-1.39-1.37-3.11-1.21-4.04-3.2-.99-2.2-2.22-3.85-2.18-6.67,0-.31.03-1.3.35-1.73,1.61,1.59,3.83,1.38,6.21,2.36.89.45.67,3.35,1.91,4.59,1.09,1.15.67,3.39,1.93,4.63,1.51,1.46,2.77,2.79,4.66,4.58.31-.35.3-.26,1.56-.05-.02,3.32,4.16,3.41,5.57,5.85.61,1.52-.44,2.79.78,3.96,1.29,1.26,3.65,1.83,5.16,3.2,3.03,2.98,6.24,7.31,8.01,12.29h34.97c-.02-.25-.07-.52-.21-.82-.28-.38-1.44-1.64-1.21-2.81.07-2.62.08-5.16.06-7.88.47-2.16,1.59-3,1.59-5.63.02-.62-.38-1.6-.6-2.23-.05-.07-.14-.27-.09-.33.07-.07.33.12.4.04.06-.31-.72-1.08-.74-1.39.13-4.17,1.98-7.93,5.46-9.11,1.53-.6,2.9.43,4.14-.75,1.92-1.63,3.98-5.09,8.5-5.21,1.76.04,2.61,1.37,4.31,1.35.68-.05,1.63-1.11,2.32-1.13,3.13.03,6.66,4.58,11.13,2.72-1.89-1.15-.53-2.43-.29-4.45-.74.16-.6.45-2.17,0,2.67-.82,5.86-.54,8.37-1.13,0,.31.74,1.13,1.08,1.11.91.04,1.67-1.16,3.88-1.11,3.73-.05,5.35,3.26,8.21,3.2,1.02,0,2.01-1.79,3.41-1.79,6.91.12,5.07,8.37,7.5,12.99,1.25,2.3,2.69,3.08,4.68,5.21.87,1.46.77,3.41,3.11,3.54,2.65-.02,3.37-2.6,3.38-5.6,0-2.63-1.38-3.9-1.9-5.61.04-.17-.02-.52,0-.7-.15-4.5-4.27-5.8-4.4-10.46.06-10.16,7.51-10.66,14.75-14.11-.11-.05-.31-.2-.42-.26.7-.59.69-1.17,2.56-1.72.92-.12,1.99-1.26,3.77-1.56.64-.07,1.41-1.03,1.75-1.45-.44-.26-1.32-.8-1.8-.97.04-.27-.03-.8-.02-1.08,1.01,0,2.06.12,2.31-1.3-.55-.17-1.47-.25-2.1-1.23.57.02,1.97-.42,1.97-1.59,0-.34.02-.99-.03-1.33-.24-.13-.8.01-1.05-.03-.68-.63-.02-.69-.05-1.99-.06-1.35-.78-3.76-.86-4.65,0,0-.12-1.19.12-1.71.26,1.41,1.78,3.3,1.75,4.4.02.38.03,1.07.03,1.45.04.2.4.78.62.81.33-.09,3.27-4.71,3.32-5.34-.09-.83-1.09-1.35-1.41-2.53.19-.16.56-.44.73-.64.2.23.73,1.07,1.07,1.08.8-.03,3.74-4.51,4-5.48,0,0-1.4-1.08-1.38-1.6-.13-.28.55-.7.86-.88.34.05,1.01.09,1.34.18,2.17-.16,3.52.16,5.58-.45-.75-.58-2.33-.02-3.69-.13-.37-.04-1.1-.12-1.48-.05,2.96-1.62,7.87-.69,10.77-2.41.45.42,2.99.22,4.79-.17-.05-.24-.03-.65-.04-.89,0,0-1.33.79-1.56.82-.68,0-1.55-1.84-1.54-2.36-.35-.09-.57-.86-.64-1.16-.03-5.03,5.06-3.23,7.41-5.14,1.39-.49,1.51-.78,3.24-.69,2,.15,3.47-.58,4.42-1.83-.25-.17-.5-.68-.69-.91,0-.11-.02-.31-.1-.37.01-.11,0-.27-.02-.37.25.05,1.07.06,1.41.09.68.03,4.36.69,5.6.12,1.26-.73,1.08-2.21,3.16-2.19.17,1.62-.03,1.77,2.21,1.97-3.24-.03-8.01,1.67-7.9,4.35.1.92,2.2,3.18,3.01,3.28.9-.06,3.5-2.97,6.21-3.63.58-.01,9.57-2.53,9.72-3.5-.17-1.27-3.55-1.74-4.46-1.8-3.97-.37-10.33-4.14-10.78-7.14-.75-.15-1.98-.48-3-.54.75-.89,5.56-1.01,5.49-3.47-.29-2.06-4.32-2.12-7.31-2.32-6.17-.36-8.61,2.94-12.89,3.28,1.71-3.11,4.6-1.96,7.57-4.25,1.89-1.63.27-2.63,3.21-3.25,5.15-.97,8.07.06,13.35.53,6.85.6,12.09,3.43,15.69-.47,1.68-1.83,11.31-.47,11.1-3.2-.25-2.01-1.27-2.98-2.67-4.31-.89-.16.35-.69-1.17-1.38.01-.32-.14-.68-.13-1-2.78.71-8.61,1.3-11.81,1-.33.04-1.24-.32-1.33-.48,2.48-.62,9.32-.32,10.06-1.87,0-.41-1.03-.7-1.21-1.08-3.14-.15-9.59-1.79-10.04-4.66-.06-.04-.03-.17-.03-.25-2.87-.36-4.7-1.68-6.48-2.68.57-.23,1.83-.25,1.77-1.24-.06-.79-1.32-1.64-1.19-2.36-1.3-.44-5.66-2.42-4.72-3.85,1.08-1.74-4.3-2.65-5.11-4.84-.34-.03-1.91-.92-2.35-1.26-.83.32-3.2.87-2.77,1.87.81,1.75-1.48,1.88-3.81,2.62-1.58.53-2.79,1.73-4.21,1.59-2.39-.22-4.37-2.9-6.01-3.14-2.25-.25-1.46-3.87-1.97-5.65-.94-2.16-7.72-1.31-8.19-4.1-3.84-.61-3.41-2.01-7.33-2.24-.82-.1-1.99-.13-3-.18-3.99-.25-6.45-1.68-10.42-1.87-2.09-.11-4.1.33-4.06,1.73.11.79,5.06,2.04.6,3.52-1.8.54,2.63,2.6,2.98,3.69.61,2.58-3.26,2.88-5.15,3.18,1.98,1.75,5.67,2.34,7.4,3.9,1.38,1.4.61,3.59.69,6.18-.11,1.53-8.3,4.97-11.24,5.33,5.16,1.76,3.3,6.26,5.33,7.98-.45.48-2.01,2.36-2.15,3.24-1.8.1-3.31.53-4.75-.21-3.71-1.94-9.04-5.32-9.2-7.7-.09-2.56.03-4.68-4.11-6.14-3.06-.63-6.1-1.06-9.16-1.52-5.45-2.03-11.31-3.47-17.75-4.68-.91-.21-4.39-1.45-6.42-1.45-2.19.1-3.19,1.29-5.34,1.29-.07-1.85-2.06-5.91-5.21-5.99-1.47.09-2.13.71-3.56.88.52-.85,0-1.27.15-3.39.13-3.11,2.14-5.86,5.5-7.66,1.17-.87,3.66-3.45,4.74-3.72,2.39-.45,4.59,1.05,4.69-.69-.03-1.19-5.27-1-7.22-1.5,1.03.16-3.13-1.26,8.32.31,3,.22,1.18-1.5,2.86-1.55.83-.06,1.99-.1,3.06-.05,3.44-.05,5.19-1.79,7.41-2.63-.01-.37.01-.65,0-1.03-4.75-.57-9.31-.12-11.44-2.09.67-.06,1.79-.1,2.48-.04,1.79.39,3.5,1.43,6.19,1.47,2.23-.07,7.16-.47,7.3-1.25-.05-1.3-.34-1.83-.61-2.04,2.71.14,3.82,1.3,5.66,1.38,1.52-.12,2.99.09,4.6.07-.64-.33-.18-1.56,1.64-.3.99.69,7.71-2.06,7.86-2.92-.12-.65-3.12-1.27-3.2-1.71.03-.51-1.95-1.39,2.37-2.36.55-.58,0-.43-.06-1.58-2.12-.05-2.93-.42-3.89-.82,3.28.11,6.27.24,8.12.36-.05.44-.58,1.14,1.13,1.25,2.52.13,4.44-1.68,6.15-1.68,1.54.27,8.77,2.91,10.03,3.49-.68,0-3.09-.14-3.13.48.12.02.67.61,1.11.71,1.75,0,2.49-.49,4.2-.35,2.75.31,11.31,3.49,11.61,4.94.06.86-2.55,1.67-3.74,2.14-.89.11-3.27-.38-3.26.57,0,.5,1.96,1.13,2.5,1.36-1.64.24-4.78.41-5.97.35-2.06-.15-3.83-.3-5.81-.37-1.88-.21-5.29.61-5.35,1.24.13.85,4.4,1.82,5.96,1.94,1.63.17,2.38-.64,4.02-.61,1,.09.95.45,2.32.56,1.01.09,2-.35,2.63-.67,4,1.24,6.21,2.46,10.71,3.72-1.99,1.71,5.84,2.42,9.19,3.45,3.49,1.17,5.8,1.2,9.78,2.36.31.15.83.81,1.39.86.45.05,1.23-.12,1.22-.56-.43-1.65-7.64-3.61-10.06-5.13.52.21,1.41.17,1.98.21,1.52.95,9.93,3.34,12.37,3.7.48-.65,1.65-1.44,1.61-2.06-.16-.66-2.43-1.17-2.49-1.6-.09-.4-.13-.72-.15-1.14-.64.03-1.55-.19-2.18-.27-.39-1.01-1.15-.51-3.69-1.11-.84-.37-2.75-1.72-3.12-2.46-.49-.07-1.21-.11-1.69-.19,0-.31-.02-.54-.11-.84.45.18,1.16.27,1.93.22-.07-.23-.01-.42-.09-.66-1.01-.08-1.39-.06-2.6-.41.1-.06,1.69-.39,2.5-.31,6.34.8,6.9,4.45,13.31,5.38,1.43.13,1.48-.65,1.4-1.33,2.44.26,2.69-.09,2.65-.27-.05-.26-.13-.44-.11-.71,1.56.23,3.62.44,3.55-.37-.11-.98-1.13-1.41-3.55-1.75-.55-.09-1.69-.31-2.28-.6-1.22-1.33-1.58-.46-4.42-.89-1.82-.29-2.62-1.19-3.07-2.25-2.64-.43-6.08-1.39-6.61-2.67-1.77.02-2.38-.49-3.62-.84,1.05-.87,2.05-.51,4.02-.7-.4-.31-1.41-.61-1.96-.7-1.41-.18-2.51-.43-3.83-.56.93-.55,2.5-.3,4.34-.18-1.05-.76-1.92-1.48-3.73-1.67-.6-.22-1.52-.23-2.16-.26-.03-.35,0-.54-.12-.87-3.57-.73-5.6-1.56-9.14-2.4.28-1.06-2.99-1.27-4.36-1.43-.94.03-2.1-.24-3.23-.3-4.33-.45-5.33-2.26-8.29-3.15-1.81-.71-7.27-1.22-9.83-1.43-2.36-.2-2.94,1.11-5.16.93-1.01,0-1.57-.56-3.06-.64-1.24-.15-1.92.34-2.59.37-.56-.07,0-.75-.06-.99-.02-1.18-1.9-2.88-5.38-2.97-5.25-.26-13.93.26-14.02,2.08,0,.62,1.33.73,1.33,1.35-.02.5-1.83.96-2.64.96-1.64-.02-1.33-.36-1.33-.86,0,0-.26-.47,0-.89-.56,0-1.05-.13-1.05-.5.02-1.53,4.31-1.51,5.65-2.46-.11,0-4.34-.54-4.34-.54-4.46,0-7.79.76-10.53,1.78-.42.3.06,1.08-.95,1.37-2.05.45-2.7.77-2.7,2.26.04.56,1.95,1.34,1.95,1.34,0,0,6.01.2,7.32.48,0,.27-.02.4-.01.66-2.28-.12-4.21-.33-6-.13.32.84,2.17.88,2.92,1.52,2.14.1,4.28-.09,6.42.02.72.44,2.98,1.05,4.03,1.08h.55c0,.96,2.04,1.04,2.05,1.71-.05.74-3.08.6-3.8,1.25-1.05,1.01-.69,1.87-2.68,3.14-3.11,2.02-5.79.28-5.83-.5-.02-.96,2.25-.6,2.34-1.63-.17-.49-3.9-2.2-5.01-2.18-4,.05-1.24,2.7-5.5,2.84-.1-1.25-.15-1.86-3.05-2.42.38-.29.92-.64,1.37-.79-2.16-.48-5.08.08-6.71-.74.81-.23,3.39-.8,3.43-1.6,0-1.2-3.8-.99-3.93-1.89.04-1.47-1.73-2.38-5.01-2.66,1.06-.41,1.71-.64,2.07-1.3-.48.07-1.22,0-1.7.06.84-1.14.78-.37,3.69-.47,4.03-.15,5.78-1.19,7.57-2.13,0,0,2.29-.67,2.38-.76-.02-.27.04-.35.02-.62-4.76.16-8.18-.33-12.74-.21-2.71.02-3.55.79-3.55.85.02.18-.27.5-.03.47-.85.13-2.03.1-2.98.14-.08.34.02.47-.07.81.84.9-.18,1.61,1.9,2.22-.05.23-.08.49-.15.91-1.77.24-.99.63-.87,1.3-1.62.26-3.73.16-3.77,1.1-.07.74,1.03.71.94,1.45-.08.73-1.81.57-1.84,1.5-.12,2.12,8.79.27,8.91,2.47-.11.43-1.19,1.95-1.19,1.95.84-.13,1.76-.49,2.88-.76,1.52,2.58-7.03,1.65-7.44,4.85-4.52.8-.86-1.41-1.87-2.18-.39-.32-3.87-.54-6-.42-2.4.19-3.39.85-3.52,2.28-2.39.05-6.13-.96-13.73-.27-7.2.66-12.53.12-13.89-2.13-2.45.4-9.77,1.58-10.17,2.96-.05.51.46.66,1.49.47,2.03-.16,5.44-1.21,7.06-1.83.17,2.13-5.9,1.06-6.37,3.24-.13.5,1.05,1.79.48,1.82-2.71.25-2.72-1.15-4.87-1.43-.59-.07-1.21-.18-1.8-.19-2.73.36-5.28.8-7.94,1.15-2.57.19-4.06,1.12-6.82,1.63-4.83.94-4.58.06-4.54-.16.15-.65,3.7-1.03,4.52-1.45-2.93-1.86-2.31-1.67-9.1.01-7.31,1.61-11.74-.25-18.47,1.41-2.1.46-1.17,1.31-2.92,1.9-1.15.21-1.83-.3-2.07-.88-2.02.88-2.41,1.93-4.53,2.58-1.86.57-3.8-1.17-4.45-.99-2.11.62-1.72,1.98-3.93,2.64-.87.25-1.24.42-1.49-.21-3.28,1.2-4.15,1.8-7.06,3.33-1.03.49-3.38,2.56-4.49,2.23-1.95-.49-2.16.97-2.93,1.43-6.06,2.27-2.21,2.18-3.11,2.41-2.06.91-6.85,2.24-9.56,2.52-8.9,8.93-17.11,18.54-24.57,28.74.71-.54,1.52-1.08,2.11-1.54.37,1.5,2.67.82,5.02.43Zm275.03,27.46c-.16-.26-.32-.8-.52-1.04.26.18.42.75.52,1.04Zm-1.22-3.8c-.05-.4-.14-1.03-.21-1.42.22.33.13,1.02.21,1.42Zm-50.17,8.89c.07.16.2.45.31.58-.17-.04-.26-.42-.31-.58Zm.91-2.21c3.24-.67,9.88-1.86,13.61-1.87-.02,4.38-9.17,3.09-13.44,2.93-.55-.03-.69.12-1.76.08.17.2.42.61.54.84-.17-.32-.81-.72-.84-1.07-.02-.48,1.54-.83,1.88-.9Zm-2.4,4.92c.36-.15.92-.35,1.44-.55-3.26,1.33-9.14,3.53-12.73,3.6-1.51-.08-2.06-1.76-2.1-3.01.36.46,1.56,1.43,2.23,1.45,1,.03,1.63-.75,2.05-1.17,1.37-.95,3.51-1,5.58-.87,1.98.12,2.96.81,3.53.55Zm-39.5-24.31c1.93-.5,2.18.07,3.78-.59,1.48-.61.87-2.28,2.33-2.36,1.73.13,3,2.09,3.47,2.45.25-.37.16-1.38.15-1.57.3,0,.86,0,1.16,0,.67.03,6.96,3.96,7.26,4.29.88,1.41,0,2.41,1.19,3.41,3.42,2.58,7.77,2.29,11.56,4.02.96.15,2.49.04,3.79.06,1.75,1.03,3.93,2.12,4.01,3.88-.02.67-.76,1.43-1.43,1.37-1.75.11-3.6-1.75-4.12-2.04-.55,1.75-1.78,7.35-3.85,7.43-1.55-.94-1.52-1.75-2.11-3.67-1.47.32-1.12.77-2.92.8.42-1.65,1.58-2.71,1.57-4.31-.04-1.35-5.44-3.53-6.61-3.52-2.42.04.17,2.68-5.29,3.04-1.61,0-1.62,3.52-1.59,5.08,0,1.02.02,2.53,0,3.78.05,1.67-.7,5.04-2.95,5.12-1.63.02-3.36-1.02-3.39-2.38.01-3.02,1.21-9.02,3.7-11.66-1.44.03-2.02.89-3.53,1.64.41-2.36,6.14-5.52,9.39-5.56.88.03,4.36.61,6.57.03.03-.38.02-.99-.01-1.37-3.11-.11-4.74-1.43-8.33-1.53-1.61-.02-2.16,1.1-4.08,1.14-.78,0-2.36-.69-2.49-1.36-.74.02-1.95-.04-2.92.01.47-.75,1.62-1.26,1.62-2.85-2.13.44-4.78,2.48-6.42,2.54-1-.03-1.48,1.43-3.95,1.53-.89-.02-1.55-.06-2.16-1.12-.78.11-1.6.43-2.64.84-.55-.03-1.62.02-2.18.03,3.5-3.36,7.42-4.56,11.42-6.6Z"/><path class="cls-11" d="m425.56,555c-1.26-.84-3.71-.53-5.96-1.33-.58-.2-.28-.64-1-1.07-2.48-1.41-6.85-.96-9.8-2.55-.36.11-.91.24-1.23.43-.6-.59-1.34-.81-2.08-1.63-3.92.08-4.51,2.37-4.52,3.37,0,.31,0,.56,0,.87,0,.37-.79.56-1.38.74-.23.31-1.91.25-2.07,1.16.9-.01,3.68-.2,5.95.06-.23.61-.66,1.15.98,1.19.56.02.74-.17,1.1-.46,2.03.38,6.43-.79,6.47-2.03.67.18,5.28,1.6,5.28,1.6,1.01.1,2.42.09,3.73.13,1.72.04,3.07-.22,4.52-.47Z"/><path class="cls-11" d="m424.81,592.27c.13.02.39.08.51.01-.11-1.22-1.74-1.78-3.49-1.82.03.21.04.5.01.72.55.47,2.03,1.15,2.97,1.09Z"/><path class="cls-11" d="m444.83,545.74c-.28-1.96-8.25-2.77-8.28-.55.06.74,1.4,1.32,3.43,1.41,1.68.18,4.84-.16,4.85-.86Z"/><path class="cls-11" d="m435.91,556.67c-1.81-.36-1.77-.84-3.15-.17,1.39.6,1.73.57,3.15.17Z"/><path class="cls-11" d="m489.2,614.09s0,.02,0,.03c.04,0,.08,0,.12.02-.06-.16-.11-.27-.12-.05"/><path class="cls-11" d="m480.51,622c-.14-.3-.24-.85-.36-1.16.14.3.24.85.36,1.16"/><path class="cls-11" d="m430.14,629.16c.13.25.29.72.42.96-.17-.22-.3-.71-.42-.96"/></g></g></g><g id="Layer_4"><path d="m805.29,113.4c51.4,37.47,95.2,73.31,121.16,98.26-20.74-29.77-62.23-69.6-114.35-107.61-52.13-38-102.74-65.31-137.43-75.96,31.7,17.08,79.21,47.83,130.61,85.3Z"/><path d="m938.29,232.74c-20.8-23.8-72.89-67.78-136.68-114.29-63.8-46.51-121.6-82.66-150.62-95.18-9.23-.55-15.86,1.3-19.19,5.87-14.87,20.39,41.76,86.99,126.47,148.75,84.71,61.76,165.44,95.3,180.31,74.91,3.33-4.56,3.06-11.45-.28-20.06Z"/><ellipse class="cls-11" cx="770.35" cy="161.29" rx="9.25" ry="60.23" transform="translate(186.21 688.76) rotate(-53.91)"/><path d="m874.38,149.46c5.89-20.67-9.76-50.8-39.17-72.24-29.41-21.44-62.88-27.13-80.75-15.2,43.87,23.8,83.85,52.94,119.92,87.43Z"/><ellipse class="cls-11" cx="791.74" cy="130.22" rx="6.67" ry="11.88" transform="translate(220.1 693.28) rotate(-53.91)"/><ellipse class="cls-11" cx="894.73" cy="217.29" rx="3.82" ry="12.48" transform="translate(192.06 812.27) rotate(-53.91)"/><ellipse class="cls-11" cx="677.35" cy="58.79" rx="3.82" ry="12.48" transform="translate(230.81 571.49) rotate(-53.91)"/><ellipse class="cls-11" cx="695.06" cy="108.64" rx="2.01" ry="6.55" transform="translate(197.81 606.29) rotate(-53.91)"/><ellipse class="cls-11" cx="843.5" cy="216.86" rx="2.01" ry="6.55" transform="translate(171.35 770.7) rotate(-53.91)"/><line class="cls-8" x1="691" y1="148.27" x2="560.09" y2="237.81"/><path d="m691,148.27s-7.69,6.31-19.62,15.21c-5.95,4.47-12.95,9.6-20.52,15-3.8,2.68-7.68,5.51-11.7,8.27-4.01,2.78-8.08,5.6-12.16,8.43-4.11,2.77-8.22,5.55-12.26,8.28-4.03,2.75-8.08,5.34-11.95,7.91-7.77,5.1-15.09,9.76-21.42,13.68-12.62,7.89-21.3,12.76-21.3,12.76,0,0,7.69-6.32,19.61-15.22,5.95-4.47,12.95-9.6,20.52-15,3.8-2.68,7.67-5.52,11.7-8.27,4.01-2.78,8.09-5.6,12.16-8.42,4.11-2.77,8.22-5.55,12.26-8.28,4.03-2.75,8.08-5.34,11.95-7.9,7.77-5.09,15.09-9.76,21.42-13.68,12.62-7.89,21.29-12.77,21.29-12.77Z"/><line class="cls-8" x1="746.41" y1="205.13" x2="594.66" y2="419.26"/><line class="cls-8" x1="810.69" y1="240.26" x2="775.52" y2="330.4"/><path d="m810.69,240.26s-1.39,5.95-4.12,14.62c-1.34,4.35-3,9.38-4.89,14.73-.97,2.67-1.9,5.45-2.97,8.22-1.05,2.78-2.13,5.61-3.2,8.44-1.13,2.81-2.25,5.61-3.36,8.37-1.08,2.77-2.29,5.45-3.38,8.06-2.23,5.22-4.41,10.04-6.37,14.15-3.87,8.23-6.88,13.54-6.88,13.54,0,0,1.39-5.95,4.11-14.63,1.34-4.35,3-9.38,4.89-14.73.97-2.66,1.89-5.45,2.97-8.22,1.06-2.78,2.13-5.61,3.2-8.44,1.13-2.81,2.25-5.61,3.36-8.37,1.09-2.77,2.29-5.45,3.39-8.06,2.23-5.21,4.41-10.04,6.37-14.15,3.87-8.23,6.88-13.54,6.88-13.54Z"/><path class="cls-8" d="m642.63,250.98c-20.87,18.15-40.93,37.21-61.52,55.68"/><path class="cls-8" d="m675.01,221.82c-2.74,2.48-5.48,4.95-8.23,7.43"/><path d="m650.37,137.43s-6.55,4.51-16.71,10.68c-5.06,3.11-11.03,6.63-17.47,10.31-3.23,1.82-6.54,3.76-9.96,5.62-3.41,1.87-6.88,3.77-10.35,5.68-3.5,1.85-6.99,3.7-10.43,5.52-3.43,1.84-6.87,3.53-10.17,5.23-6.61,3.36-12.84,6.39-18.22,8.91-10.74,5.08-18.12,8.07-18.12,8.07,0,0,6.55-4.52,16.7-10.69,5.06-3.11,11.02-6.63,17.47-10.31,3.23-1.82,6.53-3.77,9.96-5.61,3.41-1.87,6.88-3.77,10.35-5.67,5.49-2.91,8.16-4.32,10.43-5.52,3.43-1.84,6.87-3.53,10.17-5.22,6.62-3.35,12.84-6.39,18.22-8.91,10.74-5.08,18.11-8.07,18.11-8.07Z"/><line class="cls-8" x1="763.74" y1="247.29" x2="685.63" y2="390.26"/><path d="m841.51,261.68s-1.87,10.08-5.35,25.01c-1.71,7.47-3.82,16.16-6.18,25.44-1.21,4.63-2.38,9.44-3.7,14.29-1.31,4.85-2.63,9.79-3.96,14.72-1.38,4.92-2.77,9.83-4.13,14.67-1.34,4.85-2.8,9.57-4.13,14.17-2.72,9.18-5.36,17.73-7.71,25.02-4.66,14.61-8.21,24.22-8.21,24.22,0,0,1.87-10.08,5.34-25.01,1.71-7.47,3.81-16.16,6.18-25.44,1.21-4.63,2.37-9.44,3.71-14.29,1.31-4.85,2.63-9.79,3.96-14.72,1.38-4.92,2.77-9.83,4.13-14.67,1.34-4.84,2.8-9.57,4.13-14.17,2.72-9.18,5.36-17.72,7.71-25.02,4.66-14.61,8.21-24.22,8.21-24.22Z"/></g><g id="Layer_3"><path class="cls-3" d="m663.24,490.79c-3.93-7.49-8.05-14-11.98-19.53,4.88-3.44,9.75-6.88,14.63-10.32-5.2-7.39-11.26-15.28-18.29-23.39-6.37-7.35-12.67-13.87-18.68-19.63,48.87-54.58,97.74-109.16,146.61-163.74-12.56-11.42-27.43-23.63-44.75-35.73-15.69-10.96-30.75-19.97-44.58-27.38-.14.92-.5,1.79-1.09,2.5-.15.26-.32.52-.53.77-2.91,3.53-4.1,8.37-5.98,12.46-2.14,4.65-5.06,8.88-7.6,13.32-5.56,9.71-10.65,19.72-16.03,29.54-.08.14-.17.27-.25.4.09,1.22-.32,2.51-1.43,3.65-2.36,2.41-3.66,6.34-5.19,9.27-1.45,2.77-2.95,5.56-4.47,8.28-2.22,3.95-3.98,8.03-6.74,11.38.1,1.83-.67,3.72-2.31,4.67-.03,1.49-.62,2.96-1.79,3.89-.11,1.28-.64,2.39-1.48,3.2-.23.6-.54,1.16-.99,1.63-.25.62-.6,1.2-1.09,1.67-.29,1.34-1.08,2.56-2.35,3.23-50.31,94.7-100.61,189.41-150.92,284.11-1.12,2.12-2.25,4.24-3.37,6.35l-3.13-5.82-3.56.04-6.91-6.92-4.07,4.11-2.57,2.97-6.48-2.5-2.84,7.36-4.68-.74-.63,8.98-5.28.8,2.79,7.47,2.75,8.51-.72,1.85,6.67,7.54c-4.1,4.8-8.2,9.61-12.31,14.41.92,1.35,2.81,3.73,6.03,5.52,2.49,1.39,4.81,1.88,6.3,2.08-.4,1.03-.79,2.06-1.19,3.09,1.91.95,4.03,1.91,6.36,2.82,2.45.95,4.78,1.71,6.92,2.31-1.11,5.01-2.22,10.03-3.32,15.04,2.33,1.24,6,2.83,10.74,3.44,3.24.42,6.05.25,8.18-.04.08,3.46.17,6.92.25,10.39,2.92.59,7.38,1.12,12.67.28,3.63-.58,6.61-1.64,8.82-2.63,1.18,4.6,2.36,9.19,3.55,13.79,3.65-.33,8.9-1.26,14.64-3.93,3.69-1.71,6.63-3.7,8.85-5.45.42.75.84,1.51,1.26,2.26,3.18-.95,7.5-2.61,12.1-5.62,4.35-2.84,7.5-5.93,9.61-8.35,4.01,4.62,8.02,9.25,12.03,13.87,3.67-2.6,8.09-6.23,12.47-11.15,3.59-4.04,6.28-7.97,8.29-11.35,4.75,3.02,9.5,6.03,14.25,9.05,2.98-3.95,6.26-8.9,9.29-14.87,2.77-5.45,4.73-10.55,6.13-14.96,6.48,2.5,12.97,5.01,19.45,7.51,2.49-5.62,5.06-12.6,6.96-20.79,1.56-6.7,2.36-12.82,2.73-18.11,1.03-5.52,1.86-12.38,1.79-20.25-.07-7.59-.95-14.21-2.02-19.59.96-.34,1.92-.68,2.88-1.02-.42-5.72-1.34-12.53-3.25-20.06-1.82-7.18-4.12-13.36-6.37-18.43,15.4-5.88,30.8-11.76,46.2-17.64-2.52-7.67-6.03-16.49-10.95-25.87Z"/><circle class="cls-11" cx="471.85" cy="593.31" r="6.81"/><line class="cls-6" x1="775.53" y1="254.19" x2="476.46" y2="588.3"/><line class="cls-6" x1="475.84" y1="590.17" x2="665.89" y2="460.95"/><line class="cls-6" x1="674.19" y1="516.67" x2="470.91" y2="595.72"/><line class="cls-6" x1="637.61" y1="572.8" x2="469.68" y2="594.18"/><line class="cls-6" x1="634.96" y1="613.65" x2="471.61" y2="593.94"/><line class="cls-6" x1="625.27" y1="652.54" x2="474.34" y2="594.27"/><line class="cls-6" x1="590.4" y1="674.86" x2="473.02" y2="593.76"/><line class="cls-6" x1="555.39" y1="688.31" x2="471.85" y2="593.31"/><line class="cls-6" x1="521.65" y1="688.41" x2="475.04" y2="596.93"/><line class="cls-6" x1="496.9" y1="695.53" x2="473.05" y2="597.61"/><line class="cls-6" x1="471.86" y1="684.09" x2="470.91" y2="595.72"/><line class="cls-6" x1="452.7" y1="670.3" x2="472.58" y2="591.4"/><line class="cls-6" x1="442.75" y1="650.14" x2="470.94" y2="597.93"/><line class="cls-6" x1="443.92" y1="625.04" x2="469.15" y2="596.46"/><line class="cls-6" x1="437.97" y1="615.65" x2="469.15" y2="596.46"/><line class="cls-6" x1="435.22" y1="607.14" x2="469.68" y2="594.18"/><line class="cls-6" x1="437.71" y1="598.87" x2="469.68" y2="594.18"/><line class="cls-6" x1="443.02" y1="590.63" x2="469.68" y2="594.18"/><line class="cls-6" x1="452.34" y1="585.77" x2="467.47" y2="591.62"/><line class="cls-6" x1="454.91" y1="582.8" x2="468.21" y2="589.71"/><line class="cls-6" x1="465.89" y1="585.62" x2="468.21" y2="589.71"/><path class="cls-34" d="m730.78,218.46c-15.7-11.33-30.71-20.19-44.08-27.12l-7.36,13.74c-.24.58-.48,1.16-.74,1.72-1.39,3.03-3.11,5.87-4.85,8.72l-19.11,35.7c-.16.82-.57,1.63-1.28,2.39l-20.95,39.14c-.13.32-.29.62-.48.9l-159.37,297.76c99.7-111.63,203.25-225.58,302.95-337.21-11.29-11.21-27.87-23.55-44.75-35.73Z"/><text class="cls-12" transform="translate(632.8 267.33) rotate(28.37) scale(1.68 1)"><tspan x="0" y="0">L</tspan></text><text class="cls-15" transform="translate(611.97 336.64) rotate(28.37) scale(1.7 1)"><tspan x="0" y="0">I</tspan></text><text class="cls-14" transform="translate(571.15 393.93) rotate(28.37) scale(1.1 1)"><tspan x="0" y="0">G</tspan></text><text class="cls-13" transform="translate(554.18 439.03) rotate(28.37) scale(1.16 1)"><tspan x="0" y="0">H</tspan></text><text class="cls-13" transform="translate(544.09 486.01) rotate(28.37) scale(.7 1)"><tspan x="0" y="0">T</tspan></text><text class="cls-26" transform="translate(692.57 177.38) rotate(34.64)"><tspan x="0" y="0">27k sightings</tspan></text><text class="cls-1" transform="translate(656.08 435.08) rotate(-37.93)"><tspan class="cls-28" x="0" y="0">Circle</tspan><tspan class="cls-16" x="51.41" y="0">: 14k</tspan></text><text class="cls-1" transform="translate(674.16 491.3) rotate(-29.6)"><tspan class="cls-28" x="0" y="0">Triangle</tspan><tspan class="cls-22" x="68.54" y="0">: 13k</tspan></text><text class="cls-1" transform="translate(644.79 556.24) rotate(-17.78)"><tspan class="cls-28" x="0" y="0">Fireball</tspan><tspan class="cls-22" x="68.54" y="0">: 10k</tspan></text><text class="cls-1" transform="translate(644.78 600.13) rotate(-.62)"><tspan class="cls-28" x="0" y="0">Disk</tspan><tspan class="cls-22" x="34.27" y="0">: 9k</tspan></text><text class="cls-17" transform="translate(519.11 500.17) rotate(-61.63)"><tspan x="0" y="0">UFO Sightings by Shape</tspan></text><rect class="cls-36" x="84.5" y="79.04" width="166.2" height="166.2"/><circle class="cls-33" cx="167.6" cy="162.13" r="56.88"/><path d="m206.17,160.25c13.63,8.29,25.32,16.32,32.33,22.01-5.81-7-17.01-16.09-30.83-24.49-13.82-8.4-27.04-14.17-35.93-16.1,8.28,3.6,20.79,10.29,34.42,18.58Z"/><path d="m241.9,187.29c-5.69-5.51-19.63-15.41-36.55-25.69s-32.12-18.11-39.63-20.63c-2.32.06-3.94.66-4.67,1.87-3.29,5.41,12.26,20.86,34.72,34.52,22.46,13.66,43.33,20.35,46.62,14.94.74-1.21.53-2.92-.49-5.01Z"/><ellipse class="cls-11" cx="198.45" cy="172.96" rx="2.32" ry="15.1" transform="translate(-52.45 252.65) rotate(-58.69)"/><path d="m224.19,167.82c.77-4.84-3.98-11.7-11.78-16.44-7.8-4.74-16.07-5.8-20.02-2.89,11.37,5.17,21.97,11.62,31.8,19.33Z"/><ellipse class="cls-11" cx="203.14" cy="164.75" rx="1.67" ry="2.98" transform="translate(-43.18 252.71) rotate(-58.69)"/><ellipse class="cls-11" cx="230.7" cy="184.35" rx=".96" ry="3.13" transform="translate(-46.68 285.67) rotate(-58.69)"/><ellipse class="cls-11" cx="173.06" cy="149.3" rx=".96" ry="3.13" transform="translate(-44.42 219.59) rotate(-58.69)"/><ellipse class="cls-11" cx="178.53" cy="161.38" rx=".5" ry="1.64" transform="translate(-52.12 230.07) rotate(-58.69)"/><ellipse class="cls-11" cx="217.89" cy="185.32" rx=".5" ry="1.64" transform="translate(-53.66 275.19) rotate(-58.69)"/><path d="m134.64,174.3c10.58,2.88,19.83,5.97,25.54,8.39-5.17-3.52-14.29-7.39-25.02-10.32-10.73-2.92-20.55-4.22-26.79-3.8,6.15.81,15.69,2.84,26.27,5.73Z"/><path d="m163.38,185.36c-4.81-2.56-15.9-6.44-29.02-10.02-13.13-3.58-24.65-5.85-30.09-6.09-1.52.48-2.47,1.18-2.73,2.12-1.14,4.2,12.06,11.45,29.49,16.2,17.43,4.75,32.49,5.2,33.63,1,.26-.94-.21-2.03-1.28-3.21Z"/><ellipse class="cls-11" cx="131.95" cy="184.16" rx="1.59" ry="10.38" transform="translate(-80.42 263.05) rotate(-74.76)"/><path d="m147.98,175.87c-.32-3.69-4.69-7.58-10.74-9.23-6.05-1.65-11.79-.51-13.94,2.51,8.53,1.14,16.75,3.38,24.68,6.72Z"/><ellipse class="cls-11" cx="133.49" cy="177.84" rx="1.15" ry="2.05" transform="translate(-73.19 259.88) rotate(-74.76)"/><ellipse class="cls-11" cx="155.42" cy="185.55" rx=".66" ry="2.15" transform="translate(-64.46 286.71) rotate(-74.76)"/><ellipse class="cls-11" cx="110.69" cy="173.36" rx=".66" ry="2.15" transform="translate(-85.67 234.57) rotate(-74.76)"/><ellipse class="cls-11" cx="116.6" cy="180.3" rx=".35" ry="1.13" transform="translate(-88.01 245.39) rotate(-74.76)"/><ellipse class="cls-11" cx="147.14" cy="188.62" rx=".35" ry="1.13" transform="translate(-73.53 280.99) rotate(-74.76)"/><line class="cls-8" x1="118.37" y1="186.93" x2="102.78" y2="209.38"/><path d="m118.37,186.93s-.85,1.49-2.23,3.65c-.68,1.09-1.5,2.34-2.38,3.67-.45.66-.9,1.36-1.38,2.05-.48.69-.96,1.4-1.44,2.1-.49.7-.98,1.4-1.47,2.09-.48.69-.97,1.36-1.44,2.01-.94,1.3-1.83,2.5-2.61,3.52-1.55,2.04-2.65,3.36-2.65,3.36,0,0,.85-1.49,2.23-3.65.68-1.09,1.5-2.34,2.38-3.67.45-.66.9-1.36,1.38-2.05.48-.69.96-1.4,1.44-2.1.49-.7.98-1.4,1.47-2.08.48-.69.97-1.35,1.44-2.01.94-1.3,1.83-2.5,2.61-3.52,1.55-2.04,2.65-3.36,2.65-3.36Z"/><line class="cls-8" x1="130.79" y1="192.69" x2="119.48" y2="236.48"/><path d="m130.79,192.69s-.14.69-.4,1.9c-.27,1.21-.64,2.94-1.12,5-.47,2.07-1.05,4.47-1.68,7.05-.32,1.29-.65,2.62-.98,3.97-.34,1.35-.69,2.72-1.04,4.09-.36,1.37-.72,2.73-1.07,4.08-.36,1.34-.71,2.67-1.06,3.95-.69,2.56-1.36,4.94-1.94,6.98-.58,2.04-1.1,3.73-1.44,4.92-.35,1.19-.57,1.86-.57,1.86,0,0,.14-.69.4-1.9.27-1.21.63-2.94,1.12-5,.47-2.07,1.05-4.47,1.68-7.05.32-1.29.65-2.61.98-3.97.34-1.35.69-2.72,1.04-4.09.36-1.37.72-2.73,1.07-4.08.36-1.34.72-2.67,1.06-3.95.69-2.56,1.36-4.94,1.94-6.98.58-2.04,1.1-3.73,1.44-4.92.35-1.19.57-1.86.57-1.86Z"/><line class="cls-8" x1="143.29" y1="194.4" x2="143.16" y2="211.07"/><path d="m143.29,194.4s.14,1.04.23,2.61c.05.78.09,1.69.12,2.67,0,.49.03.99.03,1.51,0,.51,0,1.03,0,1.56,0,.52-.02,1.04-.03,1.55,0,.51-.03,1.02-.05,1.51-.04.98-.09,1.89-.16,2.67-.12,1.56-.28,2.6-.28,2.6,0,0-.14-1.04-.24-2.61-.05-.78-.09-1.69-.12-2.67,0-.49-.03-.99-.03-1.51,0-.51,0-1.03,0-1.56,0-.52.02-1.04.03-1.55,0-.51.04-1.02.05-1.51.04-.98.09-1.89.16-2.67.12-1.56.28-2.6.28-2.6Z"/><line class="cls-8" x1="120.31" y1="199.75" x2="110.39" y2="219.17"/><path d="m120.31,199.75s-.49,1.28-1.32,3.15c-.41.94-.91,2.02-1.47,3.17-.28.57-.56,1.17-.86,1.77-.3.6-.61,1.21-.91,1.82-.31.6-.63,1.21-.94,1.8-.31.6-.63,1.17-.93,1.74-.61,1.12-1.19,2.16-1.71,3.05-1.02,1.77-1.78,2.92-1.78,2.92,0,0,.49-1.28,1.32-3.15.41-.94.91-2.02,1.47-3.17.28-.57.56-1.17.86-1.77.3-.6.61-1.21.91-1.82.31-.6.63-1.21.94-1.8.31-.6.63-1.17.93-1.74.61-1.12,1.19-2.16,1.71-3.05,1.02-1.77,1.78-2.92,1.78-2.92Z"/><line class="cls-8" x1="136.16" y1="198.41" x2="132.35" y2="226.23"/><path d="m136.43,198.42s-.09,1.76-.34,4.39c-.12,1.32-.28,2.85-.48,4.49-.1.82-.19,1.67-.31,2.53-.11.86-.23,1.73-.34,2.6-.12.87-.25,1.74-.37,2.6-.12.86-.26,1.7-.38,2.52-.25,1.63-.51,3.15-.75,4.45-.46,2.6-.85,4.32-.85,4.32,0,0,.09-1.76.34-4.39.12-1.32.28-2.85.48-4.49.1-.82.19-1.67.31-2.53.11-.86.23-1.73.34-2.6.12-.87.25-1.74.37-2.6.12-.86.26-1.7.38-2.51.26-1.63.51-3.15.75-4.45.46-2.6.85-4.32.85-4.32Z"/><path d="m147.59,103.24c12.95-2.83,24.6-4.7,32.08-5.3-7.51-.88-19.46.07-32.6,2.94s-24.4,6.98-30.86,10.92c7.05-2.58,18.42-5.74,31.37-8.57Z"/><path d="m184.6,99.01c-6.59-.05-20.65,1.99-36.73,5.5-16.08,3.51-29.71,7.53-35.68,10.32-1.36,1.36-1.99,2.65-1.74,3.8,1.12,5.14,19.34,5.52,40.69.86,21.35-4.66,37.75-12.61,36.62-17.75-.25-1.15-1.36-2.06-3.17-2.73Z"/><ellipse class="cls-11" cx="150.24" cy="115.31" rx="12.56" ry="1.93" transform="translate(-21.15 34.73) rotate(-12.33)"/><path d="m162.77,97.46c-2.17-2.71-8.86-3.64-16.27-2.02-7.41,1.62-13.1,5.25-13.95,8.62,9.86-3.2,19.93-5.4,30.22-6.6Z"/><ellipse class="cls-11" cx="148.35" cy="107.68" rx="2.48" ry="1.39" transform="translate(-19.57 34.15) rotate(-12.33)"/><ellipse class="cls-11" cx="176.18" cy="103.66" rx="2.6" ry=".8" transform="translate(-18.07 40) rotate(-12.33)"/><ellipse class="cls-11" cx="121.39" cy="115.64" rx="2.6" ry=".8" transform="translate(-21.89 28.58) rotate(-12.33)"/><ellipse class="cls-11" cx="131.61" cy="119.77" rx="1.37" ry=".42" transform="translate(-22.54 30.86) rotate(-12.33)"/><ellipse class="cls-11" cx="169.02" cy="111.59" rx="1.37" ry=".42" transform="translate(-19.93 38.66) rotate(-12.33)"/><line class="cls-8" x1="112.43" y1="111.65" x2="78.37" y2="119.42"/><path d="m112.43,111.65s-.53.14-1.45.39c-.93.24-2.24.6-3.83,1-1.59.4-3.44.86-5.43,1.34-1,.24-2.03.48-3.07.73-1.05.24-2.11.49-3.17.74-1.07.24-2.13.48-3.18.71-1.05.23-2.08.46-3.08.68-2,.43-3.87.83-5.48,1.15-1.6.33-2.95.58-3.89.76-.94.17-1.48.27-1.48.27,0,0,.53-.14,1.45-.39.93-.24,2.24-.6,3.83-1,1.59-.4,3.44-.86,5.43-1.34,1-.24,2.03-.48,3.07-.73,1.05-.24,2.11-.49,3.17-.74,1.07-.24,2.13-.48,3.18-.71,1.05-.23,2.08-.46,3.08-.68,2-.43,3.87-.83,5.48-1.15,1.6-.33,2.95-.58,3.89-.76.94-.17,1.48-.27,1.48-.27Z"/><line class="cls-8" x1="159.3" y1="121.71" x2="104.15" y2="139.05"/><path d="m159.3,121.71s-.86.29-2.35.8c-1.5.5-3.64,1.23-6.21,2.07-2.58.84-5.58,1.84-8.8,2.87-3.23,1.03-6.67,2.13-10.11,3.22-3.45,1.07-6.9,2.14-10.14,3.14-3.23,1.01-6.27,1.9-8.86,2.69-2.59.79-4.77,1.4-6.28,1.85-1.52.44-2.39.69-2.39.69,0,0,.86-.29,2.35-.8,1.5-.5,3.64-1.24,6.21-2.08,2.58-.84,5.58-1.84,8.8-2.87,3.23-1.03,6.67-2.13,10.11-3.22,3.45-1.07,6.9-2.14,10.14-3.14,3.24-1,6.27-1.9,8.86-2.69,2.59-.79,4.77-1.4,6.28-1.85,1.52-.44,2.39-.69,2.39-.69Z"/><line class="cls-8" x1="131.73" y1="97.92" x2="115.76" y2="101.1"/><path d="m131.73,97.92s-.98.3-2.46.67c-.74.19-1.61.4-2.54.6-.47.1-.95.21-1.44.31-.49.1-.99.2-1.49.31-.5.1-1,.19-1.49.29-.49.1-.98.18-1.45.26-.94.16-1.82.31-2.58.41-1.51.22-2.53.32-2.53.32,0,0,.98-.3,2.46-.67.74-.19,1.61-.4,2.54-.6.47-.1.95-.22,1.44-.31.49-.1.99-.2,1.49-.31.5-.1,1-.19,1.49-.29.49-.1.98-.18,1.45-.26.94-.16,1.82-.31,2.58-.41,1.51-.22,2.53-.32,2.53-.32Z"/><line class="cls-8" x1="126.6" y1="102.23" x2="110.64" y2="105.41"/><path d="m126.6,102.23s-.98.3-2.46.67c-.74.19-1.61.4-2.54.6-.47.1-.95.21-1.44.31-.49.1-.99.2-1.49.31-.5.1-1,.19-1.49.29-.49.1-.98.18-1.45.26-.94.16-1.82.31-2.58.41-1.51.22-2.53.32-2.53.32,0,0,.98-.3,2.46-.67.74-.19,1.61-.4,2.54-.6.47-.1.95-.22,1.44-.31.49-.1.99-.2,1.49-.31.5-.1,1-.19,1.49-.29.49-.1.98-.18,1.45-.26.94-.16,1.82-.31,2.58-.41,1.51-.22,2.53-.32,2.53-.32Z"/><line class="cls-8" x1="106.38" y1="117.08" x2="90.42" y2="120.26"/><path d="m106.38,117.08s-.98.3-2.46.67c-.74.19-1.61.4-2.54.6-.47.1-.95.21-1.44.31-.49.1-.99.2-1.49.31-.5.1-1,.19-1.49.29-.49.1-.98.18-1.45.26-.94.16-1.82.31-2.58.41-1.51.22-2.53.32-2.53.32,0,0,.98-.3,2.46-.67.74-.19,1.61-.4,2.54-.6.47-.1.95-.22,1.44-.31.49-.1.99-.2,1.49-.31.5-.1,1-.19,1.49-.29.49-.1.98-.18,1.45-.26.94-.16,1.82-.31,2.58-.41,1.51-.22,2.53-.32,2.53-.32Z"/><line class="cls-8" x1="157.91" y1="126.14" x2="142.51" y2="131.41"/><path d="m157.91,126.14s-.93.43-2.35,1c-.71.29-1.54.61-2.44.94-.45.16-.91.34-1.38.5-.47.17-.95.33-1.43.5-.48.16-.96.32-1.44.48-.47.16-.95.3-1.4.45-.91.29-1.76.54-2.5.75-1.47.42-2.47.65-2.47.65,0,0,.93-.43,2.35-1,.71-.29,1.54-.61,2.44-.94.45-.16.91-.34,1.38-.5.47-.17.95-.33,1.43-.5.48-.16.96-.32,1.44-.48.47-.16.95-.3,1.4-.45.91-.29,1.76-.54,2.5-.75,1.47-.42,2.46-.65,2.46-.65Z"/><line class="cls-8" x1="117.75" y1="130.4" x2="90.66" y2="136.98"/><path d="m117.75,130.4s-.42.13-1.15.34c-.73.21-1.78.52-3.04.86-1.26.35-2.73.74-4.32,1.15-.79.2-1.61.41-2.44.62-.83.21-1.68.42-2.52.62-.85.2-1.69.4-2.53.6-.83.2-1.66.38-2.45.57-1.59.36-3.08.69-4.36.96-1.28.27-2.35.48-3.1.63-.75.15-1.18.22-1.18.22,0,0,.42-.13,1.15-.34.73-.21,1.78-.52,3.04-.86,1.26-.35,2.73-.74,4.32-1.15.79-.2,1.61-.42,2.44-.62.83-.21,1.68-.41,2.52-.62.85-.2,1.69-.4,2.53-.6.84-.19,1.66-.38,2.45-.57,1.59-.36,3.08-.69,4.36-.96,1.28-.27,2.35-.48,3.1-.63.75-.15,1.18-.22,1.18-.22Z"/><path d="m242.74,639.36c-5.61-.92-14.61-.62-24.57,1.08s-18.55,4.39-23.54,7.12c5.38-1.69,14.02-3.66,23.84-5.34,9.82-1.67,18.63-2.68,24.26-2.86Z"/><path d="m190.07,652.49c.66,3.9,14.32,4.82,30.51,2.06,16.19-2.76,28.77-8.15,28.1-12.05-.15-.87-.95-1.59-2.28-2.16-4.94-.27-15.57.78-27.76,2.85-12.19,2.08-22.56,4.62-27.14,6.5-1.07.98-1.59,1.92-1.44,2.79Z"/><ellipse class="cls-11" cx="220.03" cy="651.37" rx="9.43" ry="1.45" transform="translate(-106.32 46.23) rotate(-9.67)"/><path d="m229.19,638.56c-1.54-2.11-6.53-3.04-12.14-2.08-5.62.96-10.02,3.48-10.77,5.99,7.51-2.06,15.15-3.36,22.91-3.91Z"/><ellipse class="cls-11" cx="219.2" cy="645.53" rx="1.86" ry="1.04" transform="translate(-105.35 46.01) rotate(-9.67)"/><ellipse class="cls-11" cx="198.68" cy="650.56" rx="1.96" ry=".6" transform="translate(-106.49 42.63) rotate(-9.67)"/><ellipse class="cls-11" cx="240.22" cy="643.48" rx="1.96" ry=".6" transform="translate(-104.71 49.51) rotate(-9.67)"/><ellipse class="cls-11" cx="234.26" cy="649.24" rx="1.03" ry=".31" transform="translate(-105.76 48.59) rotate(-9.67)"/><ellipse class="cls-11" cx="205.9" cy="654.07" rx="1.03" ry=".31" transform="translate(-106.97 43.9) rotate(-9.67)"/><line class="cls-8" x1="271.25" y1="634.01" x2="245.34" y2="638.18"/><path d="m246.44,637.96c.71-.13,1.71-.34,2.92-.56,1.21-.23,2.62-.48,4.14-.74.76-.13,1.54-.26,2.34-.4.8-.13,1.61-.26,2.42-.4.81-.13,1.62-.26,2.42-.38.8-.12,1.58-.24,2.34-.36,1.52-.23,2.94-.43,4.16-.6,1.22-.17,2.24-.29,2.95-.38.71-.09,1.12-.13,1.12-.13,0,0-.4.08-1.11.22-.71.13-1.71.34-2.92.56-1.21.23-2.62.48-4.14.74-.76.13-1.54.26-2.34.4-.8.13-1.61.26-2.42.4-.81.13-1.62.26-2.42.38-.8.12-1.58.24-2.34.36-1.52.23-2.94.43-4.16.6-1.22.17-2.24.29-2.95.38-.71.09-1.12.13-1.12.13,0,0,.4-.08,1.11-.22Z"/><line class="cls-8" x1="258.82" y1="654.94" x2="215.52" y2="658.38"/><path d="m217.37,658.19c1.18-.11,2.87-.29,4.9-.48,2.03-.18,4.39-.41,6.93-.62,2.54-.21,5.24-.44,7.95-.66,2.71-.2,5.41-.41,7.95-.6,2.54-.19,4.91-.34,6.94-.48,2.03-.14,3.73-.23,4.91-.3,1.19-.06,1.86-.1,1.86-.1,0,0-.68.07-1.86.19-1.18.11-2.87.29-4.9.48-2.03.18-4.39.41-6.93.62-2.54.21-5.24.44-7.95.66-2.71.2-5.41.41-7.95.6-2.54.19-4.91.34-6.94.48-2.03.14-3.73.23-4.91.3-1.19.06-1.86.1-1.86.1,0,0,.68-.07,1.86-.19Z"/><line class="cls-8" x1="240.04" y1="631.77" x2="228.03" y2="634.05"/><path d="m229.88,633.56c.56-.14,1.21-.29,1.91-.44.35-.07.71-.15,1.08-.23.37-.07.74-.15,1.12-.22.38-.07.75-.14,1.12-.2.37-.07.74-.13,1.09-.19.71-.12,1.37-.22,1.94-.29,1.14-.16,1.9-.22,1.9-.22,0,0-.74.22-1.85.49-.56.14-1.21.29-1.91.44-.35.07-.71.16-1.08.23-.37.07-.74.15-1.12.22-.38.07-.75.14-1.12.2-.37.07-.74.13-1.09.19-.71.12-1.37.22-1.94.29-1.14.16-1.9.22-1.9.22,0,0,.74-.22,1.85-.49Z"/><line class="cls-8" x1="244.83" y1="633.33" x2="232.81" y2="635.61"/><path d="m234.67,635.12c.56-.14,1.21-.29,1.91-.44.35-.07.71-.15,1.08-.23.37-.07.74-.15,1.12-.22.38-.07.75-.14,1.12-.2.37-.07.74-.13,1.09-.19.71-.12,1.37-.22,1.94-.29,1.14-.16,1.9-.22,1.9-.22,0,0-.74.22-1.85.49-.56.14-1.21.29-1.91.44-.35.07-.71.16-1.08.23-.37.07-.74.15-1.12.22-.38.07-.75.14-1.12.2-.37.07-.74.13-1.09.19-.71.12-1.37.22-1.94.29-1.14.16-1.9.22-1.9.22,0,0,.74-.22,1.85-.49Z"/><line class="cls-8" x1="263.09" y1="637.98" x2="251.08" y2="640.26"/><path d="m252.93,639.77c.56-.14,1.21-.29,1.91-.44.35-.07.71-.15,1.08-.23.37-.07.74-.15,1.12-.22.38-.07.75-.14,1.12-.2.37-.07.74-.13,1.09-.19.71-.12,1.37-.22,1.94-.29,1.14-.16,1.9-.22,1.9-.22,0,0-.74.22-1.85.49-.56.14-1.21.29-1.91.44-.35.07-.71.16-1.08.23-.37.07-.74.15-1.12.22-.38.07-.75.14-1.12.2-.37.07-.74.13-1.09.19-.71.12-1.37.22-1.94.29-1.14.16-1.9.22-1.9.22,0,0,.74-.22,1.85-.49Z"/><line class="cls-8" x1="229.95" y1="660.42" x2="217.73" y2="661.08"/><path d="m219.63,660.84c.57-.06,1.24-.12,1.95-.18.36-.03.73-.06,1.1-.08.38-.02.76-.05,1.14-.07.38-.02.76-.04,1.14-.05.38-.02.75-.03,1.1-.04.72-.02,1.39-.03,1.96-.03,1.15,0,1.92.03,1.92.03,0,0-.76.12-1.9.24-.57.06-1.24.12-1.95.18-.36.03-.73.06-1.1.08-.38.02-.76.05-1.14.07-.38.02-.76.04-1.14.05-.38.02-.75.03-1.1.04-.72.02-1.39.03-1.96.03-1.15,0-1.92-.03-1.92-.03,0,0,.76-.12,1.9-.24Z"/><line class="cls-8" x1="267.63" y1="649.7" x2="246.91" y2="652.74"/><path d="m247.79,652.57c.56-.1,1.37-.26,2.33-.43.97-.17,2.1-.36,3.31-.56.61-.1,1.23-.19,1.87-.3.64-.1,1.28-.19,1.93-.29.65-.09,1.3-.18,1.93-.28.64-.09,1.27-.17,1.87-.25,1.22-.16,2.35-.3,3.33-.42.98-.12,1.79-.19,2.36-.26.57-.06.9-.08.9-.08,0,0-.32.07-.88.18-.56.1-1.37.26-2.33.43-.97.17-2.1.36-3.31.56-.61.1-1.23.2-1.87.29-.64.1-1.28.19-1.93.29-.65.09-1.3.18-1.93.28-.64.09-1.27.17-1.87.25-1.22.16-2.35.3-3.33.42-.98.12-1.79.19-2.36.26-.57.06-.9.09-.9.09,0,0,.32-.07.88-.18Z"/><polyline class="cls-4" points="1034.61 230.56 1033.83 269.93 1308.25 269.93 1308.25 230.56"/><path d="m431.2,682.42c4.99-2.23,9.53-3.96,12.5-4.82-3.1.27-7.84,1.66-12.9,3.92-5.06,2.26-9.26,4.86-11.53,6.99,2.63-1.63,6.95-3.86,11.94-6.08Z"/><path d="m445.78,677.62c-2.66.53-8.16,2.53-14.36,5.3-6.19,2.76-11.35,5.52-13.53,7.15-.44.66-.58,1.24-.38,1.68.88,1.98,8.26.61,16.49-3.06,8.22-3.67,14.17-8.25,13.29-10.23-.2-.44-.72-.72-1.51-.84Z"/><ellipse class="cls-11" cx="433.28" cy="687.07" rx="5.17" ry=".79" transform="translate(-242.41 236.25) rotate(-24.05)"/><path d="m436.84,678.82c-1.21-1.16-4.07-1.16-6.93.12-2.85,1.27-4.76,3.4-4.71,5.08,3.67-2.2,7.55-3.93,11.64-5.2Z"/><ellipse class="cls-11" cx="431.88" cy="684.15" rx="1.02" ry=".57" transform="translate(-241.34 235.42) rotate(-24.05)"/><ellipse class="cls-11" cx="442.77" cy="680.2" rx="1.07" ry=".33" transform="translate(-238.79 239.52) rotate(-24.05)"/><ellipse class="cls-11" cx="421.67" cy="689.62" rx="1.07" ry=".33" transform="translate(-244.45 231.73) rotate(-24.05)"/><ellipse class="cls-11" cx="426.14" cy="690.43" rx=".56" ry=".17" transform="translate(-244.4 233.63) rotate(-24.05)"/><ellipse class="cls-11" cx="440.55" cy="684" rx=".56" ry=".17" transform="translate(-240.53 238.94) rotate(-24.05)"/><text class="cls-20" transform="translate(393.81 692.75)"><tspan x="0" y="0">8k</tspan><tspan x="-14.99" y="8.4">sightings</tspan><tspan x="-17.14" y="16.8">in Florida</tspan></text><text class="cls-39" transform="translate(501.22 125.68)"><tspan class="cls-28"><tspan x="0" y="0">1947</tspan></tspan><tspan class="cls-22"><tspan x="-63.34" y="10.8">Army declares Flying Disc</tspan></tspan><tspan class="cls-22"><tspan x="-44.06" y="21.6">found in Roswell, NM</tspan></tspan></text><text class="cls-39" transform="translate(923.02 97.63)"><tspan class="cls-28"><tspan x="0" y="0">1995 - 1996</tspan></tspan><tspan class="cls-22"><tspan x="-33.05" y="10.8">Hollywood blockbusters </tspan></tspan><tspan class="cls-22"><tspan x="-13.77" y="21.6">Apollo 13 and </tspan></tspan><tspan class="cls-22"><tspan x="-22.03" y="32.4">Independence Day </tspan></tspan><tspan class="cls-22"><tspan x="-2.75" y="43.2">are released</tspan></tspan></text><text class="cls-39" transform="translate(1271.43 99.34)"><tspan class="cls-28"><tspan x="0" y="0">2020</tspan></tspan><tspan class="cls-22"><tspan x="-11.02" y="10.8">COVID-19</tspan></tspan><tspan class="cls-22"><tspan x="-11.02" y="21.6">Pandemic</tspan></tspan></text><text class="cls-2" transform="translate(1043.74 245.22) rotate(-.62)"><tspan x="0" y="0">86% of all sightings happened </tspan><tspan x="0" y="16.8">in 2000 or later</tspan></text><path class="cls-7" d="m326.13,669.93c4.71-18.72,19.04-33.53,37.5-38.69,19.26-5.39,40.08.55,53.79,15.33"/><ellipse class="cls-33" cx="417.42" cy="647.56" rx="2.29" ry="2.22"/><ellipse class="cls-33" cx="326.42" cy="670.93" rx="2.29" ry="2.22"/><text class="cls-21" transform="translate(389.43 658.4) rotate(-.62)"><tspan x="0" y="0">Wright Field</tspan><tspan x="0" y="7.2">Dayton, OH</tspan></text><text class="cls-21" transform="translate(305.95 681.15) rotate(-.62)"><tspan x="0" y="0">Roswell, NM</tspan></text><text class="cls-25" transform="translate(271.25 630.85) rotate(-.62)"><tspan x="0" y="0">Top Location:</tspan><tspan x="0" y="12">16k sightings</tspan><tspan x="0" y="24">in California</tspan></text><rect class="cls-38" x="873.8" y="333.03" width="422.34" height="387.08"/><text class="cls-25" transform="translate(1060.49 360.11)"><tspan x="0" y="0">TELETYPE</tspan></text><text class="cls-18" transform="translate(887.74 399.92)"><tspan x="0" y="0">FBI DALLAS</tspan><tspan class="cls-41" x="61.2" y="0">	</tspan><tspan class="cls-44" x="72" y="0">	</tspan><tspan x="108" y="0">7-8-47</tspan><tspan class="cls-47" x="144.72" y="0">	</tspan><tspan class="cls-44" x="180" y="0" xml:space="preserve">		</tspan><tspan x="252" y="0">6-17PM</tspan><tspan x="0" y="12">DIRECTOR AND SAC, CINCINNATI</tspan><tspan class="cls-42" x="171.36" y="12">	</tspan><tspan class="cls-44" x="180" y="12" xml:space="preserve">		</tspan><tspan class="cls-35" x="252" y="12">URGENT</tspan><tspan x="0" y="24">FLYING DISC, INFORMATION CONCERNING.</tspan><tspan class="cls-40" x="220.32" y="24">	</tspan><tspan class="cls-44" x="252" y="24" xml:space="preserve">		</tspan><tspan class="cls-43" x="324" y="24">HEADQUARTERS</tspan></text><text class="cls-19" transform="translate(888.61 444.86)"><tspan x="0" y="0">EIGHTH AIR FORCE, TELEPHONICALLY ADVISED THIS OFFICE THAT AN OBJECT</tspan><tspan x="0" y="16">PURPORTING TO BE A FLYING DISC WAS RECOVERED NEAR ROSWELL, NEW</tspan><tspan x="0" y="32">MEXICO, THIS DATE. THE DISC IS HEXAGONAL IN SHAPE AND WAS SUSPENDED</tspan><tspan x="0" y="48">FROM A BALLON BY CABLE, WHICH BALLON WAS APPROXIMATELY TWENTY</tspan><tspan x="0" y="64" xml:space="preserve">FEET IN DIAMETER.        FURTHER ADVISED THAT THE OBJECT</tspan><tspan x="0" y="80">FOUND RESEMBLES A HIGH ALTITUDE WEATHER BALLOON WITH A RADAR</tspan><tspan x="0" y="96">REFLECTOR, BUT THAT TELEPHONIC CONVERSATION BETWEEN THEIR OFFICE</tspan><tspan x="0" y="112" xml:space="preserve">AND WRIGHT FIELD HAD NOT     BORNE OUT THIS BELIEF. .DISC AND</tspan><tspan x="0" y="128">BALLOON BEING TRANSPORTED TO WRIGHT FIELD BY SPECIAL PLANE FOR EXAMINAT</tspan><tspan x="0" y="144">INFORMATION PROVIDED THIS OFFICE BECAUSE OF NATIONAL INTEREST IN CASE.</tspan><tspan x="0" y="160" xml:space="preserve">   AND FACT THAT NATIONAL BROADCASTING COMPANY, ASSOCIATED PRESS, AND</tspan><tspan x="0" y="176">OTHERS ATTEMPTING TO BREAK STORY OF LOCATION OF DISC TODAY.</tspan><tspan x="0" y="192" xml:space="preserve">          ADVISED WOULD REQUEST WRIGHT FIELD TO ADVISE CINCINNATI</tspan><tspan x="0" y="208">OFFICE RESULTS OF EXAMINATION. NO FURTHER INVESTIGATION BEING </tspan><tspan x="0" y="224">CONDUCTED.</tspan><tspan x="0" y="256">END</tspan></text><path d="m1144.58,426.97c12.76-.87,25.49-2.03,38.19-3.49l-4.21-10.16c-2.21,2.8-4.53,5.47-7,8.04-3.86,4.01-.05,12.11,5.79,9.95,7.23-2.67,14.36-5.55,21.45-8.58s.96-13.27-6.01-10.28c-6.13,2.63-12.34,5.07-18.6,7.38l5.79,9.95c2.47-2.57,4.8-5.24,7-8.04,2.74-3.48,1.54-10.82-4.21-10.16-12.7,1.46-25.43,2.62-38.19,3.49-7.6.52-7.66,12.43,0,11.91h0Z"/><path d="m1196.42,383.46c12.95-6.14,26.07-11.86,39.39-17.14l-6.72-8.75c-3.96,5.14-8.27,9.99-12.78,14.65-5.49,5.68,2.53,12.98,8.42,8.42,6.19-4.8,12.93-8.83,19.95-12.3l-8.15-8.15c-3.81,7.69-13.04,13.07-19.78,17.98-7.89,5.74-16.06,11.07-24.44,16.05-6.63,3.94-.79,13.76,6.01,10.28,14.85-7.6,29.89-14.82,45.11-21.66l-8.15-8.15c-2.21,3.36-4.89,6.15-8.21,8.44-6.26,4.32-.84,13.9,6.01,10.28s14.09-7.44,21.13-11.17l-7.21-9.35c-7.64,7.15-15.27,14.31-22.91,21.46-5.07,4.75,1.38,12.45,7.21,9.35,10.02-5.32,19.72-11.19,29.09-17.59l-7.21-9.35c-7.07,5.76-14.33,11.26-21.78,16.53-6.15,4.35-.68,14.29,6.01,10.28,7.44-4.46,14.88-8.92,22.31-13.38l-7.21-9.35c-2.84,3.44-5.69,6.88-8.53,10.31-4.1,4.96,1.03,13,7.21,9.35,4.88-2.88,9.76-5.76,14.63-8.64-2.92-2.24-5.83-4.48-8.75-6.72-.91,3.55-2.03,6.98-3.39,10.38-2.07,5.18,4.6,8.89,8.75,6.72s8.33-4.36,12.5-6.54c-2.92-2.24-5.83-4.48-8.75-6.72-.36,1.66-.76,3.11-1.84,4.47-3.88,4.88,1.04,13.31,7.21,9.35,1.64-1.05,3.28-2.11,4.92-3.16,6.43-4.13.46-14.44-6.01-10.28-1.64,1.05-3.28,2.11-4.92,3.16l7.21,9.35c2.41-3.03,4.07-5.91,4.9-9.73,1.12-5.15-4.05-9.18-8.75-6.72-4.17,2.18-8.33,4.36-12.5,6.54,2.92,2.24,5.83,4.48,8.75,6.72,1.36-3.4,2.48-6.83,3.39-10.38,1.28-4.98-4.21-9.4-8.75-6.72-4.88,2.88-9.76,5.76-14.63,8.64l7.21,9.35c2.84-3.44,5.69-6.88,8.53-10.31,4.08-4.94-1.04-13.05-7.21-9.35-7.44,4.46-14.88,8.92-22.31,13.38l6.01,10.28c8.27-5.85,16.33-11.99,24.19-18.4,5.21-4.24-1.64-13.16-7.21-9.35-9.37,6.4-19.07,12.27-29.09,17.59l7.21,9.35c7.64-7.15,15.27-14.31,22.91-21.46,5.07-4.75-1.38-12.43-7.21-9.35-7.04,3.72-14.09,7.44-21.13,11.17l6.01,10.28c5.05-3.48,9.1-7.58,12.48-12.71,3.6-5.47-3.22-10.36-8.15-8.15-15.22,6.84-30.26,14.06-45.11,21.66l6.01,10.28c9.43-5.6,18.59-11.66,27.39-18.22,7.53-5.62,16.81-11.41,21.11-20.08,2.69-5.43-2.71-10.83-8.15-8.15-7.99,3.95-15.32,8.71-22.35,14.16l8.42,8.42c5.23-5.4,10.05-11.11,14.64-17.06,3.08-4-2.08-10.59-6.72-8.75-14.27,5.66-28.36,11.76-42.23,18.34-6.92,3.28-.88,13.55,6.01,10.28h0Z"/><path d="m989.23,510.29c10.16.59,20.26.24,30.35-1.05,3.21-.41,5.92-2.44,5.95-5.95.03-2.9-2.76-6.36-5.95-5.95-10.09,1.29-20.2,1.64-30.35,1.05-7.65-.45-7.63,11.46,0,11.91h0Z"/><path d="m1223.16,621.6c16.72.9,33.38-.3,49.84-3.38,7.52-1.4,4.34-12.88-3.17-11.48-15.41,2.88-31.02,3.79-46.68,2.95-7.66-.41-7.63,11.5,0,11.91h0Z"/><path d="m892.19,639.77c14.49-.34,28.97-.12,43.45.65,7.66.41,7.63-11.5,0-11.91-14.47-.77-28.96-.98-43.45-.65-7.65.18-7.68,12.08,0,11.91h0Z"/><path d="m1193.78,685.79c13.75-4.67,27.23-10.02,40.47-15.98l-6.01-10.28c-21.65,13.28-44.4,24.65-68.1,33.81,1.53,3.63,3.06,7.25,4.59,10.88,17.67-7.53,35.34-15.06,53-22.59l-7.21-9.35c-5.76,4.86-11.53,9.72-17.29,14.58-4.68,3.95.35,11.47,5.79,9.95,24-6.71,48.15-13.48,73.05-15.77l-3-11.09c-15.05,8.37-30.09,16.73-45.14,25.1l6.01,10.28c10.42-6.29,21.26-11.81,32.56-16.35l-5.79-9.95c-5.23,4.57-10.46,9.13-15.69,13.7-3.64,3.18-.92,10.81,4.21,10.16,5.97-.75,11.79-1.85,17.56-3.56,7.33-2.17,4.21-13.67-3.17-11.48-4.72,1.4-9.51,2.52-14.4,3.14l4.21,10.16c5.23-4.57,10.46-9.13,15.69-13.7,4.31-3.77-.26-12.17-5.79-9.95-12.26,4.93-24.08,10.71-35.4,17.55-6.56,3.96-.7,14.01,6.01,10.28,15.05-8.37,30.09-16.73,45.14-25.1,4.92-2.74,3.01-11.65-3-11.09-26,2.39-51.15,9.18-76.21,16.19l5.79,9.95c5.76-4.86,11.53-9.72,17.29-14.58,5.64-4.75-1.57-11.76-7.21-9.35-17.67,7.53-35.34,15.06-53,22.59-6.14,2.62-1.72,13.32,4.59,10.88,24.66-9.53,48.4-21.18,70.94-35.01,6.67-4.09.85-13.37-6.01-10.28-12.3,5.54-24.86,10.44-37.63,14.78-7.22,2.45-4.12,13.96,3.17,11.48h0Z"/><path d="m889.51,607.02c2.94,1.11,6.1,1.62,9.24,1.67s6.1-2.77,5.95-5.95-2.62-5.9-5.95-5.95c-.56,0-1.12-.05-1.68-.07-.72-.07-.74-.07-.09,0-.28-.04-.55-.1-.83-.15-1.19-.24-2.35-.6-3.49-1.03-2.92-1.1-6.65,1.22-7.32,4.16-.77,3.39,1.03,6.14,4.16,7.32h0Z"/><path d="m1029.7,558.63h11.9c7.66,0,7.67-11.91,0-11.91h-11.9c-7.66,0-7.67,11.91,0,11.91h0Z"/><text class="cls-23" transform="translate(131.29 613.54) rotate(-60.46)"><tspan x="0" y="0">B</tspan></text><text class="cls-23" transform="translate(146.94 586.35) rotate(-54.9)"><tspan x="0" y="0">R</tspan></text><text class="cls-23" transform="translate(165.15 560.81) rotate(-49.24)"><tspan x="0" y="0">E</tspan></text><text class="cls-23" transform="translate(185.77 537.22) rotate(-43.4)"><tspan x="0" y="0">A</tspan></text><text class="cls-23" transform="translate(208.69 515.86) rotate(-37.4)"><tspan x="0" y="0">K</tspan></text><text class="cls-23" transform="translate(233.69 497.03) rotate(-31.33)"><tspan x="0" y="0">I</tspan></text><text class="cls-23" transform="translate(260.56 480.95) rotate(-25.29)"><tspan x="0" y="0">N</tspan></text><text class="cls-23" transform="translate(288.96 467.78) rotate(-19.16)"><tspan x="0" y="0">G</tspan></text><text class="cls-23" transform="translate(318.62 457.73) rotate(-13.04)"><tspan x="0" y="0"> </tspan></text><text class="cls-23" transform="translate(349.16 450.9) rotate(-7.07)"><tspan x="0" y="0">N</tspan></text><text class="cls-23" transform="translate(380.33 447.27) rotate(-1.32)"><tspan x="0" y="0">E</tspan></text><text class="cls-23" transform="translate(411.68 446.77) rotate(4.16)"><tspan x="0" y="0">W</tspan></text><text class="cls-23" transform="translate(442.99 449.26) rotate(9.44)"><tspan x="0" y="0">S</tspan></text><text class="cls-32" transform="translate(102.52 519.38) rotate(-46.32)"><tspan x="0" y="0">S</tspan></text><text class="cls-32" transform="translate(144.89 475) rotate(-39.53)"><tspan x="0" y="0">P</tspan></text><text class="cls-32" transform="translate(192.86 435.2) rotate(-30.25)"><tspan x="0" y="0">O</tspan></text><text class="cls-32" transform="translate(247.16 403.32) rotate(-16.7)"><tspan x="0" y="0">T</tspan></text><text class="cls-32" transform="translate(306.82 386.46) rotate(-9.07)"><tspan x="0" y="0">T</tspan></text><text class="cls-32" transform="translate(368.25 376.7) rotate(-2.25)"><tspan x="0" y="0">E</tspan></text><text class="cls-32" transform="translate(429.14 374.11) rotate(7.01)"><tspan x="0" y="0">D</tspan></text><text class="cls-32" transform="translate(490.28 383.29) rotate(18.15)"><tspan x="0" y="0">!</tspan></text><text class="cls-32" transform="translate(510.32 390.07) rotate(35.11)"><tspan x="0" y="0"> </tspan></text><text class="cls-24" transform="translate(87.94 408.41) rotate(-36.22)"><tspan x="0" y="0"> </tspan></text><text class="cls-24" transform="translate(150.99 362.43) rotate(-27.01)"><tspan x="0" y="0"> </tspan></text><text class="cls-30" transform="translate(218.44 325.71) rotate(-12.69)"><tspan x="0" y="0">U</tspan></text><text class="cls-30" transform="translate(319.46 304.57) rotate(-2.48)"><tspan x="0" y="0">F</tspan></text><text class="cls-30" transform="translate(420.48 299.92) rotate(7.41)"><tspan x="0" y="0">O</tspan></text><text class="cls-27" transform="translate(96.38 402.56) rotate(-36.22)"><tspan x="0" y="0"> </tspan></text><text class="cls-27" transform="translate(159.43 356.58) rotate(-27.01)"><tspan x="0" y="0"> </tspan></text><text class="cls-29" transform="translate(226.88 319.87) rotate(-12.69)"><tspan x="0" y="0">U</tspan></text><text class="cls-29" transform="translate(327.91 298.72) rotate(-2.48)"><tspan x="0" y="0">F</tspan></text><text class="cls-29" transform="translate(428.92 294.08) rotate(7.41)"><tspan x="0" y="0">O</tspan></text><text class="cls-31" transform="translate(106.82 512.95) rotate(-46.32)"><tspan x="0" y="0">S</tspan></text><text class="cls-31" transform="translate(149.19 468.57) rotate(-39.53)"><tspan x="0" y="0">P</tspan></text><text class="cls-31" transform="translate(197.16 428.77) rotate(-30.25)"><tspan x="0" y="0">O</tspan></text><text class="cls-31" transform="translate(251.46 396.89) rotate(-16.7)"><tspan x="0" y="0">T</tspan></text><text class="cls-31" transform="translate(311.12 380.03) rotate(-9.07)"><tspan x="0" y="0">T</tspan></text><text class="cls-31" transform="translate(372.55 370.28) rotate(-2.25)"><tspan x="0" y="0">E</tspan></text><text class="cls-31" transform="translate(433.44 367.69) rotate(7.01)"><tspan x="0" y="0">D</tspan></text><text class="cls-31" transform="translate(494.58 376.86) rotate(18.15)"><tspan x="0" y="0">!</tspan></text><text class="cls-31" transform="translate(514.62 383.64) rotate(35.11)"><tspan x="0" y="0"> </tspan></text></g></svg>