<svg xmlns="http://www.w3.org/2000/svg" width="805" height="600"><rect width="805" height="600" x="0" y="0" fill="#FFFFFF" id="backgorund"/><g id="viz" transform="translate(402.5,300)"><g id="cells"><path d="M-139.19986117228686,-178.01512606573706L-167.43157806499164,-178.10200859292078L-167.43157806499158,-64.03896105143983L-140.85355166515717,-55.58204551487554L-125.85979564526906,-55.45132600378996L-95.29705878836707,-111.22276317480096z" fill="#1f77b4" stroke="#FFFFFF" stroke-width="2" id="Unspecified"/><path d="M-140.85355166515717,-55.58204551487554L-167.4315780649916,-42.91923613858639L-167.43157806499158,20.000985225951148L-116.20097286968179,19.642720014946114L-110.4200429147806,-38.88775691660163L-125.85979564526906,-55.45132600378996z" fill="#1f77b4" stroke="#FFFFFF" stroke-width="2" id="Changing"/><path d="M91.90367624890524,-140.27272111151166L87.27987689662963,-132.98615019761812L99.48362195155441,-81.63021321607197L136.66582696390145,-114.42928134670198z" fill="#1f77b4" stroke="#FFFFFF" stroke-width="2" id="Chevron"/><path d="M-167.43157806499158,20.000985225951148L-167.43157806499158,85.34573215708005L-138.58652928031535,92.47485565835571L-99.71178895578535,45.704458538626554L-116.20097286968179,19.642720014946114z" fill="#1f77b4" stroke="#FFFFFF" stroke-width="2" id="Cigar"/><path d="M-86.36650846671802,-243.19706024556092L-139.19986117228686,-178.01512606573706L-95.29705878836707,-111.22276317480096L-20.881603681002744,-100.0884893251217L9.259116367032943,-141.49162845677455L15.156918208647749,-184.58248252548535z" fill="#1f77b4" stroke="#FFFFFF" stroke-width="2" id="Circle"/><path d="M-126.35633041247766,266.2851947107906L-133.67365238938467,257.3730078987812L-167.43157806499147,257.6419923564414L-167.43157806499147,290z" fill="#1f77b4" stroke="#FFFFFF" stroke-width="2" id="Cone"/><path d="M23.084630883743788,62.9820185360005L36.31023380808462,48.396446871722496L15.785454108823048,31.33349878663404L3.6467633274317466,46.918313185170646z" fill="#1f77b4" stroke="#FFFFFF" stroke-width="2" id="Cross"/><path d="M23.084630883743788,62.9820185360005L31.802206432405683,73.21593148230389L43.43108330685191,51.723199747571165L36.31023380808462,48.396446871722496z" fill="#1f77b4" stroke="#FFFFFF" stroke-width="2" id="Cube"/><path d="M-141.96481368204346,158.08744792351567L-167.43157806499153,164.32012404937092L-167.4315780649915,217.47075769388078L-136.32047565523033,221.5254665893969L-114.27581731682444,202.20200523058315z" fill="#1f77b4" stroke="#FFFFFF" stroke-width="2" id="Cylinder"/><path d="M-167.4315780649916,-64.03896105143984L-167.4315780649916,-42.919236138586385L-140.85355166515717,-55.58204551487554z" fill="#1f77b4" stroke="#FFFFFF" stroke-width="2" id="Delta"/><path d="M87.27987689662963,-132.98615019761812L91.9036762489053,-140.27272111151163L15.156918208647753,-184.58248252548537L9.259116367032943,-141.49162845677455z" fill="#1f77b4" stroke="#FFFFFF" stroke-width="2" id="Diamond"/><path d="M87.27987689662963,-132.98615019761812L9.259116367032943,-141.49162845677455L-20.881603681002744,-100.0884893251217L-16.748662207650924,-73.5430235948394L14.149499319794586,-44.22120445735382L95.5410796237907,-70.31365429612758L99.48362195155441,-81.63021321607197z" fill="#1f77b4" stroke="#FFFFFF" stroke-width="2" id="Disk"/><path d="M-167.43157806499153,257.6419923564414L-133.67365238938467,257.3730078987812L-136.32047565523033,221.5254665893969L-167.4315780649915,217.47075769388078z" fill="#1f77b4" stroke="#FFFFFF" stroke-width="2" id="Egg"/><path d="M136.66582696390145,-114.429281346702L99.48362195155441,-81.63021321607197L95.5410796237907,-70.31365429612758L123.79897853154833,-10.007508615788469L158.72261307485465,2.1485015077234695L213.3374994848197,-18.44098409955042L231.7565506899949,-59.52862640600564z" fill="#1f77b4" stroke="#FFFFFF" stroke-width="2" id="Fireball"/><path d="M123.79897853154833,-10.007508615788469L102.20335426895988,35.93979357026981L144.55795756456456,62.16691429148649L158.72261307485465,2.1485015077234695z" fill="#1f77b4" stroke="#FFFFFF" stroke-width="2" id="Flash"/><path d="M-95.29705878836707,-111.22276317480096L-125.85979564526906,-55.45132600378996L-110.4200429147806,-38.88775691660163L-16.748662207650924,-73.5430235948394L-20.881603681002744,-100.0884893251217z" fill="#1f77b4" stroke="#FFFFFF" stroke-width="2" id="Formation"/><path d="M-65.14250275632858,230.94337483538558L56.14215936000435,160.91964251394793L31.802206432405683,73.21593148230389L23.084630883743788,62.9820185360005L3.6467633274317466,46.918313185170646L-99.71178895578535,45.704458538626554L-138.58652928031535,92.47485565835571L-145.6626474198465,137.96640765030048L-141.96481368204346,158.08744792351567L-114.27581731682444,202.20200523058315z" fill="#1f77b4" stroke="#FFFFFF" stroke-width="2" id="Light"/><path d="M-167.43157806499164,-178.10200859292078L-139.19986117228686,-178.01512606573706L-86.36650846671796,-243.19706024556098L-167.4315780649917,-290z" fill="#1f77b4" stroke="#FFFFFF" stroke-width="2" id="Orb"/><path d="M102.20335426895988,35.93979357026981L43.43108330685191,51.723199747571165L31.802206432405683,73.21593148230389L56.14215936000434,160.91964251394793L163.49613934387463,98.9387932716827L144.55795756456456,62.16691429148649z" fill="#1f77b4" stroke="#FFFFFF" stroke-width="2" id="Other"/><path d="M334.86315612998294,-1.1368683772161603e-13L231.75655068999492,-59.52862640600566L213.3374994848197,-18.44098409955042L253.5046767787534,46.972339954290916z" fill="#1f77b4" stroke="#FFFFFF" stroke-width="2" id="Oval"/><path d="M-65.14250275632858,230.94337483538558L-114.27581731682444,202.20200523058315L-136.32047565523033,221.5254665893969L-133.67365238938467,257.3730078987812L-126.35633041247769,266.2851947107906z" fill="#1f77b4" stroke="#FFFFFF" stroke-width="2" id="Rectangle"/><path d="M158.72261307485465,2.1485015077234695L144.55795756456456,62.16691429148649L163.49613934387463,98.93879327168273L253.50467677875338,46.97233995429093L213.3374994848197,-18.44098409955042z" fill="#1f77b4" stroke="#FFFFFF" stroke-width="2" id="Sphere"/><path d="M-145.6626474198465,137.96640765030048L-167.43157806499153,137.2600433452912L-167.43157806499153,164.32012404937092L-141.96481368204346,158.08744792351567z" fill="#1f77b4" stroke="#FFFFFF" stroke-width="2" id="Star"/><path d="M-167.4315780649914,137.2600433452912L-145.6626474198465,137.96640765030048L-138.58652928031535,92.47485565835571L-167.43157806499156,85.34573215708006z" fill="#1f77b4" stroke="#FFFFFF" stroke-width="2" id="Teardrop"/><path d="M-16.748662207650924,-73.5430235948394L-110.4200429147806,-38.88775691660163L-116.20097286968179,19.642720014946114L-99.71178895578535,45.704458538626554L3.6467633274317466,46.918313185170646L15.785454108823048,31.33349878663404L14.149499319794586,-44.22120445735382z" fill="#1f77b4" stroke="#FFFFFF" stroke-width="2" id="Triangle"/><path d="M95.5410796237907,-70.31365429612758L14.149499319794586,-44.22120445735382L15.785454108823048,31.33349878663404L36.31023380808462,48.396446871722496L43.43108330685191,51.723199747571165L102.20335426895988,35.93979357026981L123.79897853154833,-10.007508615788469z" fill="#1f77b4" stroke="#FFFFFF" stroke-width="2" id="Unknown"/><path d="M-167.4315780649917,-290L-167.43157806499147,290L334.86315612998294,-5.684341886080802e-14z" fill="none" stroke="#FFFFFF" stroke-width="4"/></g><g id="labels"><text text-anchor="middle" dominant-baseline="text-before-edge" transform="translate(-139.15456411434658,-119.66072827657688)"><tspan x="3" y="0.2em" style="font-family: Arial, sans-serif; font-size: 10px; fill: black; font-weight: bold;">Unspecified</tspan></text><text text-anchor="middle" dominant-baseline="text-before-edge" transform="translate(-140.01687602627044,-20.75204729197295)"><tspan x="3" y="0.2em" style="font-family: Arial, sans-serif; font-size: 10px; fill: black; font-weight: bold;">Changing</tspan></text><text text-anchor="middle" dominant-baseline="text-before-edge" transform="translate(108.22947138882397,-117.26459131864688)"><tspan x="3" y="0.2em" style="font-family: Arial, sans-serif; font-size: 10px; fill: black; font-weight: bold;">Chevron</tspan></text><text text-anchor="middle" dominant-baseline="text-before-edge" transform="translate(-139.5395722656357,47.500631919378634)"><tspan x="3" y="0.2em" style="font-family: Arial, sans-serif; font-size: 10px; fill: black; font-weight: bold;">Cigar</tspan></text><text text-anchor="middle" dominant-baseline="text-before-edge" transform="translate(-59.61740623554095,-171.94071918262833)"><tspan x="3" y="0.2em" style="font-family: Arial, sans-serif; font-size: 10px; fill: black; font-weight: bold;">Circle</tspan></text><text text-anchor="middle" dominant-baseline="text-before-edge" transform="translate(-150.9847759795815,262.0524195895977)"><tspan x="3" y="0.2em" style="font-family: Arial, sans-serif; font-size: 10px; fill: black; font-weight: bold;">Cone</tspan></text><text text-anchor="middle" dominant-baseline="text-before-edge" transform="translate(20.705989298402397,40.68997195358249)"><tspan x="3" y="0.2em" style="font-family: Arial, sans-serif; font-size: 10px; fill: black; font-weight: bold;">Cross</tspan></text><text text-anchor="middle" dominant-baseline="text-before-edge" transform="translate(34.67703914096845,53.35835149378888)"><tspan x="3" y="0.2em" style="font-family: Arial, sans-serif; font-size: 10px; fill: black; font-weight: bold;">Cube</tspan></text><text text-anchor="middle" dominant-baseline="text-before-edge" transform="translate(-145.32665766054163,184.84702541547486)"><tspan x="3" y="0.2em" style="font-family: Arial, sans-serif; font-size: 10px; fill: black; font-weight: bold;">Cylinder</tspan></text><text text-anchor="middle" dominant-baseline="text-before-edge" transform="translate(-158.36957873695104,-59.272615884448)"><tspan x="3" y="0.2em" style="font-family: Arial, sans-serif; font-size: 10px; fill: black; font-weight: bold;">Delta</tspan></text><text text-anchor="middle" dominant-baseline="text-before-edge" transform="translate(44.52969285380863,-157.6862105152307)"><tspan x="3" y="0.2em" style="font-family: Arial, sans-serif; font-size: 10px; fill: black; font-weight: bold;">Diamond</tspan></text><text text-anchor="middle" dominant-baseline="text-before-edge" transform="translate(38.311859978974944,-100.65002337099756)"><tspan x="3" y="0.2em" style="font-family: Arial, sans-serif; font-size: 10px; fill: black; font-weight: bold;">Disk</tspan></text><text text-anchor="middle" dominant-baseline="text-before-edge" transform="translate(-151.2385157565205,230.20772266783896)"><tspan x="3" y="0.2em" style="font-family: Arial, sans-serif; font-size: 10px; fill: black; font-weight: bold;">Egg</tspan></text><text text-anchor="middle" dominant-baseline="text-before-edge" transform="translate(160.4077705789223,-58.11339196277197)"><tspan x="3" y="0.2em" style="font-family: Arial, sans-serif; font-size: 10px; fill: black; font-weight: bold;">Fireball</tspan></text><text text-anchor="middle" dominant-baseline="text-before-edge" transform="translate(133.9331352218305,17.94696669800604)"><tspan x="3" y="0.2em" style="font-family: Arial, sans-serif; font-size: 10px; fill: black; font-weight: bold;">Flash</tspan></text><text text-anchor="middle" dominant-baseline="text-before-edge" transform="translate(-72.87425382529636,-83.33913096957788)"><tspan x="3" y="0.2em" style="font-family: Arial, sans-serif; font-size: 10px; fill: black; font-weight: bold;">Formation</tspan></text><text text-anchor="middle" dominant-baseline="text-before-edge" transform="translate(-47.88201195012468,123.68480129737151)"><tspan x="3" y="0.2em" style="font-family: Arial, sans-serif; font-size: 10px; fill: black; font-weight: bold;">Light</tspan></text><text text-anchor="middle" dominant-baseline="text-before-edge" transform="translate(-138.79616548151893,-236.11922764006755)"><tspan x="3" y="0.2em" style="font-family: Arial, sans-serif; font-size: 10px; fill: black; font-weight: bold;">Orb</tspan></text><text text-anchor="middle" dominant-baseline="text-before-edge" transform="translate(92.59921942851227,84.69777875583488)"><tspan x="3" y="0.2em" style="font-family: Arial, sans-serif; font-size: 10px; fill: black; font-weight: bold;">Other</tspan></text><text text-anchor="middle" dominant-baseline="text-before-edge" transform="translate(265.1405157500797,-11.163075812286984)"><tspan x="3" y="0.2em" style="font-family: Arial, sans-serif; font-size: 10px; fill: black; font-weight: bold;">Oval</tspan></text><text text-anchor="middle" dominant-baseline="text-before-edge" transform="translate(-108.34163501103356,227.04040748129842)"><tspan x="3" y="0.2em" style="font-family: Arial, sans-serif; font-size: 10px; fill: black; font-weight: bold;">Rectangle</tspan></text><text text-anchor="middle" dominant-baseline="text-before-edge" transform="translate(194.46801258539892,32.23351051751481)"><tspan x="3" y="0.2em" style="font-family: Arial, sans-serif; font-size: 10px; fill: black; font-weight: bold;">Sphere</tspan></text><text text-anchor="middle" dominant-baseline="text-before-edge" transform="translate(-155.4568810772635,143.45485170215224)"><tspan x="3" y="0.2em" style="font-family: Arial, sans-serif; font-size: 10px; fill: black; font-weight: bold;">Star</tspan></text><text text-anchor="middle" dominant-baseline="text-before-edge" transform="translate(-154.27836656558034,107.13506531545288)"><tspan x="3" y="0.2em" style="font-family: Arial, sans-serif; font-size: 10px; fill: black; font-weight: bold;">Teardrop</tspan></text><text text-anchor="middle" dominant-baseline="text-before-edge" transform="translate(-46.29444159601145,-11.495283003552855)"><tspan x="3" y="0.2em" style="font-family: Arial, sans-serif; font-size: 10px; fill: black; font-weight: bold;">Triangle</tspan></text><text text-anchor="middle" dominant-baseline="text-before-edge" transform="translate(66.11275774759216,-13.929189672388572)"><tspan x="3" y="0.2em" style="font-family: Arial, sans-serif; font-size: 10px; fill: black; font-weight: bold;">Unknown</tspan></text></g></g></svg>