<svg width="1280" height="852" viewBox="0 0 1280 852" fill="none" xmlns="http://www.w3.org/2000/svg">
<rect width="1280" height="851.2" fill="white"/>
<path d="M1261 13H22V823H1261V13Z" fill="white"/>
<path d="M32 798L1239 798" stroke="black"/>
<path d="M32 798V806" stroke="black"/>
<path d="M130 798V806" stroke="black"/>
<path d="M228 798V806" stroke="black"/>
<path d="M327 798V806" stroke="black"/>
<path d="M425 798V806" stroke="black"/>
<path d="M524 798V806" stroke="black"/>
<path d="M622 798V806" stroke="black"/>
<path d="M720 798V806" stroke="black"/>
<path d="M817 798V806" stroke="black"/>
<path d="M916 798V806" stroke="black"/>
<path d="M1014 798V806" stroke="black"/>
<path d="M1113 798V806" stroke="black"/>
<path d="M1211 798V806" stroke="black"/>
<path d="M493.684 805.905C500.311 805.905 505.684 800.533 505.684 793.905C505.684 787.278 500.311 781.905 493.684 781.905C487.056 781.905 481.684 787.278 481.684 793.905C481.684 800.533 487.056 805.905 493.684 805.905Z" fill="#FBB03B"/>
<path d="M962.5 679C968.299 679 973 674.299 973 668.5C973 662.701 968.299 658 962.5 658C956.701 658 952 662.701 952 668.5C952 674.299 956.701 679 962.5 679Z" fill="#FBB03B"/>
<path d="M495.877 747.707C503.198 748.116 509.68 748.841 513.755 749.631C509.883 748.048 503.375 746.791 495.951 746.377C488.527 745.962 481.92 746.488 477.896 747.63C482.034 747.298 488.556 747.299 495.877 747.707Z" fill="black"/>
<path d="M516.22 750.93C512.718 749.929 504.923 748.934 495.837 748.427C486.751 747.92 478.894 748.042 475.302 748.647C474.374 749.171 473.848 749.766 473.812 750.416C473.65 753.32 483.299 756.22 495.364 756.893C507.43 757.566 517.342 755.758 517.504 752.854C517.54 752.204 517.084 751.555 516.22 750.93Z" fill="black"/>
<path d="M502.425 754.916C502.458 754.328 499.382 753.678 495.553 753.465C491.725 753.251 488.596 753.555 488.563 754.142C488.53 754.73 491.607 755.38 495.435 755.593C499.263 755.807 502.393 755.503 502.425 754.916Z" fill="white"/>
<path d="M504.821 746.872C504.097 744.502 500.696 742.567 496.508 742.333C492.32 742.1 488.724 743.644 487.741 745.918C493.477 745.475 499.17 745.792 504.821 746.872Z" fill="black"/>
<path d="M496.986 750.259C497.01 749.835 496.417 749.458 495.662 749.415C494.907 749.373 494.276 749.683 494.252 750.107C494.228 750.531 494.821 750.909 495.576 750.951C496.331 750.993 496.962 750.683 496.986 750.259Z" fill="white"/>
<path d="M512.473 752.241C512.487 751.999 511.855 751.766 511.061 751.721C510.268 751.677 509.614 751.838 509.6 752.081C509.587 752.324 510.219 752.557 511.012 752.601C511.806 752.645 512.46 752.484 512.473 752.241Z" fill="white"/>
<path d="M481.513 750.513C481.527 750.27 480.895 750.038 480.101 749.993C479.308 749.949 478.654 750.11 478.64 750.353C478.627 750.596 479.259 750.829 480.052 750.873C480.846 750.917 481.5 750.756 481.513 750.513Z" fill="white"/>
<path d="M485.666 754.19C485.674 754.062 485.342 753.94 484.925 753.917C484.508 753.894 484.165 753.978 484.158 754.106C484.151 754.233 484.483 754.355 484.899 754.379C485.316 754.402 485.659 754.317 485.666 754.19Z" fill="white"/>
<path d="M506.807 755.37C506.814 755.242 506.482 755.12 506.066 755.097C505.649 755.074 505.306 755.158 505.298 755.286C505.291 755.413 505.623 755.535 506.04 755.559C506.457 755.582 506.8 755.497 506.807 755.37Z" fill="white"/>
<path d="M487 758.237C487 758.237 486.651 759.33 486.054 760.938C485.759 761.743 485.402 762.678 485.008 763.674C484.808 764.171 484.609 764.688 484.393 765.207C484.179 765.727 483.962 766.255 483.744 766.784C483.52 767.309 483.296 767.835 483.076 768.352C482.859 768.871 482.629 769.375 482.415 769.866C481.981 770.846 481.566 771.755 481.199 772.531C480.471 774.084 479.937 775.099 479.937 775.099C479.937 775.099 480.286 774.006 480.882 772.398C481.178 771.593 481.534 770.658 481.929 769.662C482.129 769.165 482.326 768.648 482.544 768.129C482.758 767.609 482.975 767.081 483.193 766.553C483.417 766.027 483.641 765.502 483.861 764.984C484.08 764.466 484.309 763.962 484.523 763.471C484.957 762.491 485.372 761.582 485.739 760.806C486.467 759.253 487 758.237 487 758.237Z" fill="black"/>
<path d="M495.923 760.271C495.923 760.271 495.929 760.744 495.926 761.572C495.916 762.4 495.92 763.582 495.894 765.001C495.872 766.419 495.834 768.073 495.78 769.845C495.751 770.731 495.721 771.646 495.691 772.576C495.655 773.506 495.618 774.451 495.582 775.395C495.538 776.34 495.495 777.284 495.452 778.214C495.404 779.143 495.357 780.058 495.311 780.943C495.215 782.713 495.113 784.364 495.015 785.779C494.921 787.195 494.817 788.373 494.756 789.198C494.69 790.023 494.643 790.495 494.643 790.495C494.643 790.495 494.637 790.021 494.64 789.193C494.65 788.366 494.645 787.183 494.672 785.765C494.693 784.346 494.731 782.692 494.785 780.92C494.814 780.035 494.845 779.119 494.875 778.189C494.911 777.259 494.948 776.315 494.985 775.37C495.028 774.426 495.072 773.481 495.114 772.552C495.163 771.622 495.21 770.708 495.256 769.823C495.352 768.053 495.454 766.401 495.552 764.986C495.646 763.571 495.75 762.392 495.81 761.567C495.877 760.742 495.923 760.271 495.923 760.271Z" fill="black"/>
<path d="M504.343 759.645C504.343 759.645 504.581 760.308 504.86 761.318C505.003 761.823 505.156 762.414 505.308 763.05C505.382 763.368 505.466 763.696 505.536 764.031C505.608 764.367 505.682 764.708 505.755 765.048C505.822 765.39 505.888 765.733 505.954 766.069C506.023 766.405 506.073 766.74 506.131 767.061C506.242 767.706 506.333 768.31 506.4 768.83C506.54 769.868 506.582 770.571 506.582 770.571C506.582 770.571 506.343 769.909 506.064 768.898C505.921 768.394 505.767 767.803 505.615 767.167C505.542 766.848 505.457 766.521 505.388 766.185C505.316 765.85 505.243 765.509 505.17 765.168C505.103 764.826 505.036 764.484 504.971 764.147C504.903 763.811 504.852 763.477 504.794 763.155C504.684 762.511 504.592 761.907 504.525 761.387C504.385 760.348 504.343 759.645 504.343 759.645Z" fill="black"/>
<path d="M490.057 766.356C490.057 766.356 489.918 767.263 489.632 768.602C489.492 769.272 489.317 770.051 489.116 770.882C489.013 771.297 488.915 771.728 488.8 772.162C488.687 772.596 488.573 773.037 488.458 773.478C488.337 773.918 488.215 774.357 488.096 774.79C487.98 775.223 487.848 775.645 487.73 776.056C487.489 776.876 487.252 777.638 487.037 778.289C486.615 779.591 486.282 780.446 486.282 780.446C486.282 780.446 486.42 779.539 486.706 778.2C486.845 777.529 487.021 776.751 487.222 775.92C487.325 775.505 487.422 775.074 487.538 774.64C487.651 774.206 487.766 773.765 487.881 773.324C488.002 772.884 488.123 772.445 488.243 772.012C488.36 771.579 488.491 771.157 488.609 770.746C488.851 769.926 489.088 769.164 489.302 768.513C489.725 767.211 490.057 766.356 490.057 766.356Z" fill="black"/>
<path d="M500.412 763.235C500.412 763.235 500.599 764.402 500.801 766.157C500.905 767.035 501.013 768.06 501.116 769.159C501.164 769.708 501.223 770.276 501.267 770.853C501.314 771.431 501.361 772.018 501.408 772.604C501.448 773.192 501.488 773.779 501.528 774.357C501.571 774.935 501.595 775.505 501.629 776.055C501.69 777.158 501.734 778.187 501.761 779.07C501.821 780.837 501.808 782.018 501.808 782.018C501.808 782.018 501.62 780.851 501.418 779.096C501.315 778.218 501.206 777.194 501.104 776.094C501.055 775.545 500.995 774.977 500.952 774.4C500.906 773.822 500.859 773.235 500.812 772.649C500.772 772.061 500.732 771.474 500.692 770.896C500.651 770.318 500.625 769.748 500.592 769.198C500.531 768.095 500.487 767.066 500.46 766.183C500.4 764.416 500.412 763.235 500.412 763.235Z" fill="black"/>
<path d="M908.663 670.844C899.746 671.097 891.837 671.763 886.855 672.589C891.616 670.793 899.574 669.48 908.617 669.223C917.661 668.967 925.68 669.826 930.536 671.349C925.514 670.808 917.581 670.591 908.663 670.844Z" fill="black"/>
<path d="M883.813 674.086C888.106 672.985 897.62 672.035 908.688 671.721C919.756 671.407 929.309 671.816 933.657 672.672C934.768 673.341 935.388 674.082 935.41 674.873C935.511 678.411 923.678 681.617 908.981 682.034C894.284 682.451 882.288 679.921 882.188 676.384C882.165 675.592 882.742 674.817 883.813 674.086Z" fill="black"/>
<path d="M908.932 680.451C904.269 680.584 900.472 680.11 900.452 679.394C900.431 678.678 904.195 677.99 908.859 677.858C913.522 677.726 917.319 678.199 917.339 678.915C917.36 679.631 913.596 680.319 908.932 680.451Z" fill="white"/>
<path d="M897.813 669.53C898.793 667.407 903.01 665.718 908.112 665.573C913.214 665.428 917.519 666.876 918.619 668.939C911.664 668.45 904.729 668.647 897.813 669.53Z" fill="black"/>
<path d="M908.915 674.8C907.995 674.826 907.238 674.428 907.223 673.912C907.209 673.395 907.942 672.955 908.862 672.929C909.782 672.903 910.539 673.301 910.554 673.817C910.569 674.334 909.835 674.774 908.915 674.8Z" fill="white"/>
<path d="M890.084 676.292C889.117 676.319 888.327 676.102 888.319 675.806C888.31 675.51 889.087 675.248 890.054 675.22C891.02 675.193 891.811 675.411 891.819 675.707C891.827 676.002 891.051 676.265 890.084 676.292Z" fill="white"/>
<path d="M927.801 675.223C926.834 675.251 926.044 675.033 926.035 674.737C926.027 674.441 926.804 674.179 927.77 674.152C928.737 674.124 929.527 674.342 929.535 674.638C929.544 674.934 928.767 675.196 927.801 675.223Z" fill="white"/>
<path d="M921.788 679.326C921.28 679.34 920.865 679.226 920.861 679.07C920.856 678.915 921.264 678.777 921.772 678.763C922.279 678.748 922.694 678.863 922.699 679.018C922.703 679.174 922.295 679.311 921.788 679.326Z" fill="white"/>
<path d="M896.034 680.055C895.526 680.07 895.111 679.956 895.107 679.8C895.102 679.645 895.51 679.507 896.018 679.493C896.525 679.478 896.94 679.593 896.945 679.748C896.949 679.903 896.541 680.041 896.034 680.055Z" fill="white"/>
<path d="M932.986 670.629C932.986 670.629 933.354 670.637 933.997 670.651C934.64 670.657 935.559 670.678 936.661 670.68C937.763 670.687 939.049 670.685 940.426 670.674C941.115 670.666 941.827 670.659 942.55 670.651C943.273 670.64 944.007 670.628 944.742 670.616C945.476 670.6 946.21 670.584 946.933 670.567C947.656 670.547 948.367 670.528 949.056 670.509C950.433 670.467 951.717 670.42 952.819 670.371C953.92 670.326 954.837 670.27 955.479 670.24C956.121 670.201 956.488 670.179 956.488 670.179C956.488 670.179 956.121 670.171 955.478 670.157C954.835 670.151 953.916 670.13 952.814 670.127C951.712 670.121 950.426 670.123 949.049 670.134C948.36 670.142 947.648 670.149 946.925 670.157C946.202 670.168 945.468 670.18 944.733 670.192C943.999 670.208 943.265 670.225 942.542 670.241C941.819 670.261 941.107 670.281 940.419 670.3C939.042 670.342 937.757 670.389 936.656 670.438C935.555 670.483 934.638 670.538 933.996 670.569C933.353 670.607 932.986 670.629 932.986 670.629Z" fill="black"/>
<path d="M904.013 684.804C904.013 684.804 904.619 684.856 905.679 684.947C906.739 685.029 908.253 685.163 910.072 685.294C911.891 685.423 914.011 685.592 916.286 685.739C918.56 685.888 920.986 686.046 923.412 686.204C925.839 686.343 928.266 686.482 930.541 686.612C932.817 686.744 934.942 686.834 936.763 686.928C938.584 687.021 940.103 687.071 941.166 687.119C942.229 687.158 942.837 687.18 942.837 687.18C942.837 687.18 942.231 687.128 941.171 687.037C940.111 686.955 938.597 686.82 936.778 686.689C934.959 686.561 932.838 686.39 930.564 686.244C928.29 686.096 925.864 685.938 923.438 685.78C921.011 685.641 918.584 685.502 916.308 685.372C914.033 685.241 911.907 685.15 910.086 685.056C908.265 684.964 906.746 684.913 905.684 684.865C904.62 684.826 904.013 684.804 904.013 684.804Z" fill="black"/>
<path d="M918.157 664.795C918.157 664.795 918.844 664.834 919.872 664.836C920.386 664.839 920.985 664.834 921.627 664.819C921.948 664.809 922.28 664.806 922.616 664.791C922.953 664.777 923.295 664.764 923.637 664.75C923.979 664.732 924.32 664.713 924.657 664.695C924.993 664.679 925.324 664.651 925.644 664.631C926.285 664.586 926.882 664.535 927.393 664.483C928.417 664.385 929.097 664.281 929.097 664.281C929.097 664.281 928.41 664.242 927.382 664.24C926.868 664.236 926.269 664.242 925.627 664.257C925.306 664.266 924.974 664.269 924.638 664.285C924.301 664.299 923.959 664.312 923.617 664.326C923.275 664.344 922.933 664.363 922.597 664.381C922.26 664.398 921.93 664.425 921.609 664.446C920.969 664.491 920.372 664.542 919.86 664.593C918.837 664.692 918.157 664.795 918.157 664.795Z" fill="black"/>
<path d="M922.204 666.78C922.204 666.78 922.892 666.819 923.92 666.821C924.434 666.824 925.033 666.819 925.675 666.804C925.996 666.794 926.327 666.791 926.664 666.776C927.001 666.762 927.343 666.749 927.685 666.735C928.026 666.717 928.368 666.698 928.705 666.68C929.041 666.664 929.372 666.636 929.692 666.616C930.333 666.571 930.93 666.52 931.441 666.468C932.465 666.37 933.145 666.266 933.145 666.266C933.145 666.266 932.458 666.227 931.43 666.225C930.916 666.221 930.316 666.226 929.675 666.242C929.354 666.251 929.022 666.254 928.685 666.27C928.349 666.284 928.007 666.297 927.665 666.311C927.323 666.329 926.981 666.348 926.645 666.366C926.308 666.383 925.978 666.41 925.657 666.431C925.017 666.476 924.42 666.527 923.908 666.578C922.885 666.677 922.204 666.78 922.204 666.78Z" fill="black"/>
<path d="M937.813 673.195C937.813 673.195 938.501 673.234 939.529 673.236C940.043 673.239 940.642 673.234 941.284 673.219C941.605 673.209 941.936 673.206 942.273 673.191C942.61 673.178 942.952 673.164 943.294 673.15C943.635 673.132 943.977 673.113 944.314 673.095C944.65 673.079 944.981 673.051 945.301 673.031C945.942 672.986 946.539 672.935 947.05 672.884C948.074 672.785 948.754 672.681 948.754 672.681C948.754 672.681 948.067 672.642 947.039 672.64C946.525 672.636 945.925 672.642 945.284 672.657C944.963 672.667 944.631 672.67 944.294 672.685C943.958 672.699 943.616 672.712 943.274 672.726C942.932 672.744 942.59 672.763 942.254 672.781C941.917 672.798 941.587 672.825 941.266 672.846C940.626 672.891 940.029 672.942 939.517 672.993C938.494 673.092 937.813 673.195 937.813 673.195Z" fill="black"/>
<path d="M905.641 687.469C905.641 687.469 906.316 687.599 907.335 687.737C907.844 687.809 908.439 687.883 909.077 687.954C909.396 687.987 909.726 688.028 910.061 688.058C910.397 688.089 910.737 688.121 911.078 688.153C911.419 688.181 911.761 688.208 912.096 688.234C912.432 688.263 912.764 688.28 913.084 688.302C913.724 688.343 914.323 688.372 914.837 688.389C915.864 688.427 916.553 688.415 916.553 688.415C916.553 688.415 915.877 688.284 914.858 688.145C914.349 688.074 913.754 687.999 913.116 687.929C912.797 687.896 912.468 687.855 912.132 687.826C911.797 687.794 911.456 687.762 911.115 687.73C910.774 687.703 910.432 687.676 910.097 687.649C909.761 687.621 909.429 687.604 909.109 687.582C908.469 687.542 907.87 687.513 907.356 687.495C906.329 687.457 905.641 687.469 905.641 687.469Z" fill="black"/>
<path d="M932.553 683.74C932.553 683.74 932.846 683.757 933.359 683.777C933.872 683.792 934.604 683.827 935.484 683.846C936.363 683.869 937.389 683.886 938.488 683.895C939.037 683.899 939.605 683.902 940.182 683.905C940.759 683.904 941.345 683.904 941.931 683.903C942.517 683.898 943.104 683.892 943.68 683.887C944.257 683.884 944.825 683.868 945.375 683.86C946.473 683.839 947.499 683.811 948.378 683.779C949.257 683.751 949.989 683.708 950.502 683.687C951.015 683.662 951.308 683.642 951.308 683.642C951.308 683.642 951.015 683.624 950.502 683.604C949.989 683.589 949.256 683.554 948.377 683.535C947.497 683.512 946.472 683.495 945.373 683.486C944.823 683.483 944.255 683.473 943.678 683.476C943.101 683.477 942.515 683.478 941.929 683.478C941.343 683.484 940.757 683.489 940.18 683.495C939.603 683.504 939.035 683.513 938.486 683.522C937.387 683.543 936.361 683.571 935.482 683.603C934.603 683.632 933.871 683.674 933.358 683.695C932.845 683.72 932.553 683.74 932.553 683.74Z" fill="black"/>
<path d="M1156 246C1093.04 246 1042 194.96 1042 132C1042 69.0395 1093.04 18 1156 18C1218.96 18 1270 69.0395 1270 132C1270 194.96 1218.96 246 1156 246Z" fill="#FBB03B"/>
<path d="M1062.6 98.749C1042.68 110.865 1025.58 122.614 1015.33 130.936C1023.82 120.694 1040.19 107.414 1060.4 95.1267C1080.61 82.8395 1099.93 74.4123 1112.93 71.5868C1100.83 76.8566 1082.53 86.6328 1062.6 98.749Z" fill="black"/>
<path d="M1010.36 138.275C1018.68 130.218 1039.06 115.746 1063.79 100.708C1088.52 85.67 1110.75 74.2361 1121.73 70.551C1125.12 70.6328 1127.49 71.5134 1128.57 73.2824C1133.37 81.1871 1110.65 103.783 1077.81 123.752C1044.97 143.721 1014.45 153.501 1009.64 145.596C1008.56 143.827 1008.87 141.321 1010.36 138.275Z" fill="black"/>
<path d="M1055.03 128.806C1054.05 127.206 1061.71 120.772 1072.13 114.435C1082.55 108.099 1091.78 104.259 1092.76 105.859C1093.73 107.459 1086.07 113.893 1075.65 120.229C1065.23 126.566 1056 130.405 1055.03 128.806Z" fill="white"/>
<path d="M1036.26 109.807C1035.14 102.732 1042.08 92.6991 1053.48 85.7673C1064.88 78.8354 1076.98 77.288 1082.75 81.5381C1066.12 89.1043 1050.62 98.5273 1036.26 109.807Z" fill="black"/>
<path d="M1063.31 107.589C1062.61 106.435 1063.7 104.487 1065.76 103.237C1067.81 101.987 1070.05 101.91 1070.75 103.064C1071.45 104.218 1070.35 106.167 1068.3 107.417C1066.24 108.666 1064.01 108.744 1063.31 107.589Z" fill="white"/>
<path d="M1022.82 136.362C1022.42 135.701 1023.85 134.1 1026.01 132.787C1028.17 131.473 1030.24 130.945 1030.64 131.606C1031.05 132.267 1029.62 133.867 1027.46 135.181C1025.3 136.494 1023.23 137.023 1022.82 136.362Z" fill="white"/>
<path d="M1107.1 85.1128C1106.7 84.4516 1108.12 82.8511 1110.28 81.5377C1112.44 80.2244 1114.52 79.6957 1114.92 80.3569C1115.32 81.018 1113.9 82.6186 1111.74 83.9319C1109.58 85.2452 1107.5 85.7739 1107.1 85.1128Z" fill="white"/>
<path d="M1100.96 101.652C1100.75 101.305 1101.49 100.465 1102.63 99.7749C1103.76 99.0852 1104.85 98.8075 1105.06 99.1547C1105.27 99.5019 1104.53 100.342 1103.39 101.032C1102.26 101.722 1101.17 101.999 1100.96 101.652Z" fill="white"/>
<path d="M1043.41 136.647C1043.2 136.3 1043.95 135.459 1045.08 134.77C1046.22 134.08 1047.31 133.802 1047.52 134.149C1047.73 134.497 1046.98 135.337 1045.85 136.027C1044.71 136.716 1043.62 136.994 1043.41 136.647Z" fill="white"/>
<path d="M41.813 798C46.7195 798 46.7195 798 51.626 798C56.5325 798 56.5325 798 61.439 798C66.3455 798 66.3455 798 71.252 798C76.1585 798 76.1585 797.832 81.065 797.832C85.9715 797.832 85.9715 797.916 90.878 797.916C95.7846 797.916 95.7846 797.916 100.691 797.916C105.598 797.916 105.598 798 110.504 798C115.411 798 115.411 798 120.317 798C125.224 798 125.224 797.748 130.13 797.748C135.037 797.748 135.037 798 139.943 798C144.85 798 144.85 798 149.756 798C154.663 798 154.663 798 159.569 798C164.476 798 164.476 797.832 169.382 797.832C174.289 797.832 174.289 798 179.195 798C184.102 798 184.102 797.916 189.008 797.916C193.915 797.916 193.915 797.832 198.821 797.832C203.728 797.832 203.728 797.916 208.634 797.916C213.541 797.916 213.541 798 218.447 798C223.354 798 223.354 797.748 228.26 797.748C233.167 797.748 233.167 798 238.073 798C242.98 798 242.98 797.916 247.886 797.916C252.793 797.916 252.793 798 257.699 798C262.606 798 262.606 798 267.512 798C272.419 798 272.419 797.916 277.325 797.916C282.232 797.916 282.232 798 287.138 798C292.045 798 292.045 798 296.951 798C301.858 798 301.858 797.916 306.764 797.916C311.671 797.916 311.671 797.832 316.577 797.832C321.484 797.832 321.484 797.58 326.39 797.58C331.297 797.58 331.297 797.832 336.203 797.832C341.11 797.832 341.11 797.832 346.016 797.832C350.923 797.832 350.923 797.916 355.829 797.916C360.736 797.916 360.736 797.916 365.642 797.916C370.549 797.916 370.549 797.916 375.455 797.916C380.362 797.916 380.362 797.748 385.268 797.748C390.175 797.748 390.175 797.748 395.081 797.748C399.988 797.748 399.988 797.916 404.894 797.916C409.801 797.916 409.801 797.748 414.707 797.748C419.614 797.748 419.614 797.832 424.52 797.832C429.427 797.832 429.427 797.664 434.333 797.664C439.24 797.664 439.24 797.412 444.146 797.412C449.053 797.412 449.053 797.161 453.959 797.161C458.866 797.161 458.866 796.825 463.772 796.825C468.679 796.825 468.679 796.741 473.585 796.741C478.492 796.741 478.492 796.909 483.398 796.909C488.305 796.909 488.305 793.719 493.211 793.719C498.118 793.719 498.118 796.825 503.024 796.825C507.931 796.825 507.931 796.069 512.837 796.069C517.744 796.069 517.744 794.558 522.65 794.558C527.557 794.558 527.557 795.482 532.463 795.482C537.37 795.482 537.37 792.375 542.276 792.375C547.183 792.375 547.183 794.138 552.089 794.138C556.996 794.138 556.996 792.291 561.902 792.291C566.809 792.291 566.809 793.719 571.715 793.719C576.622 793.719 576.622 792.711 581.528 792.711C586.435 792.711 586.435 790.193 591.341 790.193C596.248 790.193 596.248 792.291 601.154 792.291C606.061 792.291 606.061 792.04 610.967 792.04C615.874 792.04 615.874 790.193 620.78 790.193C625.687 790.193 625.687 792.543 630.593 792.543C635.5 792.543 635.5 790.193 640.407 790.193C645.313 790.193 645.313 788.933 650.22 788.933C655.126 788.933 655.126 787.758 660.033 787.758C664.939 787.758 664.939 778.188 669.846 778.188C674.752 778.188 674.752 775.921 679.659 775.921C684.565 775.921 684.565 775.669 689.472 775.669C694.378 775.669 694.378 773.654 699.285 773.654C704.191 773.654 704.191 780.454 709.098 780.454C714.004 780.454 714.004 780.286 718.911 780.286C723.817 780.286 723.817 784.484 728.724 784.484C733.63 784.484 733.63 778.272 738.537 778.272C743.443 778.272 743.443 772.059 748.35 772.059C753.256 772.059 753.256 767.946 758.163 767.946C763.069 767.946 763.069 763.412 767.976 763.412C772.882 763.412 772.882 766.77 777.789 766.77C782.695 766.77 782.695 766.77 787.602 766.77C792.508 766.77 792.508 760.474 797.415 760.474C802.321 760.474 802.321 770.212 807.228 770.212C812.134 770.212 812.134 770.296 817.041 770.296C821.947 770.296 821.947 779.195 826.854 779.195C831.76 779.195 831.76 777.516 836.667 777.516C841.573 777.516 841.573 777.6 846.48 777.6C851.386 777.6 851.386 778.44 856.293 778.44C861.199 778.44 861.199 773.906 866.106 773.906C871.012 773.906 871.012 776.509 875.919 776.509C880.825 776.509 880.825 772.731 885.732 772.731C890.638 772.731 890.638 771.556 895.545 771.556C900.451 771.556 900.451 769.877 905.358 769.877C910.264 769.877 910.264 768.953 915.171 768.953C920.077 768.953 920.077 771.724 924.984 771.724C929.89 771.724 929.89 768.701 934.797 768.701C939.703 768.701 939.703 763.664 944.61 763.664C949.516 763.664 949.516 752.331 954.423 752.331C959.329 752.331 959.329 670.815 964.236 670.815C969.142 670.815 969.142 709.936 974.049 709.936C978.955 709.936 978.955 671.151 983.862 671.151C988.768 671.151 988.768 625.398 993.675 625.398C998.581 625.398 998.581 530.618 1003.49 530.618C1008.39 530.618 1008.39 534.228 1013.3 534.228C1018.21 534.228 1018.21 497.542 1023.11 497.542C1028.02 497.542 1028.02 485.033 1032.93 485.033C1037.83 485.033 1037.83 424.757 1042.74 424.757C1047.65 424.757 1047.65 397.473 1052.55 397.473C1057.46 397.473 1057.46 416.53 1062.37 416.53C1067.27 416.53 1067.27 445.996 1072.18 445.996C1077.09 445.996 1077.09 397.977 1081.99 397.977C1086.9 397.977 1086.9 349.453 1091.8 349.453C1096.71 349.453 1096.71 376.066 1101.62 376.066C1106.52 376.066 1106.52 391.596 1111.43 391.596C1116.34 391.596 1116.34 321.33 1121.24 321.33C1126.15 321.33 1126.15 109.523 1131.06 109.523C1135.96 109.523 1135.96 136.807 1140.87 136.807C1145.78 136.807 1145.78 61 1150.68 61C1155.59 61 1155.59 209.34 1160.5 209.34C1165.4 209.34 1165.4 313.355 1170.31 313.355C1175.22 313.355 1175.22 364.816 1180.12 364.816C1185.03 364.816 1185.03 500.312 1189.93 500.312C1194.84 500.312 1194.84 259.626 1199.75 259.626C1204.65 259.626 1204.65 175.928 1209.56 175.928C1214.47 175.928 1214.47 493.596 1219.37 493.596C1224.28 493.596 1224.28 375.31 1229.19 375.31C1234.09 375.31 1234.09 682.652 1239 682.652V798C1234.09 798 1234.09 798 1229.19 798C1224.28 798 1224.28 798 1219.37 798C1214.47 798 1214.47 798 1209.56 798C1204.65 798 1204.65 798 1199.75 798C1194.84 798 1194.84 798 1189.93 798C1185.03 798 1185.03 798 1180.12 798C1175.22 798 1175.22 798 1170.31 798C1165.4 798 1165.4 798 1160.5 798C1155.59 798 1155.59 798 1150.68 798C1145.78 798 1145.78 798 1140.87 798C1135.96 798 1135.96 798 1131.06 798C1126.15 798 1126.15 798 1121.24 798C1116.34 798 1116.34 798 1111.43 798C1106.52 798 1106.52 798 1101.62 798C1096.71 798 1096.71 798 1091.8 798C1086.9 798 1086.9 798 1081.99 798C1077.09 798 1077.09 798 1072.18 798C1067.27 798 1067.27 798 1062.37 798C1057.46 798 1057.46 798 1052.55 798C1047.65 798 1047.65 798 1042.74 798C1037.83 798 1037.83 798 1032.93 798C1028.02 798 1028.02 798 1023.11 798C1018.21 798 1018.21 798 1013.3 798C1008.39 798 1008.39 798 1003.49 798C998.581 798 998.581 798 993.675 798C988.768 798 988.768 798 983.862 798C978.955 798 978.955 798 974.049 798C969.142 798 969.142 798 964.236 798C959.329 798 959.329 798 954.423 798C949.516 798 949.516 798 944.61 798C939.703 798 939.703 798 934.797 798C929.89 798 929.89 798 924.984 798C920.077 798 920.077 798 915.171 798C910.264 798 910.264 798 905.358 798C900.451 798 900.451 798 895.545 798C890.638 798 890.638 798 885.732 798C880.825 798 880.825 798 875.919 798C871.012 798 871.012 798 866.106 798C861.199 798 861.199 798 856.293 798C851.386 798 851.386 798 846.48 798C841.573 798 841.573 798 836.667 798C831.76 798 831.76 798 826.854 798C821.947 798 821.947 798 817.041 798C812.134 798 812.134 798 807.228 798C802.321 798 802.321 798 797.415 798C792.508 798 792.508 798 787.602 798C782.695 798 782.695 798 777.789 798C772.882 798 772.882 798 767.976 798C763.069 798 763.069 798 758.163 798C753.256 798 753.256 798 748.35 798C743.443 798 743.443 798 738.537 798C733.63 798 733.63 798 728.724 798C723.817 798 723.817 798 718.911 798C714.004 798 714.004 798 709.098 798C704.191 798 704.191 798 699.285 798C694.378 798 694.378 798 689.472 798C684.565 798 684.565 798 679.659 798C674.752 798 674.752 798 669.846 798C664.939 798 664.939 798 660.033 798C655.126 798 655.126 798 650.22 798C645.313 798 645.313 798 640.407 798C635.5 798 635.5 798 630.593 798C625.687 798 625.687 798 620.78 798C615.874 798 615.874 798 610.967 798C606.061 798 606.061 798 601.154 798C596.248 798 596.248 798 591.341 798C586.435 798 586.435 798 581.528 798C576.622 798 576.622 798 571.715 798C566.809 798 566.809 798 561.902 798C556.996 798 556.996 798 552.089 798C547.183 798 547.183 798 542.276 798C537.37 798 537.37 798 532.463 798C527.557 798 527.557 798 522.65 798C517.744 798 517.744 798 512.837 798C507.931 798 507.931 798 503.024 798C498.118 798 498.118 798 493.211 798C488.305 798 488.305 798 483.398 798C478.492 798 478.492 798 473.585 798C468.679 798 468.679 798 463.772 798C458.866 798 458.866 798 453.959 798C449.053 798 449.053 798 444.146 798C439.24 798 439.24 798 434.333 798C429.427 798 429.427 798 424.52 798C419.614 798 419.614 798 414.707 798C409.801 798 409.801 798 404.894 798C399.988 798 399.988 798 395.081 798C390.175 798 390.175 798 385.268 798C380.362 798 380.362 798 375.455 798C370.549 798 370.549 798 365.642 798C360.736 798 360.736 798 355.829 798C350.923 798 350.923 798 346.016 798C341.11 798 341.11 798 336.203 798C331.297 798 331.297 798 326.39 798C321.484 798 321.484 798 316.577 798C311.671 798 311.671 798 306.764 798C301.858 798 301.858 798 296.951 798C292.045 798 292.045 798 287.138 798C282.232 798 282.232 798 277.325 798C272.419 798 272.419 798 267.512 798C262.606 798 262.606 798 257.699 798C252.793 798 252.793 798 247.886 798C242.98 798 242.98 798 238.073 798C233.167 798 233.167 798 228.26 798C223.354 798 223.354 798 218.447 798C213.541 798 213.541 798 208.634 798C203.728 798 203.728 798 198.821 798C193.915 798 193.915 798 189.008 798C184.102 798 184.102 798 179.195 798C174.289 798 174.289 798 169.382 798C164.476 798 164.476 798 159.569 798C154.663 798 154.663 798 149.756 798C144.85 798 144.85 798 139.943 798C135.037 798 135.037 798 130.13 798C125.224 798 125.224 798 120.317 798C115.411 798 115.411 798 110.504 798C105.598 798 105.598 798 100.691 798C95.7846 798 95.7846 798 90.878 798C85.9715 798 85.9715 798 81.065 798C76.1585 798 76.1585 798 71.252 798C66.3455 798 66.3455 798 61.439 798C56.5325 798 56.5325 798 51.626 798C46.7195 798 46.7195 798 41.813 798Z" fill="#F1E7D0"/>
</svg>
