<svg width="300" height="400" viewBox="0 0 300 400" fill="none" xmlns="http://www.w3.org/2000/svg">
<rect width="300" height="400" fill="white"/>
<path d="M255 133C231.252 133 212 113.748 212 90C212 66.2518 231.252 47 255 47C278.748 47 298 66.2518 298 90C298 113.748 278.748 133 255 133Z" fill="#FBB03B"/>
<path d="M222.856 88.9642C212.501 95.2608 203.615 101.366 198.288 105.691C202.701 100.369 211.21 93.4672 221.712 87.0817C232.213 80.6962 242.256 76.3167 249.012 74.8483C242.721 77.587 233.212 82.6675 222.856 88.9642Z" fill="black"/>
<path d="M195.706 109.505C200.033 105.318 210.623 97.7973 223.475 89.9823C236.328 82.1672 247.878 76.2251 253.587 74.31C255.348 74.3525 256.577 74.8102 257.136 75.7295C259.634 79.8375 247.824 91.5803 230.757 101.958C213.691 112.335 197.831 117.418 195.333 113.31C194.774 112.391 194.933 111.088 195.706 109.505Z" fill="black"/>
<path d="M218.919 104.584C218.413 103.753 222.393 100.409 227.808 97.1162C233.223 93.8232 238.022 91.8277 238.528 92.6592C239.033 93.4906 235.054 96.8341 229.639 100.127C224.224 103.42 219.425 105.416 218.919 104.584Z" fill="white"/>
<path d="M209.165 94.7109C208.583 91.034 212.191 85.8201 218.115 82.2177C224.04 78.6153 230.329 77.8111 233.325 80.0198C224.685 83.9519 216.632 88.8489 209.165 94.7109Z" fill="black"/>
<path d="M223.223 93.5584C222.858 92.9586 223.428 91.9459 224.496 91.2964C225.564 90.647 226.725 90.6068 227.09 91.2066C227.455 91.8064 226.885 92.8191 225.817 93.4685C224.749 94.118 223.588 94.1582 223.223 93.5584Z" fill="white"/>
<path d="M202.185 108.511C201.976 108.167 202.716 107.336 203.838 106.653C204.961 105.971 206.04 105.696 206.249 106.039C206.458 106.383 205.717 107.215 204.595 107.897C203.473 108.58 202.393 108.854 202.185 108.511Z" fill="white"/>
<path d="M245.981 81.8776C245.772 81.534 246.512 80.7022 247.635 80.0197C248.757 79.3372 249.836 79.0624 250.045 79.406C250.254 79.7496 249.514 80.5814 248.391 81.2639C247.269 81.9464 246.19 82.2211 245.981 81.8776Z" fill="white"/>
<path d="M242.789 90.4729C242.679 90.2925 243.068 89.8557 243.657 89.4973C244.246 89.1389 244.813 88.9946 244.923 89.175C245.033 89.3554 244.644 89.7922 244.054 90.1506C243.465 90.509 242.898 90.6533 242.789 90.4729Z" fill="white"/>
<path d="M212.883 108.659C212.773 108.479 213.162 108.042 213.751 107.684C214.341 107.325 214.907 107.181 215.017 107.361C215.127 107.542 214.738 107.978 214.149 108.337C213.559 108.695 212.993 108.84 212.883 108.659Z" fill="white"/>
<path d="M227.5 321C231.642 321 235 317.642 235 313.5C235 309.358 231.642 306 227.5 306C223.358 306 220 309.358 220 313.5C220 317.642 223.358 321 227.5 321Z" fill="#FBB03B"/>
<path d="M188.211 315.25C181.726 315.434 175.975 315.918 172.351 316.518C175.814 315.212 181.601 314.258 188.178 314.071C194.755 313.884 200.587 314.509 204.118 315.617C200.466 315.223 194.697 315.066 188.211 315.25Z" fill="black"/>
<path d="M170.139 317.608C173.262 316.807 180.181 316.116 188.23 315.888C196.279 315.659 203.226 315.957 206.388 316.579C207.196 317.065 207.647 317.604 207.663 318.18C207.736 320.753 199.131 323.084 188.442 323.388C177.754 323.691 169.03 321.851 168.957 319.278C168.941 318.703 169.36 318.139 170.139 317.608Z" fill="black"/>
<path d="M188.407 322.237C185.016 322.333 182.254 321.989 182.239 321.468C182.225 320.947 184.962 320.447 188.354 320.351C191.745 320.255 194.506 320.599 194.521 321.12C194.536 321.64 191.799 322.14 188.407 322.237Z" fill="white"/>
<path d="M180.32 314.294C181.033 312.75 184.1 311.522 187.81 311.417C191.52 311.311 194.652 312.364 195.451 313.865C190.393 313.509 185.35 313.652 180.32 314.294Z" fill="black"/>
<path d="M188.394 318.127C187.726 318.146 187.175 317.856 187.164 317.481C187.153 317.105 187.687 316.785 188.356 316.766C189.025 316.747 189.576 317.036 189.586 317.412C189.597 317.788 189.063 318.108 188.394 318.127Z" fill="white"/>
<path d="M174.7 319.212C173.997 319.232 173.422 319.073 173.416 318.858C173.41 318.643 173.975 318.452 174.677 318.432C175.38 318.413 175.955 318.571 175.961 318.786C175.967 319.001 175.402 319.192 174.7 319.212Z" fill="white"/>
<path d="M202.129 318.434C201.426 318.454 200.851 318.296 200.845 318.081C200.839 317.866 201.404 317.675 202.107 317.655C202.81 317.635 203.384 317.794 203.39 318.009C203.397 318.224 202.832 318.415 202.129 318.434Z" fill="white"/>
<path d="M197.756 321.418C197.387 321.428 197.085 321.345 197.082 321.232C197.079 321.119 197.375 321.019 197.744 321.009C198.114 320.998 198.415 321.081 198.419 321.194C198.422 321.307 198.125 321.407 197.756 321.418Z" fill="white"/>
<path d="M179.026 321.949C178.657 321.959 178.355 321.876 178.352 321.763C178.349 321.65 178.646 321.55 179.015 321.539C179.384 321.529 179.686 321.612 179.689 321.725C179.692 321.838 179.395 321.938 179.026 321.949Z" fill="white"/>
<path d="M205.9 315.094C205.9 315.094 206.168 315.099 206.635 315.11C207.103 315.114 207.771 315.129 208.573 315.131C209.374 315.135 210.309 315.134 211.311 315.126C211.812 315.12 212.329 315.115 212.855 315.109C213.381 315.101 213.915 315.093 214.449 315.084C214.983 315.072 215.517 315.06 216.043 315.048C216.569 315.034 217.086 315.02 217.587 315.006C218.588 314.976 219.522 314.941 220.323 314.906C221.124 314.873 221.791 314.832 222.258 314.81C222.725 314.782 222.992 314.766 222.992 314.766C222.992 314.766 222.725 314.76 222.257 314.75C221.789 314.746 221.121 314.73 220.32 314.728C219.518 314.724 218.583 314.725 217.581 314.734C217.081 314.739 216.563 314.744 216.037 314.75C215.511 314.758 214.977 314.767 214.443 314.775C213.909 314.787 213.375 314.799 212.849 314.811C212.324 314.826 211.806 314.84 211.306 314.854C210.304 314.885 209.37 314.919 208.569 314.954C207.768 314.987 207.101 315.028 206.634 315.05C206.167 315.078 205.9 315.094 205.9 315.094Z" fill="black"/>
<path d="M184.829 325.402C184.829 325.402 185.27 325.44 186.041 325.506C186.812 325.566 187.913 325.664 189.236 325.759C190.558 325.852 192.101 325.975 193.755 326.082C195.409 326.19 197.173 326.305 198.937 326.42C200.702 326.521 202.467 326.622 204.122 326.717C205.777 326.813 207.323 326.878 208.647 326.947C209.971 327.014 211.076 327.051 211.849 327.086C212.622 327.114 213.064 327.13 213.064 327.13C213.064 327.13 212.623 327.092 211.853 327.026C211.081 326.966 209.98 326.868 208.658 326.773C207.335 326.68 205.793 326.556 204.139 326.449C202.485 326.342 200.72 326.227 198.956 326.112C197.191 326.011 195.426 325.91 193.771 325.815C192.116 325.72 190.571 325.654 189.246 325.586C187.922 325.519 186.817 325.481 186.044 325.446C185.271 325.418 184.829 325.402 184.829 325.402Z" fill="black"/>
<path d="M195.115 310.851C195.115 310.851 195.615 310.879 196.363 310.88C196.736 310.883 197.172 310.879 197.639 310.868C197.872 310.861 198.114 310.858 198.358 310.848C198.603 310.838 198.852 310.828 199.101 310.818C199.349 310.805 199.598 310.791 199.843 310.778C200.087 310.767 200.328 310.746 200.561 310.731C201.026 310.699 201.461 310.662 201.833 310.624C202.577 310.552 203.072 310.477 203.072 310.477C203.072 310.477 202.572 310.448 201.824 310.447C201.451 310.444 201.015 310.448 200.548 310.459C200.315 310.466 200.073 310.468 199.829 310.48C199.584 310.49 199.335 310.5 199.086 310.509C198.838 310.523 198.589 310.536 198.345 310.55C198.1 310.562 197.859 310.582 197.626 310.597C197.161 310.63 196.726 310.667 196.354 310.704C195.61 310.776 195.115 310.851 195.115 310.851Z" fill="black"/>
<path d="M198.059 312.294C198.059 312.294 198.559 312.322 199.306 312.324C199.68 312.326 200.116 312.322 200.583 312.312C200.816 312.305 201.058 312.302 201.302 312.291C201.547 312.281 201.796 312.272 202.045 312.262C202.293 312.248 202.542 312.235 202.786 312.222C203.031 312.21 203.272 312.19 203.505 312.175C203.97 312.142 204.405 312.105 204.777 312.068C205.521 311.996 206.016 311.921 206.016 311.921C206.016 311.921 205.516 311.892 204.768 311.89C204.394 311.888 203.958 311.892 203.492 311.903C203.258 311.91 203.017 311.912 202.772 311.923C202.528 311.933 202.279 311.943 202.03 311.953C201.782 311.967 201.533 311.98 201.288 311.993C201.044 312.005 200.803 312.025 200.57 312.04C200.105 312.073 199.67 312.11 199.298 312.148C198.554 312.219 198.059 312.294 198.059 312.294Z" fill="black"/>
<path d="M209.411 316.96C209.411 316.96 209.91 316.988 210.658 316.989C211.032 316.992 211.468 316.988 211.935 316.977C212.168 316.97 212.409 316.967 212.654 316.957C212.899 316.947 213.147 316.937 213.396 316.927C213.645 316.914 213.893 316.9 214.138 316.887C214.383 316.875 214.623 316.855 214.856 316.84C215.322 316.807 215.756 316.77 216.128 316.733C216.872 316.661 217.367 316.586 217.367 316.586C217.367 316.586 216.868 316.557 216.12 316.556C215.746 316.553 215.31 316.557 214.843 316.568C214.61 316.575 214.369 316.577 214.124 316.589C213.879 316.599 213.63 316.608 213.382 316.618C213.133 316.632 212.885 316.645 212.64 316.659C212.395 316.671 212.155 316.691 211.922 316.706C211.456 316.739 211.022 316.775 210.65 316.813C209.905 316.885 209.411 316.96 209.411 316.96Z" fill="black"/>
<path d="M186.013 327.34C186.013 327.34 186.505 327.434 187.245 327.535C187.616 327.588 188.048 327.642 188.512 327.693C188.744 327.717 188.984 327.747 189.228 327.768C189.472 327.791 189.72 327.815 189.967 327.838C190.216 327.858 190.464 327.877 190.708 327.897C190.952 327.918 191.193 327.93 191.426 327.946C191.892 327.976 192.327 327.997 192.701 328.009C193.448 328.037 193.949 328.028 193.949 328.028C193.949 328.028 193.457 327.933 192.716 327.832C192.346 327.78 191.914 327.726 191.45 327.675C191.217 327.651 190.978 327.621 190.734 327.6C190.49 327.577 190.242 327.553 189.994 327.53C189.746 327.51 189.498 327.491 189.254 327.471C189.009 327.451 188.768 327.439 188.536 327.422C188.07 327.393 187.634 327.372 187.261 327.359C186.513 327.331 186.013 327.34 186.013 327.34Z" fill="black"/>
<path d="M205.585 324.628C205.585 324.628 205.798 324.641 206.171 324.655C206.544 324.666 207.077 324.691 207.716 324.705C208.356 324.722 209.102 324.735 209.901 324.741C210.301 324.744 210.714 324.746 211.133 324.748C211.553 324.748 211.979 324.747 212.405 324.747C212.832 324.743 213.258 324.739 213.677 324.735C214.097 324.733 214.51 324.721 214.91 324.715C215.709 324.7 216.454 324.68 217.094 324.657C217.733 324.636 218.266 324.605 218.639 324.59C219.011 324.572 219.225 324.557 219.225 324.557C219.225 324.557 219.011 324.544 218.638 324.53C218.265 324.518 217.732 324.493 217.093 324.479C216.453 324.463 215.707 324.45 214.908 324.443C214.508 324.441 214.096 324.434 213.676 324.437C213.256 324.437 212.83 324.438 212.404 324.438C211.978 324.442 211.551 324.446 211.132 324.45C210.712 324.457 210.299 324.463 209.9 324.47C209.101 324.485 208.355 324.505 207.716 324.529C207.076 324.55 206.544 324.58 206.171 324.595C205.798 324.614 205.585 324.628 205.585 324.628Z" fill="black"/>
<path d="M124 381C130.627 381 136 375.627 136 369C136 362.373 130.627 357 124 357C117.373 357 112 362.373 112 369C112 375.627 117.373 381 124 381Z" fill="#FBB03B"/>
<path d="M126.193 322.802C133.514 323.211 139.996 323.936 144.071 324.726C140.2 323.143 133.692 321.886 126.268 321.472C118.844 321.057 112.236 321.583 108.212 322.725C112.35 322.393 118.873 322.394 126.193 322.802Z" fill="black"/>
<path d="M146.537 326.025C143.034 325.024 135.239 324.029 126.153 323.522C117.067 323.015 109.21 323.136 105.618 323.742C104.69 324.266 104.165 324.861 104.128 325.511C103.966 328.415 113.616 331.315 125.681 331.988C137.746 332.661 147.658 330.853 147.82 327.949C147.856 327.299 147.4 326.649 146.537 326.025Z" fill="black"/>
<path d="M132.742 330.01C132.775 329.423 129.698 328.773 125.87 328.56C122.042 328.346 118.912 328.649 118.879 329.237C118.846 329.825 121.923 330.475 125.751 330.688C129.579 330.902 132.709 330.598 132.742 330.01Z" fill="white"/>
<path d="M135.137 321.966C134.414 319.597 131.012 317.662 126.824 317.428C122.636 317.194 119.041 318.739 118.057 321.013C123.793 320.57 129.487 320.887 135.137 321.966Z" fill="black"/>
<path d="M127.302 325.354C127.326 324.93 126.733 324.552 125.978 324.51C125.223 324.468 124.592 324.778 124.568 325.202C124.545 325.626 125.138 326.004 125.893 326.046C126.648 326.088 127.279 325.778 127.302 325.354Z" fill="white"/>
<path d="M142.79 327.336C142.803 327.093 142.171 326.861 141.378 326.816C140.584 326.772 139.93 326.933 139.917 327.176C139.903 327.419 140.535 327.652 141.329 327.696C142.122 327.74 142.776 327.579 142.79 327.336Z" fill="white"/>
<path d="M111.83 325.608C111.843 325.365 111.211 325.133 110.418 325.088C109.624 325.044 108.97 325.205 108.957 325.448C108.943 325.691 109.575 325.924 110.369 325.968C111.162 326.012 111.816 325.851 111.83 325.608Z" fill="white"/>
<path d="M115.983 329.285C115.99 329.157 115.658 329.035 115.241 329.012C114.825 328.989 114.481 329.073 114.474 329.201C114.467 329.328 114.799 329.45 115.216 329.474C115.632 329.497 115.976 329.412 115.983 329.285Z" fill="white"/>
<path d="M137.124 330.465C137.131 330.337 136.799 330.215 136.382 330.192C135.966 330.168 135.622 330.253 135.615 330.381C135.608 330.508 135.94 330.63 136.356 330.654C136.773 330.677 137.117 330.592 137.124 330.465Z" fill="white"/>
<path d="M117.317 333.332C117.317 333.332 116.968 334.425 116.371 336.033C116.075 336.838 115.718 337.773 115.324 338.769C115.124 339.266 114.926 339.783 114.71 340.302C114.496 340.822 114.278 341.35 114.061 341.879C113.837 342.404 113.613 342.93 113.393 343.447C113.175 343.966 112.945 344.469 112.731 344.961C112.298 345.94 111.882 346.85 111.515 347.626C110.788 349.179 110.253 350.194 110.253 350.194C110.253 350.194 110.602 349.101 111.199 347.493C111.494 346.688 111.851 345.753 112.246 344.757C112.445 344.26 112.643 343.743 112.86 343.224C113.074 342.704 113.292 342.176 113.51 341.648C113.733 341.122 113.957 340.597 114.178 340.079C114.396 339.561 114.626 339.057 114.84 338.566C115.273 337.586 115.689 336.676 116.056 335.901C116.783 334.347 117.317 333.332 117.317 333.332Z" fill="black"/>
<path d="M126.239 335.366C126.239 335.366 126.246 335.839 126.242 336.667C126.233 337.494 126.237 338.677 126.21 340.096C126.189 341.514 126.151 343.168 126.097 344.94C126.068 345.826 126.038 346.741 126.007 347.671C125.971 348.601 125.935 349.546 125.898 350.49C125.855 351.435 125.811 352.379 125.769 353.309C125.721 354.238 125.673 355.153 125.628 356.038C125.532 357.808 125.43 359.459 125.331 360.874C125.238 362.29 125.133 363.468 125.073 364.293C125.006 365.118 124.96 365.589 124.96 365.589C124.96 365.589 124.953 365.116 124.956 364.288C124.966 363.461 124.961 362.278 124.988 360.86C125.01 359.441 125.047 357.787 125.102 356.015C125.131 355.13 125.161 354.214 125.192 353.284C125.228 352.354 125.264 351.41 125.301 350.465C125.344 349.521 125.388 348.576 125.431 347.647C125.479 346.717 125.526 345.803 125.572 344.918C125.668 343.148 125.77 341.496 125.869 340.081C125.962 338.666 126.066 337.487 126.127 336.662C126.193 335.837 126.239 335.366 126.239 335.366Z" fill="black"/>
<path d="M134.659 334.74C134.659 334.74 134.897 335.403 135.176 336.413C135.319 336.918 135.473 337.509 135.625 338.145C135.698 338.463 135.782 338.79 135.852 339.126C135.925 339.462 135.998 339.802 136.071 340.143C136.138 340.485 136.205 340.827 136.27 341.164C136.339 341.5 136.389 341.835 136.448 342.156C136.558 342.801 136.649 343.405 136.716 343.924C136.857 344.963 136.898 345.666 136.898 345.666C136.898 345.666 136.66 345.003 136.38 343.993C136.237 343.489 136.083 342.898 135.932 342.262C135.859 341.943 135.774 341.616 135.705 341.28C135.632 340.945 135.559 340.604 135.486 340.263C135.419 339.921 135.353 339.579 135.287 339.242C135.22 338.906 135.168 338.572 135.11 338.25C135 337.606 134.909 337.002 134.841 336.482C134.701 335.443 134.659 334.74 134.659 334.74Z" fill="black"/>
<path d="M120.373 341.451C120.373 341.451 120.234 342.358 119.948 343.697C119.809 344.367 119.633 345.146 119.432 345.977C119.329 346.392 119.231 346.823 119.116 347.256C119.003 347.691 118.889 348.132 118.774 348.573C118.653 349.013 118.532 349.452 118.412 349.885C118.296 350.318 118.165 350.74 118.047 351.151C117.805 351.971 117.568 352.733 117.354 353.384C116.931 354.686 116.598 355.541 116.598 355.541C116.598 355.541 116.737 354.634 117.022 353.295C117.162 352.624 117.337 351.845 117.538 351.014C117.641 350.6 117.739 350.169 117.855 349.735C117.968 349.301 118.082 348.86 118.197 348.419C118.318 347.979 118.44 347.54 118.559 347.107C118.676 346.674 118.807 346.252 118.925 345.841C119.167 345.021 119.404 344.259 119.618 343.608C120.041 342.306 120.373 341.451 120.373 341.451Z" fill="black"/>
<path d="M130.729 338.33C130.729 338.33 130.916 339.497 131.117 341.252C131.221 342.13 131.329 343.155 131.432 344.254C131.481 344.803 131.54 345.371 131.584 345.948C131.63 346.526 131.677 347.113 131.724 347.699C131.765 348.286 131.805 348.874 131.845 349.452C131.887 350.03 131.912 350.599 131.945 351.15C132.006 352.252 132.051 353.282 132.077 354.165C132.137 355.931 132.124 357.113 132.124 357.113C132.124 357.113 131.937 355.946 131.735 354.191C131.631 353.313 131.523 352.288 131.42 351.189C131.372 350.64 131.312 350.072 131.269 349.495C131.222 348.917 131.176 348.33 131.129 347.744C131.088 347.156 131.048 346.569 131.009 345.991C130.967 345.413 130.942 344.843 130.908 344.293C130.848 343.19 130.803 342.161 130.776 341.278C130.716 339.511 130.729 338.33 130.729 338.33Z" fill="black"/>
<path d="M4 370H296" stroke="black"/>
<path d="M4 369V373" stroke="black"/>
<path d="M28 369V373" stroke="black"/>
<path d="M51 369V373" stroke="black"/>
<path d="M75 369V373" stroke="black"/>
<path d="M99 369V373" stroke="black"/>
<path d="M123 369V373" stroke="black"/>
<path d="M147 369V373" stroke="black"/>
<path d="M170 369V373" stroke="black"/>
<path d="M194 369V373" stroke="black"/>
<path d="M218 369V373" stroke="black"/>
<path d="M242 369V373" stroke="black"/>
<path d="M266 369V373" stroke="black"/>
<path d="M289 369V373" stroke="black"/>
<path d="M6.37398 369C7.56098 369 7.56098 369 8.74797 369C9.93496 369 9.93496 369 11.122 369C12.3089 369 12.3089 369 13.4959 369C14.6829 369 14.6829 368.929 15.8699 368.929C17.0569 368.929 17.0569 368.964 18.2439 368.964C19.4309 368.964 19.4309 368.964 20.6179 368.964C21.8049 368.964 21.8049 369 22.9919 369C24.1789 369 24.1789 369 25.3659 369C26.5528 369 26.5528 368.893 27.7398 368.893C28.9268 368.893 28.9268 369 30.1138 369C31.3008 369 31.3008 369 32.4878 369C33.6748 369 33.6748 369 34.8618 369C36.0488 369 36.0488 368.929 37.2358 368.929C38.4228 368.929 38.4228 369 39.6098 369C40.7967 369 40.7967 368.964 41.9837 368.964C43.1707 368.964 43.1707 368.929 44.3577 368.929C45.5447 368.929 45.5447 368.964 46.7317 368.964C47.9187 368.964 47.9187 369 49.1057 369C50.2927 369 50.2927 368.893 51.4797 368.893C52.6667 368.893 52.6667 369 53.8537 369C55.0406 369 55.0407 368.964 56.2276 368.964C57.4146 368.964 57.4146 369 58.6016 369C59.7886 369 59.7886 369 60.9756 369C62.1626 369 62.1626 368.964 63.3496 368.964C64.5366 368.964 64.5366 369 65.7236 369C66.9106 369 66.9106 369 68.0976 369C69.2846 369 69.2846 368.964 70.4715 368.964C71.6585 368.964 71.6585 368.929 72.8455 368.929C74.0325 368.929 74.0325 368.822 75.2195 368.822C76.4065 368.822 76.4065 368.929 77.5935 368.929C78.7805 368.929 78.7805 368.929 79.9675 368.929C81.1545 368.929 81.1545 368.964 82.3415 368.964C83.5285 368.964 83.5285 368.964 84.7154 368.964C85.9024 368.964 85.9024 368.964 87.0894 368.964C88.2764 368.964 88.2764 368.893 89.4634 368.893C90.6504 368.893 90.6504 368.893 91.8374 368.893C93.0244 368.893 93.0244 368.964 94.2114 368.964C95.3984 368.964 95.3984 368.893 96.5854 368.893C97.7724 368.893 97.7724 368.929 98.9593 368.929C100.146 368.929 100.146 368.857 101.333 368.857C102.52 368.857 102.52 368.75 103.707 368.75C104.894 368.75 104.894 368.643 106.081 368.643C107.268 368.643 107.268 368.501 108.455 368.501C109.642 368.501 109.642 368.465 110.829 368.465C112.016 368.465 112.016 368.537 113.203 368.537C114.39 368.537 114.39 367.182 115.577 367.182C116.764 367.182 116.764 368.501 117.951 368.501C119.138 368.501 119.138 368.18 120.325 368.18C121.512 368.18 121.512 367.538 122.699 367.538C123.886 367.538 123.886 367.93 125.073 367.93C126.26 367.93 126.26 366.611 127.447 366.611C128.634 366.611 128.634 367.36 129.821 367.36C131.008 367.36 131.008 366.576 132.195 366.576C133.382 366.576 133.382 367.182 134.569 367.182C135.756 367.182 135.756 366.754 136.943 366.754C138.13 366.754 138.13 365.684 139.317 365.684C140.504 365.684 140.504 366.576 141.691 366.576C142.878 366.576 142.878 366.469 144.065 366.469C145.252 366.469 145.252 365.684 146.439 365.684C147.626 365.684 147.626 366.683 148.813 366.683C150 366.683 150 365.684 151.187 365.684C152.374 365.684 152.374 365.149 153.561 365.149C154.748 365.149 154.748 364.65 155.935 364.65C157.122 364.65 157.122 360.586 158.309 360.586C159.496 360.586 159.496 359.623 160.683 359.623C161.87 359.623 161.87 359.516 163.057 359.516C164.244 359.516 164.244 358.661 165.431 358.661C166.618 358.661 166.618 361.548 167.805 361.548C168.992 361.548 168.992 361.477 170.179 361.477C171.366 361.477 171.366 363.26 172.553 363.26C173.74 363.26 173.74 360.622 174.927 360.622C176.114 360.622 176.114 357.983 177.301 357.983C178.488 357.983 178.488 356.236 179.675 356.236C180.862 356.236 180.862 354.311 182.049 354.311C183.236 354.311 183.236 355.737 184.423 355.737C185.61 355.737 185.61 355.737 186.797 355.737C187.984 355.737 187.984 353.063 189.171 353.063C190.358 353.063 190.358 357.199 191.545 357.199C192.732 357.199 192.732 357.234 193.919 357.234C195.106 357.234 195.106 361.014 196.293 361.014C197.48 361.014 197.48 360.301 198.667 360.301C199.854 360.301 199.854 360.336 201.041 360.336C202.228 360.336 202.228 360.693 203.415 360.693C204.602 360.693 204.602 358.768 205.789 358.768C206.976 358.768 206.976 359.873 208.163 359.873C209.35 359.873 209.35 358.268 210.537 358.268C211.724 358.268 211.724 357.769 212.911 357.769C214.098 357.769 214.098 357.056 215.285 357.056C216.472 357.056 216.472 356.664 217.659 356.664C218.846 356.664 218.846 357.841 220.033 357.841C221.22 357.841 221.22 356.557 222.407 356.557C223.594 356.557 223.593 354.418 224.78 354.418C225.967 354.418 225.967 349.605 227.154 349.605C228.341 349.605 228.341 314.985 229.528 314.985C230.715 314.985 230.715 331.6 231.902 331.6C233.089 331.6 233.089 315.128 234.276 315.128C235.463 315.128 235.463 295.697 236.65 295.697C237.837 295.697 237.837 255.444 239.024 255.444C240.211 255.444 240.211 256.977 241.398 256.977C242.585 256.977 242.585 241.397 243.772 241.397C244.959 241.397 244.959 236.085 246.146 236.085C247.333 236.085 247.333 210.486 248.52 210.486C249.707 210.486 249.707 198.898 250.894 198.898C252.081 198.898 252.081 206.992 253.268 206.992C254.455 206.992 254.455 219.506 255.642 219.506C256.829 219.506 256.829 199.112 258.016 199.112C259.203 199.112 259.203 178.505 260.39 178.505C261.577 178.505 261.577 189.807 262.764 189.807C263.951 189.807 263.951 196.403 265.138 196.403C266.325 196.403 266.325 166.561 267.512 166.561C268.699 166.561 268.699 76.6076 269.886 76.6076C271.073 76.6076 271.073 88.1949 272.26 88.1949C273.447 88.1949 273.447 56 274.634 56C275.821 56 275.821 118.999 277.008 118.999C278.195 118.999 278.195 163.174 279.382 163.174C280.569 163.174 280.569 185.029 281.756 185.029C282.943 185.029 282.943 242.574 284.13 242.574C285.317 242.574 285.317 140.356 286.504 140.356C287.691 140.356 287.691 104.809 288.878 104.809C290.065 104.809 290.065 239.721 291.252 239.721C292.439 239.721 292.439 189.486 293.626 189.486C294.813 189.486 294.813 320.012 296 320.012V369C294.813 369 294.813 369 293.626 369C292.439 369 292.439 369 291.252 369C290.065 369 290.065 369 288.878 369C287.691 369 287.691 369 286.504 369C285.317 369 285.317 369 284.13 369C282.943 369 282.943 369 281.756 369C280.569 369 280.569 369 279.382 369C278.195 369 278.195 369 277.008 369C275.821 369 275.821 369 274.634 369C273.447 369 273.447 369 272.26 369C271.073 369 271.073 369 269.886 369C268.699 369 268.699 369 267.512 369C266.325 369 266.325 369 265.138 369C263.951 369 263.951 369 262.764 369C261.577 369 261.577 369 260.39 369C259.203 369 259.203 369 258.016 369C256.829 369 256.829 369 255.642 369C254.455 369 254.455 369 253.268 369C252.081 369 252.081 369 250.894 369C249.707 369 249.707 369 248.52 369C247.333 369 247.333 369 246.146 369C244.959 369 244.959 369 243.772 369C242.585 369 242.585 369 241.398 369C240.211 369 240.211 369 239.024 369C237.837 369 237.837 369 236.65 369C235.463 369 235.463 369 234.276 369C233.089 369 233.089 369 231.902 369C230.715 369 230.715 369 229.528 369C228.341 369 228.341 369 227.154 369C225.967 369 225.967 369 224.78 369C223.593 369 223.594 369 222.407 369C221.22 369 221.22 369 220.033 369C218.846 369 218.846 369 217.659 369C216.472 369 216.472 369 215.285 369C214.098 369 214.098 369 212.911 369C211.724 369 211.724 369 210.537 369C209.35 369 209.35 369 208.163 369C206.976 369 206.976 369 205.789 369C204.602 369 204.602 369 203.415 369C202.228 369 202.228 369 201.041 369C199.854 369 199.854 369 198.667 369C197.48 369 197.48 369 196.293 369C195.106 369 195.106 369 193.919 369C192.732 369 192.732 369 191.545 369C190.358 369 190.358 369 189.171 369C187.984 369 187.984 369 186.797 369C185.61 369 185.61 369 184.423 369C183.236 369 183.236 369 182.049 369C180.862 369 180.862 369 179.675 369C178.488 369 178.488 369 177.301 369C176.114 369 176.114 369 174.927 369C173.74 369 173.74 369 172.553 369C171.366 369 171.366 369 170.179 369C168.992 369 168.992 369 167.805 369C166.618 369 166.618 369 165.431 369C164.244 369 164.244 369 163.057 369C161.87 369 161.87 369 160.683 369C159.496 369 159.496 369 158.309 369C157.122 369 157.122 369 155.935 369C154.748 369 154.748 369 153.561 369C152.374 369 152.374 369 151.187 369C150 369 150 369 148.813 369C147.626 369 147.626 369 146.439 369C145.252 369 145.252 369 144.065 369C142.878 369 142.878 369 141.691 369C140.504 369 140.504 369 139.317 369C138.13 369 138.13 369 136.943 369C135.756 369 135.756 369 134.569 369C133.382 369 133.382 369 132.195 369C131.008 369 131.008 369 129.821 369C128.634 369 128.634 369 127.447 369C126.26 369 126.26 369 125.073 369C123.886 369 123.886 369 122.699 369C121.512 369 121.512 369 120.325 369C119.138 369 119.138 369 117.951 369C116.764 369 116.764 369 115.577 369C114.39 369 114.39 369 113.203 369C112.016 369 112.016 369 110.829 369C109.642 369 109.642 369 108.455 369C107.268 369 107.268 369 106.081 369C104.894 369 104.894 369 103.707 369C102.52 369 102.52 369 101.333 369C100.146 369 100.146 369 98.9593 369C97.7724 369 97.7724 369 96.5854 369C95.3984 369 95.3984 369 94.2114 369C93.0244 369 93.0244 369 91.8374 369C90.6504 369 90.6504 369 89.4634 369C88.2764 369 88.2764 369 87.0894 369C85.9024 369 85.9024 369 84.7154 369C83.5285 369 83.5285 369 82.3415 369C81.1545 369 81.1545 369 79.9675 369C78.7805 369 78.7805 369 77.5935 369C76.4065 369 76.4065 369 75.2195 369C74.0325 369 74.0325 369 72.8455 369C71.6585 369 71.6585 369 70.4715 369C69.2846 369 69.2846 369 68.0976 369C66.9106 369 66.9106 369 65.7236 369C64.5366 369 64.5366 369 63.3496 369C62.1626 369 62.1626 369 60.9756 369C59.7886 369 59.7886 369 58.6016 369C57.4146 369 57.4146 369 56.2276 369C55.0407 369 55.0406 369 53.8537 369C52.6667 369 52.6667 369 51.4797 369C50.2927 369 50.2927 369 49.1057 369C47.9187 369 47.9187 369 46.7317 369C45.5447 369 45.5447 369 44.3577 369C43.1707 369 43.1707 369 41.9837 369C40.7967 369 40.7967 369 39.6098 369C38.4228 369 38.4228 369 37.2358 369C36.0488 369 36.0488 369 34.8618 369C33.6748 369 33.6748 369 32.4878 369C31.3008 369 31.3008 369 30.1138 369C28.9268 369 28.9268 369 27.7398 369C26.5528 369 26.5528 369 25.3659 369C24.1789 369 24.1789 369 22.9919 369C21.8049 369 21.8049 369 20.6179 369C19.4309 369 19.4309 369 18.2439 369C17.0569 369 17.0569 369 15.8699 369C14.6829 369 14.6829 369 13.4959 369C12.3089 369 12.3089 369 11.122 369C9.93496 369 9.93496 369 8.74797 369C7.56098 369 7.56098 369 6.37398 369Z" fill="#F1E7D0"/>
</svg>
