<svg width="555" height="740" viewBox="0 0 555 740" fill="none" xmlns="http://www.w3.org/2000/svg">
<rect width="555" height="739.815" fill="white"/>
<path d="M465.331 300.333C419.399 300.333 382.164 263.098 382.164 217.167C382.164 171.235 419.399 134 465.331 134C511.262 134 548.497 171.235 548.497 217.167C548.497 263.098 511.262 300.333 465.331 300.333Z" fill="#FBB03B"/>
<path d="M402.603 214.749C382.677 226.865 365.577 238.614 355.328 246.936C363.818 236.694 380.193 223.414 400.4 211.127C420.607 198.839 439.933 190.412 452.933 187.587C440.827 192.857 422.528 202.633 402.603 214.749Z" fill="black"/>
<path d="M350.358 254.275C358.684 246.218 379.063 231.746 403.793 216.708C428.524 201.67 450.75 190.236 461.734 186.551C465.123 186.633 467.489 187.513 468.565 189.282C473.372 197.187 450.646 219.783 417.806 239.752C384.965 259.721 354.447 269.501 349.64 261.596C348.564 259.827 348.871 257.321 350.358 254.275Z" fill="black"/>
<path d="M395.026 244.806C394.053 243.206 401.711 236.772 412.13 230.435C422.549 224.099 431.785 220.259 432.758 221.859C433.731 223.459 426.073 229.893 415.653 236.229C405.234 242.566 395.999 246.405 395.026 244.806Z" fill="white"/>
<path d="M376.257 225.807C375.137 218.732 382.079 208.699 393.479 201.767C404.879 194.835 416.981 193.288 422.747 197.538C406.121 205.104 390.624 214.527 376.257 225.807Z" fill="black"/>
<path d="M403.307 223.589C402.606 222.435 403.702 220.487 405.757 219.237C407.812 217.987 410.047 217.91 410.749 219.064C411.451 220.218 410.354 222.167 408.299 223.417C406.244 224.666 404.009 224.744 403.307 223.589Z" fill="white"/>
<path d="M362.825 252.362C362.423 251.701 363.847 250.1 366.007 248.787C368.166 247.473 370.243 246.945 370.645 247.606C371.047 248.267 369.622 249.867 367.463 251.181C365.303 252.494 363.227 253.023 362.825 252.362Z" fill="white"/>
<path d="M447.1 201.113C446.698 200.452 448.122 198.851 450.282 197.538C452.441 196.224 454.518 195.696 454.92 196.357C455.322 197.018 453.897 198.619 451.738 199.932C449.578 201.245 447.502 201.774 447.1 201.113Z" fill="white"/>
<path d="M440.957 217.652C440.746 217.305 441.494 216.465 442.628 215.775C443.762 215.085 444.853 214.808 445.064 215.155C445.275 215.502 444.527 216.342 443.393 217.032C442.259 217.722 441.168 217.999 440.957 217.652Z" fill="white"/>
<path d="M383.411 252.647C383.2 252.3 383.948 251.459 385.082 250.77C386.216 250.08 387.307 249.802 387.518 250.149C387.729 250.497 386.981 251.337 385.847 252.027C384.712 252.716 383.622 252.994 383.411 252.647Z" fill="white"/>
<path d="M421.5 609C427.299 609 432 604.299 432 598.5C432 592.701 427.299 588 421.5 588C415.701 588 411 592.701 411 598.5C411 604.299 415.701 609 421.5 609Z" fill="#FBB03B"/>
<path d="M367.663 600.844C358.746 601.097 350.837 601.763 345.855 602.588C350.616 600.793 358.574 599.48 367.617 599.223C376.661 598.967 384.68 599.826 389.536 601.349C384.514 600.808 376.581 600.591 367.663 600.844Z" fill="black"/>
<path d="M342.813 604.086C347.107 602.985 356.621 602.035 367.688 601.721C378.756 601.407 388.309 601.816 392.658 602.672C393.768 603.341 394.388 604.082 394.411 604.873C394.511 608.411 382.678 611.617 367.981 612.034C353.284 612.451 341.288 609.921 341.188 606.384C341.165 605.592 341.742 604.817 342.813 604.086Z" fill="black"/>
<path d="M367.932 610.451C363.269 610.584 359.472 610.11 359.452 609.394C359.431 608.678 363.195 607.99 367.859 607.858C372.522 607.726 376.319 608.199 376.339 608.915C376.36 609.631 372.596 610.319 367.932 610.451Z" fill="white"/>
<path d="M356.813 599.53C357.793 597.407 362.01 595.718 367.112 595.573C372.214 595.428 376.519 596.876 377.619 598.939C370.664 598.45 363.729 598.647 356.813 599.53Z" fill="black"/>
<path d="M367.915 604.8C366.995 604.826 366.238 604.428 366.223 603.912C366.209 603.395 366.942 602.955 367.862 602.929C368.782 602.903 369.539 603.301 369.554 603.817C369.569 604.334 368.835 604.774 367.915 604.8Z" fill="white"/>
<path d="M349.084 606.292C348.117 606.319 347.327 606.102 347.319 605.806C347.31 605.51 348.087 605.248 349.054 605.22C350.02 605.193 350.811 605.411 350.819 605.707C350.827 606.002 350.051 606.265 349.084 606.292Z" fill="white"/>
<path d="M386.801 605.223C385.834 605.25 385.044 605.033 385.035 604.737C385.027 604.441 385.804 604.179 386.77 604.152C387.737 604.124 388.527 604.342 388.535 604.638C388.544 604.934 387.767 605.196 386.801 605.223Z" fill="white"/>
<path d="M380.788 609.326C380.28 609.34 379.865 609.226 379.861 609.07C379.856 608.915 380.264 608.777 380.772 608.763C381.279 608.748 381.694 608.863 381.699 609.018C381.703 609.174 381.295 609.311 380.788 609.326Z" fill="white"/>
<path d="M355.033 610.055C354.526 610.07 354.111 609.956 354.106 609.8C354.102 609.645 354.51 609.507 355.018 609.493C355.525 609.478 355.94 609.593 355.944 609.748C355.949 609.903 355.541 610.041 355.033 610.055Z" fill="white"/>
<path d="M391.986 600.629C391.986 600.629 392.354 600.637 392.997 600.651C393.64 600.657 394.559 600.678 395.661 600.68C396.763 600.687 398.049 600.685 399.426 600.673C400.115 600.666 400.827 600.659 401.55 600.651C402.273 600.64 403.007 600.628 403.742 600.616C404.476 600.6 405.21 600.583 405.933 600.567C406.656 600.547 407.367 600.528 408.056 600.508C409.433 600.467 410.717 600.42 411.819 600.371C412.92 600.326 413.837 600.27 414.479 600.239C415.121 600.201 415.488 600.179 415.488 600.179C415.488 600.179 415.121 600.171 414.478 600.157C413.835 600.151 412.916 600.13 411.814 600.127C410.712 600.121 409.426 600.123 408.049 600.134C407.36 600.142 406.648 600.149 405.925 600.157C405.202 600.168 404.468 600.18 403.733 600.192C402.999 600.208 402.265 600.225 401.542 600.241C400.819 600.261 400.107 600.281 399.419 600.3C398.042 600.342 396.757 600.389 395.656 600.438C394.555 600.483 393.638 600.538 392.996 600.569C392.353 600.607 391.986 600.629 391.986 600.629Z" fill="black"/>
<path d="M363.013 614.804C363.013 614.804 363.619 614.856 364.679 614.947C365.739 615.029 367.253 615.163 369.072 615.294C370.891 615.423 373.012 615.592 375.286 615.739C377.56 615.888 379.986 616.046 382.412 616.204C384.839 616.343 387.266 616.482 389.542 616.612C391.817 616.744 393.942 616.834 395.763 616.928C397.584 617.021 399.104 617.071 400.166 617.119C401.229 617.158 401.837 617.18 401.837 617.18C401.837 617.18 401.231 617.128 400.171 617.037C399.111 616.955 397.597 616.82 395.778 616.689C393.959 616.561 391.838 616.39 389.564 616.244C387.29 616.096 384.864 615.938 382.438 615.78C380.011 615.641 377.584 615.502 375.308 615.372C373.033 615.241 370.907 615.15 369.086 615.056C367.265 614.964 365.746 614.913 364.684 614.865C363.621 614.826 363.013 614.804 363.013 614.804Z" fill="black"/>
<path d="M377.157 594.795C377.157 594.795 377.844 594.834 378.872 594.836C379.386 594.839 379.985 594.834 380.627 594.819C380.948 594.809 381.28 594.806 381.616 594.791C381.953 594.777 382.295 594.764 382.637 594.75C382.979 594.732 383.32 594.713 383.657 594.695C383.993 594.679 384.324 594.651 384.644 594.631C385.285 594.586 385.882 594.535 386.393 594.483C387.417 594.385 388.097 594.281 388.097 594.281C388.097 594.281 387.41 594.242 386.382 594.24C385.868 594.236 385.269 594.242 384.627 594.257C384.306 594.267 383.974 594.269 383.638 594.285C383.301 594.299 382.959 594.312 382.617 594.326C382.275 594.344 381.933 594.363 381.597 594.381C381.26 594.398 380.93 594.425 380.609 594.446C379.969 594.491 379.372 594.542 378.86 594.593C377.837 594.692 377.157 594.795 377.157 594.795Z" fill="black"/>
<path d="M381.204 596.78C381.204 596.78 381.892 596.819 382.92 596.821C383.434 596.824 384.033 596.819 384.675 596.804C384.996 596.794 385.327 596.791 385.664 596.776C386.001 596.762 386.343 596.749 386.685 596.735C387.026 596.717 387.368 596.698 387.705 596.68C388.041 596.664 388.372 596.636 388.692 596.616C389.333 596.571 389.93 596.52 390.441 596.468C391.465 596.37 392.145 596.266 392.145 596.266C392.145 596.266 391.458 596.227 390.43 596.225C389.916 596.221 389.316 596.226 388.675 596.242C388.354 596.251 388.022 596.254 387.685 596.27C387.349 596.284 387.007 596.297 386.665 596.311C386.323 596.329 385.981 596.348 385.645 596.366C385.308 596.383 384.978 596.41 384.657 596.431C384.017 596.476 383.42 596.527 382.908 596.578C381.885 596.677 381.204 596.78 381.204 596.78Z" fill="black"/>
<path d="M396.814 603.195C396.814 603.195 397.501 603.234 398.529 603.236C399.043 603.239 399.642 603.234 400.284 603.219C400.605 603.209 400.937 603.206 401.273 603.191C401.61 603.178 401.952 603.164 402.294 603.15C402.636 603.132 402.977 603.113 403.314 603.095C403.65 603.079 403.981 603.051 404.301 603.031C404.942 602.986 405.539 602.935 406.05 602.884C407.074 602.785 407.754 602.681 407.754 602.681C407.754 602.681 407.067 602.642 406.039 602.64C405.525 602.636 404.925 602.642 404.284 602.657C403.963 602.667 403.631 602.67 403.295 602.685C402.958 602.699 402.616 602.712 402.274 602.726C401.932 602.744 401.59 602.763 401.254 602.781C400.917 602.798 400.587 602.825 400.267 602.846C399.626 602.891 399.029 602.942 398.517 602.993C397.494 603.092 396.814 603.195 396.814 603.195Z" fill="black"/>
<path d="M364.64 617.469C364.64 617.469 365.316 617.599 366.335 617.737C366.844 617.809 367.439 617.883 368.077 617.954C368.396 617.987 368.725 618.028 369.061 618.058C369.396 618.089 369.737 618.121 370.078 618.153C370.419 618.181 370.76 618.208 371.096 618.234C371.432 618.263 371.763 618.28 372.084 618.302C372.724 618.343 373.323 618.372 373.837 618.389C374.864 618.427 375.552 618.415 375.552 618.415C375.552 618.415 374.877 618.284 373.858 618.145C373.349 618.074 372.754 617.999 372.116 617.929C371.797 617.896 371.468 617.855 371.132 617.826C370.796 617.794 370.456 617.762 370.115 617.73C369.774 617.703 369.432 617.676 369.096 617.649C368.761 617.621 368.429 617.604 368.109 617.582C367.468 617.542 366.87 617.513 366.356 617.495C365.329 617.457 364.64 617.469 364.64 617.469Z" fill="black"/>
<path d="M391.553 613.74C391.553 613.74 391.846 613.757 392.359 613.777C392.872 613.792 393.605 613.827 394.484 613.846C395.363 613.869 396.389 613.886 397.488 613.895C398.038 613.899 398.605 613.902 399.182 613.905C399.759 613.904 400.345 613.904 400.931 613.903C401.518 613.898 402.104 613.892 402.681 613.887C403.258 613.884 403.825 613.868 404.375 613.86C405.474 613.839 406.499 613.811 407.378 613.779C408.257 613.751 408.99 613.708 409.502 613.687C410.015 613.662 410.308 613.642 410.308 613.642C410.308 613.642 410.015 613.624 409.502 613.604C408.989 613.589 408.256 613.554 407.377 613.535C406.498 613.512 405.472 613.495 404.373 613.486C403.823 613.483 403.255 613.473 402.678 613.476C402.101 613.477 401.515 613.478 400.929 613.478C400.343 613.484 399.757 613.489 399.18 613.495C398.603 613.504 398.035 613.513 397.486 613.522C396.387 613.543 395.362 613.571 394.483 613.603C393.604 613.632 392.871 613.674 392.358 613.695C391.846 613.72 391.553 613.74 391.553 613.74Z" fill="black"/>
<path d="M213 703C219.627 703 225 697.627 225 691C225 684.373 219.627 679 213 679C206.373 679 201 684.373 201 691C201 697.627 206.373 703 213 703Z" fill="#FBB03B"/>
<path d="M215.193 644.802C222.514 645.211 228.996 645.936 233.071 646.726C229.2 645.143 222.692 643.886 215.268 643.471C207.844 643.057 201.236 643.583 197.212 644.725C201.35 644.393 207.873 644.394 215.193 644.802Z" fill="black"/>
<path d="M235.537 648.025C232.034 647.024 224.239 646.029 215.153 645.522C206.067 645.015 198.21 645.136 194.618 645.742C193.69 646.266 193.165 646.861 193.128 647.511C192.966 650.415 202.616 653.315 214.681 653.988C226.746 654.661 236.658 652.853 236.82 649.949C236.856 649.299 236.4 648.649 235.537 648.025Z" fill="black"/>
<path d="M221.742 652.01C221.775 651.423 218.698 650.773 214.87 650.559C211.042 650.346 207.912 650.649 207.879 651.237C207.846 651.825 210.923 652.475 214.751 652.688C218.579 652.902 221.709 652.598 221.742 652.01Z" fill="white"/>
<path d="M224.137 643.966C223.414 641.597 220.012 639.662 215.824 639.428C211.636 639.194 208.041 640.739 207.057 643.013C212.793 642.57 218.487 642.887 224.137 643.966Z" fill="black"/>
<path d="M216.302 647.354C216.326 646.93 215.733 646.552 214.978 646.51C214.223 646.468 213.592 646.778 213.568 647.202C213.545 647.626 214.138 648.004 214.893 648.046C215.648 648.088 216.279 647.778 216.302 647.354Z" fill="white"/>
<path d="M231.79 649.336C231.803 649.093 231.171 648.861 230.378 648.816C229.584 648.772 228.93 648.933 228.917 649.176C228.903 649.419 229.535 649.652 230.329 649.696C231.122 649.74 231.776 649.579 231.79 649.336Z" fill="white"/>
<path d="M200.83 647.608C200.843 647.365 200.211 647.133 199.418 647.088C198.624 647.044 197.97 647.205 197.957 647.448C197.943 647.691 198.575 647.924 199.369 647.968C200.162 648.012 200.816 647.851 200.83 647.608Z" fill="white"/>
<path d="M204.983 651.285C204.99 651.157 204.658 651.035 204.241 651.012C203.825 650.988 203.481 651.073 203.474 651.201C203.467 651.328 203.799 651.45 204.216 651.474C204.632 651.497 204.976 651.412 204.983 651.285Z" fill="white"/>
<path d="M226.124 652.465C226.131 652.337 225.799 652.215 225.382 652.192C224.966 652.168 224.622 652.253 224.615 652.381C224.608 652.508 224.94 652.63 225.356 652.654C225.773 652.677 226.117 652.592 226.124 652.465Z" fill="white"/>
<path d="M206.317 655.332C206.317 655.332 205.968 656.425 205.371 658.033C205.075 658.838 204.718 659.773 204.324 660.769C204.124 661.266 203.926 661.783 203.71 662.302C203.496 662.822 203.278 663.35 203.061 663.879C202.837 664.404 202.613 664.93 202.393 665.447C202.175 665.966 201.945 666.469 201.731 666.961C201.298 667.94 200.882 668.85 200.515 669.626C199.788 671.179 199.253 672.194 199.253 672.194C199.253 672.194 199.602 671.101 200.199 669.493C200.494 668.688 200.851 667.753 201.246 666.757C201.445 666.26 201.643 665.743 201.86 665.224C202.074 664.704 202.292 664.176 202.51 663.648C202.733 663.122 202.957 662.597 203.178 662.079C203.396 661.561 203.626 661.057 203.84 660.566C204.273 659.586 204.689 658.676 205.056 657.901C205.783 656.347 206.317 655.332 206.317 655.332Z" fill="black"/>
<path d="M215.239 657.366C215.239 657.366 215.246 657.839 215.242 658.667C215.233 659.494 215.237 660.677 215.21 662.096C215.189 663.514 215.151 665.168 215.097 666.94C215.068 667.826 215.038 668.741 215.007 669.671C214.971 670.601 214.935 671.546 214.898 672.49C214.855 673.435 214.811 674.379 214.769 675.309C214.721 676.238 214.673 677.153 214.628 678.038C214.532 679.808 214.43 681.459 214.331 682.874C214.238 684.29 214.133 685.468 214.073 686.293C214.006 687.118 213.96 687.589 213.96 687.589C213.96 687.589 213.953 687.116 213.956 686.288C213.966 685.461 213.961 684.278 213.988 682.86C214.01 681.441 214.047 679.787 214.102 678.015C214.131 677.13 214.161 676.214 214.192 675.284C214.228 674.354 214.264 673.41 214.301 672.465C214.344 671.521 214.388 670.576 214.431 669.647C214.479 668.717 214.526 667.803 214.572 666.918C214.668 665.148 214.77 663.496 214.869 662.081C214.962 660.666 215.066 659.487 215.127 658.662C215.193 657.837 215.239 657.366 215.239 657.366Z" fill="black"/>
<path d="M223.659 656.74C223.659 656.74 223.897 657.403 224.176 658.413C224.319 658.918 224.473 659.509 224.625 660.145C224.698 660.463 224.782 660.791 224.852 661.126C224.925 661.462 224.998 661.803 225.071 662.143C225.138 662.485 225.205 662.827 225.27 663.164C225.339 663.5 225.389 663.835 225.448 664.156C225.558 664.801 225.649 665.405 225.716 665.924C225.857 666.963 225.898 667.666 225.898 667.666C225.898 667.666 225.66 667.003 225.38 665.993C225.237 665.489 225.083 664.898 224.932 664.262C224.859 663.943 224.774 663.616 224.705 663.28C224.632 662.945 224.559 662.604 224.486 662.263C224.419 661.921 224.353 661.579 224.287 661.242C224.22 660.906 224.168 660.572 224.11 660.25C224 659.606 223.909 659.002 223.841 658.482C223.701 657.443 223.659 656.74 223.659 656.74Z" fill="black"/>
<path d="M209.373 663.451C209.373 663.451 209.234 664.358 208.948 665.697C208.809 666.367 208.633 667.146 208.432 667.977C208.329 668.392 208.231 668.823 208.116 669.256C208.003 669.691 207.889 670.132 207.774 670.573C207.653 671.013 207.532 671.452 207.412 671.885C207.296 672.318 207.165 672.74 207.047 673.151C206.805 673.971 206.568 674.733 206.354 675.384C205.931 676.686 205.598 677.541 205.598 677.541C205.598 677.541 205.737 676.634 206.022 675.295C206.162 674.624 206.337 673.845 206.538 673.014C206.641 672.6 206.739 672.169 206.855 671.735C206.968 671.301 207.082 670.86 207.197 670.419C207.318 669.979 207.44 669.54 207.559 669.107C207.676 668.674 207.807 668.252 207.925 667.841C208.167 667.021 208.404 666.259 208.618 665.608C209.041 664.306 209.373 663.451 209.373 663.451Z" fill="black"/>
<path d="M219.729 660.33C219.729 660.33 219.916 661.496 220.117 663.252C220.221 664.13 220.329 665.155 220.432 666.254C220.481 666.803 220.54 667.371 220.584 667.948C220.63 668.526 220.677 669.113 220.724 669.699C220.765 670.286 220.805 670.874 220.845 671.452C220.887 672.03 220.912 672.599 220.945 673.15C221.006 674.252 221.051 675.282 221.077 676.165C221.137 677.931 221.124 679.113 221.124 679.113C221.124 679.113 220.937 677.946 220.735 676.191C220.631 675.313 220.523 674.288 220.42 673.189C220.372 672.64 220.312 672.072 220.269 671.495C220.222 670.917 220.176 670.33 220.129 669.744C220.088 669.156 220.048 668.569 220.009 667.991C219.967 667.413 219.942 666.843 219.908 666.293C219.848 665.19 219.803 664.161 219.776 663.278C219.716 661.511 219.729 660.33 219.729 660.33Z" fill="black"/>
<path d="M7 694H548" stroke="black"/>
<path d="M7 693V699" stroke="black"/>
<path d="M51 693V699" stroke="black"/>
<path d="M95 693V699" stroke="black"/>
<path d="M139 693V699" stroke="black"/>
<path d="M183 693V699" stroke="black"/>
<path d="M227 693V699" stroke="black"/>
<path d="M271 693V699" stroke="black"/>
<path d="M315 693V699" stroke="black"/>
<path d="M359 693V699" stroke="black"/>
<path d="M403 693V699" stroke="black"/>
<path d="M447 693V699" stroke="black"/>
<path d="M491 693V699" stroke="black"/>
<path d="M535 693V699" stroke="black"/>
<path d="M11.3984 693C13.5976 693 13.5976 693 15.7967 693C17.9959 693 17.9959 693 20.1951 693C22.3943 693 22.3943 693 24.5935 693C26.7927 693 26.7927 692.876 28.9919 692.876C31.1911 692.876 31.1911 692.938 33.3902 692.938C35.5894 692.938 35.5894 692.938 37.7886 692.938C39.9878 692.938 39.9878 693 42.187 693C44.3862 693 44.3862 693 46.5854 693C48.7846 693 48.7846 692.813 50.9837 692.813C53.1829 692.813 53.1829 693 55.3821 693C57.5813 693 57.5813 693 59.7805 693C61.9797 693 61.9797 693 64.1789 693C66.378 693 66.378 692.876 68.5772 692.876C70.7764 692.876 70.7764 693 72.9756 693C75.1748 693 75.1748 692.938 77.374 692.938C79.5732 692.938 79.5732 692.876 81.7724 692.876C83.9715 692.876 83.9715 692.938 86.1707 692.938C88.3699 692.938 88.3699 693 90.5691 693C92.7683 693 92.7683 692.813 94.9675 692.813C97.1667 692.813 97.1667 693 99.3658 693C101.565 693 101.565 692.938 103.764 692.938C105.963 692.938 105.963 693 108.163 693C110.362 693 110.362 693 112.561 693C114.76 693 114.76 692.938 116.959 692.938C119.159 692.938 119.159 693 121.358 693C123.557 693 123.557 693 125.756 693C127.955 693 127.955 692.938 130.154 692.938C132.354 692.938 132.354 692.876 134.553 692.876C136.752 692.876 136.752 692.689 138.951 692.689C141.15 692.689 141.15 692.876 143.35 692.876C145.549 692.876 145.549 692.876 147.748 692.876C149.947 692.876 149.947 692.938 152.146 692.938C154.346 692.938 154.346 692.938 156.545 692.938C158.744 692.938 158.744 692.938 160.943 692.938C163.142 692.938 163.142 692.813 165.341 692.813C167.541 692.813 167.541 692.813 169.74 692.813C171.939 692.813 171.939 692.938 174.138 692.938C176.337 692.938 176.337 692.813 178.537 692.813C180.736 692.813 180.736 692.876 182.935 692.876C185.134 692.876 185.134 692.751 187.333 692.751C189.533 692.751 189.533 692.565 191.732 692.565C193.931 692.565 193.931 692.378 196.13 692.378C198.329 692.378 198.329 692.129 200.528 692.129C202.728 692.129 202.728 692.067 204.927 692.067C207.126 692.067 207.126 692.191 209.325 692.191C211.524 692.191 211.524 689.828 213.724 689.828C215.923 689.828 215.923 692.129 218.122 692.129C220.321 692.129 220.321 691.57 222.52 691.57C224.72 691.57 224.72 690.45 226.919 690.45C229.118 690.45 229.118 691.134 231.317 691.134C233.516 691.134 233.516 688.833 235.715 688.833C237.915 688.833 237.915 690.139 240.114 690.139C242.313 690.139 242.313 688.771 244.512 688.771C246.711 688.771 246.711 689.828 248.911 689.828C251.11 689.828 251.11 689.082 253.309 689.082C255.508 689.082 255.508 687.216 257.707 687.216C259.907 687.216 259.906 688.771 262.106 688.771C264.305 688.771 264.305 688.584 266.504 688.584C268.703 688.584 268.703 687.216 270.902 687.216C273.102 687.216 273.102 688.957 275.301 688.957C277.5 688.957 277.5 687.216 279.699 687.216C281.898 687.216 281.898 686.283 284.098 686.283C286.297 686.283 286.297 685.412 288.496 685.412C290.695 685.412 290.695 678.322 292.894 678.322C295.093 678.322 295.093 676.643 297.293 676.643C299.492 676.643 299.492 676.456 301.691 676.456C303.89 676.456 303.89 674.964 306.089 674.964C308.289 674.964 308.289 680.001 310.488 680.001C312.687 680.001 312.687 679.877 314.886 679.877C317.085 679.877 317.085 682.987 319.285 682.987C321.484 682.987 321.484 678.384 323.683 678.384C325.882 678.384 325.882 673.782 328.081 673.782C330.28 673.782 330.28 670.735 332.48 670.735C334.679 670.735 334.679 667.376 336.878 667.376C339.077 667.376 339.077 669.864 341.276 669.864C343.476 669.864 343.476 669.864 345.675 669.864C347.874 669.864 347.874 665.199 350.073 665.199C352.272 665.199 352.272 672.414 354.472 672.414C356.671 672.414 356.671 672.476 358.87 672.476C361.069 672.476 361.069 679.069 363.268 679.069C365.467 679.069 365.467 677.825 367.667 677.825C369.866 677.825 369.866 677.887 372.065 677.887C374.264 677.887 374.264 678.509 376.463 678.509C378.663 678.509 378.663 675.15 380.862 675.15C383.061 675.15 383.061 677.078 385.26 677.078C387.459 677.078 387.459 674.28 389.659 674.28C391.858 674.28 391.858 673.409 394.057 673.409C396.256 673.409 396.256 672.165 398.455 672.165C400.654 672.165 400.654 671.481 402.854 671.481C405.053 671.481 405.053 673.533 407.252 673.533C409.451 673.533 409.451 671.294 411.65 671.294C413.85 671.294 413.85 667.563 416.049 667.563C418.248 667.563 418.248 659.167 420.447 659.167C422.646 659.167 422.646 598.776 424.846 598.776C427.045 598.776 427.045 627.759 429.244 627.759C431.443 627.759 431.443 599.025 433.642 599.025C435.841 599.025 435.841 565.129 438.041 565.129C440.24 565.129 440.24 494.913 442.439 494.913C444.638 494.913 444.638 497.587 446.837 497.587C449.037 497.587 449.037 470.408 451.236 470.408C453.435 470.408 453.435 461.141 455.634 461.141C457.833 461.141 457.833 416.486 460.033 416.486C462.232 416.486 462.232 396.273 464.431 396.273C466.63 396.273 466.63 410.391 468.829 410.391C471.028 410.391 471.028 432.221 473.228 432.221C475.427 432.221 475.427 396.646 477.626 396.646C479.825 396.646 479.825 360.698 482.024 360.698C484.224 360.698 484.224 380.414 486.423 380.414C488.622 380.414 488.622 391.919 490.821 391.919C493.02 391.919 493.02 339.863 495.219 339.863C497.419 339.863 497.419 182.948 499.618 182.948C501.817 182.948 501.817 203.161 504.016 203.161C506.215 203.161 506.215 147 508.415 147C510.614 147 510.614 256.897 512.813 256.897C515.012 256.897 515.012 333.955 517.211 333.955C519.411 333.955 519.411 372.08 521.61 372.08C523.809 372.08 523.809 472.461 526.008 472.461C528.207 472.461 528.207 294.151 530.407 294.151C532.606 294.151 532.606 232.143 534.805 232.143C537.004 232.143 537.004 467.485 539.203 467.485C541.402 467.485 541.402 379.854 543.602 379.854C545.801 379.854 545.801 607.546 548 607.546V693C545.801 693 545.801 693 543.602 693C541.402 693 541.402 693 539.203 693C537.004 693 537.004 693 534.805 693C532.606 693 532.606 693 530.407 693C528.207 693 528.207 693 526.008 693C523.809 693 523.809 693 521.61 693C519.411 693 519.411 693 517.211 693C515.012 693 515.012 693 512.813 693C510.614 693 510.614 693 508.415 693C506.215 693 506.215 693 504.016 693C501.817 693 501.817 693 499.618 693C497.419 693 497.419 693 495.219 693C493.02 693 493.02 693 490.821 693C488.622 693 488.622 693 486.423 693C484.224 693 484.224 693 482.024 693C479.825 693 479.825 693 477.626 693C475.427 693 475.427 693 473.228 693C471.028 693 471.028 693 468.829 693C466.63 693 466.63 693 464.431 693C462.232 693 462.232 693 460.033 693C457.833 693 457.833 693 455.634 693C453.435 693 453.435 693 451.236 693C449.037 693 449.037 693 446.837 693C444.638 693 444.638 693 442.439 693C440.24 693 440.24 693 438.041 693C435.841 693 435.841 693 433.642 693C431.443 693 431.443 693 429.244 693C427.045 693 427.045 693 424.846 693C422.646 693 422.646 693 420.447 693C418.248 693 418.248 693 416.049 693C413.85 693 413.85 693 411.65 693C409.451 693 409.451 693 407.252 693C405.053 693 405.053 693 402.854 693C400.654 693 400.654 693 398.455 693C396.256 693 396.256 693 394.057 693C391.858 693 391.858 693 389.659 693C387.459 693 387.459 693 385.26 693C383.061 693 383.061 693 380.862 693C378.663 693 378.663 693 376.463 693C374.264 693 374.264 693 372.065 693C369.866 693 369.866 693 367.667 693C365.467 693 365.467 693 363.268 693C361.069 693 361.069 693 358.87 693C356.671 693 356.671 693 354.472 693C352.272 693 352.272 693 350.073 693C347.874 693 347.874 693 345.675 693C343.476 693 343.476 693 341.276 693C339.077 693 339.077 693 336.878 693C334.679 693 334.679 693 332.48 693C330.28 693 330.28 693 328.081 693C325.882 693 325.882 693 323.683 693C321.484 693 321.484 693 319.285 693C317.085 693 317.085 693 314.886 693C312.687 693 312.687 693 310.488 693C308.289 693 308.289 693 306.089 693C303.89 693 303.89 693 301.691 693C299.492 693 299.492 693 297.293 693C295.093 693 295.093 693 292.894 693C290.695 693 290.695 693 288.496 693C286.297 693 286.297 693 284.098 693C281.898 693 281.898 693 279.699 693C277.5 693 277.5 693 275.301 693C273.102 693 273.102 693 270.902 693C268.703 693 268.703 693 266.504 693C264.305 693 264.305 693 262.106 693C259.906 693 259.907 693 257.707 693C255.508 693 255.508 693 253.309 693C251.11 693 251.11 693 248.911 693C246.711 693 246.711 693 244.512 693C242.313 693 242.313 693 240.114 693C237.915 693 237.915 693 235.715 693C233.516 693 233.516 693 231.317 693C229.118 693 229.118 693 226.919 693C224.72 693 224.72 693 222.52 693C220.321 693 220.321 693 218.122 693C215.923 693 215.923 693 213.724 693C211.524 693 211.524 693 209.325 693C207.126 693 207.126 693 204.927 693C202.728 693 202.728 693 200.528 693C198.329 693 198.329 693 196.13 693C193.931 693 193.931 693 191.732 693C189.533 693 189.533 693 187.333 693C185.134 693 185.134 693 182.935 693C180.736 693 180.736 693 178.537 693C176.337 693 176.337 693 174.138 693C171.939 693 171.939 693 169.74 693C167.541 693 167.541 693 165.341 693C163.142 693 163.142 693 160.943 693C158.744 693 158.744 693 156.545 693C154.346 693 154.346 693 152.146 693C149.947 693 149.947 693 147.748 693C145.549 693 145.549 693 143.35 693C141.15 693 141.15 693 138.951 693C136.752 693 136.752 693 134.553 693C132.354 693 132.354 693 130.154 693C127.955 693 127.955 693 125.756 693C123.557 693 123.557 693 121.358 693C119.159 693 119.159 693 116.959 693C114.76 693 114.76 693 112.561 693C110.362 693 110.362 693 108.163 693C105.963 693 105.963 693 103.764 693C101.565 693 101.565 693 99.3658 693C97.1667 693 97.1667 693 94.9675 693C92.7683 693 92.7683 693 90.5691 693C88.3699 693 88.3699 693 86.1707 693C83.9715 693 83.9715 693 81.7724 693C79.5732 693 79.5732 693 77.374 693C75.1748 693 75.1748 693 72.9756 693C70.7764 693 70.7764 693 68.5772 693C66.378 693 66.378 693 64.1789 693C61.9797 693 61.9797 693 59.7805 693C57.5813 693 57.5813 693 55.3821 693C53.1829 693 53.1829 693 50.9837 693C48.7846 693 48.7846 693 46.5854 693C44.3862 693 44.3862 693 42.187 693C39.9878 693 39.9878 693 37.7886 693C35.5894 693 35.5894 693 33.3902 693C31.1911 693 31.1911 693 28.9919 693C26.7927 693 26.7927 693 24.5935 693C22.3943 693 22.3943 693 20.1951 693C17.9959 693 17.9959 693 15.7967 693C13.5976 693 13.5976 693 11.3984 693Z" fill="#F1E7D0"/>
</svg>
