<svg width="641" height="596" viewBox="0 0 641 596" fill="none" xmlns="http://www.w3.org/2000/svg">
<rect width="640.781" height="595.23" fill="white"/>
<path d="M552.331 187.333C506.399 187.333 469.164 150.098 469.164 104.167C469.164 58.2349 506.399 21 552.331 21C598.262 21 635.497 58.2349 635.497 104.167C635.497 150.098 598.262 187.333 552.331 187.333Z" fill="#FBB03B"/>
<path d="M489.602 101.749C469.677 113.865 452.577 125.614 442.328 133.936C450.818 123.694 467.192 110.414 487.4 98.1267C507.607 85.8395 526.933 77.4123 539.932 74.5868C527.827 79.8566 509.528 89.6328 489.602 101.749Z" fill="black"/>
<path d="M437.358 141.275C445.684 133.218 466.063 118.746 490.794 103.708C515.525 88.67 537.75 77.2361 548.735 73.551C552.123 73.6328 554.49 74.5134 555.565 76.2824C560.372 84.1871 537.646 106.783 504.806 126.752C471.966 146.721 441.447 156.501 436.64 148.596C435.565 146.827 435.871 144.321 437.358 141.275Z" fill="black"/>
<path d="M482.026 131.806C481.053 130.206 488.711 123.772 499.13 117.435C509.549 111.099 518.785 107.259 519.758 108.859C520.731 110.459 513.073 116.893 502.653 123.229C492.234 129.566 482.999 133.405 482.026 131.806Z" fill="white"/>
<path d="M463.257 112.807C462.137 105.732 469.079 95.6991 480.479 88.7673C491.879 81.8354 503.981 80.288 509.747 84.5381C493.121 92.1043 477.624 101.527 463.257 112.807Z" fill="black"/>
<path d="M490.307 110.589C489.606 109.435 490.702 107.487 492.757 106.237C494.812 104.987 497.047 104.91 497.749 106.064C498.451 107.218 497.354 109.167 495.299 110.417C493.244 111.666 491.009 111.744 490.307 110.589Z" fill="white"/>
<path d="M449.825 139.362C449.423 138.701 450.847 137.1 453.007 135.787C455.166 134.473 457.243 133.945 457.645 134.606C458.047 135.267 456.622 136.867 454.463 138.181C452.303 139.494 450.227 140.023 449.825 139.362Z" fill="white"/>
<path d="M534.1 88.1128C533.697 87.4517 535.122 85.8511 537.282 84.5378C539.441 83.2245 541.518 82.6958 541.92 83.3569C542.322 84.018 540.897 85.6186 538.738 86.9319C536.578 88.2452 534.502 88.7739 534.1 88.1128Z" fill="white"/>
<path d="M527.957 104.652C527.746 104.305 528.494 103.465 529.628 102.775C530.762 102.085 531.853 101.808 532.064 102.155C532.275 102.502 531.527 103.342 530.393 104.032C529.259 104.722 528.168 104.999 527.957 104.652Z" fill="white"/>
<path d="M470.411 139.647C470.2 139.3 470.948 138.459 472.082 137.77C473.216 137.08 474.307 136.802 474.518 137.149C474.729 137.497 473.981 138.337 472.847 139.027C471.712 139.716 470.622 139.994 470.411 139.647Z" fill="white"/>
<path d="M487.5 488C493.299 488 498 483.299 498 477.5C498 471.701 493.299 467 487.5 467C481.701 467 477 471.701 477 477.5C477 483.299 481.701 488 487.5 488Z" fill="#FBB03B"/>
<path d="M433.663 479.844C424.746 480.097 416.837 480.763 411.855 481.589C416.616 479.793 424.574 478.48 433.617 478.223C442.661 477.967 450.68 478.826 455.536 480.349C450.514 479.808 442.581 479.591 433.663 479.844Z" fill="black"/>
<path d="M408.813 483.086C413.106 481.985 422.62 481.035 433.688 480.721C444.756 480.407 454.309 480.816 458.657 481.672C459.768 482.341 460.388 483.082 460.41 483.873C460.511 487.411 448.678 490.617 433.981 491.034C419.284 491.451 407.288 488.921 407.188 485.384C407.165 484.592 407.742 483.817 408.813 483.086Z" fill="black"/>
<path d="M433.932 489.451C429.269 489.584 425.472 489.11 425.452 488.394C425.431 487.678 429.195 486.99 433.859 486.858C438.522 486.726 442.319 487.199 442.339 487.915C442.36 488.631 438.596 489.319 433.932 489.451Z" fill="white"/>
<path d="M422.813 478.53C423.793 476.407 428.01 474.718 433.112 474.573C438.213 474.428 442.519 475.876 443.618 477.939C436.664 477.45 429.728 477.647 422.813 478.53Z" fill="black"/>
<path d="M433.915 483.8C432.995 483.826 432.238 483.428 432.223 482.912C432.209 482.395 432.942 481.955 433.862 481.929C434.782 481.903 435.539 482.301 435.554 482.817C435.569 483.334 434.835 483.774 433.915 483.8Z" fill="white"/>
<path d="M415.084 485.292C414.117 485.319 413.327 485.102 413.319 484.806C413.31 484.51 414.087 484.248 415.054 484.22C416.02 484.193 416.811 484.411 416.819 484.707C416.827 485.002 416.051 485.265 415.084 485.292Z" fill="white"/>
<path d="M452.801 484.223C451.834 484.251 451.044 484.033 451.035 483.737C451.027 483.441 451.804 483.179 452.77 483.152C453.737 483.124 454.527 483.342 454.535 483.638C454.544 483.934 453.767 484.196 452.801 484.223Z" fill="white"/>
<path d="M446.788 488.326C446.28 488.34 445.865 488.226 445.861 488.07C445.856 487.915 446.264 487.777 446.772 487.763C447.279 487.748 447.694 487.863 447.699 488.018C447.703 488.174 447.295 488.311 446.788 488.326Z" fill="white"/>
<path d="M421.034 489.055C420.526 489.07 420.111 488.956 420.107 488.8C420.102 488.645 420.51 488.507 421.018 488.493C421.525 488.478 421.94 488.593 421.945 488.748C421.949 488.903 421.541 489.041 421.034 489.055Z" fill="white"/>
<path d="M457.986 479.629C457.986 479.629 458.354 479.637 458.997 479.651C459.64 479.657 460.559 479.678 461.661 479.68C462.763 479.687 464.049 479.685 465.426 479.674C466.115 479.666 466.827 479.659 467.55 479.651C468.273 479.64 469.007 479.628 469.742 479.616C470.476 479.6 471.21 479.584 471.933 479.567C472.656 479.547 473.367 479.528 474.056 479.509C475.433 479.467 476.717 479.42 477.819 479.371C478.92 479.326 479.837 479.27 480.479 479.24C481.121 479.201 481.488 479.179 481.488 479.179C481.488 479.179 481.121 479.171 480.478 479.157C479.835 479.151 478.916 479.13 477.814 479.127C476.712 479.121 475.426 479.123 474.049 479.134C473.36 479.142 472.648 479.149 471.925 479.157C471.202 479.168 470.468 479.18 469.733 479.192C468.999 479.208 468.265 479.225 467.542 479.241C466.819 479.261 466.107 479.281 465.419 479.3C464.042 479.342 462.757 479.389 461.656 479.438C460.555 479.483 459.638 479.538 458.996 479.569C458.353 479.607 457.986 479.629 457.986 479.629Z" fill="black"/>
<path d="M429.013 493.804C429.013 493.804 429.619 493.856 430.679 493.947C431.739 494.029 433.253 494.163 435.072 494.294C436.891 494.423 439.011 494.592 441.286 494.739C443.56 494.888 445.986 495.046 448.412 495.204C450.839 495.343 453.266 495.482 455.541 495.612C457.817 495.744 459.942 495.834 461.763 495.928C463.584 496.021 465.103 496.071 466.166 496.119C467.229 496.158 467.837 496.18 467.837 496.18C467.837 496.18 467.231 496.128 466.171 496.037C465.111 495.955 463.597 495.82 461.778 495.689C459.959 495.561 457.838 495.39 455.564 495.244C453.29 495.096 450.864 494.938 448.438 494.78C446.011 494.641 443.584 494.502 441.308 494.372C439.033 494.241 436.907 494.15 435.086 494.056C433.265 493.964 431.746 493.913 430.684 493.865C429.62 493.826 429.013 493.804 429.013 493.804Z" fill="black"/>
<path d="M443.157 473.795C443.157 473.795 443.844 473.834 444.872 473.836C445.386 473.839 445.985 473.834 446.627 473.819C446.948 473.809 447.28 473.806 447.616 473.791C447.953 473.777 448.295 473.764 448.637 473.75C448.979 473.732 449.32 473.713 449.657 473.695C449.993 473.679 450.324 473.651 450.644 473.631C451.285 473.586 451.882 473.535 452.393 473.483C453.417 473.385 454.097 473.281 454.097 473.281C454.097 473.281 453.41 473.242 452.382 473.24C451.868 473.236 451.269 473.242 450.627 473.257C450.306 473.266 449.974 473.269 449.638 473.285C449.301 473.299 448.959 473.312 448.617 473.326C448.275 473.344 447.933 473.363 447.597 473.381C447.26 473.398 446.93 473.425 446.609 473.446C445.969 473.491 445.372 473.542 444.86 473.593C443.837 473.692 443.157 473.795 443.157 473.795Z" fill="black"/>
<path d="M447.204 475.78C447.204 475.78 447.892 475.819 448.92 475.821C449.434 475.824 450.033 475.819 450.675 475.804C450.996 475.794 451.327 475.791 451.664 475.776C452.001 475.762 452.343 475.749 452.685 475.735C453.026 475.717 453.368 475.698 453.705 475.68C454.041 475.664 454.372 475.636 454.692 475.616C455.333 475.571 455.93 475.52 456.441 475.468C457.465 475.37 458.145 475.266 458.145 475.266C458.145 475.266 457.458 475.227 456.43 475.225C455.916 475.221 455.316 475.226 454.675 475.242C454.354 475.251 454.022 475.254 453.685 475.27C453.349 475.284 453.007 475.297 452.665 475.311C452.323 475.329 451.981 475.348 451.645 475.366C451.308 475.383 450.978 475.41 450.657 475.431C450.017 475.476 449.42 475.527 448.908 475.578C447.885 475.677 447.204 475.78 447.204 475.78Z" fill="black"/>
<path d="M462.813 482.195C462.813 482.195 463.501 482.234 464.529 482.236C465.043 482.239 465.642 482.234 466.284 482.219C466.605 482.209 466.936 482.206 467.273 482.191C467.61 482.178 467.952 482.164 468.294 482.15C468.635 482.132 468.977 482.113 469.314 482.095C469.65 482.079 469.981 482.051 470.301 482.031C470.942 481.986 471.539 481.935 472.05 481.884C473.074 481.785 473.754 481.681 473.754 481.681C473.754 481.681 473.067 481.642 472.039 481.64C471.525 481.636 470.925 481.642 470.284 481.657C469.963 481.667 469.631 481.67 469.294 481.685C468.958 481.699 468.616 481.712 468.274 481.726C467.932 481.744 467.59 481.763 467.254 481.781C466.917 481.798 466.587 481.825 466.266 481.846C465.626 481.891 465.029 481.942 464.517 481.993C463.494 482.092 462.813 482.195 462.813 482.195Z" fill="black"/>
<path d="M430.64 496.469C430.64 496.469 431.316 496.599 432.335 496.737C432.844 496.809 433.439 496.883 434.077 496.954C434.396 496.987 434.725 497.028 435.061 497.058C435.396 497.089 435.737 497.121 436.078 497.153C436.419 497.181 436.76 497.208 437.096 497.234C437.432 497.263 437.763 497.28 438.084 497.302C438.724 497.343 439.323 497.372 439.837 497.389C440.864 497.427 441.552 497.415 441.552 497.415C441.552 497.415 440.877 497.284 439.858 497.145C439.349 497.074 438.754 496.999 438.116 496.929C437.797 496.896 437.468 496.855 437.132 496.826C436.796 496.794 436.456 496.762 436.115 496.73C435.774 496.703 435.432 496.676 435.096 496.649C434.761 496.621 434.429 496.604 434.109 496.582C433.468 496.542 432.87 496.513 432.356 496.495C431.329 496.457 430.64 496.469 430.64 496.469Z" fill="black"/>
<path d="M457.553 492.74C457.553 492.74 457.846 492.757 458.359 492.777C458.872 492.792 459.605 492.827 460.484 492.846C461.363 492.869 462.389 492.886 463.488 492.895C464.038 492.899 464.605 492.902 465.182 492.905C465.759 492.904 466.345 492.904 466.931 492.903C467.518 492.898 468.104 492.892 468.681 492.887C469.258 492.884 469.825 492.868 470.375 492.86C471.474 492.839 472.499 492.811 473.378 492.779C474.257 492.751 474.99 492.708 475.502 492.687C476.015 492.662 476.308 492.642 476.308 492.642C476.308 492.642 476.015 492.624 475.502 492.604C474.989 492.589 474.256 492.554 473.377 492.535C472.498 492.512 471.472 492.495 470.373 492.486C469.823 492.483 469.255 492.473 468.678 492.476C468.101 492.477 467.515 492.478 466.929 492.478C466.343 492.484 465.757 492.489 465.18 492.495C464.603 492.504 464.035 492.513 463.486 492.522C462.387 492.543 461.362 492.571 460.483 492.603C459.604 492.632 458.871 492.674 458.358 492.695C457.846 492.72 457.553 492.74 457.553 492.74Z" fill="black"/>
<path d="M246 575C252.627 575 258 569.627 258 563C258 556.373 252.627 551 246 551C239.373 551 234 556.373 234 563C234 569.627 239.373 575 246 575Z" fill="#FBB03B"/>
<path d="M248.193 516.802C255.514 517.211 261.996 517.936 266.071 518.726C262.2 517.143 255.692 515.886 248.268 515.471C240.844 515.057 234.236 515.583 230.212 516.725C234.35 516.393 240.873 516.394 248.193 516.802Z" fill="black"/>
<path d="M268.536 520.025C265.034 519.024 257.239 518.029 248.153 517.522C239.067 517.015 231.21 517.136 227.618 517.742C226.69 518.266 226.164 518.861 226.128 519.511C225.966 522.415 235.616 525.315 247.681 525.988C259.746 526.661 269.658 524.853 269.82 521.949C269.856 521.299 269.4 520.649 268.536 520.025Z" fill="black"/>
<path d="M254.742 524.01C254.774 523.423 251.698 522.773 247.87 522.559C244.042 522.346 240.912 522.649 240.879 523.237C240.846 523.825 243.923 524.475 247.751 524.688C251.579 524.902 254.709 524.598 254.742 524.01Z" fill="white"/>
<path d="M257.137 515.966C256.414 513.597 253.012 511.662 248.824 511.428C244.636 511.194 241.041 512.739 240.057 515.013C245.793 514.57 251.487 514.887 257.137 515.966Z" fill="black"/>
<path d="M249.302 519.354C249.326 518.93 248.733 518.552 247.978 518.51C247.223 518.468 246.592 518.778 246.568 519.202C246.545 519.626 247.138 520.004 247.892 520.046C248.647 520.088 249.279 519.778 249.302 519.354Z" fill="white"/>
<path d="M264.79 521.336C264.803 521.093 264.171 520.861 263.378 520.816C262.584 520.772 261.93 520.933 261.917 521.176C261.903 521.419 262.535 521.652 263.329 521.696C264.122 521.74 264.776 521.579 264.79 521.336Z" fill="white"/>
<path d="M233.83 519.608C233.843 519.365 233.211 519.133 232.418 519.088C231.624 519.044 230.97 519.205 230.956 519.448C230.943 519.691 231.575 519.924 232.368 519.968C233.162 520.012 233.816 519.851 233.83 519.608Z" fill="white"/>
<path d="M237.983 523.285C237.99 523.157 237.658 523.035 237.241 523.012C236.825 522.988 236.481 523.073 236.474 523.201C236.467 523.328 236.799 523.45 237.216 523.474C237.632 523.497 237.976 523.412 237.983 523.285Z" fill="white"/>
<path d="M259.123 524.465C259.131 524.337 258.799 524.215 258.382 524.192C257.965 524.168 257.622 524.253 257.615 524.381C257.608 524.508 257.94 524.63 258.356 524.654C258.773 524.677 259.116 524.592 259.123 524.465Z" fill="white"/>
<path d="M239.317 527.332C239.317 527.332 238.967 528.425 238.371 530.033C238.075 530.838 237.718 531.773 237.324 532.769C237.124 533.266 236.926 533.783 236.71 534.302C236.495 534.822 236.278 535.35 236.06 535.879C235.837 536.404 235.613 536.93 235.392 537.447C235.175 537.966 234.945 538.469 234.731 538.961C234.298 539.94 233.882 540.85 233.515 541.626C232.787 543.179 232.253 544.194 232.253 544.194C232.253 544.194 232.602 543.101 233.198 541.493C233.494 540.688 233.851 539.753 234.245 538.757C234.445 538.26 234.643 537.743 234.86 537.224C235.074 536.704 235.292 536.176 235.509 535.648C235.733 535.122 235.957 534.597 236.178 534.079C236.396 533.561 236.625 533.057 236.839 532.566C237.273 531.586 237.689 530.676 238.055 529.901C238.783 528.347 239.317 527.332 239.317 527.332Z" fill="black"/>
<path d="M248.239 529.366C248.239 529.366 248.246 529.839 248.242 530.667C248.233 531.494 248.237 532.677 248.21 534.096C248.189 535.514 248.151 537.168 248.097 538.94C248.068 539.826 248.038 540.741 248.007 541.671C247.971 542.601 247.935 543.546 247.898 544.49C247.855 545.435 247.811 546.379 247.769 547.309C247.721 548.238 247.673 549.153 247.628 550.038C247.532 551.808 247.43 553.459 247.331 554.874C247.238 556.29 247.133 557.468 247.073 558.293C247.006 559.118 246.96 559.589 246.96 559.589C246.96 559.589 246.953 559.116 246.956 558.288C246.966 557.461 246.961 556.278 246.988 554.86C247.01 553.441 247.047 551.787 247.102 550.015C247.131 549.13 247.161 548.214 247.192 547.284C247.228 546.354 247.264 545.41 247.301 544.465C247.344 543.521 247.388 542.576 247.431 541.647C247.479 540.717 247.526 539.803 247.572 538.918C247.668 537.148 247.77 535.496 247.869 534.081C247.962 532.666 248.066 531.487 248.127 530.662C248.193 529.837 248.239 529.366 248.239 529.366Z" fill="black"/>
<path d="M256.659 528.74C256.659 528.74 256.897 529.403 257.176 530.413C257.319 530.918 257.473 531.509 257.625 532.145C257.698 532.463 257.782 532.791 257.852 533.126C257.925 533.462 257.998 533.803 258.071 534.143C258.138 534.485 258.205 534.827 258.27 535.164C258.339 535.5 258.389 535.835 258.448 536.156C258.558 536.801 258.649 537.405 258.716 537.924C258.857 538.963 258.898 539.666 258.898 539.666C258.898 539.666 258.66 539.003 258.38 537.993C258.237 537.489 258.083 536.898 257.932 536.262C257.859 535.943 257.774 535.616 257.705 535.28C257.632 534.945 257.559 534.604 257.486 534.263C257.419 533.921 257.353 533.579 257.287 533.242C257.22 532.906 257.168 532.572 257.11 532.25C257 531.606 256.909 531.002 256.841 530.482C256.701 529.443 256.659 528.74 256.659 528.74Z" fill="black"/>
<path d="M242.373 535.451C242.373 535.451 242.234 536.358 241.948 537.697C241.809 538.367 241.633 539.146 241.432 539.977C241.329 540.392 241.231 540.823 241.116 541.256C241.003 541.691 240.889 542.132 240.774 542.573C240.653 543.013 240.532 543.452 240.412 543.885C240.296 544.318 240.165 544.74 240.047 545.151C239.805 545.971 239.568 546.733 239.354 547.384C238.931 548.686 238.598 549.541 238.598 549.541C238.598 549.541 238.737 548.634 239.022 547.295C239.162 546.624 239.337 545.845 239.538 545.014C239.641 544.6 239.739 544.169 239.855 543.735C239.968 543.301 240.082 542.86 240.197 542.419C240.318 541.979 240.44 541.54 240.559 541.107C240.676 540.674 240.807 540.252 240.925 539.841C241.167 539.021 241.404 538.259 241.618 537.608C242.041 536.306 242.373 535.451 242.373 535.451Z" fill="black"/>
<path d="M252.728 532.33C252.728 532.33 252.915 533.496 253.117 535.252C253.221 536.13 253.329 537.155 253.432 538.254C253.481 538.803 253.54 539.371 253.584 539.948C253.63 540.526 253.677 541.113 253.724 541.699C253.764 542.286 253.805 542.874 253.844 543.452C253.887 544.03 253.912 544.599 253.945 545.15C254.006 546.252 254.05 547.282 254.077 548.165C254.137 549.931 254.124 551.113 254.124 551.113C254.124 551.113 253.936 549.946 253.735 548.191C253.631 547.313 253.522 546.288 253.42 545.189C253.371 544.64 253.312 544.072 253.269 543.495C253.222 542.917 253.175 542.33 253.128 541.744C253.088 541.156 253.048 540.569 253.009 539.991C252.967 539.413 252.941 538.843 252.908 538.293C252.848 537.19 252.803 536.161 252.776 535.278C252.716 533.511 252.728 532.33 252.728 532.33Z" fill="black"/>
<path d="M8 568H633" stroke="black"/>
<path d="M8 567V573" stroke="black"/>
<path d="M59 567V573" stroke="black"/>
<path d="M110 567V573" stroke="black"/>
<path d="M161 567V573" stroke="black"/>
<path d="M212 567V573" stroke="black"/>
<path d="M262 567V573" stroke="black"/>
<path d="M313 567V573" stroke="black"/>
<path d="M364 567V573" stroke="black"/>
<path d="M415 567V573" stroke="black"/>
<path d="M466 567V573" stroke="black"/>
<path d="M516 567V573" stroke="black"/>
<path d="M568 567V573" stroke="black"/>
<path d="M618 567V573" stroke="black"/>
<path d="M13.0813 567C15.622 567 15.622 567 18.1626 567C20.7033 567 20.7033 567 23.2439 567C25.7846 567 25.7846 567 28.3252 567C30.8659 567 30.8659 566.882 33.4065 566.882C35.9472 566.882 35.9472 566.941 38.4878 566.941C41.0285 566.941 41.0285 566.941 43.5691 566.941C46.1098 566.941 46.1098 567 48.6504 567C51.1911 567 51.1911 567 53.7317 567C56.2724 567 56.2724 566.822 58.813 566.822C61.3537 566.822 61.3537 567 63.8943 567C66.435 567 66.435 567 68.9756 567C71.5163 567 71.5163 567 74.0569 567C76.5976 567 76.5976 566.882 79.1382 566.882C81.6789 566.882 81.6789 567 84.2195 567C86.7602 567 86.7602 566.941 89.3008 566.941C91.8415 566.941 91.8415 566.882 94.3821 566.882C96.9228 566.882 96.9228 566.941 99.4634 566.941C102.004 566.941 102.004 567 104.545 567C107.085 567 107.085 566.822 109.626 566.822C112.167 566.822 112.167 567 114.707 567C117.248 567 117.248 566.941 119.789 566.941C122.329 566.941 122.329 567 124.87 567C127.411 567 127.411 567 129.951 567C132.492 567 132.492 566.941 135.033 566.941C137.573 566.941 137.573 567 140.114 567C142.654 567 142.654 567 145.195 567C147.736 567 147.736 566.941 150.276 566.941C152.817 566.941 152.817 566.882 155.358 566.882C157.898 566.882 157.898 566.704 160.439 566.704C162.98 566.704 162.98 566.882 165.52 566.882C168.061 566.882 168.061 566.882 170.602 566.882C173.142 566.882 173.142 566.941 175.683 566.941C178.224 566.941 178.224 566.941 180.764 566.941C183.305 566.941 183.305 566.941 185.846 566.941C188.386 566.941 188.386 566.822 190.927 566.822C193.467 566.822 193.467 566.822 196.008 566.822C198.549 566.822 198.549 566.941 201.089 566.941C203.63 566.941 203.63 566.822 206.171 566.822C208.711 566.822 208.711 566.882 211.252 566.882C213.793 566.882 213.793 566.763 216.333 566.763C218.874 566.763 218.874 566.585 221.415 566.585C223.955 566.585 223.955 566.408 226.496 566.408C229.037 566.408 229.037 566.171 231.577 566.171C234.118 566.171 234.118 566.111 236.659 566.111C239.199 566.111 239.199 566.23 241.74 566.23C244.28 566.23 244.28 563.979 246.821 563.979C249.362 563.979 249.362 566.171 251.902 566.171C254.443 566.171 254.443 565.638 256.984 565.638C259.524 565.638 259.524 564.571 262.065 564.571C264.606 564.571 264.606 565.223 267.146 565.223C269.687 565.223 269.687 563.031 272.228 563.031C274.768 563.031 274.768 564.275 277.309 564.275C279.85 564.275 279.85 562.972 282.39 562.972C284.931 562.972 284.931 563.979 287.472 563.979C290.012 563.979 290.012 563.268 292.553 563.268C295.093 563.268 295.093 561.491 297.634 561.491C300.175 561.491 300.175 562.972 302.715 562.972C305.256 562.972 305.256 562.794 307.797 562.794C310.337 562.794 310.337 561.491 312.878 561.491C315.419 561.491 315.419 563.15 317.959 563.15C320.5 563.15 320.5 561.491 323.041 561.491C325.581 561.491 325.581 560.603 328.122 560.603C330.663 560.603 330.663 559.774 333.203 559.774C335.744 559.774 335.744 553.021 338.285 553.021C340.825 553.021 340.825 551.422 343.366 551.422C345.907 551.422 345.907 551.244 348.447 551.244C350.988 551.244 350.988 549.823 353.528 549.823C356.069 549.823 356.069 554.62 358.61 554.62C361.15 554.62 361.15 554.502 363.691 554.502C366.232 554.502 366.232 557.464 368.772 557.464C371.313 557.464 371.313 553.08 373.854 553.08C376.394 553.08 376.394 548.697 378.935 548.697C381.476 548.697 381.476 545.795 384.016 545.795C386.557 545.795 386.557 542.596 389.098 542.596C391.638 542.596 391.638 544.966 394.179 544.966C396.72 544.966 396.72 544.966 399.26 544.966C401.801 544.966 401.801 540.523 404.341 540.523C406.882 540.523 406.882 547.394 409.423 547.394C411.963 547.394 411.963 547.453 414.504 547.453C417.045 547.453 417.045 553.732 419.585 553.732C422.126 553.732 422.126 552.547 424.667 552.547C427.207 552.547 427.207 552.607 429.748 552.607C432.289 552.607 432.289 553.199 434.829 553.199C437.37 553.199 437.37 550 439.911 550C442.451 550 442.451 551.837 444.992 551.837C447.533 551.837 447.533 549.171 450.073 549.171C452.614 549.171 452.614 548.342 455.154 548.342C457.695 548.342 457.695 547.157 460.236 547.157C462.776 547.157 462.776 546.506 465.317 546.506C467.858 546.506 467.858 548.46 470.398 548.46C472.939 548.46 472.939 546.328 475.48 546.328C478.02 546.328 478.02 542.774 480.561 542.774C483.102 542.774 483.102 534.778 485.642 534.778C488.183 534.778 488.183 477.263 490.724 477.263C493.264 477.263 493.264 504.865 495.805 504.865C498.346 504.865 498.346 477.5 500.886 477.5C503.427 477.5 503.427 445.218 505.967 445.218C508.508 445.218 508.508 378.345 511.049 378.345C513.589 378.345 513.589 380.892 516.13 380.892C518.671 380.892 518.671 355.008 521.211 355.008C523.752 355.008 523.752 346.182 526.293 346.182C528.833 346.182 528.833 303.653 531.374 303.653C533.915 303.653 533.915 284.403 536.455 284.403C538.996 284.403 538.996 297.849 541.537 297.849C544.077 297.849 544.077 318.639 546.618 318.639C549.159 318.639 549.159 284.758 551.699 284.758C554.24 284.758 554.24 250.522 556.78 250.522C559.321 250.522 559.321 269.299 561.862 269.299C564.402 269.299 564.402 280.257 566.943 280.257C569.484 280.257 569.484 230.679 572.024 230.679C574.565 230.679 574.565 81.2362 577.106 81.2362C579.646 81.2362 579.646 100.487 582.187 100.487C584.728 100.487 584.728 47 587.268 47C589.809 47 589.809 151.663 592.35 151.663C594.89 151.663 594.89 225.052 597.431 225.052C599.972 225.052 599.972 261.362 602.512 261.362C605.053 261.362 605.053 356.962 607.593 356.962C610.134 356.962 610.134 187.144 612.675 187.144C615.215 187.144 615.215 128.089 617.756 128.089C620.297 128.089 620.297 352.224 622.837 352.224C625.378 352.224 625.378 268.766 627.919 268.766C630.459 268.766 630.459 485.615 633 485.615V567C630.459 567 630.459 567 627.919 567C625.378 567 625.378 567 622.837 567C620.297 567 620.297 567 617.756 567C615.215 567 615.215 567 612.675 567C610.134 567 610.134 567 607.593 567C605.053 567 605.053 567 602.512 567C599.972 567 599.972 567 597.431 567C594.89 567 594.89 567 592.35 567C589.809 567 589.809 567 587.268 567C584.728 567 584.728 567 582.187 567C579.646 567 579.646 567 577.106 567C574.565 567 574.565 567 572.024 567C569.484 567 569.484 567 566.943 567C564.402 567 564.402 567 561.862 567C559.321 567 559.321 567 556.78 567C554.24 567 554.24 567 551.699 567C549.159 567 549.159 567 546.618 567C544.077 567 544.077 567 541.537 567C538.996 567 538.996 567 536.455 567C533.915 567 533.915 567 531.374 567C528.833 567 528.833 567 526.293 567C523.752 567 523.752 567 521.211 567C518.671 567 518.671 567 516.13 567C513.589 567 513.589 567 511.049 567C508.508 567 508.508 567 505.967 567C503.427 567 503.427 567 500.886 567C498.346 567 498.346 567 495.805 567C493.264 567 493.264 567 490.724 567C488.183 567 488.183 567 485.642 567C483.102 567 483.102 567 480.561 567C478.02 567 478.02 567 475.48 567C472.939 567 472.939 567 470.398 567C467.858 567 467.858 567 465.317 567C462.776 567 462.776 567 460.236 567C457.695 567 457.695 567 455.154 567C452.614 567 452.614 567 450.073 567C447.533 567 447.533 567 444.992 567C442.451 567 442.451 567 439.911 567C437.37 567 437.37 567 434.829 567C432.289 567 432.289 567 429.748 567C427.207 567 427.207 567 424.667 567C422.126 567 422.126 567 419.585 567C417.045 567 417.045 567 414.504 567C411.963 567 411.963 567 409.423 567C406.882 567 406.882 567 404.341 567C401.801 567 401.801 567 399.26 567C396.72 567 396.72 567 394.179 567C391.638 567 391.638 567 389.098 567C386.557 567 386.557 567 384.016 567C381.476 567 381.476 567 378.935 567C376.394 567 376.394 567 373.854 567C371.313 567 371.313 567 368.772 567C366.232 567 366.232 567 363.691 567C361.15 567 361.15 567 358.61 567C356.069 567 356.069 567 353.528 567C350.988 567 350.988 567 348.447 567C345.907 567 345.907 567 343.366 567C340.825 567 340.825 567 338.285 567C335.744 567 335.744 567 333.203 567C330.663 567 330.663 567 328.122 567C325.581 567 325.581 567 323.041 567C320.5 567 320.5 567 317.959 567C315.419 567 315.419 567 312.878 567C310.337 567 310.337 567 307.797 567C305.256 567 305.256 567 302.715 567C300.175 567 300.175 567 297.634 567C295.093 567 295.093 567 292.553 567C290.012 567 290.012 567 287.472 567C284.931 567 284.931 567 282.39 567C279.85 567 279.85 567 277.309 567C274.768 567 274.768 567 272.228 567C269.687 567 269.687 567 267.146 567C264.606 567 264.606 567 262.065 567C259.524 567 259.524 567 256.984 567C254.443 567 254.443 567 251.902 567C249.362 567 249.362 567 246.821 567C244.28 567 244.28 567 241.74 567C239.199 567 239.199 567 236.659 567C234.118 567 234.118 567 231.577 567C229.037 567 229.037 567 226.496 567C223.955 567 223.955 567 221.415 567C218.874 567 218.874 567 216.333 567C213.793 567 213.793 567 211.252 567C208.711 567 208.711 567 206.171 567C203.63 567 203.63 567 201.089 567C198.549 567 198.549 567 196.008 567C193.467 567 193.467 567 190.927 567C188.386 567 188.386 567 185.846 567C183.305 567 183.305 567 180.764 567C178.224 567 178.224 567 175.683 567C173.142 567 173.142 567 170.602 567C168.061 567 168.061 567 165.52 567C162.98 567 162.98 567 160.439 567C157.898 567 157.898 567 155.358 567C152.817 567 152.817 567 150.276 567C147.736 567 147.736 567 145.195 567C142.654 567 142.654 567 140.114 567C137.573 567 137.573 567 135.033 567C132.492 567 132.492 567 129.951 567C127.411 567 127.411 567 124.87 567C122.329 567 122.329 567 119.789 567C117.248 567 117.248 567 114.707 567C112.167 567 112.167 567 109.626 567C107.085 567 107.085 567 104.545 567C102.004 567 102.004 567 99.4634 567C96.9228 567 96.9228 567 94.3821 567C91.8415 567 91.8415 567 89.3008 567C86.7602 567 86.7602 567 84.2195 567C81.6789 567 81.6789 567 79.1382 567C76.5976 567 76.5976 567 74.0569 567C71.5163 567 71.5163 567 68.9756 567C66.435 567 66.435 567 63.8943 567C61.3537 567 61.3537 567 58.813 567C56.2724 567 56.2724 567 53.7317 567C51.1911 567 51.1911 567 48.6504 567C46.1098 567 46.1098 567 43.5691 567C41.0285 567 41.0285 567 38.4878 567C35.9472 567 35.9472 567 33.4065 567C30.8659 567 30.8659 567 28.3252 567C25.7846 567 25.7846 567 23.2439 567C20.7033 567 20.7033 567 18.1626 567C15.622 567 15.622 567 13.0813 567Z" fill="#F1E7D0"/>
</svg>
