<svg width="960" height="852" viewBox="0 0 960 852" fill="none" xmlns="http://www.w3.org/2000/svg">
<rect width="960" height="851.2" fill="white"/>
<path d="M931 23H27V829H931V23Z" fill="white"/>
<path d="M39 803H920" stroke="black"/>
<path d="M39 802V810" stroke="black"/>
<path d="M110 802V810" stroke="black"/>
<path d="M182 802V810" stroke="black"/>
<path d="M254 802V810" stroke="black"/>
<path d="M325 802V810" stroke="black"/>
<path d="M397 802V810" stroke="black"/>
<path d="M469 802V810" stroke="black"/>
<path d="M540 802V810" stroke="black"/>
<path d="M612 802V810" stroke="black"/>
<path d="M684 802V810" stroke="black"/>
<path d="M755 802V810" stroke="black"/>
<path d="M827 802V810" stroke="black"/>
<path d="M899 802V810" stroke="black"/>
<path d="M373.684 810.905C380.311 810.905 385.684 805.533 385.684 798.905C385.684 792.278 380.311 786.905 373.684 786.905C367.056 786.905 361.684 792.278 361.684 798.905C361.684 805.533 367.056 810.905 373.684 810.905Z" fill="#FBB03B"/>
<path d="M718.5 685C724.299 685 729 680.299 729 674.5C729 668.701 724.299 664 718.5 664C712.701 664 708 668.701 708 674.5C708 680.299 712.701 685 718.5 685Z" fill="#FBB03B"/>
<path d="M375.877 752.707C383.198 753.116 389.68 753.841 393.755 754.631C389.883 753.048 383.375 751.791 375.951 751.377C368.527 750.962 361.92 751.488 357.896 752.63C362.034 752.298 368.556 752.299 375.877 752.707Z" fill="black"/>
<path d="M396.22 755.93C392.718 754.929 384.923 753.934 375.837 753.427C366.751 752.92 358.894 753.042 355.302 753.647C354.374 754.171 353.848 754.766 353.812 755.416C353.65 758.32 363.299 761.22 375.364 761.893C387.43 762.566 397.342 760.758 397.504 757.854C397.54 757.204 397.084 756.555 396.22 755.93Z" fill="black"/>
<path d="M382.425 759.916C382.458 759.328 379.382 758.678 375.553 758.465C371.725 758.251 368.596 758.555 368.563 759.142C368.53 759.73 371.607 760.38 375.435 760.593C379.263 760.807 382.393 760.503 382.425 759.916Z" fill="white"/>
<path d="M384.821 751.872C384.097 749.502 380.696 747.567 376.508 747.333C372.32 747.1 368.724 748.644 367.741 750.918C373.477 750.475 379.17 750.792 384.821 751.872Z" fill="black"/>
<path d="M376.986 755.259C377.01 754.835 376.417 754.458 375.662 754.415C374.907 754.373 374.276 754.683 374.252 755.107C374.228 755.531 374.821 755.909 375.576 755.951C376.331 755.993 376.962 755.683 376.986 755.259Z" fill="white"/>
<path d="M392.473 757.241C392.487 756.999 391.855 756.766 391.061 756.721C390.268 756.677 389.614 756.838 389.6 757.081C389.587 757.324 390.219 757.557 391.012 757.601C391.806 757.645 392.46 757.484 392.473 757.241Z" fill="white"/>
<path d="M361.513 755.513C361.527 755.27 360.895 755.038 360.101 754.993C359.308 754.949 358.654 755.11 358.64 755.353C358.627 755.596 359.259 755.829 360.052 755.873C360.846 755.917 361.5 755.756 361.513 755.513Z" fill="white"/>
<path d="M365.666 759.19C365.674 759.062 365.342 758.94 364.925 758.917C364.508 758.894 364.165 758.978 364.158 759.106C364.151 759.233 364.483 759.355 364.899 759.379C365.316 759.402 365.659 759.317 365.666 759.19Z" fill="white"/>
<path d="M386.807 760.37C386.814 760.242 386.482 760.12 386.066 760.097C385.649 760.074 385.306 760.158 385.298 760.286C385.291 760.413 385.623 760.535 386.04 760.559C386.457 760.582 386.8 760.497 386.807 760.37Z" fill="white"/>
<path d="M367 763.237C367 763.237 366.651 764.33 366.054 765.938C365.759 766.743 365.402 767.678 365.008 768.674C364.808 769.171 364.609 769.688 364.393 770.207C364.179 770.727 363.962 771.255 363.744 771.784C363.52 772.309 363.296 772.835 363.076 773.352C362.859 773.871 362.629 774.375 362.415 774.866C361.981 775.846 361.566 776.755 361.199 777.531C360.471 779.084 359.937 780.099 359.937 780.099C359.937 780.099 360.286 779.006 360.882 777.398C361.178 776.593 361.534 775.658 361.929 774.662C362.129 774.165 362.326 773.648 362.544 773.129C362.758 772.609 362.975 772.081 363.193 771.553C363.417 771.027 363.641 770.502 363.861 769.984C364.08 769.466 364.309 768.962 364.523 768.471C364.957 767.491 365.372 766.582 365.739 765.806C366.467 764.253 367 763.237 367 763.237Z" fill="black"/>
<path d="M375.923 765.271C375.923 765.271 375.929 765.744 375.926 766.572C375.916 767.4 375.92 768.582 375.894 770.001C375.872 771.419 375.834 773.073 375.78 774.845C375.751 775.731 375.721 776.646 375.691 777.576C375.655 778.506 375.618 779.451 375.582 780.395C375.538 781.34 375.495 782.284 375.452 783.214C375.404 784.143 375.357 785.058 375.311 785.943C375.215 787.713 375.113 789.364 375.015 790.779C374.921 792.195 374.817 793.373 374.756 794.198C374.69 795.023 374.643 795.495 374.643 795.495C374.643 795.495 374.637 795.021 374.64 794.193C374.65 793.366 374.645 792.183 374.672 790.765C374.693 789.346 374.731 787.692 374.785 785.92C374.814 785.035 374.845 784.119 374.875 783.189C374.911 782.259 374.948 781.315 374.985 780.37C375.028 779.426 375.072 778.481 375.114 777.552C375.163 776.622 375.21 775.708 375.256 774.823C375.352 773.053 375.454 771.401 375.552 769.986C375.646 768.571 375.75 767.392 375.81 766.567C375.877 765.742 375.923 765.271 375.923 765.271Z" fill="black"/>
<path d="M384.343 764.645C384.343 764.645 384.581 765.308 384.86 766.318C385.003 766.823 385.156 767.414 385.308 768.05C385.382 768.368 385.466 768.696 385.536 769.031C385.608 769.367 385.682 769.708 385.755 770.048C385.822 770.39 385.888 770.733 385.954 771.069C386.023 771.405 386.073 771.74 386.131 772.061C386.242 772.706 386.333 773.31 386.4 773.83C386.54 774.868 386.582 775.571 386.582 775.571C386.582 775.571 386.343 774.909 386.064 773.898C385.921 773.394 385.767 772.803 385.615 772.167C385.542 771.848 385.457 771.521 385.388 771.185C385.316 770.85 385.243 770.509 385.17 770.168C385.103 769.826 385.036 769.484 384.971 769.147C384.903 768.811 384.852 768.477 384.794 768.155C384.684 767.511 384.592 766.907 384.525 766.387C384.385 765.348 384.343 764.645 384.343 764.645Z" fill="black"/>
<path d="M370.057 771.356C370.057 771.356 369.918 772.263 369.632 773.602C369.492 774.272 369.317 775.051 369.116 775.882C369.013 776.297 368.915 776.728 368.8 777.162C368.687 777.596 368.573 778.037 368.458 778.478C368.337 778.918 368.215 779.357 368.096 779.79C367.98 780.223 367.848 780.645 367.73 781.056C367.489 781.876 367.252 782.638 367.037 783.289C366.615 784.591 366.282 785.446 366.282 785.446C366.282 785.446 366.42 784.539 366.706 783.2C366.845 782.529 367.021 781.751 367.222 780.92C367.325 780.505 367.422 780.074 367.538 779.64C367.651 779.206 367.766 778.765 367.881 778.324C368.002 777.884 368.123 777.445 368.243 777.012C368.36 776.579 368.491 776.157 368.609 775.746C368.851 774.926 369.088 774.164 369.302 773.513C369.725 772.211 370.057 771.356 370.057 771.356Z" fill="black"/>
<path d="M380.412 768.235C380.412 768.235 380.599 769.402 380.801 771.157C380.905 772.035 381.013 773.06 381.116 774.159C381.164 774.708 381.223 775.276 381.267 775.853C381.314 776.431 381.361 777.018 381.408 777.604C381.448 778.192 381.488 778.779 381.528 779.357C381.571 779.935 381.595 780.505 381.629 781.055C381.69 782.158 381.734 783.187 381.761 784.07C381.821 785.837 381.808 787.018 381.808 787.018C381.808 787.018 381.62 785.851 381.418 784.096C381.315 783.218 381.206 782.194 381.104 781.094C381.055 780.545 380.995 779.977 380.952 779.4C380.906 778.822 380.859 778.235 380.812 777.649C380.772 777.061 380.732 776.474 380.692 775.896C380.651 775.318 380.625 774.748 380.592 774.198C380.531 773.095 380.487 772.066 380.46 771.183C380.4 769.416 380.412 768.235 380.412 768.235Z" fill="black"/>
<path d="M664.663 676.844C655.746 677.097 647.837 677.763 642.855 678.589C647.617 676.793 655.574 675.48 664.617 675.223C673.661 674.967 681.68 675.826 686.536 677.349C681.514 676.808 673.581 676.591 664.663 676.844Z" fill="black"/>
<path d="M639.813 680.086C644.106 678.985 653.62 678.035 664.688 677.721C675.756 677.407 685.309 677.816 689.657 678.672C690.768 679.341 691.388 680.082 691.41 680.873C691.511 684.411 679.678 687.617 664.981 688.034C650.284 688.451 638.288 685.921 638.188 682.384C638.165 681.592 638.742 680.817 639.813 680.086Z" fill="black"/>
<path d="M664.932 686.451C660.269 686.584 656.472 686.11 656.452 685.394C656.431 684.678 660.195 683.99 664.859 683.858C669.522 683.726 673.319 684.199 673.339 684.915C673.36 685.631 669.596 686.319 664.932 686.451Z" fill="white"/>
<path d="M653.813 675.53C654.793 673.407 659.01 671.718 664.112 671.573C669.213 671.428 673.519 672.876 674.618 674.939C667.664 674.45 660.728 674.647 653.813 675.53Z" fill="black"/>
<path d="M664.915 680.8C663.995 680.826 663.238 680.428 663.223 679.912C663.209 679.395 663.942 678.955 664.862 678.929C665.782 678.903 666.539 679.301 666.554 679.817C666.569 680.334 665.835 680.774 664.915 680.8Z" fill="white"/>
<path d="M646.084 682.292C645.117 682.319 644.327 682.102 644.319 681.806C644.31 681.51 645.087 681.248 646.054 681.22C647.02 681.193 647.81 681.411 647.819 681.707C647.827 682.002 647.051 682.265 646.084 682.292Z" fill="white"/>
<path d="M683.8 681.223C682.834 681.251 682.044 681.033 682.035 680.737C682.027 680.441 682.804 680.179 683.77 680.152C684.737 680.124 685.527 680.342 685.535 680.638C685.544 680.934 684.767 681.196 683.8 681.223Z" fill="white"/>
<path d="M677.788 685.326C677.28 685.34 676.865 685.226 676.861 685.07C676.856 684.915 677.264 684.777 677.772 684.763C678.279 684.748 678.694 684.863 678.699 685.018C678.703 685.174 678.295 685.311 677.788 685.326Z" fill="white"/>
<path d="M652.034 686.055C651.526 686.07 651.111 685.956 651.107 685.8C651.102 685.645 651.51 685.507 652.018 685.493C652.525 685.478 652.94 685.593 652.945 685.748C652.949 685.903 652.541 686.041 652.034 686.055Z" fill="white"/>
<path d="M688.986 676.629C688.986 676.629 689.354 676.637 689.997 676.651C690.64 676.657 691.559 676.678 692.661 676.68C693.763 676.687 695.049 676.685 696.426 676.674C697.115 676.666 697.826 676.659 698.55 676.651C699.273 676.64 700.007 676.628 700.741 676.616C701.476 676.6 702.21 676.584 702.933 676.567C703.656 676.547 704.367 676.528 705.056 676.509C706.433 676.467 707.717 676.42 708.818 676.371C709.92 676.326 710.837 676.27 711.479 676.24C712.121 676.201 712.488 676.179 712.488 676.179C712.488 676.179 712.121 676.171 711.478 676.157C710.835 676.151 709.916 676.13 708.814 676.127C707.712 676.121 706.426 676.123 705.049 676.134C704.36 676.142 703.648 676.149 702.925 676.157C702.202 676.168 701.468 676.18 700.733 676.192C699.999 676.208 699.265 676.225 698.542 676.241C697.819 676.261 697.107 676.281 696.419 676.3C695.042 676.342 693.757 676.389 692.656 676.438C691.555 676.483 690.638 676.538 689.995 676.569C689.353 676.607 688.986 676.629 688.986 676.629Z" fill="black"/>
<path d="M660.013 690.804C660.013 690.804 660.619 690.856 661.679 690.947C662.739 691.029 664.253 691.163 666.072 691.294C667.891 691.423 670.011 691.592 672.286 691.739C674.56 691.888 676.986 692.046 679.412 692.204C681.839 692.343 684.266 692.482 686.541 692.612C688.817 692.744 690.942 692.834 692.763 692.928C694.584 693.021 696.103 693.071 697.166 693.119C698.229 693.158 698.837 693.18 698.837 693.18C698.837 693.18 698.231 693.128 697.171 693.037C696.111 692.955 694.597 692.82 692.778 692.689C690.959 692.561 688.838 692.39 686.564 692.244C684.29 692.096 681.864 691.938 679.438 691.78C677.011 691.641 674.584 691.502 672.308 691.372C670.033 691.241 667.907 691.15 666.086 691.056C664.265 690.964 662.746 690.913 661.684 690.865C660.62 690.826 660.013 690.804 660.013 690.804Z" fill="black"/>
<path d="M674.157 670.795C674.157 670.795 674.844 670.834 675.872 670.836C676.386 670.839 676.985 670.834 677.627 670.819C677.948 670.809 678.28 670.806 678.616 670.791C678.953 670.777 679.295 670.764 679.637 670.75C679.979 670.732 680.32 670.713 680.657 670.695C680.993 670.679 681.324 670.651 681.644 670.631C682.285 670.586 682.882 670.535 683.393 670.483C684.417 670.385 685.097 670.281 685.097 670.281C685.097 670.281 684.41 670.242 683.382 670.24C682.868 670.236 682.269 670.242 681.627 670.257C681.306 670.266 680.974 670.269 680.638 670.285C680.301 670.299 679.959 670.312 679.617 670.326C679.275 670.344 678.933 670.363 678.597 670.381C678.26 670.398 677.93 670.425 677.609 670.446C676.969 670.491 676.372 670.542 675.86 670.593C674.837 670.692 674.157 670.795 674.157 670.795Z" fill="black"/>
<path d="M678.204 672.78C678.204 672.78 678.892 672.819 679.92 672.821C680.434 672.824 681.033 672.819 681.675 672.804C681.996 672.794 682.327 672.791 682.664 672.776C683.001 672.762 683.343 672.749 683.685 672.735C684.026 672.717 684.368 672.698 684.705 672.68C685.041 672.664 685.372 672.636 685.692 672.616C686.333 672.571 686.93 672.52 687.441 672.468C688.465 672.37 689.145 672.266 689.145 672.266C689.145 672.266 688.458 672.227 687.43 672.225C686.916 672.221 686.316 672.226 685.675 672.242C685.354 672.251 685.022 672.254 684.685 672.27C684.349 672.284 684.007 672.297 683.665 672.311C683.323 672.329 682.981 672.348 682.645 672.366C682.308 672.383 681.978 672.41 681.657 672.431C681.017 672.476 680.42 672.527 679.908 672.578C678.885 672.677 678.204 672.78 678.204 672.78Z" fill="black"/>
<path d="M693.813 679.195C693.813 679.195 694.501 679.234 695.529 679.236C696.043 679.239 696.642 679.234 697.284 679.219C697.605 679.209 697.936 679.206 698.273 679.191C698.61 679.178 698.952 679.164 699.294 679.15C699.636 679.132 699.977 679.113 700.314 679.095C700.65 679.079 700.981 679.051 701.301 679.031C701.942 678.986 702.539 678.935 703.05 678.884C704.074 678.785 704.754 678.681 704.754 678.681C704.754 678.681 704.067 678.642 703.039 678.64C702.525 678.636 701.925 678.642 701.284 678.657C700.963 678.667 700.631 678.67 700.295 678.685C699.958 678.699 699.616 678.712 699.274 678.726C698.932 678.744 698.59 678.763 698.254 678.781C697.917 678.798 697.587 678.825 697.266 678.846C696.626 678.891 696.029 678.942 695.517 678.993C694.494 679.092 693.813 679.195 693.813 679.195Z" fill="black"/>
<path d="M661.641 693.469C661.641 693.469 662.316 693.599 663.335 693.737C663.844 693.809 664.439 693.883 665.077 693.954C665.396 693.987 665.726 694.028 666.061 694.058C666.397 694.089 666.737 694.121 667.078 694.153C667.419 694.181 667.761 694.208 668.096 694.234C668.432 694.263 668.764 694.28 669.084 694.302C669.724 694.343 670.323 694.372 670.837 694.389C671.864 694.427 672.552 694.415 672.552 694.415C672.552 694.415 671.877 694.284 670.858 694.145C670.349 694.074 669.754 693.999 669.116 693.929C668.797 693.896 668.468 693.855 668.132 693.826C667.796 693.794 667.456 693.762 667.115 693.73C666.774 693.703 666.432 693.676 666.097 693.649C665.761 693.621 665.429 693.604 665.109 693.582C664.469 693.542 663.87 693.513 663.356 693.495C662.329 693.457 661.641 693.469 661.641 693.469Z" fill="black"/>
<path d="M688.553 689.74C688.553 689.74 688.846 689.757 689.359 689.777C689.872 689.792 690.605 689.827 691.484 689.846C692.363 689.869 693.389 689.886 694.488 689.895C695.037 689.899 695.605 689.902 696.182 689.905C696.759 689.904 697.345 689.904 697.931 689.903C698.518 689.898 699.104 689.892 699.68 689.887C700.257 689.884 700.825 689.868 701.375 689.86C702.474 689.839 703.499 689.811 704.378 689.779C705.257 689.751 705.99 689.708 706.502 689.687C707.015 689.662 707.308 689.642 707.308 689.642C707.308 689.642 707.015 689.624 706.502 689.604C705.989 689.589 705.256 689.554 704.377 689.535C703.498 689.512 702.472 689.495 701.373 689.486C700.823 689.483 700.255 689.473 699.678 689.476C699.101 689.477 698.515 689.478 697.929 689.478C697.343 689.484 696.757 689.489 696.18 689.495C695.603 689.504 695.035 689.513 694.486 689.522C693.387 689.543 692.362 689.571 691.483 689.603C690.604 689.632 689.871 689.674 689.358 689.695C688.846 689.72 688.553 689.74 688.553 689.74Z" fill="black"/>
<path d="M853 226C798.876 226 755 182.124 755 128C755 73.8761 798.876 30 853 30C907.124 30 951 73.8761 951 128C951 182.124 907.124 226 853 226Z" fill="#FBB03B"/>
<path d="M745.602 117.198C725.677 129.314 708.577 141.063 698.328 149.385C706.818 139.143 723.192 125.863 743.4 113.576C763.607 101.288 782.933 92.8613 795.932 90.0358C783.827 95.3056 765.528 105.082 745.602 117.198Z" fill="black"/>
<path d="M693.358 156.724C701.684 148.667 722.063 134.195 746.794 119.157C771.525 104.119 793.75 92.6851 804.735 89C808.123 89.0818 810.49 89.9624 811.565 91.7313C816.372 99.6361 793.646 122.232 760.806 142.201C727.966 162.17 697.447 171.95 692.64 164.045C691.565 162.276 691.871 159.77 693.358 156.724Z" fill="black"/>
<path d="M738.026 147.255C737.053 145.655 744.711 139.221 755.13 132.884C765.549 126.548 774.785 122.708 775.758 124.308C776.731 125.908 769.073 132.342 758.653 138.678C748.234 145.015 738.999 148.854 738.026 147.255Z" fill="white"/>
<path d="M719.257 128.256C718.137 121.181 725.079 111.148 736.479 104.216C747.879 97.2844 759.981 95.7369 765.747 99.987C749.121 107.553 733.625 116.976 719.257 128.256Z" fill="black"/>
<path d="M746.307 126.038C745.606 124.884 746.702 122.936 748.757 121.686C750.812 120.436 753.047 120.359 753.749 121.513C754.451 122.667 753.354 124.616 751.299 125.865C749.244 127.115 747.009 127.193 746.307 126.038Z" fill="white"/>
<path d="M705.825 154.811C705.423 154.15 706.847 152.549 709.007 151.236C711.166 149.922 713.243 149.394 713.645 150.055C714.047 150.716 712.622 152.316 710.463 153.63C708.303 154.943 706.227 155.472 705.825 154.811Z" fill="white"/>
<path d="M790.1 103.562C789.697 102.901 791.122 101.3 793.282 99.9867C795.441 98.6734 797.518 98.1447 797.92 98.8058C798.322 99.467 796.897 101.068 794.738 102.381C792.578 103.694 790.502 104.223 790.1 103.562Z" fill="white"/>
<path d="M783.957 120.101C783.746 119.754 784.494 118.914 785.628 118.224C786.762 117.534 787.853 117.257 788.064 117.604C788.275 117.951 787.527 118.791 786.393 119.481C785.259 120.171 784.168 120.448 783.957 120.101Z" fill="white"/>
<path d="M726.411 155.096C726.2 154.749 726.948 153.908 728.082 153.219C729.216 152.529 730.307 152.251 730.518 152.598C730.729 152.946 729.981 153.786 728.847 154.476C727.713 155.165 726.622 155.443 726.411 155.096Z" fill="white"/>
<path d="M45.1707 802C48.7561 802 48.7561 802 52.3415 802C55.9268 802 55.9268 802 59.5122 802C63.0976 802 63.0976 802 66.6829 802C70.2683 802 70.2683 801.833 73.8537 801.833C77.439 801.833 77.439 801.917 81.0244 801.917C84.6098 801.917 84.6098 801.917 88.1951 801.917C91.7805 801.917 91.7805 802 95.3659 802C98.9512 802 98.9512 802 102.537 802C106.122 802 106.122 801.75 109.707 801.75C113.293 801.75 113.293 802 116.878 802C120.463 802 120.463 802 124.049 802C127.634 802 127.634 802 131.22 802C134.805 802 134.805 801.833 138.39 801.833C141.976 801.833 141.976 802 145.561 802C149.146 802 149.146 801.917 152.732 801.917C156.317 801.917 156.317 801.833 159.902 801.833C163.488 801.833 163.488 801.917 167.073 801.917C170.659 801.917 170.659 802 174.244 802C177.829 802 177.829 801.75 181.415 801.75C185 801.75 185 802 188.585 802C192.171 802 192.171 801.917 195.756 801.917C199.341 801.917 199.341 802 202.927 802C206.512 802 206.512 802 210.098 802C213.683 802 213.683 801.917 217.268 801.917C220.854 801.917 220.854 802 224.439 802C228.024 802 228.024 802 231.61 802C235.195 802 235.195 801.917 238.78 801.917C242.366 801.917 242.366 801.833 245.951 801.833C249.537 801.833 249.537 801.583 253.122 801.583C256.707 801.583 256.707 801.833 260.293 801.833C263.878 801.833 263.878 801.833 267.463 801.833C271.049 801.833 271.049 801.917 274.634 801.917C278.22 801.917 278.22 801.917 281.805 801.917C285.39 801.917 285.39 801.917 288.976 801.917C292.561 801.917 292.561 801.75 296.146 801.75C299.732 801.75 299.732 801.75 303.317 801.75C306.902 801.75 306.902 801.917 310.488 801.917C314.073 801.917 314.073 801.75 317.659 801.75C321.244 801.75 321.244 801.833 324.829 801.833C328.415 801.833 328.415 801.666 332 801.666C335.585 801.666 335.585 801.416 339.171 801.416C342.756 801.416 342.756 801.165 346.341 801.165C349.927 801.165 349.927 800.831 353.512 800.831C357.098 800.831 357.098 800.748 360.683 800.748C364.268 800.748 364.268 800.915 367.854 800.915C371.439 800.915 371.439 797.742 375.024 797.742C378.61 797.742 378.61 800.831 382.195 800.831C385.78 800.831 385.78 800.08 389.366 800.08C392.951 800.08 392.951 798.577 396.537 798.577C400.122 798.577 400.122 799.495 403.707 799.495C407.293 799.495 407.293 796.406 410.878 796.406C414.463 796.406 414.463 798.159 418.049 798.159C421.634 798.159 421.634 796.322 425.22 796.322C428.805 796.322 428.805 797.742 432.39 797.742C435.976 797.742 435.976 796.74 439.561 796.74C443.146 796.74 443.146 794.235 446.732 794.235C450.317 794.235 450.317 796.322 453.902 796.322C457.488 796.322 457.488 796.072 461.073 796.072C464.659 796.072 464.659 794.235 468.244 794.235C471.829 794.235 471.829 796.573 475.415 796.573C479 796.573 479 794.235 482.585 794.235C486.171 794.235 486.171 792.983 489.756 792.983C493.341 792.983 493.341 791.814 496.927 791.814C500.512 791.814 500.512 782.295 504.098 782.295C507.683 782.295 507.683 780.041 511.268 780.041C514.854 780.041 514.854 779.79 518.439 779.79C522.024 779.79 522.024 777.787 525.61 777.787C529.195 777.787 529.195 784.55 532.78 784.55C536.366 784.55 536.366 784.383 539.951 784.383C543.537 784.383 543.537 788.557 547.122 788.557C550.707 788.557 550.707 782.379 554.293 782.379C557.878 782.379 557.878 776.2 561.463 776.2C565.049 776.2 565.049 772.109 568.634 772.109C572.22 772.109 572.22 767.6 575.805 767.6C579.39 767.6 579.39 770.94 582.976 770.94C586.561 770.94 586.561 770.94 590.146 770.94C593.732 770.94 593.732 764.678 597.317 764.678C600.902 764.678 600.902 774.363 604.488 774.363C608.073 774.363 608.073 774.447 611.659 774.447C615.244 774.447 615.244 783.297 618.829 783.297C622.415 783.297 622.415 781.627 626 781.627C629.585 781.627 629.585 781.711 633.171 781.711C636.756 781.711 636.756 782.546 640.341 782.546C643.927 782.546 643.927 778.037 647.512 778.037C651.098 778.037 651.098 780.625 654.683 780.625C658.268 780.625 658.268 776.868 661.854 776.868C665.439 776.868 665.439 775.699 669.024 775.699C672.61 775.699 672.61 774.029 676.195 774.029C679.78 774.029 679.78 773.111 683.366 773.111C686.951 773.111 686.951 775.866 690.537 775.866C694.122 775.866 694.122 772.86 697.707 772.86C701.293 772.86 701.293 767.851 704.878 767.851C708.463 767.851 708.463 756.579 712.049 756.579C715.634 756.579 715.634 675.506 719.22 675.506C722.805 675.506 722.805 714.414 726.39 714.414C729.976 714.414 729.976 675.839 733.561 675.839C737.146 675.839 737.146 630.335 740.732 630.335C744.317 630.335 744.317 536.069 747.902 536.069C751.488 536.069 751.488 539.66 755.073 539.66C758.659 539.66 758.659 503.172 762.244 503.172C765.829 503.172 765.829 490.732 769.415 490.732C773 490.732 773 430.783 776.585 430.783C780.171 430.783 780.171 403.647 783.756 403.647C787.341 403.647 787.341 422.6 790.927 422.6C794.512 422.6 794.512 451.907 798.098 451.907C801.683 451.907 801.683 404.148 805.268 404.148C808.854 404.148 808.854 355.888 812.439 355.888C816.024 355.888 816.024 382.356 819.61 382.356C823.195 382.356 823.195 397.802 826.78 397.802C830.366 397.802 830.366 327.917 833.951 327.917C837.537 327.917 837.537 117.26 841.122 117.26C844.707 117.26 844.707 144.396 848.293 144.396C851.878 144.396 851.878 69 855.463 69C859.049 69 859.049 216.535 862.634 216.535C866.22 216.535 866.219 319.985 869.805 319.985C873.39 319.985 873.39 371.167 876.976 371.167C880.561 371.167 880.561 505.928 884.146 505.928C887.732 505.928 887.732 266.548 891.317 266.548C894.902 266.548 894.902 183.304 898.488 183.304C902.073 183.304 902.073 499.248 905.659 499.248C909.244 499.248 909.244 381.604 912.829 381.604C916.415 381.604 916.415 687.278 920 687.278V802C916.415 802 916.415 802 912.829 802C909.244 802 909.244 802 905.659 802C902.073 802 902.073 802 898.488 802C894.902 802 894.902 802 891.317 802C887.732 802 887.732 802 884.146 802C880.561 802 880.561 802 876.976 802C873.39 802 873.39 802 869.805 802C866.219 802 866.22 802 862.634 802C859.049 802 859.049 802 855.463 802C851.878 802 851.878 802 848.293 802C844.707 802 844.707 802 841.122 802C837.537 802 837.537 802 833.951 802C830.366 802 830.366 802 826.78 802C823.195 802 823.195 802 819.61 802C816.024 802 816.024 802 812.439 802C808.854 802 808.854 802 805.268 802C801.683 802 801.683 802 798.098 802C794.512 802 794.512 802 790.927 802C787.341 802 787.341 802 783.756 802C780.171 802 780.171 802 776.585 802C773 802 773 802 769.415 802C765.829 802 765.829 802 762.244 802C758.659 802 758.659 802 755.073 802C751.488 802 751.488 802 747.902 802C744.317 802 744.317 802 740.732 802C737.146 802 737.146 802 733.561 802C729.976 802 729.976 802 726.39 802C722.805 802 722.805 802 719.22 802C715.634 802 715.634 802 712.049 802C708.463 802 708.463 802 704.878 802C701.293 802 701.293 802 697.707 802C694.122 802 694.122 802 690.537 802C686.951 802 686.951 802 683.366 802C679.78 802 679.78 802 676.195 802C672.61 802 672.61 802 669.024 802C665.439 802 665.439 802 661.854 802C658.268 802 658.268 802 654.683 802C651.098 802 651.098 802 647.512 802C643.927 802 643.927 802 640.341 802C636.756 802 636.756 802 633.171 802C629.585 802 629.585 802 626 802C622.415 802 622.415 802 618.829 802C615.244 802 615.244 802 611.659 802C608.073 802 608.073 802 604.488 802C600.902 802 600.902 802 597.317 802C593.732 802 593.732 802 590.146 802C586.561 802 586.561 802 582.976 802C579.39 802 579.39 802 575.805 802C572.22 802 572.22 802 568.634 802C565.049 802 565.049 802 561.463 802C557.878 802 557.878 802 554.293 802C550.707 802 550.707 802 547.122 802C543.537 802 543.537 802 539.951 802C536.366 802 536.366 802 532.78 802C529.195 802 529.195 802 525.61 802C522.024 802 522.024 802 518.439 802C514.854 802 514.854 802 511.268 802C507.683 802 507.683 802 504.098 802C500.512 802 500.512 802 496.927 802C493.341 802 493.341 802 489.756 802C486.171 802 486.171 802 482.585 802C479 802 479 802 475.415 802C471.829 802 471.829 802 468.244 802C464.659 802 464.659 802 461.073 802C457.488 802 457.488 802 453.902 802C450.317 802 450.317 802 446.732 802C443.146 802 443.146 802 439.561 802C435.976 802 435.976 802 432.39 802C428.805 802 428.805 802 425.22 802C421.634 802 421.634 802 418.049 802C414.463 802 414.463 802 410.878 802C407.293 802 407.293 802 403.707 802C400.122 802 400.122 802 396.537 802C392.951 802 392.951 802 389.366 802C385.78 802 385.78 802 382.195 802C378.61 802 378.61 802 375.024 802C371.439 802 371.439 802 367.854 802C364.268 802 364.268 802 360.683 802C357.098 802 357.098 802 353.512 802C349.927 802 349.927 802 346.341 802C342.756 802 342.756 802 339.171 802C335.585 802 335.585 802 332 802C328.415 802 328.415 802 324.829 802C321.244 802 321.244 802 317.659 802C314.073 802 314.073 802 310.488 802C306.902 802 306.902 802 303.317 802C299.732 802 299.732 802 296.146 802C292.561 802 292.561 802 288.976 802C285.39 802 285.39 802 281.805 802C278.22 802 278.22 802 274.634 802C271.049 802 271.049 802 267.463 802C263.878 802 263.878 802 260.293 802C256.707 802 256.707 802 253.122 802C249.537 802 249.537 802 245.951 802C242.366 802 242.366 802 238.78 802C235.195 802 235.195 802 231.61 802C228.024 802 228.024 802 224.439 802C220.854 802 220.854 802 217.268 802C213.683 802 213.683 802 210.098 802C206.512 802 206.512 802 202.927 802C199.341 802 199.341 802 195.756 802C192.171 802 192.171 802 188.585 802C185 802 185 802 181.415 802C177.829 802 177.829 802 174.244 802C170.659 802 170.659 802 167.073 802C163.488 802 163.488 802 159.902 802C156.317 802 156.317 802 152.732 802C149.146 802 149.146 802 145.561 802C141.976 802 141.976 802 138.39 802C134.805 802 134.805 802 131.22 802C127.634 802 127.634 802 124.049 802C120.463 802 120.463 802 116.878 802C113.293 802 113.293 802 109.707 802C106.122 802 106.122 802 102.537 802C98.9512 802 98.9512 802 95.3659 802C91.7805 802 91.7805 802 88.1951 802C84.6098 802 84.6098 802 81.0244 802C77.439 802 77.439 802 73.8537 802C70.2683 802 70.2683 802 66.6829 802C63.0976 802 63.0976 802 59.5122 802C55.9268 802 55.9268 802 52.3415 802C48.7561 802 48.7561 802 45.1707 802Z" fill="#F1E7D0"/>
</svg>
